<svg width="390" height="318" viewBox="0 0 390 318" fill="none" xmlns="http://www.w3.org/2000/svg">
<path d="M169.007 118.04L168.95 179.283C168.95 179.283 167.026 131.43 167.353 127.843C167.68 124.255 166.372 125.577 163.918 126.143C161.464 126.71 161.791 124.066 161.464 118.401C161.137 112.736 165.39 104.993 166.535 94.9851C167.68 84.9768 158.469 83.5548 158.469 83.5548L158.473 83.551C161.971 82.8618 167.195 84.6085 168.626 92.5887C168.626 92.5887 169.423 98.4729 168.16 106.06C167.589 109.499 166.285 111.367 164.966 115.725C164.584 121.938 164.966 121.375 164.966 121.375L169.007 118.04Z" fill="#FDB55B"/>
<path d="M182.762 115.221L164.967 125.679C164.967 125.679 164.702 122.869 164.967 115.723C166.286 111.365 167.588 109.498 168.16 106.06C169.422 98.4712 168.626 92.5884 168.626 92.5884C167.192 84.6034 161.967 82.8628 158.469 83.5539C161.018 83.2523 167.207 85.4489 167.207 93.2359C167.207 102.038 166.573 105.696 166.573 105.696L162.763 115.22V130.609C162.763 130.609 167.207 133.177 167.207 152.961C167.207 170.182 167.207 173.846 167.207 173.846C167.207 173.846 166.286 184.474 178.387 184.474C189.178 184.474 206.637 184.474 206.637 184.474L182.762 115.221Z" fill="#EFC99C"/>
<path d="M218.868 161.023C218.868 161.023 214.829 184.595 191.491 197.846C189.551 198.949 186.356 200.601 183.529 201.211L175.449 219.872L174.98 220.957L174.975 220.969L139.001 200.212L139.103 199.976L147.837 179.808L143.4 140.138C143.14 136.134 144.511 130.796 146.098 126.032L149.165 114.718C149.371 113.842 149.646 112.991 149.991 112.173L155.342 97.9913V85.513C155.76 84.6066 156.954 83.8494 158.474 83.551C161.971 82.8618 167.195 84.6085 168.626 92.5887C168.626 92.5887 169.423 98.4729 168.16 106.06C167.589 109.499 166.285 111.367 164.966 115.725C164.584 121.938 164.966 121.375 164.966 121.375L169.007 118.04L173.033 114.715L218.868 161.023Z" fill="#FFC480"/>
<path d="M141.485 184.208L127.637 216.189L170.467 240.901L184.315 208.92L141.485 184.208Z" fill="#7096AB"/>
<path d="M133.769 195.546L73.6157 307.048H151.976L183.283 224.114L133.769 195.546Z" fill="url(#paint0_linear_859_423)"/>
<path d="M165.54 213.876L116.967 307.048H151.976L183.283 224.114L165.54 213.876Z" fill="#A39C9C"/>
<path d="M173.38 232.312C175.305 232.526 177.015 230.901 177.201 228.68C177.388 226.458 175.979 224.485 174.055 224.268C172.13 224.054 170.42 225.679 170.233 227.901C170.048 230.123 171.456 232.096 173.38 232.312Z" fill="white"/>
<path d="M168.146 244.965C170.07 245.179 171.78 243.554 171.966 241.332C172.153 239.111 170.744 237.137 168.821 236.92C166.896 236.707 165.185 238.331 164.998 240.553C164.813 242.775 166.221 244.748 168.146 244.965Z" fill="white"/>
<path d="M219.976 99.2412L215.971 100.281C211.433 101.23 209.383 105.199 210.091 109.721C210.796 114.237 213.995 117.593 218.533 116.644L219.976 116.273V99.2412Z" fill="#DAD2C8"/>
<path d="M219.976 115.569L215.999 116.503C211.458 117.452 209.408 121.424 210.116 125.943C210.824 130.458 214.023 133.814 218.56 132.869L219.976 132.535V115.569Z" fill="#DAD2C8"/>
<path d="M219.976 132.188L216.121 132.976C211.567 133.818 209.441 137.718 210.07 142.253C210.699 146.788 213.843 150.238 218.397 149.399L219.976 149.075V132.188Z" fill="#DAD2C8"/>
<path d="M219.976 148.302L215.993 149.332C211.455 150.281 209.405 154.253 210.113 158.772C210.821 163.291 214.017 166.644 218.558 165.698L219.976 165.331V148.302Z" fill="#DAD2C8"/>
<path d="M167.086 75.3217L167.607 75.3097L167.613 52.9281C167.616 50.9215 169.171 49.2409 171.062 49.2087L219.726 48.3258C221.617 48.2936 223.174 49.9146 223.171 51.9213L223.173 71.977L223.694 71.9651C223.899 71.9656 224.08 72.1371 224.074 72.3689L224.069 80.5417C224.065 80.7592 223.9 80.9536 223.682 80.9511L223.16 80.9631L223.158 83.5369L223.679 83.525C223.884 83.5255 224.064 83.697 224.058 83.9288L224.054 92.1016C224.05 92.3191 223.885 92.5135 223.666 92.511L223.145 92.523L223.121 158.853C223.119 160.859 221.563 162.54 219.672 162.572L171.009 163.455C169.117 163.487 167.56 161.866 167.563 159.859L167.582 88.6425L167.06 88.6544C166.855 88.6539 166.675 88.4824 166.681 88.2506L166.712 75.7331C166.702 75.5136 166.881 75.3212 167.086 75.3217Z" fill="black"/>
<path d="M171.065 51.6526L219.728 50.7697C220.346 50.757 220.88 51.3142 220.881 51.9688L220.847 158.888C220.848 159.543 220.313 160.12 219.696 160.132L171.033 161.015C170.416 161.028 169.881 160.471 169.88 159.816L169.917 52.8829C169.915 52.2283 170.437 51.6491 171.065 51.6526Z" fill="#E7F6F9"/>
<path d="M171.377 53.1807L182.893 52.9678C183.841 54.7337 185.885 54.4035 185.885 54.4035L195.413 54.2235L204.941 54.0436C204.941 54.0436 206.983 54.2949 207.926 52.4968L219.441 52.284L219.419 158.55L171.342 159.445L171.377 53.1807Z" fill="white"/>
<path d="M219.091 158.988L172.606 159.529C171.516 159.543 170.621 158.647 170.613 157.535L170.049 60.8793C170.042 59.7683 170.926 58.8514 172.017 58.8375L218.509 58.2972C219.6 58.2833 220.495 59.1797 220.502 60.2908L221.066 156.947C221.066 158.057 220.181 158.974 219.091 158.988Z" fill="#F7F7F6"/>
<path d="M197.617 103.383L192.16 97.5024L190.285 97.4682L190.319 103.823L185.693 103.881L185.712 107.467L192.196 107.391L197.617 103.383Z" fill="#E5E5E5"/>
<path d="M177.186 65.2649L180.586 69.4857C181.425 69.109 182.32 68.8384 183.252 68.7037L180.408 62.131L177.186 65.2649Z" fill="#D9EFA9"/>
<path d="M204.581 112.567L197.056 105.995L193.382 108.713L193.415 114.798L202.42 115.895L204.581 112.567Z" fill="#E5E5E5"/>
<path d="M208.594 69.9893L200.363 68.9147L201.961 75.3564L208.622 75.282L208.594 69.9893Z" fill="#E5E5E5"/>
<path d="M193.378 60.3728L194.766 58.5738L181.011 58.7335L181.161 60.5181L193.378 60.3728Z" fill="#E5E5E5"/>
<path d="M184.499 68.5983C184.532 68.5948 184.563 68.5994 184.596 68.5959C187.153 68.5654 189.498 69.508 191.28 71.0713L193.364 69.389L189.844 64.9468L192.454 61.5613L181.505 61.6855L184.499 68.5983Z" fill="#E5E5E5"/>
<path d="M197.3 68.5128L197.303 68.4888L192.511 72.3589C193.466 73.5578 194.149 74.9786 194.469 76.5346L201.133 75.4405L199.476 68.7944L197.3 68.5128Z" fill="#D9EFA9"/>
<path d="M209.089 82.4086L199.993 90.203L199.947 90.2453L202.566 93.774L208.991 91.617L212.979 87.6143L209.61 82.4023L209.089 82.4086Z" fill="#D5E8F2"/>
<path d="M206.007 61.4699L198.553 67.4855L209.274 68.8871L211.33 67.9436L206.007 61.4699Z" fill="#E5E5E5"/>
<path d="M213.436 88.3258L209.439 92.3433L203.081 94.4774L205.733 98.0517L212.24 99.2689L215.744 91.9073L213.436 88.3258Z" fill="#E5E5E5"/>
<path d="M208.091 107.158L205.093 100.048L198.032 105.272L205.231 111.56L208.091 107.158Z" fill="#E5E5E5"/>
<path d="M176.215 84.0672L172.813 88.2279L183.87 96.0031L183.831 88.6277C180.633 88.3861 177.854 86.6299 176.215 84.0672Z" fill="#E5E5E5"/>
<path d="M183.889 98.6991L174.435 103.373L175.851 110.417L183.944 108.068L183.889 98.6991Z" fill="#E5E5E5"/>
<path d="M184.703 86.294C188.934 86.2444 192.345 82.7702 192.32 78.5342C192.295 74.2982 188.845 70.9045 184.614 70.9541C180.382 71.0037 176.972 74.4779 176.997 78.7139C177.021 82.9498 180.472 86.3436 184.703 86.294Z" fill="#D9EFA9"/>
<path d="M183.998 117.944C184.575 117.938 185.145 117.93 185.722 117.924L184.558 109.251L183.957 109.254L183.956 108.928L175.938 111.255L175.707 118.061C178.466 118.018 181.231 117.985 183.998 117.944Z" fill="#E5E5E5"/>
<path d="M198.797 65.0159L206.966 58.4343L195.816 58.5622L194.151 60.7293L198.797 65.0159Z" fill="#E5E5E5"/>
<path d="M208.625 76.1076L202.057 76.1846L202.084 80.7219L208.652 80.6449L208.625 76.1076Z" fill="#D9EFA9"/>
<path d="M188.254 87.9774C187.423 88.3061 186.535 88.5208 185.61 88.6155L185.652 96.1874L191.875 96.319L188.254 87.9774Z" fill="#E5E5E5"/>
<path d="M201.257 80.7307L201.23 76.2625L194.606 77.3543C194.655 77.7368 194.679 78.1239 194.679 78.5155C194.684 79.308 194.598 80.0709 194.427 80.8133L201.257 80.7307Z" fill="#E5E5E5"/>
<path d="M184.688 83.8654C187.581 83.8315 189.912 81.4581 189.895 78.5642C189.878 75.6704 187.52 73.352 184.627 73.3859C181.735 73.4198 179.404 75.7932 179.42 78.687C179.437 81.5809 181.796 83.8993 184.688 83.8654Z" fill="#D5E8F2"/>
<path d="M194.267 82.5862L199.244 89.2956L207.252 82.4377L194.267 82.5862Z" fill="#E5E5E5"/>
<path d="M185.684 103.056L189.484 103.009L189.456 97.4472L185.658 97.3639L185.684 103.056Z" fill="#E5E5E5"/>
<path d="M203.987 98.673L198.675 91.5153L193.243 96.9334L198.576 102.674L203.987 98.673Z" fill="#E5E5E5"/>
<path d="M197.965 90.5556L193.097 83.9843C192.103 85.5465 190.687 86.8192 189.008 87.6377L192.599 95.9097L197.965 90.5556Z" fill="#E5E5E5"/>
<path d="M190.901 64.9445L194.015 68.8711L197.864 65.7707L193.423 61.6688L190.901 64.9445Z" fill="#E5E5E5"/>
<path d="M171.061 58.9203C171.086 58.9159 171.113 58.9036 171.138 58.8992C171.113 58.9036 171.086 58.9159 171.061 58.9203Z" fill="#E5E5E5"/>
<path d="M171.252 58.8727C171.277 58.8691 171.294 58.8642 171.318 58.8677C171.294 58.8642 171.269 58.8679 171.252 58.8727Z" fill="#E5E5E5"/>
<path d="M171.144 58.8988C171.169 58.8944 171.204 58.8833 171.23 58.8789C171.204 58.8833 171.17 58.8865 171.144 58.8988Z" fill="#E5E5E5"/>
<path d="M170.984 58.9496C171.002 58.944 171.029 58.9318 171.046 58.9262C171.019 58.9385 171.002 58.944 170.984 58.9496Z" fill="#E5E5E5"/>
<path d="M171.521 58.8477C171.488 58.8503 171.464 58.8469 171.431 58.8495C171.456 58.8457 171.489 58.8431 171.521 58.8477Z" fill="#E5E5E5"/>
<path d="M171.342 58.8532C171.36 58.8483 171.384 58.8518 171.409 58.8482C171.384 58.8518 171.359 58.8555 171.342 58.8532Z" fill="#E5E5E5"/>
<path d="M220.689 93.1279L216.817 92.3973L213.44 99.4915L220.733 100.855L220.689 93.1279Z" fill="#CCCCCC"/>
<path d="M191.663 117.843L191.612 109.168L185.384 109.239L186.548 117.912C188.255 117.889 189.955 117.865 191.663 117.843Z" fill="#D5E8F2"/>
<path d="M220.548 68.174L220.492 59.7515C220.489 58.943 219.816 58.2827 219.007 58.2883L209.82 58.3978L207.393 60.3568L213.409 67.6815L220.548 68.174Z" fill="#E5E5E5"/>
<path d="M210.427 80.6272L220.615 80.5073L220.584 75.2958L210.395 76.0277L210.427 80.6272Z" fill="#E5E5E5"/>
<path d="M220.553 69.3575L213.556 68.8774L210.37 70.3269L210.395 75.1948L220.584 74.4629L220.553 69.3575Z" fill="#D9EFA9"/>
<path d="M220.645 85.8981L220.623 82.2794L211.012 82.3929L214.111 87.1987L220.645 85.8981Z" fill="#E5E5E5"/>
<path d="M220.683 92.2856L220.651 86.7394L214.595 87.9459L216.944 91.5742L220.683 92.2856Z" fill="#D9EFA9"/>
<path d="M170.253 95.7588L170.303 103.446L173.587 101.823L170.253 95.7588Z" fill="#E5E5E5"/>
<path d="M183.273 97.0354L172.063 89.1564L170.226 91.4047L170.231 92.0339L175.181 101.033L183.273 97.0354Z" fill="#D9EFA9"/>
<path d="M174.874 118.062L175.114 110.972L173.668 103.752L170.307 105.413L170.384 118.124C171.883 118.103 173.383 118.083 174.874 118.062Z" fill="#D9EFA9"/>
<path d="M174.639 78.7475C174.631 77.6365 174.81 76.5686 175.138 75.5713L170.129 74.5703L170.211 88.6281L175.327 82.3482C174.896 81.2331 174.647 80.0219 174.639 78.7475Z" fill="#E5E5E5"/>
<path d="M179.025 70.3782L174.281 64.4941L170.107 70.4531L170.126 73.3695L175.578 74.459C176.345 72.8069 177.541 71.3963 179.025 70.3782Z" fill="#D5E8F2"/>
<path d="M170.284 59.5342C170.13 59.7651 170.042 60.0461 170.047 60.3407L170.097 69.0236L173.738 63.8201L170.284 59.5342Z" fill="#E5E5E5"/>
<path d="M170.89 58.9918C170.917 58.9798 170.935 58.9667 170.96 58.9624C170.943 58.9678 170.917 58.9798 170.89 58.9918Z" fill="#E5E5E5"/>
<path d="M170.733 59.0843C170.759 59.0721 170.778 59.0587 170.804 59.0464C170.779 59.0508 170.76 59.0642 170.733 59.0843Z" fill="#E5E5E5"/>
<path d="M180.003 60.8891L179.824 58.7494L172.009 58.8367L176.447 64.342L180.003 60.8891Z" fill="#E5E5E5"/>
<path d="M170.662 59.1319C170.681 59.1183 170.707 59.1058 170.726 59.0922C170.699 59.1047 170.681 59.1183 170.662 59.1319Z" fill="#E5E5E5"/>
<path d="M170.452 59.3135C170.509 59.2486 170.581 59.1939 170.645 59.138C170.581 59.1939 170.517 59.2497 170.452 59.3135Z" fill="#E5E5E5"/>
<path d="M170.804 59.0381C170.83 59.0257 170.857 59.0132 170.884 59.0008C170.858 59.0053 170.83 59.0257 170.804 59.0381Z" fill="#E5E5E5"/>
<path d="M171.318 58.8584C171.326 58.8596 171.335 58.8539 171.343 58.8551C171.334 58.8608 171.326 58.8596 171.318 58.8584Z" fill="#E5E5E5"/>
<path d="M171.398 58.8535C171.407 58.8547 171.416 58.849 171.424 58.8502C171.424 58.8502 171.416 58.849 171.398 58.8535Z" fill="#E5E5E5"/>
<path d="M171.227 58.8779C171.235 58.8791 171.244 58.8734 171.252 58.8746C171.244 58.8734 171.236 58.8723 171.227 58.8779Z" fill="#E5E5E5"/>
<path d="M171.043 58.9326C171.051 58.9338 171.06 58.9281 171.068 58.9293C171.06 58.9281 171.052 58.927 171.043 58.9326Z" fill="#E5E5E5"/>
<path d="M170.959 58.961C170.967 58.9621 170.976 58.9565 170.976 58.9565C170.976 58.9565 170.968 58.9553 170.959 58.961Z" fill="#E5E5E5"/>
<path d="M170.724 59.0906L170.732 59.085C170.732 59.085 170.725 59.084 170.724 59.0906Z" fill="#E5E5E5"/>
<path d="M210.395 76.0274L216.46 75.5894L216.969 80.5435L210.427 80.6269L210.395 76.0274Z" fill="#CCCCCC"/>
<path d="M210.681 64.3488L207.393 60.3562L209.82 58.3972L216.842 58.3177L216.551 63.2705L210.681 64.3488Z" fill="#CCCCCC"/>
<path d="M174.435 103.373L178.899 101.17L180.52 109.059L175.851 110.417L174.435 103.373Z" fill="#CCCCCC"/>
<path d="M189.851 64.9556L183.282 65.7779L181.511 61.6943L192.461 61.5701L189.851 64.9556Z" fill="#CCCCCC"/>
<path d="M193.611 133.778L199.068 139.659L200.942 139.701L200.909 133.338L205.533 133.288L205.515 129.703L199.022 129.777L193.611 133.778Z" fill="#E5E5E5"/>
<path d="M186.646 124.603L194.163 131.173L197.846 128.448L197.813 122.363L188.808 121.267L186.646 124.603Z" fill="#E5E5E5"/>
<path d="M182.139 154.753L191.234 146.966L191.28 146.924L188.662 143.387L182.229 145.543L178.249 149.547L181.61 154.758L182.139 154.753Z" fill="#D5E8F2"/>
<path d="M177.792 148.836L181.788 144.827L188.146 142.693L185.493 139.118L178.987 137.901L175.476 145.254L177.792 148.836Z" fill="#E5E5E5"/>
<path d="M183.137 130.004L186.135 137.113L193.195 131.889L185.989 125.601L183.137 130.004Z" fill="#E5E5E5"/>
<path d="M176.015 135.537L185.303 137.279L182.203 129.927L185.085 125.487L175.963 125.597L176.015 135.537Z" fill="#D9EFA9"/>
<path d="M215.011 153.102L218.407 148.932L207.35 141.157L207.389 148.533C210.587 148.774 213.374 150.532 215.011 153.102Z" fill="#E5E5E5"/>
<path d="M207.331 138.461L216.784 133.795L215.376 126.753L207.276 129.092L207.331 138.461Z" fill="#E5E5E5"/>
<path d="M207.23 119.218C206.652 119.224 206.083 119.232 205.506 119.238L206.67 127.911L207.271 127.908L207.272 128.234L215.29 125.908L215.521 119.102C212.754 119.143 209.996 119.177 207.23 119.218Z" fill="#E5E5E5"/>
<path d="M202.972 149.193C203.804 148.864 204.691 148.649 205.617 148.555L205.575 140.983L199.352 140.851L202.972 149.193Z" fill="#E5E5E5"/>
<path d="M196.952 154.583L191.983 147.875L183.974 154.733L196.952 154.583Z" fill="#E5E5E5"/>
<path d="M205.534 134.113L201.734 134.16L201.772 139.715L205.57 139.798L205.534 134.113Z" fill="#E5E5E5"/>
<path d="M187.241 138.49L192.552 145.655L197.977 140.228L192.652 134.489L187.241 138.49Z" fill="#E5E5E5"/>
<path d="M193.255 146.606L198.123 153.177C199.117 151.615 200.533 150.342 202.212 149.524L198.621 141.251L193.255 146.606Z" fill="#E5E5E5"/>
<path d="M170.531 144.033L174.401 144.771L177.788 137.67L170.487 136.306L170.531 144.033Z" fill="#CCCCCC"/>
<path d="M179.283 119.621C176.315 119.666 173.357 119.704 170.389 119.749L170.403 122.036L174.766 124.462L174.763 124.428L185.849 124.299L188.392 120.382L197.805 121.529L197.792 119.348C191.625 119.437 185.458 119.526 179.283 119.621Z" fill="#E5E5E5"/>
<path d="M170.575 151.263L170.595 154.889L180.215 154.777L177.108 149.97L170.575 151.263Z" fill="#E5E5E5"/>
<path d="M170.537 144.875L170.568 150.421L176.631 149.224L174.284 145.587L170.537 144.875Z" fill="#D9EFA9"/>
<path d="M170.483 134.502L174.831 135.317L174.78 125.418L170.41 122.983L170.483 134.502Z" fill="#E5E5E5"/>
<path d="M220.966 141.41L220.925 133.716L217.632 135.346L220.966 141.41Z" fill="#E5E5E5"/>
<path d="M207.946 140.133L219.164 148.013L220.993 145.764L220.988 145.135L216.047 136.129L207.946 140.133Z" fill="#D9EFA9"/>
<path d="M216.346 119.098L216.106 126.188L217.552 133.408L220.913 131.747L220.836 119.036C219.344 119.058 217.845 119.078 216.346 119.098Z" fill="#D9EFA9"/>
<path d="M215.893 154.813C216.332 155.929 216.581 157.14 216.581 158.413C216.584 158.618 216.579 158.813 216.566 159.015L219.596 158.98C220.406 158.966 221.065 158.286 221.064 157.461L221.008 148.541L215.893 154.813Z" fill="#D9EFA9"/>
<path d="M206.531 152.644C203.285 152.682 200.666 155.356 200.685 158.599C200.688 158.803 200.699 159.001 200.719 159.199L212.422 159.061C212.442 158.868 212.447 158.665 212.453 158.462C212.425 155.218 209.769 152.606 206.531 152.644Z" fill="#D5E8F2"/>
<path d="M196.8 156.356L189.97 156.439L189.984 159.33L196.566 159.252C196.554 159.055 196.543 158.857 196.548 158.654C196.542 157.862 196.63 157.091 196.8 156.356Z" fill="#E5E5E5"/>
<path d="M189.138 156.438L182.569 156.515L182.586 159.405L189.154 159.328L189.138 156.438Z" fill="#D9EFA9"/>
<path d="M216.784 133.795L212.328 135.999L210.708 128.102L215.376 126.752L216.784 133.795Z" fill="#CCCCCC"/>
<path d="M215.17 158.43C215.145 153.676 211.263 149.859 206.517 149.916C201.771 149.974 197.933 153.884 197.96 158.629C197.962 158.834 197.966 159.03 197.985 159.229L215.155 159.032C215.159 158.836 215.173 158.634 215.17 158.43Z" fill="#D9EFA9"/>
<path d="M172.101 159.538L180.814 159.434L180.8 156.543L170.611 156.662L170.619 158.051C170.62 158.875 171.292 159.544 172.101 159.538Z" fill="#E5E5E5"/>
<path d="M174.251 156.617L174.554 159.509L180.814 159.434L180.8 156.542L174.251 156.617Z" fill="#CCCCCC"/>
<path d="M193.428 117.812C195.473 117.781 197.509 117.757 199.547 117.725L199.556 119.326L199.607 128.001L205.835 127.929L204.735 119.755L204.586 118.624L202.395 116.732L200.751 116.536L199.548 116.386L193.422 115.64L193.428 117.812Z" fill="#E5E5E5"/>
<path d="M209.024 107.235L206.142 111.675L205.37 112.869L203.136 116.309L204.711 117.655C207.117 117.619 209.53 117.584 211.936 117.547C214.904 117.503 217.862 117.465 220.829 117.42L220.816 115.133L216.453 112.707L215.27 112.03L215.264 111.572L215.211 101.632L205.924 99.8909L209.024 107.235Z" fill="#D9EFA9"/>
<path d="M216.447 111.196L220.808 113.637L220.744 102.667L216.388 101.851L216.447 111.196Z" fill="#E5E5E5"/>
<path d="M184.954 78.2662C184.952 76.4772 183.587 75.0438 181.901 75.0765C180.214 75.1093 178.839 76.5832 178.841 78.3722C178.838 78.8663 178.937 79.3169 179.122 79.7364C179.725 81.1469 180.328 82.5575 180.931 83.968C181.094 84.3551 181.259 84.728 181.422 85.1151C181.513 85.3319 181.572 85.7767 181.855 85.8031C182.096 85.8379 182.197 85.518 182.28 85.3263C182.423 84.9979 182.551 84.6819 182.694 84.3535C183.066 83.4766 183.426 82.5977 183.796 81.735C184.089 81.0355 184.383 80.3218 184.676 79.6223C184.858 79.2123 184.953 78.746 184.954 78.2662ZM181.905 80.2546C180.891 80.2682 180.083 79.4243 180.075 78.3469C180.08 77.2714 180.889 76.3994 181.905 76.3715C182.919 76.358 183.727 77.2018 183.735 78.2793C183.73 79.3548 182.905 80.2391 181.905 80.2546Z" fill="#F82316"/>
<path d="M182.442 87.7053C182.304 87.7145 182.184 87.5954 182.163 87.4614L182.017 86.2915C182 86.1289 182.103 85.9838 182.256 85.9624C182.41 85.9409 182.545 86.0477 182.562 86.2102L182.708 87.3801C182.725 87.5427 182.622 87.6878 182.469 87.7092C182.469 87.7092 182.455 87.7073 182.442 87.7053Z" fill="#10B40A"/>
<path d="M184.227 101.853C184.089 101.862 183.969 101.743 183.947 101.609L183.645 99.2526C183.628 99.09 183.731 98.9449 183.884 98.9235C184.038 98.902 184.173 99.0088 184.19 99.1713L184.492 101.527C184.51 101.69 184.407 101.835 184.253 101.856C184.253 101.856 184.24 101.855 184.227 101.853ZM183.636 97.1423C183.497 97.1515 183.378 97.0324 183.356 96.8984L183.054 94.5423C183.036 94.3798 183.139 94.2347 183.293 94.2132C183.446 94.1918 183.581 94.2985 183.599 94.461L183.901 96.8171C183.919 96.9796 183.816 97.1247 183.662 97.1462C183.651 97.13 183.636 97.1423 183.636 97.1423ZM183.033 92.4159C182.895 92.4251 182.775 92.306 182.754 92.172L182.452 89.8159C182.434 89.6534 182.537 89.5083 182.69 89.4868C182.844 89.4653 182.979 89.5721 182.996 89.7346L183.299 92.0907C183.316 92.2532 183.213 92.3983 183.06 92.4198C183.06 92.4198 183.046 92.4178 183.033 92.4159Z" fill="#10B40A"/>
<path d="M185.773 105.347L184.663 105.362C184.525 105.371 184.406 105.252 184.384 105.118L184.238 103.948C184.221 103.785 184.324 103.64 184.477 103.619C184.631 103.597 184.766 103.704 184.783 103.866L184.899 104.77L185.763 104.75C185.915 104.742 186.046 104.878 186.036 105.036C186.052 105.213 185.935 105.356 185.773 105.347Z" fill="#10B40A"/>
<path d="M202.481 105.056L200.398 105.09C200.247 105.097 200.116 104.962 200.125 104.803C200.121 104.643 200.251 104.502 200.4 104.509L202.483 104.475C202.634 104.468 202.765 104.603 202.756 104.762C202.749 104.906 202.633 105.049 202.481 105.056ZM198.302 105.122L196.219 105.155C196.067 105.163 195.936 105.027 195.946 104.869C195.941 104.708 196.071 104.567 196.221 104.574L198.304 104.54C198.455 104.533 198.586 104.668 198.577 104.827C198.581 104.988 198.451 105.129 198.302 105.122ZM194.134 105.203L192.051 105.237C191.899 105.244 191.768 105.109 191.778 104.95C191.773 104.79 191.903 104.648 192.053 104.655L194.136 104.622C194.287 104.615 194.418 104.75 194.409 104.908C194.399 105.067 194.285 105.196 194.134 105.203ZM189.952 105.283L187.869 105.316C187.718 105.324 187.587 105.188 187.596 105.03C187.592 104.869 187.722 104.728 187.871 104.735L189.954 104.701C190.106 104.694 190.236 104.829 190.227 104.988C190.231 105.149 190.104 105.276 189.952 105.283Z" fill="#10B40A"/>
<path d="M205.683 106.173C205.532 106.18 205.414 106.047 205.41 105.886L205.402 104.998L204.566 105.008C204.415 105.015 204.284 104.88 204.293 104.721C204.289 104.561 204.419 104.42 204.568 104.427L205.678 104.412C205.829 104.405 205.946 104.538 205.951 104.699L205.971 105.88C205.964 106.024 205.848 106.168 205.683 106.173C205.696 106.175 205.696 106.175 205.683 106.173Z" fill="#10B40A"/>
<path d="M205.879 119.77C205.728 119.778 205.61 119.644 205.606 119.484L205.579 117.211C205.575 117.05 205.705 116.909 205.856 116.902C206.021 116.897 206.138 117.03 206.143 117.191L206.17 119.463C206.158 119.636 206.044 119.765 205.879 119.77C205.893 119.772 205.893 119.772 205.879 119.77ZM205.823 115.239C205.671 115.246 205.554 115.113 205.55 114.953L205.523 112.68C205.518 112.519 205.648 112.378 205.8 112.371C205.951 112.364 206.068 112.497 206.073 112.657L206.1 114.93C206.102 115.105 205.974 115.232 205.823 115.239ZM205.753 110.706C205.601 110.713 205.484 110.58 205.48 110.419L205.453 108.147C205.448 107.986 205.578 107.845 205.73 107.838C205.881 107.83 205.999 107.964 206.003 108.124L206.03 110.397C206.034 110.558 205.918 110.701 205.753 110.706Z" fill="#10B40A"/>
<path d="M205.944 128.305C205.894 128.37 205.805 128.413 205.706 128.406C205.549 128.395 205.422 128.257 205.424 128.099L205.457 125.858C205.458 125.7 205.588 125.581 205.745 125.592C205.903 125.603 206.03 125.741 206.028 125.899L205.995 128.141C205.994 128.2 205.974 128.258 205.944 128.305ZM206 123.831C205.95 123.897 205.861 123.94 205.762 123.933C205.605 123.921 205.478 123.784 205.48 123.625L205.513 121.384C205.514 121.226 205.644 121.107 205.801 121.118C205.959 121.13 206.086 121.267 206.084 121.425L206.051 123.667C206.051 123.726 206.03 123.784 206 123.831Z" fill="#10B40A"/>
<path d="M205.573 140.249C205.518 140.206 205.489 140.125 205.479 140.046L205.517 138.121C205.517 137.963 205.653 137.834 205.813 137.825C205.974 137.816 206.097 137.942 206.096 138.1L206.059 140.024C206.058 140.182 205.922 140.312 205.762 140.321C205.683 140.316 205.627 140.292 205.573 140.249ZM205.639 136.391C205.585 136.347 205.556 136.266 205.546 136.187L205.584 134.263C205.584 134.105 205.72 133.975 205.88 133.966C206.04 133.957 206.163 134.083 206.163 134.241L206.125 136.166C206.125 136.324 205.989 136.453 205.829 136.462C205.758 136.468 205.693 136.434 205.639 136.391ZM205.714 132.542C205.66 132.499 205.631 132.418 205.621 132.338L205.659 130.414C205.659 130.256 205.795 130.127 205.955 130.117C206.115 130.108 206.238 130.235 206.238 130.393L206.2 132.317C206.2 132.475 206.064 132.605 205.904 132.614C205.836 132.6 205.768 132.585 205.714 132.542Z" fill="#10B40A"/>
<path d="M219.417 52.3079L171.371 53.1865L171.369 63.2054L219.414 62.3268L219.417 52.3079Z" fill="url(#paint1_linear_859_423)"/>
<path d="M217.91 54.6514L214.524 54.715C214.428 54.7157 214.344 54.82 214.341 54.9359L214.336 55.2551L213.844 55.2567C213.748 55.2574 213.665 55.3617 213.662 55.4776L213.661 56.1465C213.658 56.2624 213.739 56.3614 213.848 56.3626L214.341 56.3611L214.336 56.6803C214.332 56.7962 214.414 56.8952 214.523 56.8964L217.909 56.8329C218.005 56.8322 218.088 56.7279 218.092 56.612L218.097 54.8676C218.1 54.7517 218.019 54.6526 217.91 54.6514Z" fill="#1A1A1A"/>
<path d="M217.733 54.9313L215.895 54.9713L215.892 56.5998L217.73 56.5598C217.812 56.5572 217.878 56.4794 217.877 56.392L217.875 55.0828C217.874 54.9953 217.815 54.9287 217.733 54.9313Z" fill="#F7F7F6"/>
<path d="M176.316 55.145L173.013 55.2059C172.903 55.2047 172.809 55.1037 172.798 54.9859L172.794 54.8253C172.797 54.7094 172.894 54.6071 173.005 54.5941L176.309 54.5331C176.418 54.5344 176.513 54.6353 176.523 54.7532L176.528 54.9137C176.522 55.0439 176.439 55.1482 176.316 55.145Z" fill="#1A1A1A"/>
<path d="M176.322 56.5278L173.018 56.5888C172.909 56.5875 172.814 56.4866 172.804 56.3687L172.8 56.2082C172.803 56.0923 172.9 55.9899 173.011 55.9769L176.315 55.916C176.424 55.9172 176.519 56.0181 176.529 56.136L176.533 56.2965C176.53 56.4125 176.433 56.5148 176.322 56.5278Z" fill="#1A1A1A"/>
<path d="M176.316 57.894L173.012 57.955C172.903 57.9537 172.808 57.8528 172.798 57.7349L172.794 57.5744C172.797 57.4585 172.894 57.3561 173.005 57.3431L176.309 57.2822C176.418 57.2834 176.513 57.3843 176.523 57.5022L176.527 57.6628C176.522 57.7929 176.439 57.8972 176.316 57.894Z" fill="#1A1A1A"/>
<path d="M211.655 57.6317C211.586 57.6363 211.512 57.582 211.482 57.5049C211.09 56.4303 210.227 56.5383 210.227 56.5383L210.214 56.5364C209.514 56.5517 209.098 57.5387 209.096 57.553C209.053 57.6631 208.938 57.7046 208.848 57.6626C208.76 57.6063 208.71 57.4826 208.766 57.3745C208.788 57.3194 209.289 56.1264 210.206 56.1136C210.611 56.0557 211.445 56.2488 211.834 57.3377C211.874 57.4451 211.826 57.5837 211.738 57.6291C211.697 57.6233 211.682 57.6356 211.655 57.6317Z" fill="#F7F7F6"/>
<path d="M212.109 56.476C212.04 56.4806 211.977 56.4424 211.948 56.3654C211.422 55.2714 210.202 55.3861 210.187 55.3984L210.173 55.3965C209.186 55.4139 208.615 56.4367 208.615 56.4367C208.558 56.5449 208.445 56.5721 208.359 56.5016C208.274 56.4311 208.252 56.297 208.307 56.2031C208.328 56.1481 208.99 54.9783 210.184 54.9471C210.308 54.936 211.677 54.8284 212.295 56.1392C212.347 56.2486 212.315 56.3749 212.225 56.4345C212.178 56.4714 212.149 56.4818 212.109 56.476Z" fill="#F7F7F6"/>
<path d="M208.077 55.4278C208.037 55.422 207.997 55.4162 207.961 55.3819C207.875 55.3114 207.867 55.1793 207.923 55.0711C207.958 55.018 208.742 53.8514 210.141 53.8208C210.279 53.8116 211.898 53.6818 212.655 54.9692C212.71 55.0644 212.689 55.2068 212.61 55.2826C212.517 55.3565 212.412 55.3268 212.344 55.2297C211.684 54.1164 210.173 54.2617 210.16 54.2598L210.146 54.2578C208.926 54.2851 208.227 55.3332 208.225 55.3474C208.177 55.3986 208.133 55.4213 208.077 55.4278Z" fill="#F7F7F6"/>
<path d="M181.397 55.5587C181.396 54.904 180.842 54.3877 180.158 54.3907C179.474 54.3937 178.917 54.9386 178.918 55.5932C178.92 55.768 178.964 55.9344 179.037 56.0904C179.277 56.605 179.531 57.1216 179.771 57.6362C179.833 57.776 179.908 57.9178 179.97 58.0576C180.013 58.1366 180.031 58.2991 180.138 58.3146C180.232 58.3281 180.277 58.2038 180.314 58.1364C180.373 58.014 180.429 57.9058 180.475 57.7815C180.631 57.455 180.772 57.1409 180.929 56.8145C181.048 56.5554 181.168 56.2963 181.287 56.0372C181.361 55.9025 181.399 55.7335 181.397 55.5587ZM180.158 56.2814C179.746 56.2946 179.41 55.9697 179.41 55.5916C179.41 55.2135 179.745 54.8837 180.157 54.8705C180.569 54.8573 180.905 55.1821 180.905 55.5603C180.903 55.9526 180.568 56.2824 180.158 56.2814Z" fill="#F7F7F6"/>
<path d="M189.497 57.4119L188.886 57.76L188.79 57.3825L189.552 56.9398L189.948 56.9389L189.952 60.6044L189.5 60.6118L189.497 57.4119Z" fill="#F7F7F6"/>
<path d="M193.444 56.8769L193.438 57.1961L191.941 60.5576L191.462 60.5611L192.96 57.2871L192.963 57.2728L191.276 57.3056L191.28 56.899L193.444 56.8769Z" fill="#F7F7F6"/>
<path d="M193.968 58.2618C193.97 58.0585 194.102 57.903 194.294 57.9016C194.485 57.9002 194.601 58.0478 194.612 58.253C194.61 58.4563 194.494 58.5995 194.287 58.6132C194.097 58.6004 193.968 58.4509 193.968 58.2618ZM193.968 60.2542C193.97 60.0509 194.101 59.8954 194.293 59.894C194.485 59.8926 194.6 60.0401 194.611 60.2454C194.609 60.4487 194.493 60.5919 194.286 60.6056C194.096 60.5928 193.968 60.4433 193.968 60.2542Z" fill="#F7F7F6"/>
<path d="M195.036 60.5242L195.039 60.2192L195.409 59.8363C196.291 58.9312 196.689 58.4505 196.7 57.8995C196.7 57.5213 196.529 57.1912 196.01 57.1889C195.693 57.2014 195.437 57.368 195.278 57.5196L195.123 57.1771C195.359 56.964 195.698 56.7948 196.096 56.7796C196.836 56.7701 197.156 57.2964 197.149 57.8189C197.148 58.4878 196.685 59.0462 195.959 59.8139L195.686 60.0945L195.684 60.1087L197.232 60.0851L197.228 60.4917L195.036 60.5242Z" fill="#F7F7F6"/>
<path d="M199.825 57.1877L198.51 57.2015L198.374 58.1417C198.459 58.1249 198.528 58.1203 198.652 58.1092C198.913 58.1032 199.179 58.1562 199.392 58.2888C199.657 58.4434 199.886 58.7527 199.887 59.2183C199.893 59.9318 199.349 60.4786 198.596 60.4862C198.213 60.489 197.9 60.3856 197.738 60.275L197.86 59.9C197.998 59.9925 198.284 60.0921 198.598 60.0938C199.037 60.0845 199.41 59.7748 199.413 59.2807C199.412 58.8152 199.105 58.4799 198.421 58.483C198.229 58.4844 198.076 58.5058 197.949 58.5312L198.175 56.775L199.833 56.7526L199.825 57.1877Z" fill="#F7F7F6"/>
<path d="M219.39 150.125L171.344 151.004L171.342 159.442L219.388 158.563L219.39 150.125Z" fill="url(#paint2_linear_859_423)"/>
<path d="M206.739 156.413L206.736 156.151L207.057 155.819C207.828 155.029 208.175 154.614 208.176 154.134C208.181 153.815 208.032 153.517 207.58 153.524C207.306 153.528 207.078 153.685 206.937 153.81L206.802 153.514C207.007 153.325 207.302 153.179 207.645 153.17C208.289 153.161 208.564 153.623 208.567 154.074C208.565 154.656 208.168 155.136 207.538 155.802L207.298 156.043L207.296 156.058L208.64 156.033L208.642 156.397L206.739 156.413Z" fill="#F7F7F6"/>
<path d="M210.217 153.062L210.614 153.061L210.617 154.646L210.631 154.648C210.718 154.516 210.804 154.397 210.874 154.291L211.821 153.032L212.316 153.016L211.194 154.439L212.4 156.315L211.921 156.318L210.894 154.716L210.596 155.08L210.593 156.33L210.196 156.331L210.217 153.062Z" fill="#F7F7F6"/>
<path d="M215.323 154.818C215.293 154.362 215.278 153.808 215.282 153.401L215.268 153.399C215.157 153.79 215.031 154.194 214.882 154.652L214.336 156.26L214.035 156.26L213.535 154.705C213.382 154.246 213.266 153.822 213.172 153.431L213.159 153.429C213.155 153.835 213.128 154.399 213.098 154.889L213.017 156.302L212.634 156.305L212.85 153.006L213.358 152.992L213.881 154.58C214.015 154.978 214.113 155.341 214.199 155.688L214.213 155.69C214.289 155.352 214.396 154.989 214.538 154.573L215.098 152.967L215.606 152.953L215.801 156.239L215.405 156.24L215.323 154.818Z" fill="#F7F7F6"/>
<path d="M216.302 155.991C216.3 155.817 216.414 155.688 216.579 155.682C216.744 155.677 216.848 155.809 216.85 155.983C216.852 156.158 216.751 156.289 216.573 156.292C216.424 156.285 216.304 156.166 216.302 155.991Z" fill="#F7F7F6"/>
<path d="M202.402 153.882L200.007 152.474L200.011 153.391L197.49 153.434C197.011 153.438 196.732 153.659 196.581 153.855C196.247 154.273 196.263 154.828 196.282 154.976L196.281 157.259L197.199 157.246L197.204 154.934L197.199 154.876C197.187 154.772 197.202 154.571 197.27 154.479C197.303 154.44 197.376 154.407 197.486 154.408L200.008 154.365L200.013 155.369L202.402 153.882Z" fill="#F7F7F6"/>
<path d="M209.393 135.562C209.392 133.773 208.027 132.34 206.34 132.372C204.654 132.405 203.279 133.879 203.28 135.668C203.277 136.162 203.376 136.613 203.562 137.032C204.165 138.443 204.768 139.853 205.37 141.264C205.533 141.651 205.698 142.024 205.861 142.411C205.953 142.628 206.012 143.073 206.295 143.099C206.536 143.134 206.637 142.814 206.719 142.622C206.862 142.294 206.99 141.978 207.133 141.649C207.506 140.772 207.865 139.894 208.236 139.031C208.528 138.331 208.823 137.618 209.115 136.918C209.298 136.508 209.392 136.042 209.393 135.562ZM206.344 137.551C205.331 137.564 204.523 136.72 204.514 135.643C204.519 134.567 205.329 133.695 206.345 133.667C207.358 133.654 208.166 134.498 208.175 135.575C208.17 136.651 207.345 137.535 206.344 137.551Z" fill="#F82316"/>
<path d="M232.001 104.168C230.826 99.7567 228.433 97.308 224.579 97.6262C224.146 97.6089 223.673 97.6379 223.118 97.7543L217.216 99.2751C213.334 100.089 211.58 103.486 212.185 107.351C212.22 107.58 212.28 107.783 212.327 107.999C212.347 108.184 212.343 108.362 212.372 108.549C213.08 113.068 216.276 116.421 220.817 115.475L227.716 113.69C232.254 112.744 232.711 108.687 232.001 104.168Z" fill="#FFC480"/>
<path d="M217.145 100.413L223.047 98.8891C223.564 98.7823 224.021 98.7386 224.432 98.7479C228.339 98.38 230.748 100.859 231.93 105.306C232.104 106.422 232.207 107.506 232.197 108.524C232.343 107.195 232.243 105.711 232.001 104.169C230.816 99.7221 228.41 97.2459 224.501 97.6105C224.089 97.6009 223.635 97.6449 223.118 97.755L217.216 99.2757C213.785 99.9923 212.024 102.73 212.076 106.023C212.408 103.254 214.12 101.045 217.145 100.413Z" fill="#FDB55B"/>
<path d="M234.736 119.888C233.449 115.048 230.718 112.531 226.178 113.48L218.28 115.331C213.739 116.28 211.689 120.252 212.4 124.771C213.105 129.29 216.304 132.643 220.842 131.697L228.742 129.843C233.28 128.897 235.447 124.403 234.736 119.888Z" fill="#FDB55B"/>
<path d="M230.473 119.397C229.403 115.375 228.843 112.845 225.064 113.634L217.074 115.535C213.298 116.324 211.594 119.63 212.182 123.388C212.77 127.146 215.43 129.937 219.206 129.148L227.199 127.244C230.972 126.455 231.064 123.156 230.473 119.397Z" fill="#FFC480"/>
<path d="M234.786 136.781C233.582 131.914 230.898 129.337 226.341 130.179L218.403 131.807C213.848 132.649 211.722 136.549 212.351 141.084C212.98 145.615 216.127 149.069 220.681 148.227L228.617 146.595C233.171 145.756 235.415 141.316 234.786 136.781Z" fill="#FDB55B"/>
<path d="M230.493 136.19C229.494 132.149 228.973 129.572 225.192 130.27L217.183 131.983C213.402 132.683 211.635 135.92 212.158 139.685C212.68 143.45 215.291 146.315 219.072 145.618L227.081 143.902C230.863 143.204 231.015 139.952 230.493 136.19Z" fill="#FFC480"/>
<path d="M232.023 153.223C230.738 148.387 228.007 145.87 223.466 146.819L218.277 148.164C213.736 149.113 211.687 153.085 212.394 157.604C213.102 162.12 216.301 165.476 220.839 164.527L226.028 163.178C230.566 162.233 232.733 157.742 232.023 153.223Z" fill="#FDB55B"/>
<path d="M228.307 152.654C227.231 148.61 226.66 146.071 222.864 146.866L217.099 148.353C213.304 149.148 211.591 152.466 212.182 156.243C212.773 160.017 215.446 162.824 219.238 162.032L223.295 160.976C227.09 160.184 228.9 156.428 228.307 152.654Z" fill="#FFC480"/>
<path d="M217.196 116.896L225.189 114.995C225.557 114.919 225.886 114.882 226.197 114.866L226.303 114.841C230.838 113.895 233.566 116.403 234.854 121.229C234.84 120.786 234.807 120.337 234.736 119.888C233.449 115.048 230.718 112.531 226.178 113.48L226.074 113.505C225.764 113.521 225.434 113.559 225.064 113.634L217.074 115.535C213.298 116.324 211.594 119.63 212.182 123.388C212.188 123.426 212.198 123.461 212.204 123.498C212.139 120.277 213.848 117.597 217.196 116.896Z" fill="#FBE3C8"/>
<path d="M217.306 133.344L225.314 131.631C225.791 131.543 226.216 131.509 226.597 131.521C231.037 130.761 233.675 133.287 234.878 138.032C234.867 137.618 234.843 137.199 234.786 136.781C233.596 131.964 230.947 129.393 226.474 130.16C226.093 130.148 225.668 130.182 225.192 130.27L217.183 131.983C213.402 132.684 211.635 135.92 212.158 139.685C212.174 139.795 212.195 139.902 212.215 140.012C212.128 136.703 213.878 133.978 217.306 133.344Z" fill="#FBE3C8"/>
<path d="M191.337 172.646C191.337 172.7 191.36 172.753 191.367 172.806C191.379 172.612 191.386 172.417 191.417 172.231C191.367 172.366 191.337 172.505 191.337 172.646Z" fill="#8E8E8E"/>
<path d="M199.796 172.646C199.796 172.505 199.767 172.367 199.716 172.231C199.748 172.417 199.754 172.612 199.767 172.806C199.773 172.753 199.796 172.7 199.796 172.646Z" fill="#8E8E8E"/>
<path d="M208.381 215.343C208.381 215.337 208.379 215.331 208.379 215.331L208.381 215.343Z" fill="#FBE3C8"/>
<path d="M271.605 263.765L231.121 278.303L225.315 258.013C224.628 255.62 223.746 253.386 221.898 252.044C220.528 251.049 209.488 242.462 203.765 238.567C196.471 229.185 191.622 222.999 191.622 222.999C191.185 222.261 190.809 221.475 190.5 220.658L186.711 211.359L179.228 203.98L178.616 203.377C178.612 203.36 178.605 203.345 178.6 203.328C177.619 200.199 183.648 193.446 191.704 196.422C191.704 196.422 198.422 198.041 202.151 209.92C203.752 211.745 206.523 214.91 209.075 217.377C209.131 217.43 209.187 217.485 209.242 217.538L205.635 204.777L190.316 149.089C188.788 144.931 190.959 139.911 194.58 138.533C198.699 136.966 201.954 139.911 203.481 144.07L215.727 186.85C215.727 186.85 215.819 187.186 216.038 187.589L213.451 178.549C211.923 174.387 214.093 169.373 217.714 167.993C221.722 166.463 224.919 169.221 226.493 173.207C226.076 169.527 228.109 165.704 231.194 164.528C235.313 162.955 238.569 165.903 240.097 170.061L243.958 183.551C244.015 183.54 244.072 183.529 244.13 183.519L241.42 174.049C239.955 170.065 242.196 165.825 245.664 164.501C249.608 163 252.566 165.259 254.03 169.241L257.454 181.21C258.967 186.416 260.243 190.873 261.318 194.717L262.568 199.081L262.527 199.096C267.124 215.995 267.032 218.979 266.784 225.539C266.684 228.262 265.712 230.987 265.369 233.23C264.796 236.977 264.565 239.167 265.599 242.778L271.605 263.765Z" fill="#FFC480"/>
<path d="M231.195 164.527C227.577 165.906 225.404 170.922 226.932 175.082L230.642 188.045C230.642 188.045 232.738 187.599 232.401 186.427C232.066 185.251 229.104 174.903 229.104 174.903C227.879 170.573 228.59 166.167 232.208 164.788C233.28 164.379 234.293 164.282 235.232 164.43C234.023 163.989 232.665 163.964 231.195 164.527Z" fill="#FDB55B"/>
<path d="M217.29 167.737C213.672 169.116 211.499 174.132 213.026 178.292L216.737 191.255C216.737 191.255 218.833 190.809 218.496 189.637C218.161 188.461 215.199 178.113 215.199 178.113C213.974 173.783 214.685 169.377 218.303 167.998C219.375 167.589 220.388 167.492 221.327 167.64C220.118 167.199 218.76 167.174 217.29 167.737Z" fill="#F7B25C"/>
<path d="M248.667 164.134C248.193 164.055 247.701 164.043 247.189 164.105C246.974 164.137 246.759 164.171 246.536 164.228C246.255 164.297 245.986 164.385 245.711 164.486C243.396 165.391 241.766 167.553 241.175 169.765C240.922 170.83 240.895 171.965 241.148 173.102L244.431 184.572C244.431 184.572 245.278 184.469 246.513 183.752L243.62 173.64C242.435 169.407 243.154 165.89 246.62 164.571C247.338 164.294 248.019 164.168 248.667 164.134Z" fill="#FDB55B"/>
<path d="M190.316 149.088L209.242 217.537C209.201 217.493 209.155 217.442 209.111 217.399L210.538 222.766C211.55 222.339 211.15 220.569 210.837 219.444L190.723 147.004C190.322 145.392 190.17 144.676 190.259 143.507C189.694 145.279 189.646 147.265 190.316 149.088Z" fill="#EFC99C"/>
<path d="M250.303 287.648L277.08 277.482L267.405 243.519L221.92 260.787L229.572 287.648H250.303Z" fill="#7096AB"/>
<path d="M291.028 307.992L275.939 255.143L223.354 275.107L230.99 308.747L291.028 307.992Z" fill="url(#paint3_linear_859_423)"/>
<path d="M291.028 307.992L275.939 255.143L257.095 262.298L266.98 308.181L291.028 307.992Z" fill="#A39C9C"/>
<path d="M273.909 269.014C275.406 267.603 275.629 265.058 274.407 263.329C273.184 261.601 270.979 261.343 269.482 262.754C267.985 264.168 267.761 266.714 268.984 268.442C270.206 270.171 272.411 270.425 273.909 269.014Z" fill="white"/>
<path d="M277.344 281.477C278.841 280.066 279.065 277.521 277.842 275.792C276.62 274.064 274.415 273.806 272.918 275.217C271.42 276.631 271.197 279.177 272.419 280.905C273.642 282.633 275.847 282.888 277.344 281.477Z" fill="white"/>
<path d="M210.541 222.827C210.541 222.827 202.852 212.441 201.216 210.552C199.927 209.064 198.599 196.579 186.82 197.145C184.463 197.259 179.295 198.467 179.228 203.979L178.6 203.328C177.619 200.199 183.648 193.446 191.704 196.422C191.704 196.422 198.422 198.04 202.151 209.92C203.752 211.744 206.523 214.909 209.075 217.377L210.541 222.827Z" fill="#EFC99C"/>
<defs>
<linearGradient id="paint0_linear_859_423" x1="73.6157" y1="251.297" x2="182.158" y2="251.297" gradientUnits="userSpaceOnUse">
<stop stop-color="#151813"/>
<stop offset="1" stop-color="#3A3A3A"/>
</linearGradient>
<linearGradient id="paint1_linear_859_423" x1="171.863" y1="58.187" x2="219.415" y2="58.1985" gradientUnits="userSpaceOnUse">
<stop stop-color="#31C2F1"/>
<stop offset="1" stop-color="#71D1F0"/>
</linearGradient>
<linearGradient id="paint2_linear_859_423" x1="171.836" y1="155.214" x2="219.389" y2="155.225" gradientUnits="userSpaceOnUse">
<stop stop-color="#31C2F1"/>
<stop offset="1" stop-color="#71D1F0"/>
</linearGradient>
<linearGradient id="paint3_linear_859_423" x1="223.354" y1="281.945" x2="290.334" y2="281.945" gradientUnits="userSpaceOnUse">
<stop stop-color="#151813"/>
<stop offset="1" stop-color="#3A3A3A"/>
</linearGradient>
</defs>
</svg>
