<svg width="16" height="15" viewBox="0 0 16 15" fill="none" xmlns="http://www.w3.org/2000/svg">
<path d="M14.8904 12.4325L14.8895 12.4316L10.5095 8.16573L10.5093 8.1655L9.51987 7.21448L14.8895 1.99778C15.0021 1.88832 15.094 1.76631 15.1518 1.63144C15.2087 1.49891 15.2432 1.35426 15.2432 1.20849C15.2432 1.05571 15.2209 0.90965 15.1511 0.773333C15.0949 0.642663 15.0154 0.509713 14.9113 0.408593L14.9114 0.408544L14.9094 0.406815C14.7978 0.309278 14.6729 0.220569 14.5348 0.164653C14.3961 0.108502 14.2364 0.0867187 14.09 0.0867187C13.9406 0.0867187 13.7925 0.120229 13.6466 0.174775L13.6466 0.174758L13.6453 0.175265C13.5072 0.231181 13.3817 0.320085 13.2797 0.419205L7.09747 6.42538C6.99386 6.52604 6.91386 6.64848 6.85698 6.78111L6.85696 6.7811L6.85644 6.78241C6.8002 6.92448 6.76555 7.06878 6.76555 7.21467C6.76555 7.36044 6.80014 7.50508 6.85698 7.63762C6.91386 7.77025 6.99386 7.89269 7.09747 7.99334L13.2797 13.9995L13.2797 13.9995L13.2807 14.0004C13.4984 14.2009 13.784 14.3002 14.0791 14.3002C14.3766 14.3002 14.662 14.178 14.8676 13.9783C15.0842 13.7679 15.1993 13.5008 15.1995 13.2112C15.2108 12.9209 15.0956 12.643 14.8904 12.4325Z"   stroke-width="0.1"/>
<path d="M1.37226 1.9542L1.37317 1.95512L5.75316 6.22099L5.7534 6.22122L6.74283 7.17224L1.37322 12.3889C1.26055 12.4984 1.16873 12.6204 1.11089 12.7553C1.05404 12.8878 1.01946 13.0325 1.01946 13.1782C1.01946 13.331 1.04182 13.4771 1.11157 13.6134C1.1678 13.7441 1.24729 13.877 1.35137 13.9781L1.35132 13.9782L1.3533 13.9799C1.46485 14.0774 1.58977 14.1661 1.7279 14.2221C1.86661 14.2782 2.02632 14.3 2.17265 14.3C2.32213 14.3 2.47016 14.2665 2.61613 14.2119L2.61614 14.212L2.61739 14.2115C2.75552 14.1555 2.88097 14.0666 2.983 13.9675L9.16523 7.96134C9.26883 7.86068 9.34883 7.73824 9.40571 7.60561L9.40573 7.60562L9.40625 7.60431C9.46249 7.46224 9.49714 7.31794 9.49714 7.17205C9.49714 7.02628 9.46256 6.88163 9.40571 6.7491C9.34883 6.61647 9.26883 6.49403 9.16523 6.39337L2.983 0.387196L2.98301 0.387184L2.98202 0.386269C2.76427 0.185856 2.47869 0.0865444 2.18357 0.0865443C1.8861 0.0865443 1.60066 0.208675 1.39506 0.408419C1.17849 0.618831 1.06341 0.885919 1.06315 1.17549C1.05194 1.4658 1.16706 1.74377 1.37226 1.9542Z"  stroke-width="0.1"/>
</svg>
