<svg width="27" height="22" viewBox="0 0 27 22" fill="none" xmlns="http://www.w3.org/2000/svg">
<path d="M21.2982 19.6317H1.72368C1.18511 19.6317 0.75 20.0668 0.75 20.6053V20.7884C0.75 21.327 1.18511 21.7621 1.72368 21.7621H21.2982C21.8367 21.7621 22.2718 21.327 22.2718 20.7884V20.6053C22.2745 20.0694 21.8367 19.6317 21.2982 19.6317Z" />
<path d="M12.3625 11.2293C14.2621 14.9437 18.8148 16.4161 22.5292 14.5165C26.2435 12.6169 27.716 8.0642 25.8163 4.34988C23.9167 0.635557 19.3667 -0.836907 15.6497 1.0627C11.9354 2.96231 10.4629 7.51501 12.3625 11.2293ZM16.6154 2.9517C19.2871 1.58536 22.561 2.64394 23.9273 5.3156C25.2937 7.98726 24.2351 11.2612 21.5634 12.6275C18.8918 13.9939 15.6205 12.9353 14.2542 10.2636C12.8879 7.59195 13.9464 4.31804 16.6154 2.9517Z" />
<path d="M1.72368 15.3018H12.7844C12.0601 14.6863 11.4287 13.97 10.9087 13.1714H1.72368C1.18511 13.1714 0.75 13.6065 0.75 14.1451V14.3281C0.75 14.8641 1.18511 15.3018 1.72368 15.3018Z"/>
<path d="M1.72368 8.90524H9.40172C9.36723 8.57095 9.34866 8.23136 9.34866 7.88646C9.34866 7.50972 9.36988 7.13828 9.41233 6.77481H1.72368C1.18511 6.77481 0.75 7.20992 0.75 7.74849V7.93156C0.75 8.47013 1.18511 8.90524 1.72368 8.90524Z" />
<path d="M1.72368 2.44232H11.0148C11.5587 1.63843 12.222 0.919447 12.9781 0.31189H1.72368C1.18511 0.31189 0.75 0.746996 0.75 1.28557V1.46864C0.75 2.00456 1.18511 2.44232 1.72368 2.44232Z" />
<path d="M26.6468 20.2923L24.5111 16.119C24.2749 15.66 23.7125 15.4769 23.2509 15.713L23.0333 15.8245C22.5743 16.0606 22.3913 16.6231 22.6274 17.0847L24.7631 21.258C24.9992 21.717 25.5617 21.9 26.0233 21.6639L26.2409 21.5525C26.6999 21.3164 26.8829 20.7513 26.6468 20.2923Z" />
</svg>
