<svg width="520" height="520" viewBox="0 0 520 520" fill="none" xmlns="http://www.w3.org/2000/svg">
<path d="M131.534 43.2799C87.9216 48.8543 52.3744 71.0635 28.574 107.703C7.16563 140.463 0.296428 180.789 8.65803 223.408C13.2392 246.61 27.378 278.975 43.212 302.672C77.662 354.053 134.623 404.337 209.799 449.546C219.658 455.422 234.889 463.986 243.755 468.567L259.886 476.929L271.138 471.256C302.905 455.323 341.635 431.028 373.204 407.228C431.35 363.413 470.881 319.301 493.584 273.198C513.302 232.971 519.272 194.433 511.508 157.196C507.624 138.076 500.854 121.946 490.199 105.914C469.191 74.1523 437.024 52.4423 399.688 44.9751C386.344 42.2867 359.362 42.5831 345.92 45.4743C326.404 49.7539 309.577 56.9247 293.446 67.9799C284.586 74.0535 270.546 86.9963 263.671 95.4619L259.99 99.9443L256.407 95.4619C249.439 86.8975 234.702 73.3567 225.737 67.3819C201.64 51.2515 178.438 43.8831 149.963 43.1863C141.788 42.9835 133.427 43.0823 131.534 43.2799ZM169.172 63.0971C205.218 69.9663 235.685 92.2743 254.608 125.731C257.296 130.411 259.688 134.296 259.984 134.296C260.281 134.296 262.673 130.411 265.361 125.731C286.27 88.6915 319.826 66.3835 361.551 61.5059C396.802 57.4239 432.744 70.2679 458.635 95.9611C499.164 136.188 507.827 195.234 482.134 255.18C465.208 294.71 433.144 334.438 386.74 373.475C356.174 399.256 310.768 429.728 273.13 449.743L259.886 456.815L246.74 449.743C168.672 407.821 100.568 352.16 63.2268 299.786C43.4096 271.903 30.5656 242.83 25.3864 214.448C22.9944 201.105 22.9944 176.01 25.2876 163.967C36.0412 108.904 78.1612 68.3751 131.534 61.7035C141.289 60.4087 158.714 61.1055 169.172 63.0971Z" />
<path d="M135.018 102.128C124.067 103.62 110.224 109.2 100.069 116.069C92.1025 121.545 80.8497 133.494 75.7745 142.158C73.4865 146.042 70.2989 152.911 68.7025 157.492C65.7177 166.353 63.3257 181.688 64.3189 186.17C66.0141 193.638 77.2617 195.53 80.7509 188.958C81.3489 187.86 82.2433 182.983 82.7425 178.105C84.4325 162.375 90.5113 149.729 101.759 138.278C112.315 127.722 126.651 121.15 142.288 119.756C151.351 118.96 152.942 118.264 155.033 114.28C156.926 110.495 156.229 107.11 152.942 103.823C150.852 101.733 149.656 101.431 144.279 101.535C140.795 101.634 136.713 101.93 135.018 102.128Z"  />
</svg>
