<svg width="464" height="464" viewBox="0 0 464 464" fill="none" xmlns="http://www.w3.org/2000/svg">
<path d="M448.459 200.895L273.064 18.2781C262.161 6.95013 247.576 0.719727 232 0.719727C216.377 0.719727 201.839 6.95013 190.936 18.2781L15.5408 200.895C-2.53679 219.728 -0.223987 236.012 2.74961 242.809C4.87361 247.623 12.0952 260.933 32.816 260.933H58.54V401.401C58.54 433.261 81.432 463.28 114 463.28H143.5H188.67V430.287V314.647C188.67 298.693 186.263 289.82 202.547 289.82H232H261.5C277.784 289.82 275.377 298.693 275.377 314.647V430.287V463.28H320.547H350C382.568 463.28 405.46 433.261 405.46 401.353V260.933H431.184C451.905 260.933 459.126 247.67 461.25 242.809C464.224 236.012 466.537 219.728 448.459 200.895ZM431.184 232H409.047H394.274H376.574V401.353C376.574 417.26 366.284 434.346 350.047 434.346H304.31V314.647C304.31 282.74 294.068 260.933 261.547 260.933H232H202.5C169.932 260.933 159.737 282.787 159.737 314.647V434.393H114C97.716 434.393 87.4736 417.307 87.4736 401.401V232H69.7264H55H32.8632C32.344 232 31.872 230.017 31.4472 229.97C32.4384 228.224 34.1848 223.787 37.0168 220.813L212.412 38.3853C217.651 32.9101 225.062 29.5589 232.236 29.6533C239.41 29.6061 246.349 32.9101 251.588 38.3853L426.983 220.813C429.862 223.787 431.562 228.224 432.6 229.97C432.128 230.017 431.656 232 431.184 232Z" />
</svg>
