<svg width="279" height="303" viewBox="0 0 279 303" fill="none" xmlns="http://www.w3.org/2000/svg">
<path d="M131.509 0.287057C113.924 2.95991 99.8461 9.9124 88.617 21.435C51.8429 59.2164 67.2311 122.129 117.428 138.942C147.015 148.864 180.816 137.279 198.34 111.258C217.708 82.6232 214.142 45.3176 189.784 20.9592C179.923 11.099 168.398 4.68104 154.972 1.65284C150.043 0.524993 135.548 -0.306223 131.509 0.287057ZM153.192 18.8796C172.202 24.0492 186.758 38.6618 191.984 57.8507C193.825 64.624 193.825 77.6916 191.984 84.5853C189.252 94.6835 183.962 103.478 176.478 110.486C165.311 120.942 151.823 125.933 136.676 125.101C123.012 124.388 112.021 119.577 101.923 109.892C80.0021 88.9206 80.0021 53.5154 101.923 32.5436C110.417 24.3458 119.27 19.89 131.803 17.5138C135.489 16.8618 148.853 17.6343 153.192 18.8796Z" />
<path d="M126.16 154.747C99.7255 156.768 86.9515 159.024 70.0801 164.611C60.7545 167.701 45.9596 175.126 38.5343 180.354C30.8124 185.879 20.1179 196.691 15.4242 203.64C8.94753 213.383 5.20554 221.76 2.53269 232.513C0.691051 239.762 -0.0227405 255.03 1.0464 263.166C3.24339 279.682 13.3446 293.167 28.1951 299.344C37.1654 303.086 32.1164 302.91 139.583 302.91C246.637 302.91 241.584 303.089 250.437 299.523C258.576 296.257 267.129 289.066 271.647 281.641C277.051 272.73 278.893 263.701 278.358 248.55C277.883 235.304 275.982 227.282 270.457 215.58C261.367 196.391 245.623 181.303 223.585 170.667C207.193 162.766 187.648 157.775 164.48 155.578C157.351 154.923 131.33 154.33 126.16 154.747ZM167.152 173.105C198.164 176.788 220.084 185.045 236.956 199.302C248.005 208.689 255.907 220.926 259.59 234.531C261.076 240.115 261.849 257.165 260.779 262.808C258.82 273.382 250.74 282.055 240.283 284.849C235.769 286.035 43.2898 286.035 38.7753 284.849C28.3187 282.055 20.2415 273.382 18.2793 262.808C17.2102 257.165 17.924 240.056 19.469 234.531C25.8251 211.362 43.7069 193.242 70.6178 182.668C84.5784 177.144 103.35 173.402 124.677 171.974C131.923 171.498 159.786 172.212 167.152 173.105Z" />
</svg>
