<svg width="21" height="20" viewBox="0 0 21 20" fill="none" xmlns="http://www.w3.org/2000/svg">
<path d="M8.17878 19.7817C7.56783 19.7817 6.9819 19.524 6.54989 19.0654C6.11788 18.6068 5.87518 17.9848 5.87518 17.3363C5.87518 16.6877 6.11788 16.0658 6.54989 15.6072C6.9819 15.1486 7.56783 14.8909 8.17878 14.8909C8.78974 14.8909 9.37567 15.1486 9.80768 15.6072C10.2397 16.0658 10.4824 16.6877 10.4824 17.3363C10.4824 17.9848 10.2397 18.6068 9.80768 19.0654C9.37567 19.524 8.78974 19.7817 8.17878 19.7817ZM16.2414 19.7817C15.6304 19.7817 15.0445 19.524 14.6125 19.0654C14.1805 18.6068 13.9378 17.9848 13.9378 17.3363C13.9378 16.6877 14.1805 16.0658 14.6125 15.6072C15.0445 15.1486 15.6304 14.8909 16.2414 14.8909C16.8524 14.8909 17.4383 15.1486 17.8703 15.6072C18.3023 16.0658 18.545 16.6877 18.545 17.3363C18.545 17.9848 18.3023 18.6068 17.8703 19.0654C17.4383 19.524 16.8524 19.7817 16.2414 19.7817ZM1.2242 2.56997C0.936666 2.56012 0.66401 2.43195 0.463893 2.21256C0.263775 1.99316 0.151886 1.69975 0.151886 1.39436C0.151886 1.08897 0.263775 0.795556 0.463893 0.576161C0.66401 0.356767 0.936666 0.228595 1.2242 0.21875L2.54992 0.21875C3.58885 0.21875 4.48726 0.984149 4.71301 2.06011L6.15622 8.95848C6.38197 10.0344 7.28038 10.7998 8.3193 10.7998H16.9716L18.6325 3.74497H7.86895C7.58412 3.73117 7.31527 3.60135 7.1183 3.3825C6.92134 3.16366 6.81142 2.87264 6.81142 2.56997C6.81142 2.2673 6.92134 1.97628 7.1183 1.75743C7.31527 1.53859 7.58412 1.40877 7.86895 1.39497H18.6325C18.9693 1.39486 19.3016 1.47625 19.6042 1.63295C19.9068 1.78964 20.1718 2.01751 20.379 2.29925C20.5862 2.58098 20.7302 2.90915 20.8 3.25882C20.8698 3.60849 20.8636 3.97045 20.7818 4.31718L19.1209 11.3696C19.0012 11.8785 18.7246 12.3302 18.3351 12.653C17.9457 12.9758 17.4657 13.1511 16.9716 13.1511H8.3193C7.31124 13.1512 6.33328 12.7864 5.54693 12.1168C4.76058 11.4472 4.21288 10.513 3.99429 9.46834L2.54992 2.56997H1.2242Z" />
</svg>
