<svg width="123" height="91" viewBox="0 0 123 91" fill="none" xmlns="http://www.w3.org/2000/svg">
<path fill-rule="evenodd" clip-rule="evenodd" d="M46.86 0.0496357H90.48L100.48 17.7496H120.9C121.43 17.7496 121.939 17.9603 122.314 18.3354C122.689 18.7105 122.9 19.2192 122.9 19.7496V88.7996C122.9 89.3301 122.689 89.8388 122.314 90.2138C121.939 90.5889 121.43 90.7996 120.9 90.7996H2C1.46957 90.7996 0.960859 90.5889 0.585786 90.2138C0.210714 89.8388 0 89.3301 0 88.7996V19.7296C0 19.1992 0.210714 18.6905 0.585786 18.3154C0.960859 17.9403 1.46957 17.7296 2 17.7296H11.21V11.3996H22.56V17.7496H34.92L42.63 2.52964C44.19 -0.570364 43.34 0.0496357 46.86 0.0496357ZM66.64 31.6996C70.5084 31.6972 74.2905 32.8425 77.5077 34.9905C80.725 37.1386 83.2326 40.1927 84.7133 43.7665C86.194 47.3403 86.5812 51.2731 85.8258 55.067C85.0705 58.8609 83.2066 62.3455 80.47 65.0796L80.24 65.2896C77.9403 67.518 75.1285 69.1473 72.0517 70.0344C68.9748 70.9216 65.7272 71.0393 62.5942 70.3773C59.4612 69.7154 56.5387 68.294 54.0837 66.2381C51.6287 64.1821 49.7162 61.5547 48.5145 58.5865C47.3128 55.6184 46.8585 52.4005 47.1916 49.2157C47.5248 46.0309 48.6351 42.9767 50.4251 40.3215C52.2151 37.6664 54.6298 35.4915 57.4572 33.9881C60.2845 32.4848 63.4378 31.6989 66.64 31.6996ZM75.4 42.4896C73.6734 40.77 71.4777 39.5982 69.088 39.121C66.6983 38.6439 64.2209 38.8826 61.9663 39.8072C59.7117 40.7319 57.7801 42.3014 56.4136 44.319C55.047 46.3367 54.3064 48.7127 54.2843 51.1495C54.2623 53.5862 54.9599 55.9753 56.2897 58.0173C57.6196 60.0593 59.5225 61.6635 61.76 62.6287C63.9975 63.594 66.4702 63.8775 68.8681 63.4436C71.266 63.0097 73.4826 61.8778 75.24 60.1896L75.4 59.9996C76.5514 58.8498 77.4648 57.4843 78.088 55.9812C78.7113 54.4781 79.032 52.8668 79.032 51.2396C79.032 49.6124 78.7113 48.0012 78.088 46.4981C77.4648 44.995 76.5514 43.6294 75.4 42.4796V42.4896ZM110.07 26.4896C111.237 26.4896 112.378 26.8357 113.348 27.484C114.318 28.1323 115.074 29.0537 115.521 30.1318C115.967 31.2099 116.084 32.3962 115.857 33.5407C115.629 34.6852 115.067 35.7364 114.242 36.5616C113.417 37.3867 112.366 37.9486 111.221 38.1763C110.077 38.4039 108.89 38.2871 107.812 37.8405C106.734 37.394 105.813 36.6377 105.164 35.6675C104.516 34.6972 104.17 33.5565 104.17 32.3896C104.17 30.8249 104.792 29.3242 105.898 28.2177C107.005 27.1112 108.505 26.4896 110.07 26.4896ZM66.65 21.7196C72.4905 21.7196 78.1998 23.4515 83.056 26.6963C87.9122 29.9411 91.6971 34.5531 93.9322 39.949C96.1672 45.3449 96.752 51.2824 95.6126 57.0107C94.4732 62.7389 91.6607 68.0007 87.5309 72.1305C83.401 76.2603 78.1393 79.0728 72.411 80.2122C66.6828 81.3516 60.7453 80.7669 55.3494 78.5318C49.9535 76.2967 45.3415 72.5118 42.0967 67.6556C38.8519 62.7994 37.12 57.0901 37.12 51.2496C37.12 43.4178 40.2312 35.9067 45.7691 30.3688C51.3071 24.8308 58.8182 21.7196 66.65 21.7196Z" fill="white"/>
</svg>
