<svg width="274" height="271" viewBox="0 0 274 271" fill="none" xmlns="http://www.w3.org/2000/svg">
<path d="M42.8257 40.9943C29.7889 43.8533 23.6135 53.8025 23.6135 72.2141C23.6135 83.9931 26.5868 92.1125 33.4483 99.0884C49.2298 115.099 73.9312 105.607 78.963 81.7059C80.6783 73.5865 79.8778 62.4937 77.2476 55.1748C75.6466 50.9435 70.7292 45.2256 67.0697 43.2815C60.78 40.1938 50.8308 39.1646 42.8257 40.9943Z" />
<path d="M213.677 40.9945C208.074 42.2525 204.757 44.0822 201.327 47.7417C197.781 51.6299 195.952 55.518 194.808 62.2652C191.034 83.4215 199.611 101.376 215.85 106.064C229.916 110.181 244.668 100.118 249.128 83.6502C251.415 75.302 250.158 59.6349 246.727 52.7734C241.352 42.4812 228.315 37.7925 213.677 40.9945Z" />
<path d="M127.68 49.1126C115.329 51.8572 106.752 60.434 103.321 73.4709C101.72 79.5319 100.92 91.3108 101.72 98.5153C104.122 123.674 123.448 141.628 144.719 138.198C161.873 135.453 175.253 119.443 177.54 99.0871C178.226 92.5687 177.426 79.1888 175.939 73.4709C172.508 60.2053 163.931 51.7428 151.237 48.9982C145.634 47.8546 133.169 47.8546 127.68 49.1126Z" />
<path d="M34.8208 109.611C9.09022 114.757 2 124.02 2 152.381V161.072L4.85896 163.702C11.7205 170.106 21.4409 173.651 36.5362 175.481C42.9403 176.282 60.8945 176.282 65.5832 175.595C68.4422 175.138 68.5565 175.024 69.4714 171.364C70.0432 169.306 71.7586 165.074 73.2452 161.987C77.7052 152.952 85.2529 146.32 96.2313 141.86L100.691 140.144L99.7764 135.456C96.9174 120.36 88.2262 113.384 67.9847 109.496C63.4104 108.696 63.0673 108.696 62.3812 109.954C61.0089 112.126 56.3202 113.842 51.6315 113.842C46.8285 113.842 43.6264 112.813 41.2249 110.297C39.6239 108.581 39.6239 108.581 34.8208 109.611Z" />
<path d="M204.414 109.723C186.231 113.497 178.569 119.1 174.681 131.451C172.623 138.198 172.737 138.427 177.997 140.142C196.18 146.203 205.443 155.695 210.018 173.192L210.818 176.051H221.225C234.147 176.051 245.24 174.678 253.588 171.934C260.793 169.532 264.681 167.474 268.912 163.586L272 160.841L271.543 148.948C271.085 136.368 270.285 131.68 267.311 125.847C262.966 117.385 255.418 112.925 239.98 109.723L233.919 108.465L232.318 110.18C230.03 112.582 226.943 113.725 222.14 113.725C217.451 113.725 212.877 112.01 211.39 109.837C210.361 108.579 210.246 108.579 204.414 109.723Z" />
<path d="M113.843 142.658C90.971 147.919 80.3357 155.581 75.8757 169.99C73.0167 179.253 70.8439 205.212 72.4449 210.244C74.1603 215.276 83.652 222.137 94.173 225.911C107.439 230.6 118.074 231.972 140.259 231.972C155.812 231.858 159.357 231.743 167.019 230.371C177.197 228.656 188.29 225.11 194.237 221.794C199.84 218.706 205.672 213.217 206.587 210.244C207.616 207.385 207.045 190.574 205.558 180.625C202.356 157.639 191.835 148.147 163.017 142.086L155.812 140.6L152.724 143.344C149.179 146.546 145.634 147.804 139.459 147.804C133.284 147.804 129.624 146.546 126.193 143.459C124.592 142.086 122.763 140.828 122.076 140.828C121.505 140.943 117.731 141.743 113.843 142.658Z"/>
</svg>
