<svg width="237" height="227" viewBox="0 0 237 227" fill="none" xmlns="http://www.w3.org/2000/svg">
<path d="M8.65376 0.757982C7.35376 1.25798 5.65376 2.45798 3.95376 4.15798C1.85376 6.25798 1.15376 7.35798 0.553765 9.45798C-1.34624 16.258 1.75376 23.158 8.15376 25.958C9.55376 26.558 11.9538 26.958 15.7538 27.258C21.3538 27.658 25.1538 28.458 28.0538 29.958C30.5538 31.258 33.7538 34.958 34.8538 37.858C35.3538 39.258 40.1538 62.258 45.5538 88.858C52.2538 122.358 55.6538 138.458 56.6538 141.158C62.2538 156.558 74.6538 167.158 91.8538 171.258C96.1538 172.258 96.3538 172.258 139.054 172.258H181.954L184.354 171.058C193.454 166.258 204.154 151.658 219.354 123.258C225.754 111.358 235.154 91.858 235.854 89.258C236.554 86.458 236.154 82.958 234.654 79.958C230.854 72.158 220.154 70.258 213.554 76.058C212.254 77.258 210.254 80.858 204.554 92.158C193.654 113.958 185.754 127.958 178.954 137.958C176.954 140.858 174.954 143.758 174.454 144.358L173.554 145.358H137.454C98.2538 145.358 97.3538 145.358 91.9538 142.758C88.3538 141.058 85.1538 137.958 83.5538 134.558C81.9538 131.358 80.9538 126.558 69.2538 68.058C65.4538 48.958 61.8538 31.958 61.1538 30.058C56.3538 15.858 45.6538 6.05798 30.8538 2.05798C22.6538 -0.0420182 12.6538 -0.642018 8.65376 0.757982Z" />
<path d="M131.754 9.6582C126.254 10.6582 121.954 12.5582 121.254 14.4582C120.654 16.0582 118.454 45.9582 118.454 52.9582V54.4582H108.054C96.7537 54.4582 95.1538 54.7582 93.7538 56.9582C92.3538 59.0582 92.7537 61.1582 95.0537 64.5582C101.054 73.3582 113.554 87.7582 126.054 100.458L133.854 108.358H136.154H138.454L146.554 100.158C158.754 87.7582 171.054 73.3582 176.954 64.5582C179.454 60.8582 179.754 59.3582 178.554 57.0582C177.354 54.6582 175.854 54.3582 164.354 54.3582H154.054L153.454 44.0582C152.854 32.0582 151.654 17.4582 151.154 15.1582C150.654 12.5582 147.154 10.7582 140.254 9.6582C137.154 9.1582 134.754 9.1582 131.754 9.6582Z" />
<path d="M89.7538 182.257C84.9538 183.357 78.9537 187.757 76.0537 192.357C73.5537 196.257 72.6538 199.857 72.8538 205.357C72.9538 210.057 73.0538 210.457 74.9538 214.157C78.9538 222.157 86.5538 226.957 95.3538 226.957C105.754 226.957 114.554 219.957 117.254 209.557C120.254 198.257 113.254 186.157 101.854 182.657C98.7538 181.657 92.9538 181.457 89.7538 182.257Z" />
<path d="M170.454 182.558C162.754 184.958 157.354 190.558 155.054 198.258C153.554 203.258 154.354 210.158 156.954 215.058C158.554 218.058 163.054 222.657 166.054 224.157C172.654 227.757 181.054 227.757 187.654 224.157C190.654 222.557 195.254 218.058 196.754 215.058C200.254 208.558 200.354 200.358 196.854 193.558C195.254 190.558 190.654 185.858 187.654 184.258C182.454 181.658 175.654 180.958 170.454 182.558Z" />
</svg>
