<svg width="237" height="237" viewBox="0 0 237 237" fill="none" xmlns="http://www.w3.org/2000/svg">
<path d="M112.491 0.178248C108.791 0.878248 104.491 2.07825 101.791 3.17825C91.791 7.27825 82.591 16.2782 78.591 26.2782C74.491 36.0782 74.191 45.9782 77.491 59.6782C77.991 61.6782 78.291 63.3783 78.291 63.3783C78.291 63.3783 61.991 58.7782 42.191 53.1782C22.391 47.4782 5.89099 42.8783 5.39099 42.8783C3.79099 42.8783 1.49099 44.2782 0.690994 45.7782C-0.00900602 47.1782 -0.109005 53.3782 0.0909946 129.378L0.190994 211.578L1.39099 212.778C2.49099 213.778 8.29099 215.578 40.991 224.978C62.191 230.978 79.891 235.978 80.491 235.978C82.091 235.978 84.191 234.778 84.991 233.178C85.591 232.078 85.691 228.978 85.691 213.378C85.691 203.278 85.791 194.978 85.991 194.978C86.391 194.978 118.391 214.478 118.291 214.678C118.291 214.778 114.091 216.078 109.091 217.578C104.091 219.078 99.491 220.578 98.891 221.078C94.691 223.878 96.691 230.578 101.891 230.578C102.591 230.578 115.091 227.078 129.491 222.778L155.691 214.878L192.891 225.478C213.291 231.278 230.491 236.078 230.991 236.078C232.591 236.078 234.591 234.778 235.391 233.278C235.991 232.078 236.091 222.378 236.091 150.178C236.091 70.0782 236.091 68.3782 235.191 66.9782C234.691 66.1782 233.991 65.2782 233.491 65.0782C232.991 64.8782 217.591 60.3782 199.191 55.0782C180.791 49.7782 164.691 45.1783 163.391 44.8783L160.991 44.1782L160.691 39.9782C159.491 21.6782 146.491 6.07825 128.591 1.37825C124.791 0.278248 115.391 -0.321752 112.491 0.178248ZM126.791 11.9782C137.491 14.8782 146.291 23.9782 149.191 34.9782C150.291 38.9782 150.191 46.7782 149.191 52.4782C147.391 62.0782 143.091 74.5782 136.291 90.4782C131.391 101.978 118.891 126.978 117.991 126.978C117.191 126.978 108.191 109.678 102.691 97.5782C89.991 69.7782 84.491 50.0782 86.091 38.7782C87.691 27.2782 94.991 17.6782 105.591 13.2782C112.291 10.3782 119.591 9.97825 126.791 11.9782ZM45.791 65.3783C64.591 70.7783 80.391 74.9782 80.891 74.9782C81.691 74.8782 82.091 75.4782 83.791 80.1782C88.491 92.8782 97.691 112.778 105.591 127.378C110.291 136.178 110.691 136.678 113.191 138.178C117.091 140.478 122.991 139.378 125.591 135.878C128.591 131.878 141.791 105.478 147.491 91.7783C148.791 88.5783 149.991 85.8783 150.091 85.8783C150.191 85.7783 150.291 94.6783 150.291 105.778V125.778L127.391 159.478C114.891 177.978 104.391 193.178 104.291 193.178C104.091 193.178 99.891 190.778 94.991 187.878L85.991 182.478L85.791 135.878C85.591 100.578 85.391 89.1783 84.991 88.3783C84.391 87.2783 81.791 85.8783 80.491 85.8783C79.191 85.8783 76.591 87.2783 75.991 88.3783C75.591 89.0783 75.391 99.8782 75.191 132.478L74.991 175.678L42.791 156.178L10.691 136.578V96.0782C10.691 63.8782 10.791 55.6783 11.291 55.7783C11.391 55.5783 27.091 60.0782 45.791 65.3783ZM179.391 60.6782C186.991 62.8782 191.691 64.3782 191.591 64.6782C191.391 65.2782 161.891 108.678 161.291 109.478C161.091 109.678 160.891 97.6782 160.891 82.6782V55.2783L163.991 56.1782C165.691 56.6782 172.691 58.6782 179.391 60.6782ZM213.891 70.4782C219.291 72.0782 224.191 73.3782 224.591 73.4782C225.291 73.6782 225.391 75.6782 225.391 106.478C225.391 124.478 225.191 139.178 224.991 139.178C224.191 139.178 177.691 104.978 177.791 104.478C178.191 103.078 202.991 67.2782 203.391 67.4782C203.691 67.5782 208.391 68.9782 213.891 70.4782ZM198.391 133.278L225.091 152.778L225.191 188.178C225.291 216.478 225.191 223.578 224.691 223.378C224.391 223.278 208.591 218.778 189.691 213.378L155.391 203.578L143.691 207.078L132.091 210.578L130.591 209.578C129.791 208.978 125.591 206.378 121.191 203.778L113.291 198.978L117.991 191.978C120.591 188.178 128.791 175.978 136.291 165.078L149.891 145.078L150.091 167.378C150.291 191.378 150.291 191.078 152.891 192.378C154.591 193.278 156.291 193.278 157.991 192.378C160.891 190.878 160.791 191.878 160.791 158.978V129.078L165.991 121.378C168.791 117.178 171.291 113.778 171.391 113.778C171.491 113.778 183.691 122.578 198.391 133.278ZM43.591 168.978L75.091 188.178V205.878C75.091 219.878 74.991 223.578 74.491 223.378C74.191 223.278 60.991 219.478 45.291 215.078C29.591 210.578 15.291 206.478 13.591 205.978L10.491 205.078V177.178C10.491 151.978 10.591 149.278 11.191 149.478C11.691 149.578 26.191 158.378 43.591 168.978Z" />
<path d="M111.391 22.4781C96.0913 27.3781 91.4913 47.0781 103.091 58.1781C111.591 66.2781 124.191 66.2781 132.691 58.1781C144.391 47.0781 139.691 27.2781 124.291 22.4781C120.691 21.2781 114.991 21.3781 111.391 22.4781ZM121.991 32.9781C125.891 34.5781 128.491 38.4781 128.491 42.8781C128.491 48.7781 123.791 53.4781 117.891 53.4781C108.591 53.4781 103.791 42.2781 110.191 35.5781C113.191 32.3781 118.191 31.2781 121.991 32.9781Z" />
</svg>
