<svg width="400" height="400" viewBox="0 0 400 400" fill="none" xmlns="http://www.w3.org/2000/svg">
<g clip-path="url(#clip0_1338_2519)">
<path d="M320.004 0H79.9959C35.8154 0 0 35.8154 0 79.9959V320.004C0 364.185 35.8154 400 79.9959 400H320.004C364.185 400 400 364.185 400 320.004V79.9959C400 35.8154 364.185 0 320.004 0Z" fill="#82D2F5"/>
<path d="M153.775 132.1C153.775 104.4 174.075 81.9003 199.075 82.0003C223.975 82.1003 244.175 104.6 244.175 132.3C244.175 160 223.875 182.5 198.875 182.4C173.875 182.4 153.775 160 153.775 132.3V132.1Z" fill="white"/>
<path d="M194.174 261L239.074 197.2C229.274 194.7 215.774 192.1 199.974 192.1C198.874 192.1 171.374 189.9 142.674 203C142.674 203 139.074 203.4 131.874 214.4C120.974 232.2 104.274 258 99.3745 266.6C95.9745 272.3 87.1745 283.6 92.8745 295.5C99.0745 307.4 104.474 316.4 106.474 317.9C112.874 317.9 125.274 317.9 133.374 317.9C132.874 297.6 151.874 264 194.174 261Z" fill="white"/>
<path d="M300.374 266.901C292.074 252.701 273.674 223.801 272.174 221.201C270.274 217.801 264.174 204.801 252.874 201.301C251.674 200.901 250.074 200.401 248.274 199.801L205.074 261.001C246.174 263.501 266.474 295.501 266.474 318.001H291.074C291.074 318.001 293.674 318.301 306.574 294.901C311.474 282.701 306.274 277.401 300.374 266.901Z" fill="white"/>
<path d="M199.775 276.101C171.375 276.101 148.375 294.501 148.375 318.001C184.575 318.001 208.075 318.001 251.075 318.001C251.075 294.501 228.075 276.101 199.775 276.101Z" fill="white"/>
</g>
<g opacity="0.15">
<path d="M303.769 174.251C307.156 174.89 310.381 176.196 313.258 178.094C316.134 179.991 318.604 182.443 320.524 185.304C323.717 190.057 325.225 195.743 324.806 201.454C324.347 207.092 322.05 212.423 318.266 216.627C314.482 220.832 309.421 223.676 303.863 224.724C317.266 228.307 324.806 236.824 324.806 251.019C324.646 256.968 322.405 262.671 318.471 267.137C314.538 271.602 309.162 274.545 303.281 275.453C306.825 276.002 310.213 277.295 313.221 279.249C316.23 281.202 318.79 283.771 320.733 286.785C322.744 289.742 324.088 293.101 324.671 296.629C325.253 300.157 325.061 303.77 324.107 307.216C322.95 311.681 320.607 315.751 317.328 318.994C314.048 322.237 309.952 324.534 305.475 325.641C300.997 326.749 296.303 326.625 291.89 325.285C287.476 323.944 283.507 321.436 280.402 318.025C277.297 314.614 275.171 310.428 274.249 305.908C273.327 301.389 273.644 296.704 275.165 292.349C276.687 287.995 279.356 284.133 282.892 281.171C286.428 278.209 290.699 276.257 295.253 275.522C281.756 272.032 273.937 263.631 273.821 249.344C273.972 243.401 276.186 237.696 280.084 233.208C283.982 228.72 289.32 225.729 295.183 224.747C288.98 223.718 283.368 220.454 279.407 215.571C275.446 210.689 273.409 204.524 273.681 198.243C274.008 192.41 276.292 186.857 280.164 182.483C284.036 178.109 289.27 175.167 295.02 174.135C291.633 173.553 288.398 172.295 285.507 170.436C282.617 168.577 280.13 166.155 278.196 163.314C275.197 159.012 273.634 153.874 273.728 148.631C273.81 142.626 275.983 136.837 279.874 132.263C283.765 127.688 289.129 124.614 295.043 123.569C291.477 122.972 288.079 121.627 285.07 119.621C282.062 117.616 279.513 114.996 277.591 111.934C275.646 108.933 274.373 105.548 273.859 102.009C273.345 98.4708 273.602 94.863 274.612 91.433C276.242 85.8428 279.729 80.9752 284.498 77.6338C289.267 74.2924 295.032 72.6768 300.843 73.0537C306.654 73.4306 312.162 75.7775 316.46 79.7069C320.757 83.6364 323.586 88.9136 324.48 94.6676C324.99 97.9241 324.841 101.25 324.041 104.448C323.242 107.645 321.808 110.65 319.826 113.284C315.944 118.683 310.092 122.336 303.537 123.453C317.615 127.455 325.155 136.367 324.48 151.377C324.392 155.068 323.376 158.677 321.525 161.871C319.645 165.083 317.088 167.847 314.032 169.969C310.929 172.064 307.441 173.52 303.769 174.251Z" fill="white"/>
<path d="M233.866 171.621C229.436 171.598 225.112 170.26 221.442 167.778C217.772 165.296 214.921 161.781 213.251 157.678C211.58 153.575 211.164 149.068 212.056 144.728C212.948 140.388 215.108 136.411 218.262 133.3C221.416 130.188 225.422 128.082 229.773 127.249C234.125 126.416 238.625 126.893 242.706 128.619C246.786 130.345 250.262 133.243 252.694 136.946C255.127 140.649 256.405 144.991 256.368 149.421C256.325 155.348 253.931 161.016 249.712 165.178C245.492 169.341 239.793 171.658 233.866 171.621Z" fill="white"/>
<path d="M233.843 222.233C229.423 222.201 225.112 220.86 221.454 218.379C217.796 215.898 214.956 212.389 213.291 208.295C211.626 204.2 211.212 199.704 212.1 195.375C212.989 191.045 215.141 187.076 218.284 183.969C221.427 180.861 225.421 178.755 229.76 177.916C234.1 177.076 238.591 177.542 242.666 179.253C246.741 180.965 250.217 183.846 252.656 187.532C255.095 191.218 256.387 195.544 256.369 199.964C256.356 202.906 255.764 205.818 254.624 208.531C253.485 211.244 251.821 213.705 249.728 215.774C247.636 217.843 245.155 219.478 242.429 220.587C239.704 221.695 236.786 222.255 233.843 222.233Z" fill="white"/>
<path d="M233.983 272.89C229.552 272.885 225.222 271.564 221.543 269.095C217.865 266.626 215.002 263.119 213.32 259.02C211.637 254.921 211.21 250.415 212.092 246.073C212.975 241.731 215.128 237.749 218.277 234.632C221.426 231.516 225.431 229.405 229.781 228.568C234.132 227.731 238.634 228.205 242.715 229.93C246.796 231.656 250.273 234.555 252.703 238.259C255.134 241.963 256.41 246.306 256.368 250.737C256.307 256.634 253.922 262.268 249.73 266.416C245.538 270.564 239.88 272.89 233.983 272.89Z" fill="white"/>
<path d="M233.866 323.574C229.442 323.546 225.125 322.207 221.462 319.724C217.799 317.242 214.954 313.729 213.289 309.63C211.623 305.53 211.211 301.029 212.105 296.695C212.999 292.362 215.158 288.39 218.31 285.285C221.461 282.179 225.463 280.077 229.81 279.247C234.156 278.417 238.651 278.894 242.725 280.619C246.8 282.344 250.271 285.24 252.7 288.938C255.128 292.637 256.405 296.973 256.368 301.398C256.307 307.317 253.906 312.971 249.69 317.126C245.474 321.281 239.786 323.599 233.866 323.574Z" fill="white"/>
<path d="M233.75 121.056C229.344 121.033 225.043 119.707 221.388 117.246C217.733 114.784 214.888 111.297 213.21 107.223C211.532 103.148 211.097 98.6686 211.959 94.3474C212.821 90.0261 214.942 86.0563 218.054 82.9373C221.167 79.8183 225.132 77.6895 229.452 76.8186C233.771 75.9477 238.252 76.3737 242.33 78.0429C246.408 79.7122 249.901 82.5501 252.37 86.1998C254.839 89.8494 256.173 94.1478 256.206 98.554C256.227 101.511 255.661 104.443 254.541 107.18C253.421 109.917 251.768 112.404 249.679 114.497C247.591 116.59 245.107 118.248 242.372 119.374C239.638 120.5 236.707 121.072 233.75 121.056Z" fill="white"/>
<path d="M195.284 149C195.284 152.676 194.196 156.27 192.157 159.328C190.117 162.387 187.218 164.773 183.824 166.186C180.431 167.599 176.695 167.975 173.088 167.268C169.48 166.561 166.163 164.802 163.554 162.212C160.945 159.623 159.161 156.319 158.427 152.717C157.693 149.115 158.042 145.376 159.43 141.973C160.817 138.569 163.182 135.652 166.225 133.589C169.268 131.527 172.853 130.412 176.529 130.384C178.985 130.366 181.421 130.834 183.696 131.761C185.97 132.688 188.039 134.057 189.783 135.787C191.526 137.518 192.91 139.576 193.854 141.844C194.798 144.112 195.285 146.544 195.284 149Z" fill="white"/>
<path d="M176.552 117.074C172.87 117.074 169.271 115.982 166.21 113.937C163.148 111.891 160.762 108.984 159.353 105.582C157.944 102.18 157.575 98.4372 158.294 94.826C159.012 91.2149 160.785 87.8978 163.389 85.2943C165.992 82.6908 169.309 80.9178 172.92 80.1995C176.531 79.4812 180.275 79.8499 183.676 81.2589C187.078 82.6679 189.985 85.0539 192.031 88.1153C194.076 91.1767 195.168 94.7759 195.168 98.4579C195.168 103.395 193.207 108.13 189.716 111.621C186.224 115.113 181.489 117.074 176.552 117.074Z" fill="white"/>
<path d="M176.622 319.594C172.95 319.548 169.374 318.417 166.344 316.344C163.313 314.271 160.963 311.348 159.59 307.942C158.216 304.537 157.881 300.801 158.625 297.206C159.37 293.61 161.161 290.315 163.773 287.734C166.386 285.154 169.703 283.404 173.308 282.704C176.912 282.005 180.643 282.387 184.031 283.802C187.42 285.218 190.313 287.604 192.349 290.66C194.384 293.716 195.47 297.306 195.471 300.978C195.471 303.442 194.982 305.882 194.032 308.156C193.082 310.43 191.69 312.493 189.936 314.224C188.183 315.956 186.103 317.322 183.818 318.244C181.532 319.166 179.086 319.625 176.622 319.594Z" fill="white"/>
<path d="M195.308 250.319C195.266 253.983 194.144 257.554 192.082 260.584C190.019 263.614 187.109 265.967 183.714 267.349C180.32 268.732 176.593 269.081 173.001 268.355C169.409 267.628 166.111 265.857 163.521 263.264C160.931 260.67 159.164 257.371 158.442 253.778C157.72 250.184 158.074 246.458 159.46 243.065C160.847 239.673 163.204 236.765 166.236 234.706C169.268 232.648 172.841 231.53 176.505 231.493C178.984 231.468 181.442 231.938 183.736 232.876C186.03 233.813 188.113 235.199 189.865 236.953C191.616 238.706 192.999 240.792 193.934 243.087C194.869 245.382 195.336 247.841 195.308 250.319Z" fill="white"/>
<path d="M176.715 180.927C180.387 180.973 183.963 182.104 186.993 184.177C190.024 186.25 192.374 189.174 193.747 192.579C195.121 195.984 195.456 199.72 194.712 203.316C193.968 206.911 192.176 210.207 189.564 212.787C186.951 215.367 183.634 217.117 180.029 217.817C176.425 218.516 172.694 218.134 169.306 216.719C165.918 215.303 163.024 212.917 160.988 209.861C158.953 206.805 157.867 203.215 157.866 199.543C157.866 197.079 158.355 194.639 159.305 192.365C160.255 190.091 161.647 188.029 163.401 186.297C165.154 184.565 167.234 183.199 169.52 182.277C171.805 181.355 174.251 180.896 176.715 180.927Z" fill="white"/>
<path d="M141.973 301.164C141.973 303.948 141.149 306.668 139.606 308.984C138.062 311.3 135.868 313.107 133.299 314.179C130.731 315.25 127.903 315.537 125.171 315.005C122.439 314.472 119.927 313.142 117.949 311.184C115.971 309.226 114.618 306.726 114.058 304C113.498 301.274 113.757 298.443 114.803 295.864C115.849 293.285 117.635 291.073 119.936 289.507C122.236 287.941 124.949 287.09 127.732 287.063C129.593 287.051 131.439 287.406 133.164 288.109C134.888 288.811 136.457 289.847 137.78 291.157C139.103 292.467 140.154 294.026 140.874 295.743C141.593 297.46 141.967 299.303 141.973 301.164Z" fill="white"/>
<path d="M113.793 250.295C113.843 247.545 114.705 244.871 116.269 242.609C117.834 240.347 120.031 238.597 122.587 237.58C125.142 236.562 127.941 236.322 130.632 236.889C133.323 237.456 135.787 238.806 137.714 240.768C139.641 242.731 140.946 245.219 141.464 247.92C141.983 250.621 141.692 253.415 140.628 255.951C139.564 258.488 137.775 260.653 135.484 262.177C133.194 263.7 130.505 264.512 127.755 264.513C125.9 264.513 124.063 264.144 122.352 263.426C120.641 262.709 119.09 261.657 117.791 260.333C116.491 259.01 115.468 257.44 114.781 255.717C114.095 253.993 113.759 252.15 113.793 250.295Z" fill="white"/>
<path d="M141.787 98.5743C141.787 101.336 140.968 104.035 139.433 106.331C137.899 108.627 135.719 110.417 133.168 111.474C130.616 112.53 127.809 112.807 125.101 112.268C122.392 111.729 119.904 110.4 117.952 108.447C115.999 106.494 114.669 104.007 114.131 101.298C113.592 98.5898 113.868 95.7825 114.925 93.2313C115.982 90.6801 117.772 88.4995 120.068 86.9653C122.364 85.4312 125.063 84.6123 127.824 84.6123C131.527 84.6123 135.079 86.0833 137.697 88.7017C140.316 91.3201 141.787 94.8714 141.787 98.5743Z" fill="white"/>
<path d="M127.755 163.244C125.898 163.244 124.059 162.874 122.347 162.155C120.634 161.436 119.082 160.382 117.782 159.056C116.482 157.73 115.459 156.157 114.774 154.431C114.089 152.705 113.756 150.859 113.793 149.002C113.793 145.272 115.275 141.694 117.913 139.056C120.551 136.418 124.129 134.936 127.86 134.936C131.59 134.936 135.168 136.418 137.806 139.056C140.444 141.694 141.926 145.272 141.926 149.002C141.964 150.877 141.624 152.74 140.926 154.48C140.228 156.221 139.187 157.802 137.864 159.132C136.541 160.461 134.965 161.51 133.228 162.216C131.491 162.923 129.63 163.272 127.755 163.244Z" fill="white"/>
<path d="M113.77 199.779C113.77 196.061 115.247 192.495 117.876 189.865C120.505 187.236 124.071 185.759 127.79 185.759C131.508 185.759 135.074 187.236 137.704 189.865C140.333 192.495 141.81 196.061 141.81 199.779C141.774 203.471 140.291 207.001 137.68 209.611C135.07 212.222 131.54 213.705 127.848 213.741C126.005 213.756 124.177 213.407 122.469 212.712C120.762 212.017 119.209 210.991 117.9 209.693C116.591 208.395 115.552 206.851 114.843 205.149C114.134 203.447 113.769 201.622 113.77 199.779Z" fill="white"/>
<path d="M75.0249 149.049C75.0465 146.142 76.2219 143.363 78.2927 141.323C80.3634 139.283 83.1597 138.149 86.0665 138.17C88.9734 138.192 91.7526 139.367 93.7927 141.438C95.8329 143.509 96.9669 146.305 96.9453 149.212C96.909 152.111 95.7394 154.882 93.6868 156.93C91.6341 158.978 88.8615 160.142 85.9618 160.172C84.5098 160.172 83.0722 159.883 81.733 159.322C80.3938 158.761 79.1797 157.939 78.1617 156.903C77.1436 155.868 76.3419 154.64 75.8034 153.292C75.2648 151.943 75.0002 150.501 75.0249 149.049Z" fill="white"/>
<path d="M86.0315 239.383C87.4845 239.379 88.9235 239.666 90.2641 240.226C91.6048 240.786 92.8201 241.609 93.8387 242.645C94.8574 243.681 95.659 244.91 96.1964 246.26C96.7338 247.609 96.9963 249.053 96.9684 250.506C96.8953 253.417 95.6808 256.183 93.587 258.207C91.4932 260.232 88.6877 261.352 85.7755 261.326C82.8969 261.259 80.1592 260.067 78.1494 258.005C76.1396 255.943 75.0179 253.176 75.0248 250.296C75.0185 248.854 75.2995 247.424 75.8516 246.091C76.4037 244.758 77.2157 243.548 78.2403 242.532C79.2648 241.516 80.4814 240.715 81.8191 240.174C83.1568 239.633 84.5888 239.364 86.0315 239.383Z" fill="white"/>
<path d="M96.9686 301.163C96.9656 302.598 96.6785 304.018 96.1237 305.342C95.5689 306.665 94.7576 307.866 93.7364 308.874C92.7153 309.882 91.5046 310.678 90.1742 311.216C88.8438 311.753 87.42 312.022 85.9851 312.007C83.8069 312.007 81.6779 311.359 79.8688 310.146C78.0597 308.933 76.6521 307.209 75.8251 305.194C74.998 303.179 74.7888 300.963 75.2241 298.829C75.6593 296.695 76.7193 294.738 78.2694 293.208C79.8195 291.677 81.7895 290.642 83.9292 290.234C86.0689 289.826 88.2816 290.064 90.286 290.917C92.2904 291.77 93.9959 293.199 95.1858 295.023C96.3757 296.848 96.9963 298.985 96.9686 301.163Z" fill="white"/>
<path d="M96.8056 98.6236C96.807 100.094 96.5106 101.549 95.9345 102.902C95.3583 104.254 94.5142 105.476 93.4532 106.494C92.3921 107.511 91.1359 108.303 89.7605 108.822C88.385 109.342 86.9187 109.577 85.4498 109.514C82.6042 109.328 79.9422 108.043 78.0269 105.931C76.1116 103.818 75.0931 101.043 75.1868 98.1929C75.2805 95.3428 76.4791 92.6408 78.529 90.6584C80.5789 88.676 83.3195 87.5685 86.1712 87.5703C89.0413 87.6435 91.767 88.8448 93.7576 90.9138C95.7482 92.9827 96.8433 95.7528 96.8056 98.6236Z" fill="white"/>
<path d="M75.0016 199.731C74.9766 198.288 75.2413 196.854 75.7801 195.515C76.3188 194.176 77.1207 192.958 78.1382 191.934C79.1557 190.91 80.3682 190.1 81.704 189.553C83.0398 189.006 84.4718 188.732 85.9153 188.748C88.0905 188.734 90.2209 189.366 92.0363 190.565C93.8516 191.763 95.2703 193.474 96.1123 195.479C96.9543 197.485 97.1818 199.696 96.7659 201.831C96.3501 203.966 95.3095 205.93 93.7763 207.473C92.243 209.016 90.2861 210.069 88.1537 210.498C86.0212 210.928 83.8092 210.714 81.7982 209.885C79.7871 209.056 78.0676 207.648 76.8576 205.84C75.6476 204.033 75.0017 201.906 75.0016 199.731Z" fill="white"/>
</g>
<defs>
<clipPath id="clip0_1338_2519">
<rect width="400" height="400" fill="white"/>
</clipPath>
</defs>
</svg>
