<svg width="237" height="237" viewBox="0 0 237 237" fill="none" xmlns="http://www.w3.org/2000/svg">
<path d="M18.9 0.637829C11.5 2.23783 5.4 7.13783 2 14.0378L0 18.0378V118.238V218.538L1.2 221.638C3.6 227.438 9.1 232.938 14.9 235.338L18 236.538H118H218L222.1 234.538C229.1 231.038 234 224.838 235.6 217.438C236 215.438 236.2 186.638 236.1 118.238C236.1 28.8378 236 21.6378 235.2 18.4378C232.8 9.33783 225.2 2.33783 215.9 0.637829C213.7 0.237829 183.8 0.0378293 117.5 0.137829C39.3 -0.162171 21.6 0.0378293 18.9 0.637829ZM69.5 17.7378C73.7 18.9378 76.4 22.5378 76.4 26.9378C76.4 31.3378 73.7 34.9378 69.4 36.2378C62.6 38.2378 55.7 31.2378 57.7 24.4378C58.5 21.7378 61.2 18.9378 63.8 17.9378C66.4 17.1378 67 17.0378 69.5 17.7378ZM173.3 18.6378C178.1 21.0378 180 27.1378 177.4 31.7378C172.5 40.3378 159.7 36.9378 159.6 27.0378C159.6 20.0378 167.1 15.4378 173.3 18.6378ZM220.2 132.538C220.2 200.238 220.1 214.338 219.5 215.738C218.6 217.938 216 220.138 213.5 220.838C211 221.538 25.2 221.538 22.2 220.838C19.6 220.238 17.7 218.838 16.3 216.538C15.2 214.738 15.2 213.738 15.1 132.838L15 51.0378H117.6H220.2V132.538Z" />
<path d="M110.623 95.5369C105.123 98.5369 100.223 101.537 99.6228 102.337C98.7228 103.637 98.7228 103.737 100.123 109.537C101.623 115.637 102.823 117.537 105.223 117.537C105.823 117.537 108.623 116.237 111.523 114.637C114.423 113.037 116.823 111.737 117.023 111.737C117.223 111.737 117.323 128.337 117.323 148.537C117.323 184.837 117.323 185.437 118.423 186.537C119.523 187.637 120.023 187.737 127.123 187.737C134.123 187.737 134.923 187.637 135.823 186.637C136.923 185.537 136.923 184.937 136.923 139.037C136.923 97.7369 136.823 92.3369 136.123 91.3369C135.423 90.2369 135.023 90.1369 128.123 90.2369L120.923 90.3369L110.623 95.5369Z" />
</svg>
