<svg width="237" height="237" viewBox="0 0 237 237" fill="none" xmlns="http://www.w3.org/2000/svg">
<path d="M18.9 0.637829C11.5 2.23783 5.4 7.13783 2 14.0378L0 18.0378V118.238V218.538L1.2 221.638C3.6 227.438 9.1 232.938 14.9 235.338L18 236.538H118H218L222.1 234.538C229.1 231.038 234 224.838 235.6 217.438C236 215.438 236.2 186.638 236.1 118.238C236.1 28.8378 236 21.6378 235.2 18.4378C232.8 9.33783 225.2 2.33783 215.9 0.637829C213.7 0.237829 183.8 0.0378293 117.5 0.137829C39.3 -0.162171 21.6 0.0378293 18.9 0.637829ZM69.5 17.7378C73.7 18.9378 76.4 22.5378 76.4 26.9378C76.4 31.3378 73.7 34.9378 69.4 36.2378C62.6 38.2378 55.7 31.2378 57.7 24.4378C58.5 21.7378 61.2 18.9378 63.8 17.9378C66.4 17.1378 67 17.0378 69.5 17.7378ZM173.3 18.6378C178.1 21.0378 180 27.1378 177.4 31.7378C172.5 40.3378 159.7 36.9378 159.6 27.0378C159.6 20.0378 167.1 15.4378 173.3 18.6378ZM220.2 132.538C220.2 200.238 220.1 214.338 219.5 215.738C218.6 217.938 216 220.138 213.5 220.838C211 221.538 25.2 221.538 22.2 220.838C19.6 220.238 17.7 218.838 16.3 216.538C15.2 214.738 15.2 213.738 15.1 132.838L15 51.0378H117.6H220.2V132.538Z" />
<path d="M75.2 89.2369C70.8 90.1369 66.9 91.5369 62.6 93.6369C58.5 95.7369 57.2 96.9369 57.2 98.8369C57.2 100.637 60.4 109.237 61.6 110.637C62.9 112.037 65.2 111.937 68.1 110.137C74 106.537 82 105.037 87.3 106.537C91.9 107.937 94.1 110.937 94.1 115.737C94.1 122.737 87.2 126.937 75.5 126.937C70.1 126.937 69.7 127.037 68.5 128.237C67.2 129.437 67.2 129.837 67.2 135.237C67.2 140.237 67.4 141.237 68.3 142.437C69.4 143.737 69.6 143.837 74.5 143.837C81.5 143.837 85.8 144.637 89.7 146.537C95 149.137 97.2 152.737 97.2 158.737C97.2 164.237 93.7 168.837 88 170.837C85 171.837 76.7 171.737 72.4 170.637C70.5 170.137 67.2 168.837 65 167.837C61.8 166.337 60.7 166.137 59.7 166.437C57.9 167.137 57.5 167.737 55.3 173.837C52.8 181.037 52.9 181.637 58.9 184.437C66.3 187.937 70.8 188.937 80.8 188.937C90.7 188.937 93.6 188.337 100.6 185.037C110.4 180.437 116.7 171.237 117.6 160.637C118.3 150.837 114 141.537 106.1 136.237L103.6 134.537L106.8 131.437C108.9 129.337 110.7 126.937 111.9 124.337C113.7 120.737 113.9 120.037 114 114.837C114.2 110.237 114 108.637 113.1 105.937C110.2 97.4369 104 91.9369 94.3 89.4369C89.6 88.2369 80.5 88.1369 75.2 89.2369Z" />
<path d="M141.9 95.5369C136.4 98.5369 131.5 101.537 130.9 102.337C130 103.637 130 103.737 131.4 109.537C132.9 115.637 134.1 117.537 136.5 117.537C137.1 117.537 139.9 116.237 142.8 114.637C145.7 113.037 148.1 111.737 148.3 111.737C148.5 111.737 148.6 128.337 148.6 148.537C148.6 184.837 148.6 185.437 149.7 186.537C150.8 187.637 151.3 187.737 158.4 187.737C165.4 187.737 166.2 187.637 167.1 186.637C168.2 185.537 168.2 184.937 168.2 139.037C168.2 97.7369 168.1 92.3369 167.4 91.3369C166.7 90.2369 166.3 90.1369 159.4 90.2369L152.2 90.3369L141.9 95.5369Z"/>
</svg>
