<svg width="200" height="171" viewBox="0 0 200 171" fill="none" xmlns="http://www.w3.org/2000/svg">
<path fill-rule="evenodd" clip-rule="evenodd" d="M48.5514 149.186V89.0788H75.5859C87.0443 91.1296 98.5026 97.347 109.961 104.557H130.957C140.462 105.127 145.443 114.762 136.198 121.094C128.841 126.497 119.124 126.188 109.163 125.293C102.295 124.951 102.002 134.18 109.163 134.212C111.654 134.408 114.355 133.822 116.715 133.822C129.134 133.805 139.372 131.429 145.638 121.615L148.779 114.274L180.013 98.7956C195.638 93.6523 206.755 109.993 195.231 121.37C172.607 137.826 149.414 151.367 125.684 162.305C108.447 172.786 91.2109 172.428 73.9909 162.305L48.5514 149.186ZM184.261 39.6159C185.091 41.0156 185.547 42.513 185.547 44.0592C185.547 52.2949 172.819 58.9518 157.129 58.9518C141.439 58.9518 128.711 52.2786 128.711 44.0592C128.711 42.513 129.167 41.0156 129.997 39.6159C133.61 45.6706 144.385 50.0651 157.113 50.0651C169.873 50.0651 180.648 45.6706 184.261 39.6159ZM119.857 61.8001C120.703 63.2161 121.143 64.6973 121.143 66.2435C121.143 74.4792 108.415 81.1361 92.7246 81.1361C77.0345 81.1361 64.3066 74.4629 64.3066 66.2435C64.3066 64.6973 64.7624 63.1999 65.5924 61.8001C69.2057 67.8548 79.9805 72.2493 92.7083 72.2493C105.469 72.2493 116.243 67.8548 119.857 61.8001ZM96.8587 40.0228L96.7936 36.3281C97.64 36.2956 98.3073 36.0352 98.8281 35.5632C99.3652 35.0911 99.6419 34.5215 99.707 33.8542C99.7721 33.0892 99.5117 32.4056 98.9421 31.8197C98.3724 31.2337 97.4447 30.8757 96.1914 30.778C95.0195 30.6803 94.1081 30.8594 93.4733 31.3477C92.8385 31.8197 92.4805 32.487 92.4154 33.3333C92.334 34.3913 92.7083 35.3678 93.571 36.2956L92.8874 39.2415L83.0729 36.4909L83.9193 26.7904L87.3535 27.0833L86.7513 34.0169L89.9577 34.8796C89.6159 34.0169 89.4857 33.1706 89.5671 32.3079C89.6973 30.6803 90.4297 29.3457 91.6992 28.3203C92.985 27.2949 94.5638 26.8555 96.4681 27.0345C98.0469 27.1647 99.4141 27.7507 100.57 28.776C102.148 30.1595 102.848 31.9661 102.653 34.1797C102.49 35.9375 101.904 37.3535 100.863 38.3789C99.821 39.388 98.4863 39.9414 96.8587 40.0228ZM92.7246 25.2116C105.615 25.2116 116.081 29.3132 116.081 34.375C116.081 39.4368 105.615 43.5384 92.7246 43.5384C79.834 43.5384 69.3685 39.4531 69.3685 34.3913C69.3685 29.3294 79.834 25.2116 92.7246 25.2116ZM92.7246 22.1842C108.415 22.1842 121.143 28.8574 121.143 37.0768C121.143 45.3125 108.415 51.9694 92.7246 51.9694C77.0345 51.9531 64.3066 45.2962 64.3066 37.0768C64.3229 28.8574 77.0508 22.1842 92.7246 22.1842ZM119.954 47.0052C120.719 48.3561 121.143 49.8047 121.143 51.2858C121.143 59.5215 108.415 66.1784 92.7246 66.1784C77.0345 66.1784 64.3066 59.5052 64.3066 51.2858C64.3066 49.7884 64.7135 48.3724 65.4948 47.0215C69.0104 53.1575 79.8665 57.6335 92.7083 57.6335C105.583 57.6335 116.439 53.1575 119.954 47.0052ZM167.399 8.83789L167.074 12.5326L153.125 11.3118C154.281 12.7767 155.062 14.4531 155.518 16.3249L152.165 16.0319C151.937 15.0391 151.416 13.9323 150.651 12.7441C149.87 11.5234 148.91 10.6771 147.754 10.1562L148.014 7.16146L167.399 8.83789ZM157.129 3.04362C170.02 3.04362 180.485 7.14518 180.485 12.207C180.485 17.2689 170.02 21.3704 157.129 21.3704C144.238 21.3704 133.789 17.2526 133.789 12.1908C133.789 7.12891 144.238 3.04362 157.129 3.04362ZM157.129 0C172.819 0 185.547 6.67318 185.547 14.8926C185.547 23.112 172.819 29.7852 157.129 29.7852C141.439 29.7852 128.711 23.112 128.711 14.8926C128.711 6.67318 141.455 0 157.129 0ZM184.359 24.821C185.124 26.1719 185.547 27.6204 185.547 29.0853C185.547 37.321 172.819 43.9779 157.129 43.9779C141.439 43.9779 128.711 37.3047 128.711 29.0853C128.711 27.5879 129.118 26.1719 129.899 24.821C133.398 30.957 144.255 35.4329 157.113 35.4329C169.987 35.4492 180.859 30.9733 184.359 24.821ZM184.082 69.9707C185.026 71.4681 185.547 73.0469 185.547 74.707C185.547 82.9427 172.819 89.5996 157.129 89.5996C141.439 89.5996 128.711 82.9264 128.711 74.707C128.711 73.0469 129.232 71.4681 130.176 69.9707C133.952 75.8626 144.596 80.127 157.113 80.127C169.629 80.127 180.306 75.8789 184.082 69.9707ZM184.212 54.6387C185.075 56.071 185.547 57.5846 185.547 59.1634C185.547 67.3828 172.819 74.056 157.129 74.056C141.439 74.056 128.711 67.3828 128.711 59.1634C128.711 57.5846 129.183 56.071 130.046 54.6387C133.691 60.6608 144.434 65.0065 157.129 65.0065C169.824 65.0065 180.55 60.6608 184.212 54.6387ZM0 83.3008H40.4134V155.208H0V83.3008Z" />
</svg>
