<svg width="202" height="171" viewBox="0 0 202 171" fill="none" xmlns="http://www.w3.org/2000/svg">
    <path fill-rule="evenodd" clip-rule="evenodd"
        d="M50.5514 150.186V90.0788H77.5859C89.0443 92.1296 100.503 98.347 111.961 105.557H132.957C142.462 106.127 147.443 115.762 138.198 122.094C130.841 127.497 121.124 127.188 111.163 126.293C104.295 125.951 104.002 135.18 111.163 135.212C113.654 135.408 116.355 134.822 118.715 134.822C131.134 134.805 141.372 132.429 147.638 122.615L150.779 115.274L182.013 99.7956C197.638 94.6523 208.755 110.993 197.231 122.37C174.607 138.826 151.414 152.367 127.684 163.305C110.447 173.786 93.2109 173.428 75.9909 163.305L50.5514 150.186ZM139.399 56.8379L139.074 60.5326L125.125 59.3118C126.281 60.7767 127.062 62.4531 127.518 64.3249L124.165 64.0319C123.937 63.0391 123.416 61.9323 122.651 60.7441C121.87 59.5234 120.91 58.6771 119.754 58.1562L120.014 55.1615L139.399 56.8379ZM129.129 51.0436C142.02 51.0436 152.485 55.1452 152.485 60.207C152.485 65.2689 142.02 69.3704 129.129 69.3704C116.238 69.3704 105.789 65.2526 105.789 60.1908C105.789 55.1289 116.238 51.0436 129.129 51.0436ZM129.129 48C144.819 48 157.547 54.6732 157.547 62.8926C157.547 71.112 144.819 77.7852 129.129 77.7852C113.439 77.7852 100.711 71.112 100.711 62.8926C100.711 54.6732 113.455 48 129.129 48ZM156.082 70.9707C157.026 72.4681 157.547 74.0469 157.547 75.707C157.547 83.9427 144.819 90.5996 129.129 90.5996C113.439 90.5996 100.711 83.9264 100.711 75.707C100.711 74.0469 101.232 72.4681 102.176 70.9707C105.952 76.8626 116.596 81.127 129.113 81.127C141.629 81.127 152.306 76.8789 156.082 70.9707ZM2 84.3008H42.4134V156.208H2V84.3008Z" />
</svg>