<svg width="980" height="981" viewBox="0 0 980 981" fill="none" xmlns="http://www.w3.org/2000/svg">
<path d="M785.22 0.975156C743.26 8.06516 699.01 45.4252 656.29 109.795C613.19 175.125 606.86 224.745 635.98 269.765C640.19 276.275 655.14 293.515 669.31 308.085C698.62 338.355 699.77 340.845 694.41 360.385C682.15 404.635 631.77 469.395 539.81 560.005C483.49 615.375 449.96 643.725 411.07 669.205C380.42 689.125 351.68 699.665 339.8 695.065C336.73 693.915 324.66 683.765 313.17 672.455C277.54 637.975 258.38 625.325 232.32 619.195C191.13 609.615 139.02 630.115 75.4203 681.075C6.08027 736.625 -14.7997 788.925 10.1103 845.255C19.3103 866.135 34.4403 885.105 71.6103 922.265C104.37 955.215 109.35 959.435 122.38 965.555C162.23 984.525 210.5 984.905 280.43 967.095C375.83 942.765 485.8 883.375 590.97 799.275C663 741.605 744.23 660.185 801.9 587.575C936.19 418.805 1004.77 236.995 971.82 137.565C965.11 117.445 958.41 108.255 926.41 75.1151C883.11 30.2851 856.29 11.1251 826.41 3.4651C812.62 0.0150975 797.1 -0.944844 785.22 0.975156ZM827.37 40.6252C838.48 45.0352 854.38 54.9951 865.69 64.7651C871.44 69.7451 872.01 70.7052 869.33 72.4252C857.64 79.3252 826.99 104.995 810.13 122.045C768.56 163.805 732.73 218.025 711.28 271.665C707.45 281.625 703.42 290.635 702.85 291.395C700.74 293.885 667.6 255.375 660.89 242.925C649.39 221.465 649.2 201.545 659.93 174.535C675.26 136.215 721.43 75.8751 751.89 54.0351C779.48 34.3051 801.7 30.2852 827.37 40.6252ZM926.99 126.455C969.52 179.325 936.76 319.175 848.44 461.325C701.31 698.115 434.26 907.325 235.4 941.425C199 947.555 157.43 944.685 138.08 934.715C134.25 932.605 119.88 920.155 106.09 907.125L81.1803 883.175L85.9703 874.365C93.6303 859.995 119.3 826.665 136.93 808.075C176.4 766.695 233.1 730.105 283.87 713.245L299.01 708.265L307.25 715.925C319.32 727.035 327.56 730.105 345.57 730.295C382.54 730.485 429.67 704.625 499.79 645.625C529.09 620.915 618.55 531.835 644.22 501.565C703.61 432.215 731.39 382.595 731.58 346.195C731.58 334.315 726.79 318.995 720.66 311.905L715.68 305.775L719.13 296.005C746.14 219.755 803.42 141.595 866.64 94.8452L883.88 82.0051L901.89 99.8252C911.66 109.405 922.97 121.475 926.99 126.455ZM240.38 659.615C254.36 666.505 286.74 692.565 283.87 695.055C283.1 695.825 276.78 698.315 269.89 700.805C198.05 725.905 130.61 779.545 83.1003 849.275C75.8203 859.815 69.6903 868.815 69.3103 869.195C68.5403 870.345 62.4103 862.685 52.4503 848.315C18.5403 799.275 35.7803 754.635 109.73 699.075C155.13 664.975 190.19 649.645 217.21 652.135C222.56 652.715 232.72 655.975 240.38 659.615Z" />
</svg>
