<svg width="189" height="236" viewBox="0 0 189 236" fill="none" xmlns="http://www.w3.org/2000/svg">
<path d="M50.8 44.1H125.1C127.6 44.1 129.6 42.1 129.6 39.5V18.5C129.6 15.9 127.6 13.9 125.1 13.9H109.6C108.6 6 102 0 94.1 0H82.8C74.9 0 68.2 6.1 67.3 13.9H50.9C48.4 13.9 46.4 15.9 46.4 18.5V39.5C46.3 42 48.4 44.1 50.8 44.1ZM88.5 13.5C92.7 13.5 96.2 17 96.2 21.4C96.2 25.7 92.8 29.3 88.5 29.3C84.3 29.3 80.8 25.8 80.8 21.4C80.8 17 84.3 13.5 88.5 13.5Z" />
<path d="M144.5 146.1C120.1 146.1 100.3 166.2 100.3 191C100.3 215.8 120.1 235.9 144.5 235.9C168.9 235.9 188.7 215.8 188.7 191C188.7 166.2 168.9 146.1 144.5 146.1ZM141.9 215.6C139.2 218.4 134.7 218.4 131.9 215.6L116.5 199.9C113.8 197.1 113.8 192.6 116.5 189.8C119.2 187 123.7 187 126.5 189.8L136.9 200.4L166.3 170.6C169 167.8 173.5 167.8 176.3 170.6C179 173.4 179 177.9 176.3 180.7L141.9 215.6Z" />
<path d="M29.1 178.201H80.8C82.6 168.801 86.4 160.101 91.7 152.701H29.1C22.1 152.701 16.4 146.901 16.4 139.801C16.4 132.701 22.1 126.901 29.1 126.901H130.4C134.8 125.901 139.4 125.401 144.2 125.401C157.2 125.401 169.2 129.301 179.3 136.001V56.0008C179.3 41.0008 167.3 28.8008 152.6 28.8008H147V56.1008H30V28.8008H26.7C12 28.8008 0 41.0008 0 56.0008V198.101C0 213.101 12 225.301 26.7 225.301H89.2C85.3 218.801 82.4 211.601 80.9 203.901H29.1C22.1 203.901 16.4 198.101 16.4 191.001C16.4 183.901 22.1 178.201 29.1 178.201ZM29.1 75.6008H149.5C156.5 75.6008 162.2 81.4008 162.2 88.5008C162.2 95.6008 156.5 101.401 149.5 101.401H29.1C22.1 101.401 16.4 95.6008 16.4 88.5008C16.4 81.4008 22.1 75.6008 29.1 75.6008Z" />
</svg>
