<svg width="400" height="400" viewBox="0 0 400 400" fill="none" xmlns="http://www.w3.org/2000/svg">
<g clip-path="url(#clip0_1376_2590)">
<path d="M320.004 0H79.9959C35.8154 0 0 35.8154 0 79.9959V320.004C0 364.185 35.8154 400 79.9959 400H320.004C364.185 400 400 364.185 400 320.004V79.9959C400 35.8154 364.185 0 320.004 0Z" fill="#28B779"/>
<g opacity="0.15">
<path d="M303.77 174.251C307.156 174.89 310.382 176.196 313.258 178.094C316.135 179.991 318.605 182.443 320.524 185.304C323.718 190.057 325.225 195.743 324.806 201.454C324.348 207.092 322.05 212.423 318.266 216.627C314.482 220.832 309.422 223.676 303.863 224.724C317.267 228.307 324.806 236.824 324.806 251.019C324.647 256.968 322.405 262.671 318.472 267.137C314.538 271.602 309.162 274.545 303.281 275.453C306.826 276.002 310.214 277.295 313.222 279.249C316.23 281.202 318.79 283.771 320.734 286.785C322.745 289.742 324.088 293.101 324.671 296.629C325.254 300.157 325.062 303.77 324.108 307.216C322.95 311.681 320.608 315.751 317.328 318.994C314.048 322.237 309.953 324.534 305.475 325.641C300.998 326.749 296.304 326.625 291.89 325.285C287.477 323.944 283.508 321.436 280.402 318.025C277.297 314.614 275.171 310.428 274.249 305.908C273.327 301.389 273.644 296.704 275.166 292.349C276.687 287.995 279.357 284.133 282.893 281.171C286.429 278.209 290.699 276.257 295.253 275.522C281.756 272.032 273.938 263.631 273.821 249.344C273.972 243.401 276.186 237.696 280.084 233.208C283.982 228.72 289.321 225.729 295.183 224.747C288.98 223.718 283.369 220.454 279.407 215.571C275.446 210.689 273.409 204.524 273.682 198.243C274.009 192.41 276.293 186.857 280.165 182.483C284.037 178.109 289.27 175.167 295.02 174.135C291.633 173.553 288.398 172.295 285.508 170.436C282.617 168.577 280.13 166.155 278.196 163.314C275.198 159.012 273.634 153.874 273.728 148.631C273.81 142.626 275.984 136.837 279.874 132.263C283.765 127.688 289.13 124.614 295.044 123.569C291.478 122.972 288.079 121.627 285.071 119.621C282.063 117.616 279.514 114.996 277.591 111.934C275.646 108.933 274.373 105.548 273.859 102.009C273.345 98.4708 273.602 94.863 274.613 91.433C276.242 85.8428 279.729 80.9752 284.498 77.6338C289.267 74.2924 295.033 72.6768 300.843 73.0537C306.654 73.4306 312.163 75.7775 316.46 79.7069C320.757 83.6364 323.586 88.9136 324.48 94.6676C324.99 97.9241 324.841 101.25 324.042 104.448C323.242 107.645 321.809 110.65 319.826 113.284C315.944 118.683 310.093 122.336 303.537 123.453C317.616 127.455 325.155 136.367 324.48 151.377C324.393 155.068 323.376 158.677 321.525 161.871C319.646 165.083 317.089 167.847 314.032 169.969C310.93 172.064 307.441 173.52 303.77 174.251Z" fill="white"/>
<path d="M233.866 171.621C229.436 171.598 225.112 170.26 221.442 167.778C217.772 165.296 214.922 161.781 213.251 157.678C211.58 153.575 211.164 149.068 212.056 144.728C212.948 140.388 215.108 136.411 218.262 133.3C221.416 130.188 225.422 128.082 229.773 127.249C234.125 126.416 238.625 126.893 242.706 128.619C246.786 130.345 250.262 133.243 252.694 136.946C255.127 140.649 256.405 144.991 256.368 149.421C256.325 155.348 253.931 161.016 249.712 165.178C245.493 169.341 239.793 171.658 233.866 171.621Z" fill="white"/>
<path d="M233.844 222.233C229.424 222.201 225.113 220.86 221.455 218.379C217.797 215.898 214.956 212.389 213.292 208.295C211.627 204.2 211.213 199.704 212.101 195.375C212.99 191.045 215.142 187.076 218.285 183.969C221.428 180.861 225.422 178.755 229.761 177.916C234.101 177.076 238.591 177.542 242.666 179.253C246.742 180.965 250.218 183.846 252.657 187.532C255.096 191.218 256.388 195.544 256.369 199.964C256.357 202.906 255.764 205.818 254.625 208.531C253.485 211.244 251.822 213.705 249.729 215.774C247.637 217.843 245.156 219.478 242.43 220.587C239.704 221.695 236.787 222.255 233.844 222.233Z" fill="white"/>
<path d="M233.983 272.89C229.552 272.885 225.223 271.564 221.544 269.095C217.865 266.626 215.003 263.119 213.32 259.02C211.637 254.921 211.21 250.415 212.093 246.073C212.975 241.731 215.128 237.749 218.277 234.632C221.427 231.516 225.431 229.405 229.782 228.568C234.133 227.731 238.634 228.205 242.715 229.93C246.796 231.656 250.273 234.555 252.704 238.259C255.135 241.963 256.41 246.306 256.369 250.737C256.307 256.634 253.922 262.268 249.73 266.416C245.539 270.564 239.88 272.89 233.983 272.89Z" fill="white"/>
<path d="M233.867 323.574C229.442 323.546 225.125 322.206 221.462 319.724C217.799 317.242 214.955 313.729 213.289 309.629C211.624 305.53 211.212 301.029 212.105 296.695C212.999 292.361 215.159 288.39 218.31 285.284C221.462 282.178 225.464 280.077 229.81 279.247C234.156 278.416 238.651 278.894 242.726 280.619C246.8 282.344 250.272 285.239 252.7 288.938C255.129 292.637 256.406 296.973 256.369 301.398C256.307 307.317 253.907 312.971 249.691 317.126C245.475 321.281 239.786 323.599 233.867 323.574Z" fill="white"/>
<path d="M233.75 121.056C229.343 121.033 225.042 119.707 221.388 117.245C217.733 114.784 214.888 111.297 213.21 107.222C211.532 103.148 211.097 98.6681 211.959 94.3469C212.821 90.0256 214.941 86.0558 218.054 82.9368C221.167 79.8178 225.132 77.689 229.451 76.8181C233.771 75.9472 238.251 76.3732 242.329 78.0425C246.407 79.7117 249.9 82.5497 252.37 86.1993C254.839 89.849 256.173 94.1473 256.205 98.5535C256.227 101.511 255.661 104.443 254.541 107.179C253.421 109.916 251.768 112.403 249.679 114.497C247.59 116.59 245.107 118.247 242.372 119.373C239.638 120.499 236.707 121.071 233.75 121.056Z" fill="white"/>
<path d="M195.285 149.001C195.285 152.677 194.196 156.27 192.157 159.328C190.117 162.387 187.218 164.773 183.825 166.186C180.431 167.599 176.695 167.976 173.088 167.269C169.481 166.561 166.163 164.802 163.555 162.213C160.946 159.623 159.162 156.319 158.428 152.717C157.694 149.115 158.042 145.377 159.43 141.973C160.818 138.569 163.182 135.652 166.225 133.59C169.268 131.527 172.853 130.412 176.529 130.385C178.986 130.366 181.421 130.834 183.696 131.761C185.971 132.689 188.04 134.057 189.783 135.787C191.527 137.518 192.91 139.576 193.855 141.844C194.799 144.112 195.285 146.544 195.285 149.001Z" fill="white"/>
<path d="M176.552 117.074C172.87 117.074 169.27 115.982 166.209 113.937C163.148 111.891 160.762 108.984 159.353 105.582C157.944 102.18 157.575 98.4372 158.293 94.826C159.012 91.2149 160.785 87.8978 163.388 85.2943C165.992 82.6908 169.309 80.9178 172.92 80.1995C176.531 79.4812 180.274 79.8499 183.676 81.2589C187.077 82.6679 189.985 85.0539 192.03 88.1153C194.076 91.1767 195.168 94.7759 195.168 98.4579C195.168 103.395 193.206 108.13 189.715 111.621C186.224 115.113 181.489 117.074 176.552 117.074Z" fill="white"/>
<path d="M176.622 319.594C172.95 319.549 169.374 318.418 166.343 316.345C163.313 314.271 160.963 311.348 159.589 307.943C158.216 304.537 157.88 300.802 158.625 297.206C159.369 293.61 161.16 290.315 163.773 287.735C166.385 285.155 169.703 283.404 173.307 282.705C176.912 282.005 180.643 282.387 184.031 283.803C187.419 285.218 190.313 287.604 192.348 290.66C194.384 293.717 195.47 297.306 195.47 300.978C195.471 303.443 194.981 305.883 194.031 308.157C193.081 310.43 191.689 312.493 189.936 314.225C188.182 315.957 186.103 317.323 183.817 318.245C181.532 319.166 179.086 319.625 176.622 319.594Z" fill="white"/>
<path d="M195.307 250.319C195.266 253.984 194.143 257.555 192.081 260.584C190.019 263.614 187.108 265.967 183.714 267.35C180.319 268.732 176.593 269.082 173 268.355C169.408 267.628 166.11 265.857 163.521 263.264C160.931 260.671 159.164 257.371 158.441 253.778C157.719 250.185 158.073 246.458 159.46 243.066C160.846 239.673 163.203 236.765 166.236 234.707C169.268 232.648 172.84 231.53 176.505 231.493C178.983 231.468 181.441 231.938 183.735 232.876C186.029 233.814 188.113 235.2 189.864 236.953C191.615 238.706 192.999 240.792 193.933 243.087C194.868 245.382 195.335 247.841 195.307 250.319Z" fill="white"/>
<path d="M176.716 180.927C180.388 180.973 183.964 182.103 186.994 184.177C190.025 186.25 192.375 189.173 193.748 192.579C195.122 195.984 195.457 199.719 194.713 203.315C193.968 206.911 192.177 210.206 189.565 212.786C186.952 215.367 183.635 217.117 180.03 217.816C176.426 218.516 172.695 218.134 169.306 216.718C165.918 215.303 163.025 212.917 160.989 209.861C158.954 206.805 157.867 203.215 157.867 199.543C157.867 197.078 158.356 194.638 159.306 192.365C160.256 190.091 161.648 188.028 163.402 186.296C165.155 184.565 167.235 183.198 169.52 182.276C171.806 181.355 174.252 180.896 176.716 180.927Z" fill="white"/>
<path d="M141.973 301.165C141.973 303.948 141.149 306.669 139.606 308.985C138.062 311.301 135.868 313.108 133.299 314.179C130.731 315.251 127.903 315.538 125.171 315.005C122.439 314.472 119.927 313.143 117.949 311.185C115.971 309.226 114.618 306.727 114.058 304.001C113.498 301.274 113.757 298.444 114.803 295.865C115.849 293.285 117.635 291.074 119.936 289.507C122.236 287.941 124.949 287.091 127.732 287.063C129.593 287.051 131.439 287.406 133.164 288.109C134.888 288.812 136.457 289.848 137.78 291.158C139.103 292.468 140.154 294.026 140.874 295.743C141.593 297.461 141.967 299.303 141.973 301.165Z" fill="white"/>
<path d="M113.793 250.295C113.844 247.545 114.705 244.871 116.27 242.609C117.834 240.347 120.032 238.597 122.587 237.579C125.143 236.562 127.941 236.322 130.633 236.889C133.324 237.456 135.788 238.806 137.715 240.768C139.642 242.731 140.947 245.218 141.465 247.92C141.983 250.621 141.692 253.415 140.628 255.951C139.564 258.487 137.775 260.653 135.485 262.176C133.195 263.699 130.506 264.512 127.755 264.513C125.9 264.513 124.063 264.144 122.353 263.426C120.642 262.708 119.091 261.657 117.791 260.333C116.491 259.009 115.468 257.44 114.782 255.716C114.095 253.993 113.759 252.15 113.793 250.295Z" fill="white"/>
<path d="M141.787 98.5746C141.787 101.336 140.968 104.035 139.434 106.331C137.9 108.628 135.72 110.417 133.168 111.474C130.617 112.531 127.81 112.807 125.101 112.268C122.393 111.73 119.905 110.4 117.953 108.447C116 106.495 114.67 104.007 114.132 101.298C113.593 98.5901 113.869 95.7828 114.926 93.2315C115.983 90.6803 117.772 88.4997 120.068 86.9656C122.364 85.4314 125.064 84.6125 127.825 84.6125C131.528 84.6125 135.08 86.0835 137.698 88.7019C140.316 91.3203 141.787 94.8716 141.787 98.5746Z" fill="white"/>
<path d="M127.754 163.243C125.897 163.244 124.058 162.874 122.346 162.154C120.633 161.435 119.081 160.382 117.781 159.056C116.481 157.729 115.458 156.157 114.773 154.431C114.088 152.705 113.755 150.859 113.792 149.002C113.792 145.271 115.274 141.693 117.912 139.055C120.55 136.417 124.128 134.935 127.859 134.935C131.589 134.935 135.167 136.417 137.805 139.055C140.443 141.693 141.925 145.271 141.925 149.002C141.963 150.877 141.623 152.74 140.925 154.48C140.227 156.22 139.186 157.802 137.863 159.131C136.54 160.46 134.964 161.509 133.227 162.216C131.49 162.922 129.629 163.272 127.754 163.243Z" fill="white"/>
<path d="M113.77 199.779C113.77 196.06 115.247 192.494 117.876 189.865C120.505 187.236 124.071 185.759 127.79 185.759C131.508 185.759 135.074 187.236 137.704 189.865C140.333 192.494 141.81 196.06 141.81 199.779C141.774 203.47 140.291 207.001 137.68 209.611C135.07 212.222 131.54 213.704 127.848 213.741C126.005 213.756 124.177 213.406 122.469 212.712C120.762 212.017 119.209 210.991 117.9 209.693C116.591 208.395 115.552 206.85 114.843 205.149C114.134 203.447 113.769 201.622 113.77 199.779Z" fill="white"/>
<path d="M75.025 149.049C75.0466 146.142 76.2221 143.363 78.2928 141.323C80.3635 139.283 83.1598 138.149 86.0667 138.17C88.9735 138.192 91.7527 139.367 93.7928 141.438C95.833 143.509 96.967 146.305 96.9454 149.212C96.9091 152.111 95.7395 154.882 93.6869 156.93C91.6343 158.978 88.8616 160.142 85.9619 160.172C84.5099 160.172 83.0723 159.883 81.7331 159.322C80.3939 158.761 79.1799 157.939 78.1618 156.903C77.1437 155.868 76.3421 154.64 75.8035 153.292C75.2649 151.943 75.0003 150.501 75.025 149.049Z" fill="white"/>
<path d="M86.0322 239.382C87.4852 239.379 88.9242 239.666 90.2648 240.226C91.6055 240.786 92.8208 241.608 93.8395 242.644C94.8582 243.68 95.6597 244.909 96.1972 246.259C96.7346 247.609 96.997 249.053 96.9692 250.506C96.896 253.417 95.6816 256.183 93.5877 258.207C91.4939 260.231 88.6884 261.351 85.7763 261.326C82.8977 261.259 80.1599 260.067 78.1501 258.005C76.1404 255.943 75.0186 253.176 75.0255 250.296C75.0192 248.853 75.3003 247.424 75.8524 246.091C76.4044 244.758 77.2164 243.548 78.241 242.532C79.2656 241.516 80.4822 240.714 81.8199 240.174C83.1575 239.633 84.5895 239.364 86.0322 239.382Z" fill="white"/>
<path d="M96.968 301.163C96.965 302.598 96.6779 304.018 96.1231 305.342C95.5683 306.665 94.757 307.866 93.7358 308.874C92.7147 309.882 91.504 310.678 90.1736 311.216C88.8432 311.753 87.4194 312.022 85.9845 312.007C83.8063 312.007 81.6773 311.359 79.8682 310.146C78.0591 308.933 76.6515 307.209 75.8245 305.194C74.9974 303.179 74.7882 300.963 75.2234 298.829C75.6587 296.695 76.7187 294.738 78.2688 293.208C79.8188 291.677 81.7889 290.642 83.9286 290.234C86.0683 289.826 88.281 290.064 90.2854 290.917C92.2897 291.77 93.9953 293.199 95.1852 295.023C96.3751 296.848 96.9957 298.985 96.968 301.163Z" fill="white"/>
<path d="M96.8063 98.6238C96.8077 100.094 96.5113 101.549 95.9352 102.902C95.359 104.254 94.515 105.476 93.4539 106.494C92.3928 107.511 91.1367 108.304 89.7612 108.823C88.3857 109.342 86.9194 109.577 85.4506 109.514C82.6049 109.329 79.943 108.044 78.0277 105.931C76.1124 103.818 75.0939 101.043 75.1876 98.1931C75.2813 95.343 76.4798 92.641 78.5297 90.6586C80.5797 88.6762 83.3202 87.5688 86.1719 87.5706C89.0421 87.6438 91.7678 88.845 93.7583 90.914C95.7489 92.983 96.844 95.753 96.8063 98.6238Z" fill="white"/>
<path d="M75.0016 199.731C74.9766 198.288 75.2413 196.854 75.7801 195.515C76.3188 194.175 77.1207 192.958 78.1382 191.934C79.1557 190.91 80.3682 190.1 81.704 189.553C83.0398 189.006 84.4718 188.732 85.9153 188.747C88.0905 188.734 90.2209 189.366 92.0363 190.564C93.8516 191.763 95.2703 193.473 96.1123 195.479C96.9543 197.485 97.1818 199.695 96.7659 201.831C96.3501 203.966 95.3095 205.929 93.7763 207.472C92.243 209.015 90.2861 210.068 88.1537 210.498C86.0212 210.927 83.8092 210.714 81.7982 209.885C79.7871 209.056 78.0676 207.648 76.8576 205.84C75.6476 204.033 75.0017 201.906 75.0016 199.731Z" fill="white"/>
</g>
<path d="M280.536 89.7023C277.464 90.8477 276.681 91.5697 275.658 94.46C275.117 95.8452 270.839 128.488 265.962 167.756C261.143 206.661 257.049 239.123 256.929 239.847L256.628 241.233L168.036 241.352L79.4445 241.534L77.5159 243.702C74.8042 246.592 74.3221 249.602 75.8884 252.855C76.5516 254.301 77.9955 255.926 79.0797 256.59C81.0669 257.794 82.4521 257.794 173.814 257.794H266.561L268.791 256.408C270.296 255.444 271.26 254.24 271.924 252.493C272.406 251.107 276.742 218.284 281.62 179.197C286.439 140.291 290.533 107.83 290.714 107.049L290.957 105.725H304.867C313.962 105.725 319.202 105.485 320.043 105.062C326.128 101.929 326.73 93.9804 321.189 90.5467C319.02 89.2227 318.538 89.1615 300.893 89.0416C286.799 88.9192 282.342 89.0416 280.536 89.7023Z" fill="white"/>
<path d="M187.367 163.841V217.744H212.362H237.357V163.841V109.938H212.362H187.367V163.841Z" fill="white"/>
<path d="M125.938 170.767V187.629L152.797 187.509L179.659 187.328V174.68C179.659 167.693 179.659 160.226 179.598 157.938L179.537 153.902H152.738H125.938V170.767Z" fill="white"/>
<path d="M100.641 206.302V217.746H140.089H179.538L179.6 215.337C179.661 214.013 179.661 209.557 179.661 205.401C179.661 201.246 179.661 197.21 179.6 196.368L179.538 194.863H140.089H100.641V206.302Z" fill="white"/>
<path d="M108.774 265.504C104.437 266.951 101.547 268.757 98.6563 271.889C93.0543 277.849 90.9446 285.981 93.1129 293.328C98.9548 313.443 125.636 316.155 135.633 297.724C137.62 294.109 137.682 293.629 137.682 287.606C137.682 282.004 137.501 280.861 136.057 277.849C134.008 273.453 129.613 269.055 125.095 266.828C122.143 265.384 120.577 265.022 116.363 264.902C113.228 264.782 110.217 265.022 108.774 265.504Z" fill="white"/>
<path d="M232.717 265.562C226.454 267.611 220.972 272.427 218.202 278.45C216.817 281.34 216.574 282.726 216.574 287.305C216.574 292.124 216.755 293.146 218.503 296.761C225.368 311.335 244.521 314.708 255.602 303.325C266.745 291.942 263.311 273.394 248.796 266.647C244.763 264.782 236.811 264.238 232.717 265.562Z" fill="white"/>
</g>
<defs>
<clipPath id="clip0_1376_2590">
<rect width="400" height="400" fill="white"/>
</clipPath>
</defs>
</svg>
