<svg width="237" height="227" viewBox="0 0 237 227" fill="none" xmlns="http://www.w3.org/2000/svg">
<path d="M8.65376 0.759935C7.35376 1.25993 5.65376 2.45993 3.95376 4.15993C1.85376 6.25993 1.15376 7.35993 0.553765 9.45993C-1.34624 16.2599 1.75376 23.1599 8.15376 25.9599C9.55376 26.5599 11.9538 26.9599 15.7538 27.2599C21.3538 27.6599 25.1538 28.4599 28.0538 29.9599C30.5538 31.2599 33.7538 34.9599 34.8538 37.8599C35.3538 39.2599 40.1538 62.2599 45.5538 88.8599C52.2538 122.36 55.6538 138.46 56.6538 141.16C62.2538 156.56 74.6538 167.16 91.8538 171.26C96.1538 172.26 96.3538 172.26 139.054 172.26H181.954L184.354 171.06C193.454 166.26 204.154 151.66 219.354 123.26C225.754 111.36 235.154 91.8599 235.854 89.2599C236.554 86.4599 236.154 82.9599 234.654 79.9599C230.854 72.1599 220.154 70.2599 213.554 76.0599C212.254 77.2599 210.254 80.8599 204.554 92.1599C193.654 113.96 185.754 127.96 178.954 137.96C176.954 140.86 174.954 143.76 174.454 144.36L173.554 145.36H137.454C98.2538 145.36 97.3538 145.36 91.9538 142.76C88.3538 141.06 85.1538 137.96 83.5538 134.56C81.9538 131.36 80.9538 126.56 69.2538 68.0599C65.4538 48.9599 61.8538 31.9599 61.1538 30.0599C56.3538 15.8599 45.6538 6.05993 30.8538 2.05993C22.6538 -0.0400651 12.6538 -0.640065 8.65376 0.759935Z" />
<path d="M140.423 107.982C145.923 106.982 150.223 105.082 150.923 103.182C151.523 101.582 153.723 71.6824 153.723 64.6824L153.723 63.1824L164.123 63.1824C175.423 63.1824 177.023 62.8824 178.423 60.6824C179.823 58.5824 179.423 56.4824 177.123 53.0824C171.123 44.2824 158.623 29.8824 146.123 17.1824L138.323 9.28243L136.023 9.28243L133.723 9.28243L125.623 17.4824C113.423 29.8824 101.123 44.2824 95.2234 53.0824C92.7234 56.7824 92.4234 58.2824 93.6234 60.5824C94.8234 62.9824 96.3234 63.2824 107.823 63.2824L118.123 63.2824L118.723 73.5824C119.323 85.5824 120.523 100.182 121.023 102.482C121.523 105.082 125.023 106.882 131.923 107.982C135.023 108.482 137.423 108.482 140.423 107.982Z" />
<path d="M89.7538 182.259C84.9538 183.359 78.9538 187.759 76.0538 192.359C73.5538 196.259 72.6538 199.859 72.8538 205.359C72.9538 210.059 73.0538 210.459 74.9538 214.159C78.9538 222.159 86.5538 226.959 95.3538 226.959C105.754 226.959 114.554 219.959 117.254 209.559C120.254 198.259 113.254 186.159 101.854 182.659C98.7538 181.659 92.9538 181.459 89.7538 182.259Z" />
<path d="M170.454 182.559C162.754 184.959 157.354 190.559 155.054 198.259C153.554 203.259 154.354 210.159 156.954 215.059C158.554 218.059 163.054 222.659 166.054 224.159C172.654 227.759 181.054 227.759 187.654 224.159C190.654 222.559 195.254 218.059 196.754 215.059C200.254 208.559 200.354 200.359 196.854 193.559C195.254 190.559 190.654 185.859 187.654 184.259C182.454 181.659 175.654 180.959 170.454 182.559Z" />
</svg>
