<svg width="147" height="237" viewBox="0 0 147 237" fill="none" xmlns="http://www.w3.org/2000/svg">
<path d="M65.5046 0.223696C40.1046 3.6237 18.8046 18.5237 7.7046 40.9237C3.0046 50.4237 0.704603 59.2237 0.104603 69.7237C-0.595397 82.8237 2.2046 94.9237 8.9046 108.024C15.3046 120.424 18.7046 125.624 34.6046 146.924C53.7046 172.524 60.5046 184.124 67.2046 202.224C68.2046 205.124 70.2046 206.424 73.3046 206.424C76.7046 206.424 78.5046 204.824 79.9046 200.824C82.3046 193.624 86.8046 184.224 92.1046 175.324C96.6046 167.824 101.105 161.324 112.105 146.624C127.205 126.424 131.205 120.424 137.505 108.124C143.905 95.7237 146.305 86.0237 146.305 73.2237C146.305 63.8237 145.505 58.6237 142.705 50.3237C138.905 38.8237 133.805 30.7237 124.805 21.7237C113.905 10.9237 102.105 4.4237 87.4046 1.2237C82.9046 0.323696 69.7046 -0.376304 65.5046 0.223696ZM83.5046 13.3237C108.905 17.7237 129.105 38.1237 133.305 63.5237C134.005 67.3237 134.105 70.2237 133.905 75.6237C133.505 86.5237 131.505 93.1237 125.205 105.024C120.405 114.024 115.105 121.924 102.505 138.824C86.7046 160.024 81.1046 168.424 75.9046 178.824C74.6046 181.424 73.5046 183.524 73.3046 183.524C73.1046 183.524 72.4046 182.224 71.6046 180.724C66.5046 170.124 59.4046 159.324 44.8046 139.824C19.6046 106.124 13.3046 93.5237 12.6046 75.6237C12.0046 58.5237 17.5046 43.7237 29.1046 31.6237C43.8046 16.4237 63.3046 9.8237 83.5046 13.3237Z" />
<path d="M67.0046 46.8236C56.5046 49.8236 49.0046 57.5236 46.8046 67.8236C45.9046 72.0236 45.9046 74.6236 46.8046 78.8236C48.9046 88.7236 57.2046 97.1236 67.2046 99.5236C70.3046 100.224 76.4046 100.224 79.4046 99.5236C88.8046 97.3236 96.9046 89.3236 99.6046 79.9236C100.605 76.2236 100.405 69.4236 99.2046 65.3236C96.7046 57.3236 90.0046 50.4236 81.9046 47.6236C77.9046 46.1236 70.7046 45.7236 67.0046 46.8236Z" />
<path d="M105.905 177.624C104.105 178.624 102.505 181.124 102.505 182.924C102.505 184.624 103.905 187.324 105.105 188.024C105.605 188.324 107.705 189.324 109.605 190.124C116.905 193.324 122.805 198.224 124.005 202.024C125.805 208.224 114.205 216.724 98.3046 220.724C89.9046 222.724 83.6046 223.524 73.4046 223.524C63.2046 223.524 56.8046 222.824 48.6046 220.724C32.4046 216.724 20.8046 208.224 22.8046 201.824C24.1046 198.124 29.7046 193.424 37.1046 190.024C39.2046 189.124 41.1046 187.824 41.6046 187.224C43.8046 183.824 42.6046 179.624 39.0046 178.024C36.4046 176.824 35.0046 177.124 29.4046 179.924C21.1046 184.124 14.6046 189.924 12.0046 195.624C10.6046 198.524 10.5046 199.224 10.5046 203.624C10.5046 208.024 10.6046 208.724 12.0046 211.424C19.1046 226.024 44.2046 236.024 73.3046 236.024C102.605 236.024 127.805 225.824 134.705 211.424C136.105 208.424 136.305 207.724 136.305 203.524C136.305 199.424 136.205 198.524 134.805 195.724C131.905 189.624 125.105 183.724 115.905 179.324C110.205 176.724 108.205 176.324 105.905 177.624Z" />
</svg>
