<svg width="250" height="205" viewBox="0 0 250 205" fill="none" xmlns="http://www.w3.org/2000/svg">
    <path fill-rule="evenodd" clip-rule="evenodd" d="M13.999 1.77168C12.5821 3.18855 12.7053 3.68137 15.2926 9.47206C16.3399 11.8746 17.7567 13.7227 19.0504 14.7083C21.0833 16.1252 21.5761 16.1868 34.6976 16.4948C50.7143 16.8644 51.2072 16.9876 54.1025 22.9015C56.2586 27.2137 56.505 30.2939 54.7801 31.2795C53.9793 31.6491 44.554 31.8956 28.4141 31.8956C1.80158 31.8956 0.384707 32.0804 0.0150889 34.7909C-0.231323 36.2694 2.60241 43.3537 4.08089 45.0786C4.69692 45.6946 6.23699 46.7419 7.59226 47.3579C9.93317 48.4051 12.6437 48.5284 51.8848 48.5284C51.8848 48.5284 92.1551 47.735 93.7748 48.5284C95.3945 49.3217 95.3367 49.4188 95.8693 49.8836C99.3255 52.8994 101.537 57.4608 101.537 60.1713C104.432 61.7114 87.9225 158.243 87.9225 158.243C77.8813 203.645 78.0045 202.659 81.5774 204.322C82.6247 204.754 89.8938 205 104.371 205C127.102 205 127.348 204.938 130.305 201.797C131.907 200.072 131.537 201.673 141.887 154.485C155.871 91.2808 165.666 47.0499 165.974 45.8794C166.282 44.8938 168.499 44.8322 201.518 44.8322C235.338 44.8322 236.817 44.7706 238.727 43.6001C239.835 42.9841 241.191 41.6904 241.745 40.828C242.916 39.0415 249.938 8.85603 250 5.52947C250 4.1742 249.792 1.46368 248.744 0.478027H247.885H246.981C156.684 0.478027 105.978 0.478027 15.8414 0.478027C15.6586 0.478027 15.4757 0.478027 15.2926 0.478027C15.1096 0.478027 13.999 1.77168 13.999 1.77168Z" fill="white"/>
    </svg>
    