<svg width="308" height="110" viewBox="0 0 308 110" fill="none" xmlns="http://www.w3.org/2000/svg">
<path d="M111.798 0V110" stroke="#151B18" stroke-width="2" stroke-miterlimit="10"/>
<path d="M112.686 0V110" stroke="#979B98" stroke-miterlimit="10"/>
<path d="M127.434 31.9365H138.55C148.243 31.9365 155.816 39.4371 155.816 48.2609C155.816 57.0846 148.243 64.6035 138.55 64.6035H127.434V31.9365ZM138.55 59.9589C145.407 59.9589 150.607 54.8216 150.607 48.2791C150.607 41.7366 145.407 36.5902 138.55 36.5902H132.634V59.9407L138.55 59.9589Z" />
<path d="M160.346 31.9365H165.337V45.715H181.019V31.9365H186.01V64.6035H181.019V50.3596H165.347V64.6035H160.346V31.9365Z" />
<path d="M192.877 31.9365H197.099L208.278 47.8138L219.466 31.9365H223.687V64.6035H219.04V40.5595L208.278 55.7341L197.488 40.5595V64.6035H192.85L192.877 31.9365Z" />
<path d="M127.407 84.1861V71.7033C127.401 71.6635 127.404 71.6228 127.416 71.5846C127.429 71.5463 127.45 71.5115 127.478 71.483C127.507 71.4546 127.541 71.4332 127.579 71.4208C127.617 71.4083 127.657 71.4051 127.697 71.4113H132.226C133.081 71.3951 133.931 71.5532 134.724 71.8761C135.516 72.1991 136.236 72.6802 136.839 73.2905C137.443 73.9008 137.917 74.6277 138.235 75.4276C138.552 76.2274 138.705 77.0836 138.686 77.9447C138.706 78.8034 138.555 79.6575 138.241 80.456C137.926 81.2544 137.455 81.9807 136.855 82.5915C136.256 83.2023 135.54 83.685 134.751 84.0107C133.962 84.3364 133.115 84.4985 132.263 84.4872H127.733C127.691 84.4986 127.646 84.499 127.603 84.4883C127.56 84.4777 127.521 84.4565 127.488 84.4265C127.456 84.3965 127.431 84.3587 127.417 84.3167C127.403 84.2747 127.399 84.2298 127.407 84.1861ZM128.866 72.6796V83.2097H132.263C132.943 83.2373 133.621 83.1124 134.248 82.8441C134.874 82.5759 135.434 82.1709 135.886 81.6585C136.816 80.6519 137.316 79.3187 137.281 77.9447C137.31 76.5718 136.81 75.241 135.886 74.2309C135.434 73.7184 134.874 73.3134 134.248 73.0452C133.621 72.777 132.943 72.6521 132.263 72.6796H128.866Z" />
<path d="M145.688 84.487H144.782C144.742 84.4932 144.7 84.4897 144.661 84.4767C144.622 84.4638 144.587 84.4418 144.557 84.4125C144.528 84.3832 144.506 84.3474 144.494 84.3081C144.481 84.2687 144.477 84.2269 144.483 84.1859V71.7031C144.483 71.5024 144.583 71.4111 144.782 71.4111H145.688C145.879 71.4111 145.969 71.5024 145.969 71.7031V84.1859C145.969 84.3867 145.851 84.487 145.688 84.487Z" />
<path d="M152.002 82.8358L152.347 82.2427C152.428 82.1149 152.501 82.0511 152.573 82.0511C152.648 82.0612 152.72 82.0894 152.782 82.1332C153.99 82.9697 155.428 83.4066 156.894 83.3833C157.457 83.3872 158.017 83.3167 158.561 83.1734C159.07 83.0365 159.525 82.7469 159.866 82.3431C160.212 81.9346 160.396 81.4111 160.382 80.874C160.394 80.5517 160.315 80.2326 160.155 79.9534C159.994 79.6742 159.759 79.4461 159.476 79.2954C158.546 78.8543 157.547 78.5795 156.523 78.4833C155.508 78.3669 154.52 78.0833 153.597 77.6438C153.137 77.4086 152.754 77.0435 152.497 76.5929C152.239 76.1424 152.118 75.626 152.147 75.1071C152.151 74.6875 152.234 74.2724 152.392 73.8843C152.569 73.429 152.82 73.0065 153.135 72.6342C153.524 72.1688 154.027 71.8134 154.593 71.6031C155.303 71.3247 156.06 71.1883 156.822 71.2016C157.621 71.1855 158.418 71.3058 159.177 71.5575C159.953 71.8248 160.695 72.1831 161.388 72.6251C161.524 72.6981 161.551 72.835 161.478 73.0357L161.125 73.6106C161.052 73.7475 160.971 73.8205 160.88 73.8205C160.849 73.8201 160.818 73.8125 160.789 73.7983C160.761 73.7841 160.737 73.7636 160.717 73.7383C159.633 72.9558 158.337 72.526 157.003 72.5065C156.422 72.4926 155.843 72.579 155.291 72.762C154.88 72.8841 154.51 73.1177 154.222 73.4372C154.008 73.6781 153.839 73.9564 153.724 74.2584C153.627 74.518 153.578 74.7932 153.579 75.0706C153.573 75.2992 153.621 75.526 153.716 75.7333C153.812 75.9406 153.954 76.1229 154.131 76.2659C154.486 76.5542 154.896 76.7654 155.336 76.8864C155.993 77.0591 156.663 77.1811 157.338 77.2514C158.519 77.3502 159.659 77.7319 160.663 78.3646C161.036 78.6484 161.334 79.0214 161.528 79.4499C161.723 79.8785 161.808 80.3491 161.777 80.8192C161.78 81.3398 161.67 81.8548 161.454 82.3278C161.238 82.8008 160.922 83.2203 160.527 83.5567C159.55 84.3609 158.307 84.762 157.048 84.679C155.271 84.7408 153.519 84.2397 152.039 83.2464C151.939 83.1643 151.912 83.0365 152.002 82.8358Z" />
<path d="M170.809 84.1859V72.7525H166.37C166.252 72.7525 166.171 72.7525 166.135 72.6886C166.089 72.6184 166.067 72.5352 166.071 72.4514V71.7031C166.071 71.5024 166.171 71.4111 166.37 71.4111H176.725C176.906 71.4111 176.997 71.5024 176.997 71.7031V72.4514C176.997 72.6521 176.906 72.7525 176.725 72.7525H172.268V84.1859C172.268 84.3867 172.177 84.487 171.996 84.487H171.09C171.048 84.4924 171.005 84.4887 170.964 84.4761C170.924 84.4635 170.886 84.4424 170.854 84.414C170.814 84.3455 170.798 84.2649 170.809 84.1859Z" />
<path d="M182.088 84.186V71.7032C182.088 71.5025 182.187 71.4112 182.387 71.4112H186.798C187.342 71.4082 187.883 71.4725 188.411 71.6029C188.916 71.7342 189.396 71.9468 189.833 72.2325C190.3 72.5299 190.673 72.9536 190.911 73.4552C191.181 74.0248 191.317 74.6491 191.31 75.2802C191.393 76.1755 191.145 77.0702 190.613 77.7926C190.081 78.515 189.304 79.0143 188.429 79.1947L191.908 84.1313C192.035 84.3685 191.962 84.4871 191.69 84.4871H190.784C190.681 84.4881 190.579 84.4606 190.489 84.4076C190.4 84.3545 190.327 84.2779 190.277 84.186L186.889 79.3864H183.564V84.2043C183.576 84.2916 183.553 84.38 183.501 84.4506C183.431 84.4948 183.348 84.5141 183.265 84.5054H182.359C182.28 84.5142 182.2 84.4948 182.133 84.4506C182.107 84.4122 182.09 84.3688 182.082 84.3232C182.074 84.2776 182.076 84.2309 182.088 84.186ZM186.708 72.6796H183.555V78.0906H186.708C188.828 78.0906 189.879 77.1781 189.879 75.3532C189.905 74.9798 189.844 74.6055 189.701 74.2601C189.557 73.9147 189.336 73.6078 189.054 73.364C188.374 72.8772 187.55 72.6361 186.717 72.6796H186.708Z" />
<path d="M198.829 84.487H197.923C197.882 84.4932 197.841 84.4897 197.802 84.4767C197.763 84.4638 197.727 84.4418 197.698 84.4125C197.669 84.3832 197.647 84.3474 197.634 84.3081C197.621 84.2687 197.618 84.2269 197.624 84.1859V71.7031C197.624 71.5024 197.724 71.4111 197.923 71.4111H198.829C199.019 71.4111 199.11 71.5024 199.11 71.7031V84.1859C199.11 84.3867 199.019 84.487 198.829 84.487Z" />
<path d="M205.877 84.1854V71.7026C205.877 71.5018 205.977 71.4106 206.176 71.4106H210.66C211.206 71.4045 211.751 71.4658 212.282 71.5931C212.783 71.7201 213.265 71.9166 213.713 72.1771C214.168 72.4514 214.543 72.8417 214.8 73.3085C215.082 73.8381 215.223 74.4324 215.208 75.0331C215.22 75.3541 215.168 75.6742 215.056 75.975C214.944 76.2757 214.774 76.5511 214.555 76.7851C214.138 77.1892 213.641 77.5002 213.097 77.6976C213.66 77.8955 214.186 78.1853 214.655 78.5553C214.997 78.8178 215.269 79.1604 215.449 79.5532C215.629 79.946 215.711 80.3772 215.688 80.8092C215.728 81.3377 215.632 81.8678 215.408 82.3476C215.184 82.8274 214.84 83.2405 214.411 83.5466C213.435 84.1795 212.291 84.4978 211.131 84.4591H206.176C206.094 84.4665 206.011 84.4473 205.94 84.4043C205.898 84.3395 205.875 84.2631 205.877 84.1854ZM210.569 72.6789H207.344V77.1775H210.968C211.666 77.2106 212.356 77.0154 212.934 76.6209C213.172 76.4609 213.366 76.2434 213.499 75.9884C213.632 75.7334 213.699 75.4489 213.695 75.1609C213.712 74.8134 213.647 74.4668 213.505 74.1496C213.364 73.8323 213.149 73.5535 212.88 73.3359C212.199 72.874 211.389 72.6437 210.569 72.6789ZM211.186 78.4093H207.344V83.209H211.013C213.133 83.209 214.184 82.3878 214.184 80.727C214.175 80.4026 214.088 80.0851 213.931 79.8021C213.773 79.5191 213.549 79.2791 213.278 79.1028C212.679 78.6382 211.941 78.3935 211.186 78.4093Z" />
<path d="M220.978 79.1035V71.7033C220.978 71.5847 220.978 71.5025 221.042 71.466C221.109 71.4232 221.189 71.4039 221.268 71.4113H222.174C222.214 71.4051 222.254 71.4083 222.292 71.4208C222.33 71.4332 222.365 71.4546 222.393 71.483C222.421 71.5115 222.442 71.5463 222.455 71.5846C222.467 71.6228 222.47 71.6635 222.464 71.7033V79.0032C222.374 80.191 222.73 81.3695 223.461 82.3063C224.219 83.015 225.216 83.4088 226.251 83.4088C227.286 83.4088 228.282 83.015 229.041 82.3063C229.772 81.3695 230.127 80.191 230.037 79.0032V71.7033C230.037 71.5025 230.137 71.4113 230.336 71.4113H231.242C231.281 71.4066 231.32 71.4111 231.357 71.4242C231.394 71.4374 231.427 71.459 231.455 71.4872C231.482 71.5155 231.502 71.5497 231.514 71.5872C231.526 71.6246 231.529 71.6644 231.523 71.7033V79.1035C231.571 79.8609 231.467 80.6202 231.218 81.3365C230.969 82.0527 230.58 82.7114 230.074 83.2736C229.024 84.2088 227.671 84.7251 226.269 84.7251C224.867 84.7251 223.514 84.2088 222.464 83.2736C221.951 82.7147 221.555 82.0573 221.3 81.3409C221.045 80.6244 220.935 79.8635 220.978 79.1035Z" />
<path d="M239.042 84.4869H238.136C238.096 84.4931 238.054 84.4895 238.015 84.4766C237.976 84.4636 237.94 84.4416 237.911 84.4123C237.882 84.383 237.86 84.3473 237.848 84.3079C237.835 84.2686 237.831 84.2267 237.837 84.1858V71.703C237.837 71.5022 237.937 71.411 238.136 71.411H239.042C239.081 71.4063 239.12 71.4107 239.157 71.4239C239.194 71.4371 239.227 71.4586 239.254 71.4869C239.282 71.5152 239.302 71.5494 239.314 71.5868C239.326 71.6243 239.329 71.6641 239.323 71.703V84.1858C239.323 84.3865 239.223 84.4869 239.042 84.4869Z" />
<path d="M246.145 84.1856V71.7028C246.145 71.5021 246.244 71.4108 246.444 71.4108H250.973C251.846 71.378 252.716 71.5227 253.532 71.8365C254.348 72.1503 255.093 72.6266 255.722 73.2369C256.351 73.8473 256.851 74.5791 257.193 75.3887C257.535 76.1983 257.711 77.069 257.711 77.9488C257.711 78.8285 257.535 79.6992 257.193 80.5088C256.851 81.3184 256.351 82.0503 255.722 82.6606C255.093 83.2709 254.348 83.7472 253.532 84.061C252.716 84.3748 251.846 84.5196 250.973 84.4867H246.444C246.403 84.4929 246.361 84.4894 246.322 84.4764C246.283 84.4635 246.248 84.4415 246.219 84.4122C246.189 84.3829 246.168 84.3471 246.155 84.3078C246.142 84.2684 246.138 84.2266 246.145 84.1856ZM247.612 72.6792V83.2092H250.937C251.617 83.2374 252.295 83.1129 252.922 82.8446C253.549 82.5763 254.108 82.171 254.56 81.658C255.49 80.6514 255.991 79.3183 255.956 77.9442C255.984 76.5713 255.484 75.2406 254.56 74.2304C254.108 73.7174 253.549 73.3121 252.922 73.0438C252.295 72.7755 251.617 72.651 250.937 72.6792H247.612Z" />
<path d="M273.702 82.7257C273.093 83.3581 272.363 83.8609 271.557 84.2042C270.751 84.5476 269.885 84.7245 269.01 84.7245C268.135 84.7245 267.268 84.5476 266.462 84.2042C265.656 83.8609 264.927 83.3581 264.317 82.7257C263.069 81.4518 262.369 79.734 262.369 77.9443C262.369 76.1545 263.069 74.4368 264.317 73.1629C264.927 72.5304 265.656 72.0276 266.462 71.6843C267.268 71.341 268.135 71.1641 269.01 71.1641C269.885 71.1641 270.751 71.341 271.557 71.6843C272.363 72.0276 273.093 72.5304 273.702 73.1629C274.95 74.4368 275.65 76.1545 275.65 77.9443C275.65 79.734 274.95 81.4518 273.702 82.7257ZM269.01 83.4192C269.697 83.4207 270.376 83.2732 271.001 82.9866C271.626 82.7 272.183 82.2811 272.633 81.7585C273.6 80.727 274.138 79.3625 274.138 77.9443C274.138 76.526 273.6 75.1615 272.633 74.1301C272.183 73.6074 271.626 73.1885 271.001 72.9019C270.376 72.6154 269.697 72.4678 269.01 72.4694C268.323 72.472 267.645 72.6214 267.021 72.9077C266.396 73.194 265.839 73.6106 265.386 74.1301C264.42 75.1615 263.881 76.526 263.881 77.9443C263.881 79.3625 264.42 80.727 265.386 81.7585C265.844 82.2837 266.408 82.7038 267.041 82.9903C267.674 83.2768 268.361 83.4231 269.055 83.4192H269.01Z" />
<path d="M281.384 84.1861V71.7033C281.384 71.5025 281.484 71.4113 281.683 71.4113H286.095C286.635 71.4076 287.174 71.472 287.699 71.6029C288.206 71.7341 288.689 71.9466 289.13 72.2325C289.594 72.5325 289.967 72.9556 290.208 73.4552C290.478 74.0248 290.614 74.6492 290.607 75.2802C290.676 76.1733 290.418 77.0611 289.88 77.7745C289.342 78.488 288.562 78.9772 287.69 79.1491L291.177 84.0857C291.304 84.3229 291.223 84.4416 290.951 84.4416H290.045C289.943 84.4409 289.843 84.4126 289.755 84.3596C289.667 84.3067 289.595 84.231 289.547 84.1404L286.168 79.3864H282.852V84.2043C282.859 84.2913 282.837 84.3782 282.789 84.4507C282.718 84.4936 282.635 84.5128 282.553 84.5054H281.647C281.565 84.5141 281.482 84.4949 281.412 84.4507C281.39 84.4107 281.376 84.3667 281.371 84.3212C281.366 84.2757 281.371 84.2297 281.384 84.1861ZM286.005 72.6796H282.852V78.0907H286.005C288.118 78.0907 289.175 77.1782 289.175 75.3532C289.201 74.9799 289.14 74.6055 288.997 74.2601C288.854 73.9147 288.633 73.6078 288.351 73.364C287.668 72.8753 286.841 72.6341 286.005 72.6796Z" />
<path d="M295.326 84.1859L301.369 71.3473C301.477 71.1739 301.559 71.0918 301.613 71.0918H301.668C301.713 71.0918 301.785 71.1739 301.885 71.3473L308.009 84.1859C308.091 84.3867 308.009 84.4871 307.819 84.4871H306.75C306.664 84.4839 306.581 84.4529 306.515 84.3986C306.448 84.3443 306.4 84.2698 306.378 84.1859L304.929 81.0105H298.461L297.011 84.1859C296.985 84.2705 296.934 84.3448 296.864 84.3988C296.794 84.4527 296.71 84.4835 296.622 84.4871H295.544C295.314 84.4871 295.242 84.3867 295.326 84.1859ZM301.668 73.6467L298.95 79.7421H304.385L301.668 73.6467Z" />
<path d="M89.1143 44.8304C90.4326 45.0808 91.6883 45.593 92.8081 46.3371C93.9279 47.0813 94.8895 48.0425 95.6368 49.1647C96.88 51.0284 97.4669 53.2581 97.3037 55.4973C97.1253 57.7081 96.2308 59.7986 94.7577 61.4473C93.2846 63.0959 91.3145 64.2114 89.1505 64.6222C94.3685 66.0274 97.3037 69.3671 97.3037 74.9332C97.2417 77.2658 96.369 79.5025 94.8377 81.2534C93.3063 83.0043 91.2135 84.1583 88.924 84.5143C90.3039 84.7296 91.6229 85.2369 92.794 86.0028C93.9651 86.7688 94.9618 87.776 95.7184 88.9581C96.5013 90.1176 97.0243 91.4347 97.2511 92.8182C97.478 94.2017 97.4032 95.6183 97.0319 96.9697C96.5813 98.7206 95.6693 100.316 94.3925 101.588C93.1156 102.86 91.5213 103.76 89.7781 104.195C88.035 104.629 86.2077 104.581 84.4895 104.055C82.7713 103.529 81.2261 102.546 80.0172 101.208C78.8083 99.8707 77.9807 98.229 77.6218 96.4568C77.2629 94.6845 77.3862 92.8475 77.9785 91.14C78.5708 89.4325 79.6102 87.918 80.9868 86.7565C82.3633 85.595 84.0259 84.8298 85.7986 84.5417C80.5444 83.173 77.5005 79.8789 77.4552 74.2763C77.5139 71.946 78.3759 69.709 79.8934 67.9492C81.4108 66.1893 83.4891 65.0162 85.7715 64.6313C83.3566 64.2279 81.172 62.948 79.6299 61.0332C78.0877 59.1185 77.2948 56.7014 77.4009 54.2381C77.5281 51.9509 78.4172 49.7737 79.9246 48.0583C81.432 46.343 83.4696 45.1897 85.7081 44.7848C84.3894 44.5566 83.1299 44.0633 82.0047 43.3344C80.8794 42.6054 79.9114 41.6556 79.1583 40.5417C77.9911 38.8548 77.3824 36.8398 77.419 34.7839C77.4508 32.4292 78.297 30.1594 79.8117 28.3655C81.3264 26.5717 83.4148 25.3661 85.7171 24.9565C84.329 24.7224 83.0058 24.1948 81.8347 23.4084C80.6636 22.622 79.6712 21.5947 78.9228 20.394C78.1657 19.2174 77.6701 17.8899 77.47 16.5023C77.2698 15.1148 77.3699 13.7 77.7632 12.3551C78.3977 10.163 79.7552 8.25426 81.6117 6.944C83.4683 5.63373 85.7128 5.00022 87.975 5.14801C90.2371 5.2958 92.3816 6.21607 94.0546 7.75693C95.7275 9.29778 96.8289 11.3671 97.1769 13.6234C97.3754 14.9004 97.3173 16.2045 97.0061 17.4585C96.6949 18.7124 96.1368 19.8906 95.365 20.9233C93.8538 23.0404 91.5757 24.4729 89.0237 24.9108C94.5044 26.4803 97.4396 29.9751 97.1769 35.8607C97.1428 37.308 96.7471 38.7234 96.0264 39.976C95.2947 41.2354 94.2993 42.3191 93.1093 43.1514C91.9016 43.9728 90.5435 44.5435 89.1143 44.8304Z" fill="#32C1F0"/>
<path d="M61.9008 43.7992C60.176 43.7902 58.4927 43.2658 57.064 42.2925C55.6353 41.3192 54.5255 39.9408 53.875 38.3318C53.2246 36.7228 53.0627 34.9555 53.41 33.2538C53.7573 31.5521 54.598 29.9925 55.8259 28.7724C57.0537 27.5522 58.6133 26.7265 60.3073 26.3998C62.0013 26.0731 63.7535 26.26 65.342 26.9369C66.9304 27.6138 68.2838 28.7503 69.2306 30.2024C70.1774 31.6545 70.6752 33.3569 70.6609 35.0941C70.6441 37.4183 69.7121 39.6406 68.0695 41.2729C66.4269 42.9051 64.2081 43.8138 61.9008 43.7992Z" fill="#32C1F0"/>
<path d="M61.8917 63.6461C60.1711 63.6335 58.4928 63.1075 57.0687 62.1347C55.6446 61.1619 54.5387 59.7859 53.8906 58.1804C53.2425 56.5748 53.0812 54.8119 53.4272 53.1141C53.7732 51.4164 54.6109 49.86 55.8346 48.6414C57.0582 47.4229 58.6129 46.597 60.3022 46.2679C61.9916 45.9388 63.7399 46.1214 65.3263 46.7925C66.9128 47.4637 68.2662 48.5933 69.2156 50.0387C70.1651 51.4841 70.668 53.1805 70.6609 54.9136C70.6562 56.0675 70.4254 57.2091 69.9818 58.273C69.5382 59.3368 68.8905 60.3021 68.0758 61.1133C67.2612 61.9246 66.2956 62.5659 65.2344 63.0005C64.1732 63.4351 63.0372 63.6545 61.8917 63.6461Z" fill="#32C1F0"/>
<path d="M61.9461 83.5106C60.2211 83.5087 58.5357 82.9908 57.1035 82.0224C55.6713 81.0541 54.557 79.6791 53.9019 78.0718C53.2469 76.4645 53.0806 74.6975 53.4242 72.9949C53.7678 71.2923 54.6058 69.7308 55.8318 68.5087C57.0579 67.2866 58.6167 66.4589 60.3106 66.1306C62.0044 65.8023 63.7569 65.9883 65.3456 66.6649C66.9344 67.3414 68.2878 68.4781 69.2341 69.9308C70.1805 71.3834 70.6771 73.0864 70.6609 74.8238C70.637 77.136 69.7083 79.3454 68.0766 80.9719C66.4448 82.5984 64.2418 83.5107 61.9461 83.5106Z" fill="#32C1F0"/>
<path d="M61.9008 103.384C60.1782 103.374 58.4976 102.848 57.0716 101.875C55.6456 100.901 54.5383 99.5238 53.8899 97.9164C53.2415 96.3089 53.0811 94.5438 53.4291 92.8444C53.777 91.1451 54.6176 89.5879 55.8445 88.37C57.0715 87.1521 58.6295 86.3282 60.3215 86.0025C62.0135 85.6769 63.7633 85.8641 65.3496 86.5406C66.9359 87.2171 68.2873 88.3523 69.2327 89.8027C70.1782 91.2531 70.6752 92.9534 70.6609 94.6885C70.637 97.0095 69.7024 99.2267 68.0611 100.856C66.4198 102.485 64.2051 103.394 61.9008 103.384Z" fill="#32C1F0"/>
<path d="M61.8555 23.9708C60.1401 23.9617 58.4657 23.4419 57.0429 22.4767C55.6201 21.5115 54.5124 20.144 53.8593 18.5463C53.2062 16.9486 53.0367 15.192 53.3723 13.4975C53.7078 11.803 54.5334 10.2463 55.7451 9.02329C56.9568 7.80025 58.5006 6.96547 60.1822 6.62397C61.8637 6.28247 63.608 6.44951 65.1956 7.10407C66.7831 7.75863 68.143 8.87147 69.1042 10.3026C70.0654 11.7337 70.585 13.4192 70.5975 15.147C70.6059 16.3066 70.3857 17.4563 69.9495 18.5295C69.5134 19.6027 68.8701 20.578 68.0569 21.3988C67.2437 22.2196 66.2768 22.8696 65.2122 23.3111C64.1477 23.7526 63.0067 23.9768 61.8555 23.9708Z" fill="#32C1F0"/>
<path d="M46.8808 34.93C46.8808 36.3714 46.457 37.7806 45.6631 38.9798C44.8691 40.1791 43.7404 41.1147 42.4193 41.6688C41.0982 42.2229 39.6438 42.3706 38.2395 42.0933C36.8352 41.8161 35.5438 41.1262 34.5281 40.1108C33.5124 39.0954 32.8179 37.7998 32.5322 36.3874C32.2464 34.975 32.3822 33.5089 32.9224 32.1742C33.4626 30.8394 34.3831 29.6955 35.5677 28.8869C36.7524 28.0782 38.1482 27.6409 39.5792 27.6301C40.5355 27.6229 41.4837 27.8063 42.3693 28.17C43.2548 28.5336 44.0602 29.0701 44.7389 29.7487C45.4177 30.4273 45.9564 31.2345 46.324 32.1237C46.6916 33.013 46.8808 33.9667 46.8808 34.93Z" fill="#32C1F0"/>
<path d="M39.5882 22.4103C38.1548 22.4103 36.7537 21.9822 35.5619 21.1801C34.37 20.3779 33.4411 19.2378 32.8926 17.904C32.3441 16.5701 32.2006 15.1023 32.4802 13.6863C32.7598 12.2703 33.4501 10.9695 34.4636 9.94863C35.4772 8.92773 36.7685 8.23248 38.1743 7.95082C39.5802 7.66915 41.0374 7.81371 42.3616 8.36622C43.6859 8.91873 44.8178 9.85437 45.6141 11.0548C46.4104 12.2553 46.8355 13.6666 46.8355 15.1104C46.8355 17.0465 46.0719 18.9032 44.7128 20.2722C43.3537 21.6412 41.5103 22.4103 39.5882 22.4103Z" fill="#32C1F0"/>
<path d="M39.6154 101.824C38.186 101.806 36.7938 101.362 35.614 100.549C34.4342 99.7364 33.5194 98.5902 32.9847 97.2548C32.4501 95.9194 32.3194 94.4546 32.6092 93.0447C32.899 91.6347 33.5963 90.3425 34.6133 89.3307C35.6304 88.3189 36.9218 87.6327 38.3251 87.3583C39.7284 87.084 41.1809 87.2338 42.4999 87.7889C43.8189 88.344 44.9455 89.2796 45.7379 90.478C46.5303 91.6764 46.9531 93.084 46.9533 94.5239C46.9533 95.4903 46.7629 96.447 46.3931 97.3387C46.0232 98.2304 45.4812 99.0392 44.7987 99.7182C44.1161 100.397 43.3064 100.933 42.4166 101.295C41.5269 101.656 40.5747 101.836 39.6154 101.824Z" fill="#32C1F0"/>
<path d="M46.8899 74.6597C46.8737 76.0968 46.4368 77.497 45.634 78.685C44.8311 79.873 43.6979 80.7959 42.3765 81.338C41.0551 81.88 39.6042 82.0171 38.2058 81.7321C36.8074 81.4471 35.5235 80.7527 34.5153 79.7358C33.507 78.719 32.8192 77.425 32.5379 76.016C32.2567 74.6071 32.3946 73.1459 32.9344 71.8156C33.4742 70.4852 34.3918 69.345 35.5722 68.5377C36.7527 67.7305 38.1434 67.2922 39.5701 67.2777C40.5348 67.2679 41.4917 67.4523 42.3848 67.8199C43.2779 68.1875 44.089 68.7311 44.7708 69.4186C45.4526 70.1062 45.9912 70.9239 46.3551 71.8239C46.7189 72.7239 46.9008 73.688 46.8899 74.6597Z" fill="#32C1F0"/>
<path d="M39.6516 47.4488C41.081 47.4668 42.4732 47.9102 43.653 48.7232C44.8329 49.5362 45.7477 50.6824 46.2823 52.0178C46.817 53.3532 46.9476 54.818 46.6579 56.2279C46.3681 57.6379 45.6708 58.9301 44.6537 59.9419C43.6367 60.9537 42.3452 61.6399 40.9419 61.9143C39.5386 62.1886 38.0861 62.0388 36.7671 61.4837C35.4481 60.9286 34.3216 59.993 33.5292 58.7946C32.7368 57.5962 32.3139 56.1886 32.3138 54.7487C32.3137 53.7823 32.5041 52.8256 32.874 51.9339C33.2438 51.0422 33.7858 50.2334 34.4684 49.5544C35.151 48.8753 35.9606 48.3395 36.8504 47.9781C37.7402 47.6166 38.6923 47.4367 39.6516 47.4488Z" fill="#32C1F0"/>
<path d="M26.1264 94.5972C26.1264 95.6885 25.8057 96.7554 25.2049 97.6635C24.604 98.5716 23.7498 99.2804 22.7498 99.7004C21.7499 100.121 20.6488 100.233 19.5854 100.024C18.522 99.8153 17.5438 99.294 16.7739 98.5262C16.004 97.7583 15.4769 96.7781 15.259 95.7091C15.0411 94.6401 15.1421 93.53 15.5493 92.5187C15.9564 91.5074 16.6516 90.6401 17.5472 90.0259C18.4429 89.4118 19.4989 89.0783 20.5823 89.0675C21.3071 89.0627 22.0257 89.202 22.697 89.4776C23.3683 89.7531 23.9789 90.1593 24.494 90.673C25.009 91.1868 25.4184 91.7978 25.6985 92.4712C25.9786 93.1446 26.1241 93.8671 26.1264 94.5972Z" fill="#32C1F0"/>
<path d="M15.1559 74.6499C15.1755 73.5716 15.5109 72.5231 16.1199 71.6361C16.729 70.749 17.5846 70.0629 18.5794 69.6639C19.5741 69.2649 20.6638 69.1707 21.7115 69.3931C22.7592 69.6156 23.7184 70.1448 24.4686 70.9143C25.2188 71.6838 25.7267 72.6594 25.9285 73.7186C26.1302 74.7778 26.0169 75.8734 25.6028 76.868C25.1886 77.8626 24.492 78.7118 23.6005 79.309C22.7089 79.9063 21.6621 80.225 20.5913 80.2252C19.869 80.2253 19.154 80.0805 18.488 79.7991C17.8219 79.5177 17.2182 79.1054 16.7122 78.5863C16.2061 78.0672 15.8079 77.4518 15.5406 76.7759C15.2734 76.1 15.1426 75.3773 15.1559 74.6499Z" fill="#32C1F0"/>
<path d="M26.0539 15.1565C26.0539 16.2394 25.7352 17.2979 25.1379 18.1982C24.5406 19.0986 23.6917 19.8003 22.6985 20.2147C21.7053 20.6291 20.6125 20.7375 19.5581 20.5263C18.5037 20.315 17.5352 19.7936 16.775 19.0279C16.0149 18.2622 15.4972 17.2867 15.2875 16.2246C15.0777 15.1626 15.1854 14.0618 15.5968 13.0614C16.0082 12.061 16.7049 11.2059 17.5987 10.6043C18.4926 10.0027 19.5435 9.68164 20.6185 9.68164C22.0601 9.68164 23.4426 10.2585 24.4619 11.2852C25.4813 12.3119 26.0539 13.7045 26.0539 15.1565Z" fill="#32C1F0"/>
<path d="M20.5913 40.5144C19.8683 40.5146 19.1525 40.3694 18.4858 40.0875C17.8192 39.8055 17.2151 39.3924 16.7089 38.8724C16.2027 38.3523 15.8047 37.7358 15.538 37.0588C15.2713 36.3819 15.1414 35.6582 15.1559 34.93C15.1559 33.4671 15.7328 32.0641 16.7598 31.0297C17.7868 29.9952 19.1797 29.4141 20.6321 29.4141C22.0845 29.4141 23.4774 29.9952 24.5043 31.0297C25.5313 32.0641 26.1083 33.4671 26.1083 34.93C26.123 35.6651 25.9905 36.3957 25.7188 37.0781C25.4471 37.7605 25.0417 38.3808 24.5268 38.902C24.0119 39.4232 23.3981 39.8345 22.722 40.1116C22.0458 40.3886 21.3212 40.5256 20.5913 40.5144Z" fill="#32C1F0"/>
<path d="M15.1468 54.8405C15.1468 53.3824 15.7219 51.984 16.7454 50.953C17.769 49.922 19.1573 49.3428 20.6049 49.3428C22.0525 49.3428 23.4408 49.922 24.4644 50.953C25.488 51.984 26.063 53.3824 26.063 54.8405C26.0488 56.2881 25.4716 57.6724 24.4553 58.6961C23.4391 59.7197 22.0647 60.3011 20.6276 60.3154C19.91 60.3214 19.1983 60.1843 18.5336 59.9118C17.8689 59.6394 17.2643 59.2371 16.7548 58.7281C16.2453 58.2191 15.8408 57.6135 15.5648 56.9462C15.2889 56.279 15.1468 55.5633 15.1468 54.8405Z" fill="#32C1F0"/>
<path d="M0.0634221 34.9486C0.0718312 33.8088 0.529436 32.719 1.33557 31.919C2.1417 31.1189 3.23033 30.6743 4.36196 30.6827C5.49359 30.6912 6.57554 31.1521 7.36978 31.9641C8.16402 32.7761 8.60549 33.8726 8.59708 35.0125C8.58295 36.1495 8.12763 37.2358 7.32854 38.0389C6.52944 38.8421 5.45003 39.2984 4.32119 39.3103C3.7559 39.3104 3.19626 39.1971 2.6749 38.977C2.15354 38.7569 1.68091 38.4345 1.28458 38.0285C0.888246 37.6224 0.576147 37.141 0.366486 36.6122C0.156825 36.0834 0.0538001 35.5179 0.0634221 34.9486Z" fill="#32C1F0"/>
<path d="M4.34836 70.3705C4.914 70.3691 5.4742 70.4816 5.99612 70.7012C6.51804 70.9209 6.99116 71.2433 7.38774 71.6496C7.78432 72.0558 8.09637 72.5377 8.30559 73.0671C8.51481 73.5964 8.61699 74.1625 8.60613 74.7321C8.57765 75.8738 8.10487 76.9584 7.28974 77.7521C6.47461 78.5459 5.38243 78.9851 4.24871 78.9752C3.12806 78.9489 2.06224 78.4814 1.27984 77.6728C0.497431 76.8643 0.0607371 75.7791 0.0634101 74.65C0.0609581 74.0842 0.170385 73.5236 0.385308 73.0009C0.600231 72.4782 0.916346 72.0038 1.31521 71.6055C1.71408 71.2071 2.18771 70.8927 2.70847 70.6807C3.22923 70.4686 3.78671 70.3632 4.34836 70.3705Z" fill="#32C1F0"/>
<path d="M8.60614 94.597C8.60498 95.1597 8.49318 95.7166 8.27722 96.2356C8.06125 96.7545 7.74538 97.2252 7.34784 97.6206C6.9503 98.0159 6.47897 98.328 5.96105 98.5389C5.44312 98.7498 4.88886 98.8552 4.33025 98.8492C3.48226 98.8491 2.65344 98.5951 1.94914 98.1194C1.24484 97.6437 0.696882 96.9678 0.374909 96.1776C0.0529354 95.3874 -0.0285077 94.5186 0.140932 93.6817C0.310372 92.8448 0.723042 92.0775 1.32649 91.4774C1.92993 90.8773 2.69689 90.4715 3.52988 90.3115C4.36287 90.1516 5.22427 90.2447 6.00458 90.5791C6.78488 90.9135 7.44886 91.4741 7.9121 92.1895C8.37534 92.9049 8.61692 93.743 8.60614 94.597Z" fill="#32C1F0"/>
<path d="M8.54273 15.1741C8.54325 15.7506 8.42788 16.3213 8.20358 16.8516C7.97928 17.382 7.65069 17.8612 7.2376 18.2602C6.82452 18.6592 6.33551 18.9699 5.80003 19.1734C5.26456 19.377 4.69371 19.4692 4.12189 19.4446C3.01407 19.3718 1.97778 18.8679 1.23214 18.0395C0.486513 17.211 0.0900112 16.1229 0.126487 15.0053C0.162963 13.8876 0.629557 12.8281 1.4276 12.0508C2.22564 11.2734 3.29255 10.8392 4.40272 10.8398C5.52008 10.8686 6.58119 11.3396 7.35613 12.1509C8.13106 12.9622 8.55739 14.0484 8.54273 15.1741Z" fill="#32C1F0"/>
<path d="M0.0543554 54.8218C0.0446324 54.2558 0.147684 53.6936 0.357417 53.1685C0.567149 52.6433 0.879303 52.1658 1.27542 51.7643C1.67153 51.3628 2.14357 51.0453 2.6636 50.8307C3.18364 50.6161 3.74112 50.5087 4.30307 50.5149C5.1499 50.5095 5.97925 50.7575 6.68599 51.2274C7.39272 51.6973 7.945 52.3681 8.2728 53.1546C8.60061 53.9411 8.68917 54.8079 8.52726 55.6452C8.36536 56.4824 7.96028 57.2524 7.36338 57.8575C6.76648 58.4625 6.00465 58.8755 5.17448 59.0439C4.3443 59.2123 3.48317 59.1286 2.70027 58.8035C1.91737 58.4783 1.24796 57.9263 0.776904 57.2174C0.30585 56.5086 0.0543725 55.6748 0.0543554 54.8218Z" fill="#32C1F0"/>
</svg>
