<svg width="154" height="157" viewBox="0 0 154 157" fill="none" xmlns="http://www.w3.org/2000/svg">
<path d="M140.922 62.3707C143.008 62.7641 144.995 63.5687 146.767 64.7377C148.539 65.9067 150.06 67.4166 151.243 69.1795C153.21 72.1072 154.138 75.6099 153.88 79.1276C153.598 82.6005 152.183 85.8845 149.852 88.4744C147.521 91.0643 144.403 92.8167 140.979 93.4619C149.236 95.6694 153.88 100.916 153.88 109.66C153.782 113.324 152.401 116.838 149.978 119.588C147.555 122.339 144.244 124.152 140.621 124.711C142.804 125.049 144.891 125.846 146.744 127.049C148.598 128.252 150.175 129.835 151.372 131.692C152.611 133.513 153.438 135.582 153.797 137.756C154.156 139.929 154.038 142.154 153.45 144.277C152.737 147.028 151.294 149.534 149.274 151.532C147.253 153.53 144.731 154.945 141.972 155.627C139.214 156.309 136.323 156.233 133.604 155.407C130.885 154.582 128.44 153.036 126.528 150.935C124.615 148.834 123.305 146.255 122.737 143.471C122.169 140.687 122.364 137.802 123.302 135.119C124.239 132.437 125.884 130.058 128.062 128.233C130.24 126.408 132.871 125.206 135.676 124.754C127.362 122.604 122.545 117.429 122.474 108.628C122.567 104.967 123.931 101.453 126.332 98.6883C128.733 95.9237 132.021 94.0809 135.633 93.4762C131.812 92.8425 128.355 90.8319 125.915 87.824C123.475 84.8161 122.22 81.019 122.388 77.1494C122.589 73.5564 123.996 70.1362 126.381 67.4415C128.766 64.7468 131.99 62.9351 135.532 62.299C133.446 61.9406 131.453 61.1657 129.672 60.0206C127.892 58.8754 126.36 57.3834 125.169 55.6336C123.322 52.9836 122.358 49.8182 122.416 46.5886C122.467 42.8895 123.806 39.3238 126.202 36.5058C128.599 33.6878 131.904 31.7939 135.547 31.1505C133.35 30.7828 131.256 29.954 129.403 28.7187C127.55 27.4833 125.98 25.8694 124.796 23.9833C123.598 22.1349 122.814 20.0494 122.497 17.8697C122.18 15.69 122.339 13.4676 122.961 11.3547C123.965 7.91113 126.113 4.91274 129.051 2.85442C131.988 0.796107 135.54 -0.199092 139.119 0.0330785C142.699 0.265249 146.092 1.71091 148.739 4.13146C151.386 6.55202 153.129 9.80278 153.68 13.3472C153.994 15.3532 153.902 17.4019 153.409 19.3718C152.917 21.3416 152.034 23.1925 150.813 24.8147C148.421 28.1405 144.817 30.3909 140.779 31.0788C149.451 33.5443 154.095 39.0344 153.68 48.28C153.626 50.5537 153 52.7771 151.859 54.7448C150.701 56.7234 149.126 58.4257 147.243 59.7332C145.332 61.0235 143.183 61.9201 140.922 62.3707Z" fill="white"/>
<path d="M97.8616 60.75C95.1325 60.7357 92.469 59.912 90.2084 58.383C87.9477 56.8541 86.1916 54.6887 85.1624 52.1611C84.1331 49.6335 83.877 46.8573 84.4265 44.184C84.976 41.5108 86.3064 39.0607 88.2492 37.144C90.192 35.2273 92.6599 33.9303 95.3403 33.417C98.0208 32.9037 100.793 33.1973 103.307 34.2607C105.82 35.3241 107.962 37.1093 109.46 39.3905C110.958 41.6716 111.746 44.346 111.723 47.075C111.696 50.726 110.222 54.2171 107.622 56.7813C105.023 59.3454 101.513 60.7729 97.8616 60.75Z" fill="white"/>
<path d="M97.8473 91.9272C95.1247 91.9074 92.4691 91.0812 90.2158 89.553C87.9625 88.0248 86.2125 85.8631 85.187 83.341C84.1615 80.8189 83.9063 78.0494 84.4538 75.3824C85.0013 72.7153 86.3268 70.2703 88.2629 68.3562C90.1991 66.442 92.6591 65.1445 95.3322 64.6275C98.0053 64.1106 100.772 64.3974 103.282 65.4517C105.792 66.5059 107.934 68.2805 109.436 70.5511C110.938 72.8217 111.734 75.4866 111.723 78.2092C111.715 80.0219 111.35 81.8152 110.648 83.4865C109.946 85.1577 108.922 86.674 107.633 87.9484C106.343 89.2228 104.816 90.2302 103.136 90.913C101.457 91.5958 99.6599 91.9404 97.8473 91.9272Z" fill="white"/>
<path d="M97.9333 123.133C95.2039 123.13 92.537 122.316 90.2708 120.795C88.0047 119.274 86.2415 117.114 85.2049 114.589C84.1684 112.064 83.9053 109.288 84.449 106.613C84.9927 103.939 86.3186 101.486 88.2586 99.566C90.1986 97.6461 92.6652 96.3459 95.3454 95.8302C98.0256 95.3145 100.799 95.6066 103.313 96.6694C105.826 97.7323 107.968 99.5179 109.465 101.8C110.963 104.082 111.749 106.757 111.723 109.486C111.685 113.119 110.216 116.589 107.634 119.145C105.052 121.7 101.566 123.133 97.9333 123.133Z" fill="white"/>
<path d="M97.8616 154.353C95.136 154.336 92.4767 153.511 90.2203 151.982C87.9639 150.452 86.2118 148.288 85.1859 145.763C84.1599 143.238 83.9061 140.465 84.4567 137.796C85.0073 135.126 86.3374 132.68 88.2787 130.767C90.2201 128.853 92.6854 127.559 95.3627 127.048C98.0399 126.536 100.809 126.83 103.319 127.893C105.829 128.955 107.967 130.739 109.463 133.017C110.959 135.296 111.746 137.967 111.723 140.692C111.685 144.339 110.206 147.822 107.609 150.381C105.012 152.94 101.508 154.368 97.8616 154.353Z" fill="white"/>
<path d="M97.79 29.6019C95.0757 29.5876 92.4262 28.771 90.1749 27.2548C87.9236 25.7385 86.1709 23.5903 85.1375 21.0805C84.104 18.5706 83.8359 15.8111 84.3669 13.1492C84.8978 10.4874 86.2041 8.04196 88.1215 6.12066C90.0388 4.19936 92.4815 2.88799 95.1423 2.35153C97.803 1.81507 100.563 2.07747 103.075 3.10573C105.587 4.13398 107.739 5.88217 109.26 8.13035C110.781 10.3785 111.603 13.0263 111.623 15.7405C111.636 17.5621 111.287 19.3682 110.597 21.0541C109.907 22.74 108.889 24.272 107.603 25.5615C106.316 26.8509 104.786 27.872 103.101 28.5656C101.417 29.2592 99.6116 29.6114 97.79 29.6019Z" fill="white"/>
<path d="M74.0952 46.8164C74.0952 49.0808 73.4247 51.2945 72.1684 53.1784C70.9121 55.0623 69.1262 56.5321 67.0358 57.4025C64.9454 58.2729 62.6441 58.505 60.422 58.0695C58.1999 57.6339 56.1565 56.5502 54.5494 54.9551C52.9423 53.3599 51.8434 51.3247 51.3912 49.1059C50.9391 46.8871 51.1539 44.5841 52.0087 42.4873C52.8635 40.3904 54.3199 38.5936 56.1944 37.3232C58.0688 36.0529 60.2774 35.3659 62.5418 35.349C64.0549 35.3376 65.5554 35.6258 66.9566 36.1971C68.3578 36.7683 69.6322 37.6112 70.7062 38.6771C71.7801 39.7431 72.6325 41.0111 73.2142 42.4081C73.7959 43.805 74.0953 45.3032 74.0952 46.8164Z" fill="white"/>
<path d="M62.5561 27.1498C60.2881 27.1498 58.0709 26.4773 56.1851 25.2172C54.2993 23.9571 52.8295 22.1662 51.9615 20.0707C51.0936 17.9753 50.8665 15.6696 51.309 13.4451C51.7514 11.2207 52.8436 9.17735 54.4474 7.5736C56.0511 5.96984 58.0944 4.87767 60.3189 4.43519C62.5434 3.99272 64.8491 4.21981 66.9445 5.08776C69.0399 5.95571 70.8309 7.42552 72.091 9.31134C73.351 11.1972 74.0236 13.4143 74.0236 15.6823C74.0236 18.7237 72.8154 21.6405 70.6648 23.7911C68.5143 25.9416 65.5975 27.1498 62.5561 27.1498Z" fill="white"/>
<path d="M62.5991 151.903C60.3374 151.875 58.1345 151.178 56.2676 149.901C54.4008 148.624 52.9533 146.823 52.1073 144.725C51.2613 142.628 51.0545 140.327 51.5131 138.112C51.9716 135.897 53.0749 133.867 54.6842 132.277C56.2936 130.688 58.337 129.61 60.5575 129.179C62.7779 128.748 65.0763 128.983 67.1633 129.855C69.2504 130.727 71.033 132.197 72.2868 134.079C73.5407 135.962 74.2098 138.173 74.2099 140.435C74.2101 141.953 73.9088 143.456 73.3235 144.857C72.7383 146.258 71.8808 147.528 70.8007 148.595C69.7206 149.662 68.4394 150.504 67.0316 151.071C65.6237 151.639 64.1171 151.922 62.5991 151.903Z" fill="white"/>
<path d="M74.1095 109.229C74.084 111.486 73.3927 113.686 72.1223 115.552C70.8519 117.419 69.0589 118.868 66.968 119.72C64.8771 120.571 62.5814 120.787 60.3686 120.339C58.1558 119.891 56.1244 118.8 54.529 117.203C52.9336 115.606 51.8452 113.573 51.4003 111.36C50.9553 109.146 51.1735 106.851 52.0276 104.761C52.8817 102.671 54.3337 100.88 56.2015 99.6118C58.0693 98.3437 60.2699 97.6551 62.5274 97.6324C64.0538 97.6171 65.568 97.9066 66.9811 98.4841C68.3942 99.0616 69.6778 99.9155 70.7565 100.996C71.8353 102.076 72.6876 103.36 73.2633 104.774C73.8391 106.188 74.1268 107.702 74.1095 109.229Z" fill="white"/>
<path d="M62.6565 66.4833C64.9182 66.5116 67.1211 67.2081 68.9879 68.4852C70.8548 69.7624 72.3023 71.5631 73.1483 73.6608C73.9943 75.7585 74.2011 78.0596 73.7425 80.2746C73.284 82.4895 72.1807 84.5194 70.5714 86.1088C68.962 87.6983 66.9186 88.7763 64.6981 89.2073C62.4777 89.6383 60.1793 89.403 58.0923 88.531C56.0052 87.659 54.2226 86.1892 52.9688 84.3066C51.7149 82.4241 51.0458 80.2127 51.0457 77.9508C51.0455 76.4327 51.3468 74.9297 51.9321 73.529C52.5173 72.1283 53.3748 70.8577 54.4549 69.791C55.535 68.7242 56.8161 67.8825 58.224 67.3147C59.6319 66.7469 61.1385 66.4643 62.6565 66.4833Z" fill="white"/>
<path d="M41.2553 140.55C41.2552 142.264 40.7478 143.94 39.7971 145.367C38.8463 146.794 37.4947 147.907 35.9124 148.567C34.3302 149.227 32.588 149.404 30.9053 149.076C29.2227 148.747 27.6748 147.928 26.4566 146.722C25.2384 145.516 24.4044 143.976 24.0596 142.297C23.7147 140.618 23.8745 138.874 24.5188 137.285C25.1631 135.696 26.2631 134.334 27.6803 133.369C29.0974 132.404 30.7683 131.88 32.4826 131.863C33.6295 131.856 34.7667 132.075 35.8288 132.508C36.891 132.94 37.8572 133.579 38.6722 134.386C39.4872 135.193 40.1349 136.153 40.5782 137.21C41.0214 138.268 41.2515 139.403 41.2553 140.55Z" fill="white"/>
<path d="M23.8963 109.214C23.9274 107.52 24.4581 105.873 25.4218 104.48C26.3856 103.086 27.7394 102.009 29.3134 101.382C30.8875 100.755 32.6116 100.607 34.2694 100.956C35.9273 101.306 37.445 102.137 38.632 103.346C39.8191 104.555 40.6228 106.087 40.942 107.751C41.2613 109.415 41.082 111.136 40.4267 112.699C39.7714 114.261 38.6692 115.595 37.2584 116.533C35.8477 117.472 34.1912 117.972 32.497 117.973C31.3541 117.973 30.2227 117.745 29.1688 117.303C28.1149 116.861 27.1597 116.214 26.359 115.398C25.5582 114.583 24.928 113.616 24.5052 112.554C24.0824 111.492 23.8754 110.357 23.8963 109.214Z" fill="white"/>
<path d="M41.1406 15.7549C41.1406 17.456 40.6361 19.1188 39.6911 20.5332C38.746 21.9475 37.4028 23.0499 35.8313 23.7008C34.2597 24.3518 32.5304 24.5221 30.8621 24.1903C29.1937 23.8584 27.6612 23.0393 26.4584 21.8365C25.2556 20.6336 24.4364 19.1012 24.1046 17.4328C23.7727 15.7645 23.9431 14.0352 24.594 12.4636C25.245 10.892 26.3473 9.54881 27.7617 8.60376C29.1761 7.65871 30.8389 7.1543 32.5399 7.1543C34.821 7.1543 37.0086 8.06043 38.6215 9.67336C40.2344 11.2863 41.1406 13.4739 41.1406 15.7549Z" fill="white"/>
<path d="M32.497 55.5901C31.3529 55.5903 30.2203 55.3623 29.1655 54.9193C28.1106 54.4764 27.1547 53.8275 26.3538 53.0105C25.5529 52.1936 24.923 51.225 24.501 50.1616C24.0791 49.0982 23.8735 47.9613 23.8964 46.8175C23.8964 44.5193 24.8093 42.3153 26.4343 40.6903C28.0594 39.0653 30.2634 38.1523 32.5615 38.1523C34.8596 38.1523 37.0636 39.0653 38.6887 40.6903C40.3137 42.3153 41.2266 44.5193 41.2266 46.8175C41.2498 47.9722 41.0402 49.1199 40.6103 50.1919C40.1804 51.2639 39.5389 52.2383 38.7242 53.0571C37.9095 53.8758 36.9382 54.522 35.8683 54.9572C34.7985 55.3924 33.6519 55.6076 32.497 55.5901Z" fill="white"/>
<path d="M23.882 78.0954C23.882 75.8049 24.7919 73.6082 26.4116 71.9885C28.0312 70.3689 30.2279 69.459 32.5185 69.459C34.809 69.459 37.0057 70.3689 38.6254 71.9885C40.245 73.6082 41.1549 75.8049 41.1549 78.0954C41.1325 80.3695 40.2192 82.5441 38.6111 84.1522C37.003 85.7603 34.8284 86.6736 32.5543 86.696C31.4188 86.7055 30.2927 86.49 29.241 86.062C28.1892 85.6341 27.2326 85.0021 26.4264 84.2025C25.6201 83.4029 24.9802 82.4516 24.5435 81.4034C24.1068 80.3552 23.882 79.2309 23.882 78.0954Z" fill="white"/>
<path d="M0.0153194 46.846C0.0286254 45.0554 0.752701 43.3434 2.02826 42.0867C3.30382 40.83 5.02637 40.1314 6.81697 40.1447C8.60757 40.158 10.3196 40.8821 11.5763 42.1577C12.833 43.4332 13.5316 45.1558 13.5183 46.9464C13.4959 48.7325 12.7755 50.439 11.511 51.7007C10.2466 52.9624 8.53864 53.6793 6.75247 53.6979C5.858 53.698 4.97246 53.52 4.14751 53.1743C3.32255 52.8285 2.5747 52.322 1.94758 51.6842C1.32045 51.0464 0.826612 50.2901 0.494862 49.4595C0.163112 48.6288 9.43784e-05 47.7404 0.0153194 46.846Z" fill="white"/>
<path d="M6.79541 102.491C7.69043 102.489 8.57685 102.665 9.40269 103.01C10.2285 103.355 10.9772 103.862 11.6047 104.5C12.2322 105.138 12.726 105.895 13.057 106.727C13.3881 107.558 13.5497 108.448 13.5326 109.343C13.4875 111.136 12.7394 112.84 11.4496 114.087C10.1598 115.334 8.43163 116.024 6.63773 116.008C4.86451 115.967 3.17805 115.232 1.94004 113.962C0.70202 112.692 0.0110321 110.987 0.0152615 109.214C0.0113817 108.325 0.18453 107.444 0.524607 106.623C0.864683 105.802 1.36488 105.057 1.99601 104.431C2.62714 103.805 3.37657 103.311 4.20059 102.978C5.0246 102.645 5.9067 102.479 6.79541 102.491Z" fill="white"/>
<path d="M13.5327 140.549C13.5308 141.433 13.3539 142.308 13.0122 143.123C12.6705 143.938 12.1707 144.678 11.5416 145.299C10.9126 145.92 10.1668 146.41 9.34729 146.741C8.52777 147.073 7.65075 147.238 6.76686 147.229C5.42507 147.229 4.11361 146.83 2.99919 146.082C1.88477 145.335 1.01772 144.273 0.508254 143.032C-0.0012096 141.791 -0.130078 140.426 0.138029 139.111C0.406136 137.796 1.05911 136.591 2.01395 135.648C2.96879 134.706 4.18237 134.068 5.50042 133.817C6.81848 133.566 8.18148 133.712 9.41617 134.237C10.6509 134.763 11.7015 135.643 12.4345 136.767C13.1675 137.891 13.5497 139.207 13.5327 140.549Z" fill="white"/>
<path d="M13.4323 15.7834C13.4331 16.689 13.2506 17.5855 12.8956 18.4186C12.5407 19.2518 12.0208 20.0045 11.3672 20.6313C10.7135 21.2582 9.93975 21.7462 9.09246 22.0659C8.24516 22.3857 7.3419 22.5306 6.43711 22.4919C4.68419 22.3776 3.04443 21.5861 1.86461 20.2846C0.684783 18.9831 0.0573906 17.2738 0.115107 15.5181C0.172823 13.7624 0.911123 12.098 2.17388 10.8769C3.43663 9.65569 5.12483 8.97352 6.88147 8.97461C8.64948 9.01971 10.3285 9.75968 11.5547 11.0342C12.7809 12.3087 13.4555 14.015 13.4323 15.7834Z" fill="white"/>
<path d="M0.000995583 78.066C-0.0143892 77.1769 0.148671 76.2937 0.480534 75.4687C0.812397 74.6438 1.30632 73.8937 1.9331 73.2629C2.55988 72.6321 3.30679 72.1334 4.12965 71.7963C4.95251 71.4592 5.83462 71.2905 6.72381 71.3002C8.06376 71.2917 9.37606 71.6812 10.4943 72.4195C11.6126 73.1577 12.4865 74.2114 13.0052 75.4469C13.5239 76.6824 13.664 78.0441 13.4078 79.3594C13.1516 80.6747 12.5107 81.8842 11.5662 82.8348C10.6217 83.7853 9.41625 84.4339 8.10265 84.6985C6.78905 84.9631 5.42647 84.8316 4.18768 84.3208C2.94888 83.81 1.88965 82.9429 1.1443 81.8293C0.39894 80.7158 0.00102265 79.406 0.000995583 78.066Z" fill="white"/>
</svg>
