<svg width="22" height="22" viewBox="0 0 22 22" fill="none" xmlns="http://www.w3.org/2000/svg">
<path d="M21.0496 13.0625L21.0275 13.0447L19.5481 11.8845C19.4545 11.8104 19.3797 11.7151 19.33 11.6065C19.2803 11.4979 19.2571 11.379 19.2622 11.2597V10.7178C19.2575 10.5992 19.281 10.4812 19.3308 10.3735C19.3806 10.2658 19.4553 10.1714 19.5486 10.0981L21.0275 8.9375L21.0496 8.91969C21.2776 8.72969 21.4307 8.46475 21.4814 8.17225C21.532 7.87976 21.477 7.57877 21.3261 7.32312L19.3241 3.85906C19.3218 3.85579 19.3197 3.85235 19.318 3.84875C19.1663 3.59664 18.9311 3.40562 18.6532 3.30886C18.3754 3.2121 18.0724 3.21571 17.7969 3.31906L17.7805 3.32516L16.0414 4.025C15.9317 4.06938 15.8129 4.08704 15.695 4.07653C15.5771 4.06602 15.4633 4.02763 15.3631 3.96453C15.2094 3.86766 15.0531 3.77609 14.8944 3.68984C14.7915 3.63403 14.7031 3.55481 14.6364 3.45856C14.5697 3.36232 14.5266 3.25176 14.5105 3.13578L14.2485 1.28L14.2428 1.24625C14.1858 0.958811 14.0315 0.699768 13.806 0.512653C13.5805 0.325538 13.2974 0.221757 13.0044 0.21875H8.99565C8.69849 0.219701 8.4112 0.325492 8.18439 0.517486C7.95758 0.70948 7.80581 0.975359 7.7558 1.26828L7.75159 1.29453L7.49049 3.15406C7.47448 3.2697 7.43168 3.38001 7.36552 3.4762C7.29936 3.57239 7.21166 3.6518 7.1094 3.70813C6.95019 3.79388 6.79385 3.88486 6.64065 3.98094C6.54065 4.04365 6.42719 4.08174 6.30961 4.09209C6.19202 4.10244 6.07366 4.08475 5.96424 4.04047L4.22377 3.33734L4.20737 3.33078C3.93149 3.22731 3.62807 3.22384 3.34989 3.32096C3.07172 3.41808 2.8364 3.60965 2.68487 3.86234L2.67877 3.87266L0.673929 7.33906C0.522818 7.59497 0.467665 7.89629 0.518333 8.18913C0.569 8.48197 0.722184 8.74724 0.950492 8.9375L0.972523 8.95531L2.4519 10.1155C2.54558 10.1896 2.62035 10.2849 2.67006 10.3935C2.71976 10.5021 2.74299 10.621 2.73784 10.7403V11.2822C2.74253 11.4008 2.71902 11.5188 2.66923 11.6265C2.61944 11.7342 2.54479 11.8286 2.45143 11.9019L0.972523 13.0625L0.950492 13.0803C0.72241 13.2703 0.569351 13.5353 0.518683 13.8277C0.468016 14.1202 0.523045 14.4212 0.673929 14.6769L2.67596 18.1409C2.67827 18.1442 2.6803 18.1477 2.68205 18.1512C2.83375 18.4034 3.06896 18.5944 3.34682 18.6911C3.62469 18.7879 3.92767 18.7843 4.20315 18.6809L4.21955 18.6748L5.95721 17.975C6.06697 17.9306 6.18571 17.913 6.30364 17.9235C6.42157 17.934 6.53531 17.9724 6.63549 18.0355C6.78924 18.1327 6.94549 18.2242 7.10424 18.3102C7.20717 18.366 7.29554 18.4452 7.36223 18.5414C7.42891 18.6377 7.47204 18.7482 7.48815 18.8642L7.74877 20.72L7.7544 20.7537C7.81154 21.0417 7.9662 21.3011 8.19231 21.4882C8.41841 21.6754 8.70214 21.7789 8.99565 21.7812H13.0044C13.3016 21.7803 13.5888 21.6745 13.8157 21.4825C14.0425 21.2905 14.1942 21.0246 14.2442 20.7317L14.2485 20.7055L14.5096 18.8459C14.5258 18.7301 14.569 18.6196 14.6356 18.5234C14.7021 18.4272 14.7903 18.3479 14.893 18.2919C15.0533 18.2056 15.2099 18.1142 15.3617 18.0191C15.4617 17.9564 15.5752 17.9183 15.6928 17.9079C15.8104 17.8976 15.9287 17.9153 16.0381 17.9595L17.7786 18.6603L17.795 18.6669C18.0709 18.7705 18.3744 18.7741 18.6526 18.677C18.9308 18.5798 19.1661 18.3881 19.3175 18.1353C19.3194 18.1318 19.3214 18.1283 19.3236 18.125L21.3256 14.6614C21.477 14.4055 21.5324 14.1041 21.4818 13.8112C21.4312 13.5182 21.278 13.2528 21.0496 13.0625ZM14.7458 11.1763C14.7117 11.9021 14.4674 12.6025 14.0426 13.1921C13.6178 13.7817 13.0309 14.2352 12.3531 14.4974C11.6754 14.7597 10.936 14.8193 10.225 14.6692C9.51402 14.519 8.86196 14.1655 8.34814 13.6516C7.83431 13.1377 7.48087 12.4856 7.33079 11.7746C7.18071 11.0635 7.24045 10.3242 7.50276 9.64651C7.76507 8.96881 8.21863 8.38192 8.8083 7.95721C9.39797 7.5325 10.0983 7.28827 10.8242 7.25422C11.3454 7.23127 11.8656 7.31702 12.3518 7.50601C12.838 7.695 13.2796 7.98309 13.6484 8.35197C14.0172 8.72085 14.3053 9.16244 14.4942 9.64867C14.6831 10.1349 14.7688 10.6551 14.7458 11.1763Z" fill="#666666"/>
</svg>
