<svg width="162" height="162" viewBox="0 0 162 162" fill="none" xmlns="http://www.w3.org/2000/svg">
<path d="M52.1754 7.78389C49.7391 1.89874 43.316 -1.23369 37.1777 0.443267L9.33398 8.03702C3.82852 9.55577 0 14.555 0 20.2503C0 98.5292 63.4711 162 141.75 162C147.445 162 152.445 158.172 153.963 152.666L161.557 124.823C163.234 118.684 160.102 112.261 154.216 109.825L123.841 97.1687C118.684 95.0171 112.704 96.5042 109.192 100.839L96.409 116.438C74.134 105.901 56.0988 87.8663 45.5625 65.5913L61.1613 52.8401C65.4961 49.2964 66.9832 43.348 64.8316 38.1905L52.1754 7.81553V7.78389Z" />
</svg>
