<?xml version="1.0" encoding="UTF-8"?>
<svg id="Capa_2" xmlns="http://www.w3.org/2000/svg" viewBox="0 0 30.01 36.34">
    <path
        d="M27.93,25.42c0,2.18,0,4.37,0,6.55,0,2.51-1.79,4.34-4.3,4.35-6.47,.02-12.94,.02-19.41,0-2.44,0-4.23-1.86-4.23-4.31C0,22.79,0,13.58,0,4.36,0,2.17,1.18,.67,3.31,.1c.06-.02,.11-.06,.17-.1H24.38c.78,.23,1.55,.5,2.16,1.07,.85,.79,1.36,1.76,1.38,2.93,.03,2.44,0,4.87,0,7.42-.62-.54-1.15-1.07-1.75-1.49-.86-.59-1.18-1.32-1.08-2.36,.1-1.07,.02-2.15,.02-3.22,0-1.02-.55-1.57-1.59-1.57-2.37,0-4.75,0-7.12,0-3.99,0-7.99,0-11.98,0-1.07,0-1.65,.58-1.65,1.63,0,9.13,0,18.26,.02,27.39,0,.44,.18,.95,.45,1.29,.2,.25,.68,.4,1.04,.4,6.47,.02,12.94,.02,19.41,.01,.87,0,1.43-.57,1.43-1.44,0-1.43,0-2.87,0-4.3,0-.19,.04-.43,.17-.55,.84-.77,1.7-1.51,2.64-2.34v.54Z" />
    <path
        d="M30.01,18.18c-1.61,1.4-3.22,2.79-4.83,4.19-1.78,1.54-3.56,3.08-5.33,4.62-.6,.52-1.39,.31-1.6-.46-.09-.32-.11-.67-.11-1.01-.01-1.04,0-2.08,0-3.18h-6.93c-.48,0-.96,.01-1.43,0-.77-.01-1.37-.53-1.38-1.29-.03-1.95-.03-3.89,0-5.84,.01-.74,.66-1.24,1.48-1.25,2.53,0,5.05,0,7.58,0h.67c0-1.09,0-2.14,0-3.19,0-.35,.03-.72,.12-1.06,.21-.75,.93-.96,1.51-.45,3.38,2.92,6.75,5.85,10.12,8.78,.04,.03,.07,.08,.11,.13Z" />
</svg>