<svg width="44" height="70" viewBox="0 0 44 70" fill="none" xmlns="http://www.w3.org/2000/svg">
<path d="M44 21.9685C44 30.3336 39.318 37.6066 32.428 41.3172C29.3246 42.9885 25.7732 43.937 22 43.937C18.2268 43.937 14.6754 42.9885 11.572 41.3172C4.68203 37.6066 0 30.3336 0 21.9685C0 9.83564 9.84974 0 22 0C34.1503 0 44 9.83564 44 21.9685Z" fill="#31C2F1"/>
<path d="M22 43.937C18.2268 43.937 14.6754 42.9885 11.572 41.3172C19.1859 56.1705 21.1304 72.521 22 69.05C22.8696 65.579 24.8664 55.3727 32.428 41.3172C29.3246 42.9885 25.7732 43.937 22 43.937Z" fill="#31C2F1"/>
<path d="M34.4271 13.7148L31.7943 9.59502C31.56 9.22711 31.1419 9 30.6962 9H14.302C13.8563 9 13.4382 9.22711 13.2039 9.59502L10.5665 13.7148C9.20644 15.8405 10.4103 18.7974 12.9512 19.1381C13.135 19.1608 13.3234 19.1744 13.5071 19.1744C14.7064 19.1744 15.7724 18.6566 16.5029 17.8572C17.2335 18.6566 18.2995 19.1744 19.4987 19.1744C20.698 19.1744 21.7639 18.6566 22.4945 17.8572C23.2251 18.6566 24.2911 19.1744 25.4903 19.1744C26.6941 19.1744 27.7555 18.6566 28.4861 17.8572C29.2212 18.6566 30.2826 19.1744 31.4819 19.1744C31.6703 19.1744 31.854 19.1608 32.0378 19.1381C34.5879 18.802 35.7964 15.845 34.4317 13.7148H34.4271ZM32.2262 20.5779H32.2216C31.9781 20.6097 31.73 20.6279 31.4773 20.6279C30.9075 20.6279 30.3607 20.5416 29.8507 20.3872V26.4419H15.1475V20.3826C14.6329 20.5416 14.0815 20.6279 13.5117 20.6279C13.259 20.6279 13.0063 20.6097 12.7628 20.5779H12.7582C12.5698 20.5507 12.386 20.5189 12.2068 20.4735V26.4419V29.3488C12.2068 30.9522 13.5255 32.2558 15.1475 32.2558H29.8507C31.4727 32.2558 32.7914 30.9522 32.7914 29.3488V26.4419V20.4735C32.6076 20.5189 32.4238 20.5552 32.2262 20.5779Z" fill="white"/>
</svg>
