<svg width="180" height="178" viewBox="0 0 180 178" fill="none" xmlns="http://www.w3.org/2000/svg">
<path d="M175.634 170.423H167.887C156.479 15.493 157.183 21.6901 156.761 21.1268C156.479 20.5634 156.479 20.2817 156.197 20C155.915 19.7183 143.099 6.90141 137.324 1.26761C136.761 0.56338 135.493 0 134.648 0H48.7324C47.8873 0 46.9014 0.28169 46.338 0.84507C22.3944 20.7042 23.9437 19.5775 23.662 19.8592C23.0986 20.4225 22.8169 20.9859 22.8169 21.6901C22.8169 21.9718 13.8028 141.408 11.6901 170.423H3.94366C1.83099 170.423 0 172.254 0 174.225C0 176.197 1.83099 177.746 3.94366 177.746C10.5634 177.746 170.282 177.746 176.056 177.746C178.169 177.746 180 175.915 180 174.225C179.859 172.394 177.746 170.423 175.634 170.423ZM50 7.46479H133.239L144.366 18.4507H36.4789L50 7.46479ZM18.8732 170.423L29.5775 26.0563H149.859L160.563 170.282H18.8732V170.423Z" fill="white"/>
<path d="M123.239 81.409V54.7893C127.746 53.24 130.704 49.1555 130.704 44.3668C130.704 38.1696 125.633 33.3809 119.577 33.3809C113.239 33.3809 108.45 38.4513 108.45 44.3668C108.45 49.1555 111.408 53.24 115.915 54.7893V81.409C115.915 95.6344 104.225 107.184 89.8587 107.184C75.4925 107.184 63.8024 95.6344 63.8024 81.409V54.7893C68.3094 53.24 71.2672 49.1555 71.2672 44.3668C71.2672 38.1696 66.1968 33.3809 60.1404 33.3809C54.0841 33.3809 49.0137 38.4513 49.0137 44.3668C49.0137 49.1555 51.9714 53.24 56.4785 54.7893V81.409C56.4785 99.7189 71.408 114.648 89.9996 114.648C108.591 114.648 123.239 99.8597 123.239 81.409ZM119.718 40.8456C121.831 40.8456 123.662 42.6766 123.662 44.3668C123.662 46.4795 121.831 48.1696 119.718 48.1696C117.605 48.1696 116.197 46.3386 116.197 44.3668C115.774 42.3949 117.605 40.8456 119.718 40.8456ZM59.8587 40.8456C61.9714 40.8456 63.8024 42.6766 63.8024 44.3668C63.8024 46.4795 61.9714 48.1696 59.8587 48.1696C57.7461 48.1696 55.9151 46.3386 55.9151 44.3668C56.1968 42.3949 57.7461 40.8456 59.8587 40.8456Z" fill="white"/>
<path d="M123.24 111.127C108.874 111.127 97.1836 122.676 97.1836 136.902C97.1836 151.127 108.874 162.676 123.24 162.676C137.606 162.676 149.296 151.127 149.296 136.902C149.578 122.676 137.888 111.127 123.24 111.127ZM123.24 155.493C113.099 155.493 104.648 147.183 104.648 137.183C104.648 127.042 112.958 118.873 123.24 118.873C133.381 118.873 141.831 127.183 141.831 137.183C142.113 147.183 133.803 155.493 123.24 155.493Z" fill="white"/>
<path d="M37.3242 151.689H29.8594V159.154H37.3242V151.689Z" fill="white"/>
<path d="M52.394 151.689H44.9292V159.154H52.394V151.689Z" fill="white"/>
<path d="M67.3237 151.689H59.8589V159.154H67.3237V151.689Z" fill="white"/>
<path d="M131.409 129.155C129.859 127.606 127.465 127.606 126.057 129.155L123.381 131.831L120.705 129.155C119.155 127.606 116.761 127.606 115.352 129.155C113.803 130.704 113.803 132.958 115.352 134.507L118.028 137.183L115.352 139.859C113.803 141.409 113.803 143.662 115.352 145.211C116.902 146.761 119.296 146.761 120.705 145.211L123.381 142.535L126.057 145.211C127.606 146.761 130 146.761 131.409 145.211C132.958 143.662 132.958 141.409 131.409 139.859L128.733 137.183L131.409 134.507C132.817 133.099 132.817 130.704 131.409 129.155Z" fill="white"/>
</svg>
