<svg width="180" height="183" viewBox="0 0 180 183" fill="none" xmlns="http://www.w3.org/2000/svg">
<path fill-rule="evenodd" clip-rule="evenodd" d="M119.802 14.2004L78.676 38.7731L126.93 45.3315L166.609 20.5806L119.802 14.2004ZM129.383 87.2234C155.655 87.2234 176.949 108.52 176.949 134.79C176.949 161.063 155.655 182.36 129.383 182.36C103.113 182.36 81.8162 161.063 81.8162 134.79C81.8162 108.52 103.113 87.2234 129.383 87.2234ZM111.051 126.545C109.526 125.045 108.303 124.104 110.21 122.254L116.358 116.255C118.308 114.28 119.452 114.38 121.263 116.241L129.554 124.528L137.794 116.291C139.291 114.765 140.232 113.55 142.082 115.45L148.085 121.602C150.059 123.551 149.96 124.695 148.095 126.51L139.815 134.79L148.095 143.073C149.96 144.888 150.059 146.032 148.085 147.978L142.082 154.133C140.232 156.033 139.291 154.811 137.794 153.289L129.554 145.051L121.263 153.342C119.452 155.199 118.308 155.299 116.358 153.328L110.21 147.322C108.303 145.479 109.526 144.538 111.051 143.034L119.292 134.79L111.051 126.545ZM73.0087 44.9572L72.9766 95.4677L54.638 82.9782L36.2958 93.3398L38.4701 40.263L6.91129 35.975V147.532L70.6954 155.78C71.5937 158.307 72.6451 160.763 73.8499 163.13L3.31485 154.009C1.47208 153.934 0 152.412 0 150.555V32.0293C0.0962376 30.5857 0.673663 29.5735 2.03881 28.8891L65.0424 0.302959C65.6055 0.0463256 66.297 -0.0570407 66.9137 0.0285039L176.76 15.0131C178.574 15.2234 179.818 16.7133 179.818 18.5739V18.581L180 100.123C177.961 97.1073 174.45 92.8907 172.896 90.2245V24.7937L131.617 51.5014V72.8198C129.313 72.7347 127.006 72.7775 124.706 72.9481V51.9826L73.0087 44.9572ZM43.9521 34.0574L83.9335 9.30652L66.9743 6.99326L15.7687 30.2257L43.9521 34.0574Z" fill="white"/>
</svg>
