<svg width="400" height="400" viewBox="0 0 400 400" fill="none" xmlns="http://www.w3.org/2000/svg">
<g clip-path="url(#clip0_1395_2750)">
<path d="M320.004 0H79.9959C35.8154 0 0 35.8154 0 79.9959V320.004C0 364.185 35.8154 400 79.9959 400H320.004C364.185 400 400 364.185 400 320.004V79.9959C400 35.8154 364.185 0 320.004 0Z" fill="#EF5FB4"/>
</g>
<g opacity="0.15">
<path d="M303.77 174.251C307.156 174.89 310.382 176.196 313.258 178.094C316.135 179.991 318.605 182.443 320.524 185.304C323.718 190.057 325.225 195.743 324.806 201.454C324.348 207.092 322.05 212.423 318.266 216.627C314.482 220.832 309.422 223.676 303.863 224.724C317.267 228.307 324.806 236.824 324.806 251.019C324.647 256.968 322.405 262.671 318.472 267.137C314.538 271.602 309.162 274.545 303.281 275.453C306.826 276.002 310.214 277.295 313.222 279.249C316.23 281.202 318.79 283.771 320.734 286.785C322.745 289.742 324.088 293.101 324.671 296.629C325.254 300.157 325.062 303.77 324.108 307.216C322.95 311.681 320.608 315.751 317.328 318.994C314.048 322.237 309.953 324.534 305.475 325.641C300.998 326.749 296.304 326.625 291.89 325.285C287.477 323.944 283.508 321.436 280.402 318.025C277.297 314.614 275.171 310.428 274.249 305.908C273.327 301.389 273.644 296.704 275.166 292.349C276.687 287.995 279.357 284.133 282.893 281.171C286.429 278.209 290.699 276.257 295.253 275.522C281.756 272.032 273.938 263.631 273.821 249.344C273.972 243.401 276.186 237.696 280.084 233.208C283.982 228.72 289.321 225.729 295.183 224.747C288.98 223.718 283.369 220.454 279.407 215.571C275.446 210.689 273.409 204.524 273.682 198.243C274.009 192.41 276.293 186.857 280.165 182.483C284.037 178.109 289.27 175.167 295.02 174.135C291.633 173.553 288.398 172.295 285.508 170.436C282.617 168.577 280.13 166.155 278.196 163.314C275.198 159.012 273.634 153.874 273.728 148.631C273.81 142.626 275.984 136.837 279.874 132.263C283.765 127.688 289.13 124.614 295.044 123.569C291.478 122.972 288.079 121.627 285.071 119.621C282.063 117.616 279.514 114.996 277.591 111.934C275.646 108.933 274.373 105.548 273.859 102.009C273.345 98.4708 273.602 94.863 274.613 91.433C276.242 85.8428 279.729 80.9752 284.498 77.6338C289.267 74.2924 295.033 72.6768 300.843 73.0537C306.654 73.4306 312.163 75.7775 316.46 79.7069C320.757 83.6364 323.586 88.9136 324.48 94.6676C324.99 97.9241 324.841 101.25 324.042 104.448C323.242 107.645 321.809 110.65 319.826 113.284C315.944 118.683 310.093 122.336 303.537 123.453C317.616 127.455 325.155 136.367 324.48 151.377C324.393 155.068 323.376 158.677 321.525 161.871C319.646 165.083 317.089 167.847 314.032 169.969C310.93 172.064 307.441 173.52 303.77 174.251Z" fill="white"/>
<path d="M233.866 171.621C229.436 171.598 225.112 170.26 221.442 167.778C217.772 165.296 214.922 161.781 213.251 157.678C211.58 153.575 211.164 149.068 212.056 144.728C212.948 140.388 215.108 136.411 218.262 133.3C221.416 130.188 225.422 128.082 229.773 127.249C234.125 126.416 238.625 126.893 242.706 128.619C246.786 130.345 250.262 133.243 252.694 136.946C255.127 140.649 256.405 144.991 256.368 149.421C256.325 155.348 253.931 161.016 249.712 165.178C245.493 169.341 239.793 171.658 233.866 171.621Z" fill="white"/>
<path d="M233.843 222.233C229.423 222.201 225.112 220.86 221.454 218.379C217.796 215.898 214.955 212.389 213.291 208.295C211.626 204.2 211.212 199.704 212.1 195.375C212.989 191.045 215.141 187.076 218.284 183.969C221.427 180.861 225.421 178.755 229.76 177.916C234.1 177.076 238.59 177.542 242.666 179.253C246.741 180.965 250.217 183.846 252.656 187.532C255.095 191.218 256.387 195.544 256.368 199.964C256.356 202.906 255.763 205.818 254.624 208.531C253.484 211.244 251.821 213.705 249.728 215.774C247.636 217.843 245.155 219.478 242.429 220.587C239.703 221.695 236.786 222.255 233.843 222.233Z" fill="white"/>
<path d="M233.983 272.89C229.552 272.885 225.223 271.564 221.544 269.095C217.865 266.626 215.003 263.119 213.32 259.02C211.637 254.921 211.21 250.415 212.093 246.073C212.975 241.731 215.128 237.749 218.277 234.632C221.427 231.516 225.431 229.405 229.782 228.568C234.133 227.731 238.634 228.205 242.715 229.93C246.796 231.656 250.273 234.555 252.704 238.259C255.135 241.963 256.41 246.306 256.369 250.737C256.307 256.634 253.922 262.268 249.73 266.416C245.539 270.564 239.88 272.89 233.983 272.89Z" fill="white"/>
<path d="M233.867 323.574C229.442 323.546 225.125 322.206 221.462 319.724C217.799 317.242 214.955 313.728 213.289 309.629C211.624 305.53 211.212 301.028 212.105 296.695C212.999 292.361 215.159 288.39 218.31 285.284C221.462 282.178 225.464 280.077 229.81 279.247C234.156 278.416 238.651 278.894 242.726 280.619C246.8 282.344 250.272 285.239 252.7 288.938C255.129 292.637 256.406 296.973 256.369 301.397C256.307 307.316 253.907 312.971 249.691 317.126C245.475 321.281 239.786 323.599 233.867 323.574Z" fill="white"/>
<path d="M233.75 121.056C229.343 121.033 225.042 119.707 221.388 117.245C217.733 114.784 214.888 111.297 213.21 107.222C211.532 103.148 211.097 98.6681 211.959 94.3469C212.821 90.0256 214.941 86.0558 218.054 82.9368C221.167 79.8178 225.132 77.689 229.451 76.8181C233.771 75.9472 238.251 76.3732 242.329 78.0425C246.407 79.7117 249.9 82.5497 252.37 86.1993C254.839 89.849 256.173 94.1473 256.205 98.5535C256.227 101.511 255.661 104.443 254.541 107.179C253.421 109.916 251.768 112.403 249.679 114.497C247.59 116.59 245.107 118.247 242.372 119.373C239.638 120.499 236.707 121.071 233.75 121.056Z" fill="white"/>
<path d="M195.285 149C195.285 152.676 194.196 156.27 192.157 159.328C190.117 162.387 187.218 164.773 183.825 166.186C180.431 167.599 176.695 167.975 173.088 167.268C169.481 166.561 166.163 164.802 163.555 162.212C160.946 159.623 159.162 156.319 158.428 152.717C157.694 149.115 158.042 145.376 159.43 141.973C160.818 138.569 163.182 135.652 166.225 133.589C169.268 131.527 172.853 130.412 176.529 130.384C178.986 130.366 181.421 130.834 183.696 131.761C185.971 132.688 188.04 134.057 189.783 135.787C191.527 137.518 192.91 139.576 193.855 141.844C194.799 144.112 195.285 146.544 195.285 149Z" fill="white"/>
<path d="M176.553 117.074C172.871 117.074 169.271 115.982 166.21 113.937C163.149 111.891 160.763 108.984 159.354 105.582C157.945 102.18 157.576 98.4372 158.294 94.826C159.013 91.2149 160.786 87.8978 163.389 85.2943C165.993 82.6908 169.31 80.9178 172.921 80.1995C176.532 79.4812 180.275 79.8499 183.677 81.2589C187.078 82.6679 189.986 85.0539 192.031 88.1153C194.077 91.1767 195.169 94.7759 195.169 98.4579C195.169 103.395 193.207 108.13 189.716 111.621C186.225 115.113 181.49 117.074 176.553 117.074Z" fill="white"/>
<path d="M176.622 319.594C172.95 319.548 169.374 318.418 166.343 316.345C163.313 314.271 160.963 311.348 159.589 307.943C158.216 304.537 157.88 300.802 158.625 297.206C159.369 293.61 161.16 290.315 163.773 287.735C166.385 285.155 169.703 283.404 173.307 282.705C176.912 282.005 180.643 282.387 184.031 283.803C187.419 285.218 190.313 287.604 192.348 290.66C194.384 293.717 195.47 297.306 195.47 300.978C195.471 303.443 194.981 305.883 194.031 308.157C193.081 310.43 191.689 312.493 189.936 314.225C188.182 315.957 186.103 317.323 183.817 318.245C181.532 319.166 179.086 319.625 176.622 319.594Z" fill="white"/>
<path d="M195.308 250.319C195.267 253.984 194.144 257.555 192.082 260.584C190.02 263.614 187.109 265.968 183.715 267.35C180.32 268.732 176.594 269.082 173.001 268.355C169.409 267.628 166.111 265.857 163.522 263.264C160.932 260.671 159.165 257.371 158.442 253.778C157.72 250.185 158.074 246.459 159.461 243.066C160.847 239.673 163.204 236.766 166.237 234.707C169.269 232.648 172.841 231.531 176.506 231.494C178.984 231.469 181.442 231.939 183.736 232.876C186.03 233.814 188.114 235.2 189.865 236.953C191.616 238.707 193 240.792 193.934 243.087C194.869 245.382 195.336 247.841 195.308 250.319Z" fill="white"/>
<path d="M176.715 180.927C180.387 180.973 183.963 182.103 186.993 184.177C190.024 186.25 192.374 189.173 193.747 192.579C195.121 195.984 195.456 199.719 194.712 203.315C193.967 206.911 192.176 210.206 189.564 212.786C186.951 215.367 183.634 217.117 180.029 217.816C176.425 218.516 172.694 218.134 169.306 216.718C165.917 215.303 163.024 212.917 160.988 209.861C158.953 206.805 157.866 203.215 157.866 199.543C157.866 197.078 158.355 194.638 159.305 192.365C160.255 190.091 161.647 188.028 163.401 186.296C165.154 184.565 167.234 183.198 169.519 182.276C171.805 181.355 174.251 180.896 176.715 180.927Z" fill="white"/>
<path d="M141.973 301.165C141.973 303.948 141.149 306.669 139.606 308.985C138.062 311.301 135.868 313.108 133.299 314.179C130.731 315.251 127.903 315.538 125.171 315.005C122.439 314.472 119.927 313.143 117.949 311.185C115.971 309.226 114.618 306.727 114.058 304.001C113.498 301.274 113.757 298.444 114.803 295.865C115.849 293.285 117.635 291.074 119.936 289.507C122.236 287.941 124.949 287.091 127.732 287.063C129.593 287.051 131.439 287.406 133.164 288.109C134.888 288.812 136.457 289.848 137.78 291.158C139.103 292.468 140.154 294.026 140.874 295.743C141.593 297.461 141.967 299.303 141.973 301.165Z" fill="white"/>
<path d="M113.792 250.294C113.843 247.544 114.704 244.871 116.269 242.609C117.833 240.346 120.031 238.597 122.586 237.579C125.142 236.562 127.941 236.321 130.632 236.889C133.323 237.456 135.787 238.805 137.714 240.768C139.641 242.73 140.946 245.218 141.464 247.919C141.982 250.62 141.691 253.415 140.627 255.951C139.564 258.487 137.774 260.653 135.484 262.176C133.194 263.699 130.505 264.512 127.754 264.512C125.899 264.513 124.062 264.143 122.352 263.426C120.641 262.708 119.09 261.657 117.79 260.333C116.49 259.009 115.467 257.44 114.781 255.716C114.094 253.993 113.758 252.149 113.792 250.294Z" fill="white"/>
<path d="M141.786 98.5743C141.786 101.336 140.968 104.035 139.433 106.331C137.899 108.627 135.719 110.417 133.167 111.474C130.616 112.53 127.809 112.807 125.1 112.268C122.392 111.729 119.904 110.4 117.952 108.447C115.999 106.494 114.669 104.007 114.131 101.298C113.592 98.5898 113.868 95.7825 114.925 93.2313C115.982 90.6801 117.771 88.4995 120.067 86.9653C122.363 85.4312 125.063 84.6123 127.824 84.6123C131.527 84.6123 135.079 86.0833 137.697 88.7017C140.315 91.3201 141.786 94.8714 141.786 98.5743Z" fill="white"/>
<path d="M127.755 163.244C125.898 163.244 124.059 162.874 122.347 162.155C120.634 161.436 119.082 160.382 117.782 159.056C116.482 157.73 115.459 156.157 114.774 154.431C114.089 152.705 113.756 150.859 113.793 149.002C113.793 145.272 115.275 141.694 117.913 139.056C120.551 136.418 124.129 134.936 127.86 134.936C131.59 134.936 135.168 136.418 137.806 139.056C140.444 141.694 141.926 145.272 141.926 149.002C141.964 150.877 141.624 152.74 140.926 154.48C140.228 156.221 139.187 157.802 137.864 159.132C136.541 160.461 134.965 161.51 133.228 162.216C131.491 162.923 129.63 163.272 127.755 163.244Z" fill="white"/>
<path d="M113.77 199.779C113.77 196.061 115.247 192.495 117.876 189.865C120.505 187.236 124.071 185.759 127.79 185.759C131.508 185.759 135.074 187.236 137.704 189.865C140.333 192.495 141.81 196.061 141.81 199.779C141.774 203.471 140.291 207.001 137.68 209.611C135.07 212.222 131.54 213.705 127.848 213.741C126.005 213.756 124.177 213.407 122.469 212.712C120.762 212.017 119.209 210.991 117.9 209.693C116.591 208.395 115.552 206.851 114.843 205.149C114.134 203.447 113.769 201.622 113.77 199.779Z" fill="white"/>
<path d="M75.025 149.049C75.0466 146.142 76.2221 143.363 78.2928 141.323C80.3635 139.283 83.1598 138.149 86.0667 138.17C88.9735 138.192 91.7527 139.367 93.7928 141.438C95.833 143.509 96.967 146.305 96.9454 149.212C96.9091 152.111 95.7395 154.882 93.6869 156.93C91.6343 158.978 88.8616 160.142 85.9619 160.172C84.5099 160.172 83.0723 159.883 81.7331 159.322C80.3939 158.761 79.1799 157.939 78.1618 156.903C77.1437 155.868 76.3421 154.64 75.8035 153.292C75.2649 151.943 75.0003 150.501 75.025 149.049Z" fill="white"/>
<path d="M86.0313 239.383C87.4842 239.379 88.9232 239.666 90.2639 240.226C91.6045 240.786 92.8198 241.609 93.8385 242.645C94.8572 243.681 95.6588 244.91 96.1962 246.26C96.7336 247.609 96.9961 249.053 96.9682 250.506C96.895 253.417 95.6806 256.183 93.5868 258.207C91.4929 260.232 88.6875 261.352 85.7753 261.326C82.8967 261.259 80.1589 260.067 78.1492 258.005C76.1394 255.943 75.0177 253.176 75.0245 250.296C75.0182 248.854 75.2993 247.424 75.8514 246.091C76.4034 244.758 77.2155 243.548 78.24 242.532C79.2646 241.516 80.4812 240.715 81.8189 240.174C83.1566 239.633 84.5885 239.364 86.0313 239.383Z" fill="white"/>
<path d="M96.969 301.163C96.966 302.598 96.6788 304.018 96.1241 305.342C95.5693 306.665 94.7579 307.866 93.7368 308.874C92.7156 309.882 91.5049 310.678 90.1745 311.216C88.8441 311.753 87.4204 312.022 85.9855 312.007C83.8073 312.007 81.6783 311.359 79.8692 310.146C78.06 308.933 76.6525 307.209 75.8254 305.194C74.9984 303.179 74.7892 300.963 75.2244 298.829C75.6597 296.695 76.7197 294.738 78.2698 293.208C79.8198 291.677 81.7899 290.642 83.9296 290.234C86.0693 289.826 88.282 290.064 90.2863 290.917C92.2907 291.77 93.9963 293.199 95.1862 295.023C96.3761 296.848 96.9967 298.985 96.969 301.163Z" fill="white"/>
<path d="M96.8054 98.6236C96.8067 100.094 96.5104 101.549 95.9342 102.902C95.358 104.254 94.514 105.476 93.4529 106.494C92.3918 107.511 91.1357 108.303 89.7602 108.822C88.3847 109.342 86.9184 109.577 85.4496 109.514C82.6039 109.328 79.942 108.043 78.0267 105.931C76.1114 103.818 75.0929 101.043 75.1866 98.1929C75.2803 95.3428 76.4788 92.6408 78.5288 90.6584C80.5787 88.676 83.3193 87.5685 86.171 87.5703C89.0411 87.6435 91.7668 88.8448 93.7574 90.9138C95.7479 92.9827 96.843 95.7528 96.8054 98.6236Z" fill="white"/>
<path d="M75.0016 199.731C74.9766 198.287 75.2413 196.854 75.7801 195.514C76.3188 194.175 77.1207 192.957 78.1382 191.933C79.1557 190.909 80.3682 190.1 81.704 189.553C83.0398 189.005 84.4718 188.731 85.9153 188.747C88.0905 188.733 90.2209 189.366 92.0363 190.564C93.8516 191.763 95.2703 193.473 96.1123 195.479C96.9543 197.485 97.1818 199.695 96.7659 201.83C96.3501 203.966 95.3095 205.929 93.7763 207.472C92.243 209.015 90.2861 210.068 88.1537 210.498C86.0212 210.927 83.8092 210.714 81.7982 209.885C79.7871 209.055 78.0676 207.648 76.8576 205.84C75.6476 204.032 75.0017 201.906 75.0016 199.731Z" fill="white"/>
</g>
<path d="M205.577 228.668C203.872 228.668 202.414 227.211 202.414 225.434C202.414 223.728 203.872 222.27 205.577 222.27H213.841C213.912 222.27 214.09 222.27 214.161 222.27C217.075 222.341 219.669 222.91 221.855 224.296C224.29 225.842 226.067 228.188 227.044 231.671C227.044 231.742 227.044 231.831 227.133 231.92L227.951 235.154H298.837C300.614 235.154 302 236.611 302 238.317C302 238.637 301.911 238.957 301.84 239.294L293.577 272.596C293.257 274.053 291.96 275.031 290.503 275.031H238.648C239.786 279.242 240.923 281.517 242.451 282.566C244.317 283.774 247.551 283.863 252.989 283.774H253.06H289.685C291.462 283.774 292.848 285.231 292.848 286.937C292.848 288.714 291.391 290.1 289.685 290.1H253.042C246.307 290.171 242.185 290.011 238.862 287.826C235.45 285.551 233.673 281.677 231.896 274.622L221.038 233.519C221.038 233.43 221.038 233.43 220.967 233.359C220.487 231.582 219.669 230.356 218.532 229.716C217.395 228.988 215.867 228.668 214.072 228.668C213.983 228.668 213.912 228.668 213.823 228.668H205.577ZM280.196 293.814C284.496 293.814 287.979 297.297 287.979 301.598C287.979 305.898 284.496 309.381 280.196 309.381C275.895 309.381 272.412 305.898 272.412 301.598C272.412 297.297 275.895 293.814 280.196 293.814ZM246.076 293.814C250.377 293.814 253.86 297.297 253.86 301.598C253.86 305.898 250.377 309.381 246.076 309.381C241.776 309.381 238.293 305.898 238.293 301.598C238.293 297.297 241.794 293.814 246.076 293.814ZM110.452 91H262.621C266.335 91 269.711 92.5105 272.128 94.9273C274.545 97.3441 276.055 100.72 276.055 104.434V211.022H264.504V104.488C264.504 103.972 264.291 103.493 263.953 103.137C263.598 102.8 263.118 102.586 262.603 102.586H110.452C109.937 102.586 109.457 102.8 109.102 103.137C108.746 103.475 108.569 103.972 108.569 104.488V279.829C108.569 280.344 108.782 280.824 109.119 281.179C109.457 281.535 109.937 281.73 110.47 281.73H208.296C209.38 285.977 210.607 289.691 212.259 293.228H110.452C106.738 293.228 103.362 291.717 100.945 289.301C98.5105 286.902 97 283.525 97 279.811V104.452C97 100.738 98.5105 97.3441 100.927 94.9273C103.344 92.5105 106.738 91 110.452 91Z" fill="white"/>
<defs>
<clipPath id="clip0_1395_2750">
<rect width="400" height="400" fill="white"/>
</clipPath>
</defs>
</svg>
