<svg width="599" height="817" viewBox="0 0 599 817" fill="none" xmlns="http://www.w3.org/2000/svg">
<path d="M519.719 261.812H405.896V172.848C405.814 139.611 378.225 112.455 344.359 112.455H264.981C231.197 112.538 203.609 139.611 203.444 172.848V261.812H89.7036V172.848C89.8688 77.5523 168.421 0 264.981 0H344.359C441.001 0 519.637 77.5523 519.719 172.848V261.812ZM425.886 241.653H499.73V172.764C499.647 88.5479 429.85 20.0753 344.277 20.0753H264.898C179.407 20.0753 109.775 88.5479 109.61 172.764V241.653H183.372V172.764C183.455 128.365 220.046 92.2964 264.816 92.2131H344.194C389.046 92.2964 425.638 128.365 425.72 172.764L425.886 241.653Z" />
<path d="M337.751 816.341H260.52C116.879 816.341 0 701.137 0 559.443V290.801H598.107V559.443C598.189 701.053 481.393 816.341 337.751 816.341ZM19.9892 310.959V559.443C19.9892 689.974 127.865 796.182 260.52 796.182H337.751C470.324 796.182 578.117 689.974 578.117 559.443V310.959H19.9892ZM310.741 678.562C291.413 678.562 275.719 662.985 275.719 643.909V537.285C251.187 524.457 235.658 499.217 235.658 471.395C235.658 430.495 269.441 397.175 310.906 397.175C352.289 397.175 385.907 430.495 385.907 471.395C386.155 499.301 370.544 524.541 345.764 537.285V643.909C345.846 663.068 330.152 678.562 310.741 678.562ZM310.906 417.417C280.427 417.417 255.647 441.657 255.647 471.478C255.647 493.386 268.946 512.962 289.513 521.625L295.708 524.124V643.909C295.791 660.07 325.857 659.986 325.857 643.909V523.957L332.135 521.375C352.95 512.962 366.166 493.386 366.001 471.395C366.083 441.574 341.386 417.417 310.906 417.417Z" />
</svg>
