<svg width="200" height="266" viewBox="0 0 200 266" fill="none" xmlns="http://www.w3.org/2000/svg">
<path fill-rule="evenodd" clip-rule="evenodd" d="M100.006 39.3634C112.24 39.3677 124.198 42.9994 134.368 49.7994C144.538 56.5994 152.464 66.2623 157.143 77.5663C161.821 88.8703 163.043 101.308 160.654 113.306C158.265 125.305 152.371 136.325 143.719 144.974C135.067 153.624 124.044 159.513 112.045 161.898C100.046 164.284 87.6085 163.057 76.3061 158.375C65.0038 153.692 55.3437 145.763 48.5473 135.59C41.7508 125.418 38.1233 113.458 38.1233 101.224C38.1233 93.0989 39.7241 85.053 42.8343 77.5463C45.9444 70.0396 50.503 63.2191 56.2496 57.4745C61.9962 51.7299 68.8183 47.1737 76.3261 44.0661C83.8339 40.9586 91.8804 39.3606 100.006 39.3634ZM102.946 250.084C115.992 241.653 127.886 231.561 138.329 220.062C160.455 195.982 175.791 166.459 182.768 134.511C188.842 104.964 186.01 76.1515 172.501 53.802C168.578 47.3426 163.752 41.4763 158.171 36.3806C141.83 21.4666 123.198 14.3553 104.242 14.1824C84.4434 14.0311 64.3418 21.6179 46.5746 35.6674C39.2418 41.4602 32.936 48.4456 27.9212 56.3309C15.4496 75.9786 11.6886 100.36 15.7954 125.887C19.9886 151.824 32.3522 179.08 52.0431 203.699C66.4881 221.721 83.6632 237.371 102.946 250.084ZM148.855 229.637C136.625 243.073 122.559 254.716 107.074 264.22C105.922 265.072 104.539 265.554 103.108 265.604C101.677 265.655 100.263 265.27 99.0549 264.501C76.9349 250.549 57.2863 233.018 40.9116 212.626C19.7293 186.019 6.32821 156.428 1.78914 128.113C-2.87962 99.1927 1.50815 71.3315 15.9035 48.701C21.7805 39.4838 29.1594 31.3158 37.7342 24.5358C58.0304 8.3681 81.2661 -0.191288 104.372 0.00324376C126.657 0.197775 148.682 8.47617 167.725 25.9408C174.315 31.955 180.007 38.8848 184.627 46.5179C200.082 72.0231 203.453 104.51 196.666 137.407C189.174 171.86 172.676 203.708 148.855 229.702V229.637ZM107.636 116.982H92.3111C91.0575 101.289 88.7015 98.7172 87.8801 87.564C87.1669 78.0752 87.2966 65.582 100.006 65.582C112.715 65.582 112.823 78.0752 112.11 87.564C111.267 98.6955 108.89 101.289 107.636 116.982ZM92.2895 125.735H107.636V136.867H92.2895V125.735Z" />
</svg>
