<svg width="400" height="400" viewBox="0 0 400 400" fill="none" xmlns="http://www.w3.org/2000/svg">
<g clip-path="url(#clip0_1095_2347)">
<path d="M320.004 0H79.9959C35.8154 0 0 35.8154 0 79.9959V320.004C0 364.185 35.8154 400 79.9959 400H320.004C364.185 400 400 364.185 400 320.004V79.9959C400 35.8154 364.185 0 320.004 0Z" fill="#B91E50"/>
</g>
<g opacity="0.15">
<path d="M303.77 174.251C307.156 174.89 310.381 176.196 313.258 178.094C316.134 179.991 318.604 182.443 320.524 185.304C323.717 190.057 325.225 195.743 324.806 201.454C324.348 207.092 322.05 212.423 318.266 216.627C314.482 220.832 309.421 223.676 303.863 224.724C317.266 228.307 324.806 236.824 324.806 251.019C324.646 256.968 322.405 262.671 318.471 267.137C314.538 271.602 309.162 274.545 303.281 275.453C306.825 276.002 310.213 277.295 313.222 279.249C316.23 281.202 318.79 283.771 320.733 286.785C322.745 289.742 324.088 293.101 324.671 296.629C325.253 300.157 325.061 303.77 324.108 307.216C322.95 311.681 320.608 315.751 317.328 318.994C314.048 322.237 309.953 324.534 305.475 325.641C300.997 326.749 296.303 326.625 291.89 325.285C287.476 323.944 283.507 321.436 280.402 318.025C277.297 314.614 275.171 310.428 274.249 305.908C273.327 301.389 273.644 296.704 275.165 292.349C276.687 287.995 279.356 284.133 282.892 281.171C286.428 278.209 290.699 276.257 295.253 275.522C281.756 272.032 273.937 263.631 273.821 249.344C273.972 243.401 276.186 237.696 280.084 233.208C283.982 228.72 289.32 225.729 295.183 224.747C288.98 223.718 283.368 220.454 279.407 215.571C275.446 210.689 273.409 204.524 273.681 198.243C274.008 192.41 276.292 186.857 280.164 182.483C284.036 178.109 289.27 175.167 295.02 174.135C291.633 173.553 288.398 172.295 285.507 170.436C282.617 168.577 280.13 166.155 278.196 163.314C275.197 159.012 273.634 153.874 273.728 148.631C273.81 142.626 275.983 136.837 279.874 132.263C283.765 127.688 289.129 124.614 295.043 123.569C291.478 122.972 288.079 121.627 285.07 119.621C282.062 117.616 279.513 114.996 277.591 111.934C275.646 108.933 274.373 105.548 273.859 102.009C273.345 98.4708 273.602 94.863 274.612 91.433C276.242 85.8428 279.729 80.9752 284.498 77.6338C289.267 74.2924 295.032 72.6768 300.843 73.0537C306.654 73.4306 312.162 75.7775 316.46 79.7069C320.757 83.6364 323.586 88.9136 324.48 94.6676C324.99 97.9241 324.841 101.25 324.041 104.448C323.242 107.645 321.808 110.65 319.826 113.284C315.944 118.683 310.092 122.336 303.537 123.453C317.615 127.455 325.155 136.367 324.48 151.377C324.392 155.068 323.376 158.677 321.525 161.871C319.645 165.083 317.088 167.847 314.032 169.969C310.929 172.064 307.441 173.52 303.77 174.251Z" fill="white"/>
<path d="M233.866 171.621C229.436 171.598 225.112 170.26 221.442 167.778C217.772 165.296 214.921 161.781 213.251 157.678C211.58 153.575 211.164 149.068 212.056 144.728C212.948 140.388 215.108 136.411 218.262 133.3C221.416 130.188 225.422 128.082 229.773 127.249C234.125 126.416 238.625 126.893 242.706 128.619C246.786 130.345 250.262 133.243 252.694 136.946C255.127 140.649 256.405 144.991 256.368 149.421C256.325 155.348 253.931 161.016 249.712 165.178C245.492 169.341 239.793 171.658 233.866 171.621Z" fill="white"/>
<path d="M233.843 222.233C229.423 222.201 225.112 220.86 221.454 218.379C217.796 215.898 214.955 212.389 213.291 208.295C211.626 204.2 211.212 199.704 212.1 195.375C212.989 191.045 215.141 187.076 218.284 183.969C221.427 180.861 225.421 178.755 229.76 177.916C234.1 177.076 238.591 177.542 242.666 179.253C246.741 180.965 250.217 183.846 252.656 187.532C255.095 191.218 256.387 195.544 256.368 199.964C256.356 202.906 255.764 205.818 254.624 208.531C253.485 211.244 251.821 213.705 249.728 215.774C247.636 217.843 245.155 219.478 242.429 220.587C239.703 221.695 236.786 222.255 233.843 222.233Z" fill="white"/>
<path d="M233.983 272.89C229.552 272.885 225.222 271.564 221.543 269.095C217.865 266.626 215.002 263.119 213.32 259.02C211.637 254.921 211.21 250.415 212.092 246.073C212.975 241.731 215.128 237.749 218.277 234.632C221.426 231.516 225.431 229.405 229.781 228.568C234.132 227.731 238.634 228.205 242.715 229.93C246.796 231.656 250.273 234.555 252.703 238.259C255.134 241.963 256.41 246.306 256.368 250.737C256.307 256.634 253.922 262.268 249.73 266.416C245.538 270.564 239.88 272.89 233.983 272.89Z" fill="white"/>
<path d="M233.866 323.574C229.442 323.546 225.125 322.207 221.462 319.724C217.799 317.242 214.954 313.729 213.289 309.63C211.623 305.53 211.211 301.029 212.105 296.695C212.999 292.362 215.158 288.39 218.31 285.285C221.461 282.179 225.463 280.077 229.81 279.247C234.156 278.417 238.651 278.894 242.725 280.619C246.8 282.344 250.271 285.24 252.7 288.938C255.128 292.637 256.405 296.973 256.368 301.398C256.307 307.317 253.906 312.971 249.69 317.126C245.474 321.281 239.786 323.599 233.866 323.574Z" fill="white"/>
<path d="M233.75 121.056C229.344 121.033 225.042 119.707 221.388 117.246C217.733 114.784 214.888 111.297 213.21 107.223C211.532 103.148 211.097 98.6686 211.959 94.3474C212.821 90.0261 214.942 86.0563 218.054 82.9373C221.167 79.8183 225.132 77.6895 229.452 76.8186C233.771 75.9477 238.252 76.3737 242.33 78.0429C246.407 79.7122 249.901 82.5501 252.37 86.1998C254.839 89.8494 256.173 94.1478 256.205 98.554C256.227 101.511 255.661 104.443 254.541 107.18C253.421 109.917 251.768 112.404 249.679 114.497C247.59 116.59 245.107 118.248 242.372 119.374C239.638 120.5 236.707 121.072 233.75 121.056Z" fill="white"/>
<path d="M195.284 149C195.284 152.676 194.196 156.27 192.157 159.328C190.117 162.387 187.218 164.773 183.824 166.186C180.431 167.599 176.695 167.975 173.088 167.268C169.48 166.561 166.163 164.802 163.554 162.212C160.945 159.623 159.161 156.319 158.427 152.717C157.693 149.115 158.042 145.376 159.43 141.973C160.817 138.569 163.182 135.652 166.225 133.589C169.268 131.527 172.853 130.412 176.529 130.384C178.985 130.366 181.421 130.834 183.696 131.761C185.971 132.688 188.039 134.057 189.783 135.787C191.526 137.518 192.91 139.576 193.854 141.844C194.798 144.112 195.285 146.544 195.284 149Z" fill="white"/>
<path d="M176.552 117.074C172.87 117.074 169.271 115.982 166.21 113.937C163.148 111.891 160.762 108.984 159.353 105.582C157.944 102.18 157.575 98.4372 158.294 94.826C159.012 91.2149 160.785 87.8978 163.389 85.2943C165.992 82.6908 169.309 80.9178 172.92 80.1995C176.531 79.4812 180.275 79.8499 183.676 81.2589C187.078 82.6679 189.985 85.0539 192.031 88.1153C194.076 91.1767 195.168 94.7759 195.168 98.4579C195.168 103.395 193.207 108.13 189.716 111.621C186.224 115.113 181.489 117.074 176.552 117.074Z" fill="white"/>
<path d="M176.622 319.594C172.95 319.548 169.374 318.417 166.344 316.344C163.313 314.271 160.963 311.348 159.59 307.942C158.216 304.537 157.881 300.801 158.625 297.206C159.37 293.61 161.161 290.315 163.773 287.734C166.386 285.154 169.703 283.404 173.308 282.704C176.912 282.005 180.643 282.387 184.031 283.802C187.42 285.218 190.313 287.604 192.349 290.66C194.384 293.716 195.47 297.306 195.471 300.978C195.471 303.442 194.982 305.882 194.032 308.156C193.082 310.43 191.69 312.493 189.936 314.224C188.183 315.956 186.103 317.322 183.818 318.244C181.532 319.166 179.086 319.625 176.622 319.594Z" fill="white"/>
<path d="M195.308 250.319C195.266 253.983 194.144 257.554 192.082 260.584C190.019 263.614 187.109 265.967 183.714 267.349C180.32 268.732 176.593 269.081 173.001 268.355C169.409 267.628 166.111 265.857 163.521 263.264C160.931 260.67 159.164 257.371 158.442 253.778C157.72 250.184 158.074 246.458 159.46 243.065C160.847 239.673 163.204 236.765 166.236 234.706C169.268 232.648 172.841 231.53 176.505 231.493C178.984 231.468 181.442 231.938 183.736 232.876C186.03 233.813 188.113 235.199 189.865 236.953C191.616 238.706 192.999 240.792 193.934 243.087C194.869 245.382 195.336 247.841 195.308 250.319Z" fill="white"/>
<path d="M176.715 180.927C180.387 180.973 183.963 182.104 186.993 184.177C190.024 186.25 192.374 189.174 193.747 192.579C195.121 195.984 195.456 199.72 194.712 203.316C193.968 206.911 192.176 210.207 189.564 212.787C186.951 215.367 183.634 217.117 180.029 217.817C176.425 218.516 172.694 218.134 169.306 216.719C165.918 215.303 163.024 212.917 160.988 209.861C158.953 206.805 157.867 203.215 157.866 199.543C157.866 197.079 158.355 194.639 159.305 192.365C160.255 190.091 161.647 188.029 163.401 186.297C165.154 184.565 167.234 183.199 169.52 182.277C171.805 181.355 174.251 180.896 176.715 180.927Z" fill="white"/>
<path d="M141.973 301.164C141.973 303.948 141.149 306.668 139.606 308.984C138.062 311.3 135.868 313.107 133.299 314.179C130.731 315.25 127.903 315.537 125.171 315.005C122.439 314.472 119.927 313.142 117.949 311.184C115.971 309.226 114.617 306.726 114.058 304C113.498 301.274 113.757 298.443 114.803 295.864C115.849 293.285 117.635 291.073 119.935 289.507C122.236 287.941 124.949 287.09 127.732 287.063C129.593 287.051 131.439 287.406 133.164 288.109C134.888 288.811 136.457 289.847 137.78 291.157C139.103 292.467 140.154 294.026 140.874 295.743C141.593 297.46 141.967 299.303 141.973 301.164Z" fill="white"/>
<path d="M113.793 250.295C113.843 247.545 114.705 244.871 116.269 242.609C117.834 240.347 120.032 238.597 122.587 237.58C125.142 236.562 127.941 236.322 130.632 236.889C133.323 237.456 135.787 238.806 137.714 240.768C139.641 242.731 140.946 245.219 141.464 247.92C141.983 250.621 141.692 253.415 140.628 255.951C139.564 258.488 137.775 260.653 135.484 262.177C133.194 263.7 130.505 264.512 127.755 264.513C125.9 264.513 124.063 264.144 122.352 263.426C120.641 262.709 119.09 261.657 117.791 260.333C116.491 259.01 115.468 257.44 114.781 255.717C114.095 253.993 113.759 252.15 113.793 250.295Z" fill="white"/>
<path d="M141.787 98.5743C141.787 101.336 140.968 104.035 139.434 106.331C137.899 108.627 135.719 110.417 133.168 111.474C130.616 112.53 127.809 112.807 125.101 112.268C122.392 111.729 119.905 110.4 117.952 108.447C115.999 106.494 114.669 104.007 114.131 101.298C113.592 98.5898 113.869 95.7825 114.925 93.2313C115.982 90.6801 117.772 88.4995 120.068 86.9653C122.364 85.4312 125.063 84.6123 127.825 84.6123C131.527 84.6123 135.079 86.0833 137.697 88.7017C140.316 91.3201 141.787 94.8714 141.787 98.5743Z" fill="white"/>
<path d="M127.755 163.244C125.898 163.244 124.059 162.874 122.347 162.155C120.634 161.436 119.082 160.382 117.782 159.056C116.482 157.73 115.459 156.157 114.774 154.431C114.089 152.705 113.756 150.859 113.793 149.002C113.793 145.272 115.275 141.694 117.913 139.056C120.551 136.418 124.129 134.936 127.86 134.936C131.59 134.936 135.168 136.418 137.806 139.056C140.444 141.694 141.926 145.272 141.926 149.002C141.964 150.877 141.624 152.74 140.926 154.48C140.228 156.221 139.187 157.802 137.864 159.132C136.541 160.461 134.965 161.51 133.228 162.216C131.491 162.923 129.63 163.272 127.755 163.244Z" fill="white"/>
<path d="M113.769 199.779C113.769 196.061 115.247 192.495 117.876 189.865C120.505 187.236 124.071 185.759 127.79 185.759C131.508 185.759 135.074 187.236 137.703 189.865C140.333 192.495 141.81 196.061 141.81 199.779C141.774 203.471 140.291 207.001 137.68 209.611C135.07 212.222 131.54 213.705 127.848 213.741C126.005 213.756 124.176 213.407 122.469 212.712C120.762 212.017 119.209 210.991 117.9 209.693C116.591 208.395 115.552 206.851 114.843 205.149C114.134 203.447 113.769 201.622 113.769 199.779Z" fill="white"/>
<path d="M75.0249 149.049C75.0465 146.142 76.2219 143.363 78.2926 141.323C80.3633 139.283 83.1597 138.149 86.0665 138.17C88.9733 138.192 91.7525 139.367 93.7927 141.438C95.8328 143.509 96.9669 146.305 96.9453 149.212C96.9089 152.111 95.7394 154.882 93.6867 156.93C91.6341 158.978 88.8614 160.142 85.9618 160.172C84.5097 160.172 83.0722 159.883 81.733 159.322C80.3938 158.761 79.1797 157.939 78.1617 156.903C77.1436 155.868 76.3419 154.64 75.8033 153.292C75.2648 151.943 75.0002 150.501 75.0249 149.049Z" fill="white"/>
<path d="M86.0315 239.383C87.4845 239.379 88.9235 239.666 90.2641 240.226C91.6048 240.786 92.8201 241.609 93.8387 242.645C94.8574 243.681 95.659 244.91 96.1964 246.26C96.7338 247.609 96.9963 249.053 96.9684 250.506C96.8953 253.417 95.6808 256.183 93.587 258.207C91.4932 260.232 88.6877 261.352 85.7755 261.326C82.8969 261.259 80.1592 260.067 78.1494 258.005C76.1396 255.943 75.0179 253.176 75.0248 250.296C75.0185 248.854 75.2995 247.424 75.8516 246.091C76.4037 244.758 77.2157 243.548 78.2403 242.532C79.2648 241.516 80.4814 240.715 81.8191 240.174C83.1568 239.633 84.5888 239.364 86.0315 239.383Z" fill="white"/>
<path d="M96.9686 301.163C96.9656 302.598 96.6785 304.018 96.1237 305.342C95.5689 306.665 94.7576 307.866 93.7364 308.874C92.7153 309.882 91.5046 310.678 90.1742 311.216C88.8438 311.753 87.42 312.022 85.9851 312.007C83.8069 312.007 81.6779 311.359 79.8688 310.146C78.0597 308.933 76.6521 307.209 75.8251 305.194C74.998 303.179 74.7888 300.963 75.2241 298.829C75.6593 296.695 76.7193 294.738 78.2694 293.208C79.8195 291.677 81.7895 290.642 83.9292 290.234C86.0689 289.826 88.2816 290.064 90.286 290.917C92.2904 291.77 93.9959 293.199 95.1858 295.023C96.3757 296.848 96.9963 298.985 96.9686 301.163Z" fill="white"/>
<path d="M96.8056 98.6236C96.807 100.094 96.5106 101.549 95.9345 102.902C95.3583 104.254 94.5142 105.476 93.4532 106.494C92.3921 107.511 91.1359 108.303 89.7605 108.822C88.385 109.342 86.9187 109.577 85.4498 109.514C82.6042 109.328 79.9422 108.043 78.0269 105.931C76.1116 103.818 75.0931 101.043 75.1868 98.1929C75.2805 95.3428 76.4791 92.6408 78.529 90.6584C80.5789 88.676 83.3195 87.5685 86.1712 87.5703C89.0413 87.6435 91.767 88.8448 93.7576 90.9138C95.7482 92.9827 96.8433 95.7528 96.8056 98.6236Z" fill="white"/>
<path d="M75.0016 199.731C74.9766 198.288 75.2413 196.854 75.7801 195.515C76.3188 194.176 77.1207 192.958 78.1382 191.934C79.1557 190.91 80.3682 190.1 81.704 189.553C83.0398 189.006 84.4718 188.732 85.9153 188.748C88.0905 188.734 90.2209 189.366 92.0363 190.565C93.8516 191.763 95.2703 193.474 96.1123 195.479C96.9543 197.485 97.1818 199.696 96.7659 201.831C96.3501 203.966 95.3095 205.93 93.7763 207.473C92.243 209.016 90.2861 210.069 88.1537 210.498C86.0212 210.928 83.8092 210.714 81.7982 209.885C79.7871 209.056 78.0676 207.648 76.8576 205.84C75.6476 204.033 75.0017 201.906 75.0016 199.731Z" fill="white"/>
</g>
<path d="M194.495 141.176C194.757 141.176 195.013 141.254 195.23 141.399C195.448 141.544 195.617 141.751 195.717 141.993C195.818 142.234 195.844 142.5 195.793 142.757C195.742 143.014 195.616 143.249 195.431 143.434C195.246 143.619 195.01 143.745 194.753 143.796C194.497 143.847 194.231 143.821 193.989 143.721C193.747 143.621 193.541 143.451 193.396 143.234C193.25 143.016 193.173 142.761 193.173 142.499C193.173 142.148 193.312 141.812 193.56 141.564C193.808 141.316 194.145 141.176 194.495 141.176ZM273.046 269.646C273.313 269.646 273.573 269.725 273.795 269.874C274.016 270.022 274.188 270.233 274.289 270.48C274.39 270.726 274.416 270.997 274.362 271.258C274.309 271.52 274.179 271.759 273.989 271.946C273.799 272.133 273.558 272.259 273.296 272.309C273.034 272.358 272.763 272.329 272.518 272.224C272.273 272.119 272.065 271.944 271.92 271.72C271.775 271.497 271.699 271.235 271.703 270.969C271.709 270.616 271.853 270.279 272.104 270.032C272.355 269.784 272.694 269.646 273.046 269.646ZM318.732 243.313V281.306C318.727 282.611 318.206 283.86 317.284 284.783C316.361 285.705 315.112 286.226 313.807 286.231H243.295C241.99 286.226 240.741 285.705 239.818 284.783C238.896 283.86 238.375 282.611 238.37 281.306V243.354C239.711 243.609 241.077 243.704 242.44 243.638V281.306C242.44 281.533 242.53 281.75 242.69 281.911C242.851 282.071 243.068 282.161 243.295 282.161H265.944V258.27C265.944 257.303 266.135 256.345 266.505 255.451C266.875 254.557 267.418 253.745 268.102 253.061C268.786 252.377 269.598 251.834 270.492 251.464C271.386 251.094 272.344 250.903 273.311 250.903H285.521C287.471 250.914 289.339 251.694 290.718 253.073C292.097 254.452 292.877 256.32 292.888 258.27V282.161H313.848C314.072 282.151 314.283 282.058 314.442 281.9C314.6 281.741 314.693 281.53 314.703 281.306V243.435C316.059 243.567 317.427 243.526 318.773 243.313H318.732ZM269.363 282.161H289.408V258.27C289.402 257.225 288.985 256.224 288.246 255.484C287.506 254.745 286.505 254.328 285.46 254.322H273.25C272.205 254.328 271.203 254.745 270.464 255.484C269.725 256.224 269.307 257.225 269.302 258.27V282.161H269.363ZM312.322 238.592C310.895 238.178 309.527 237.583 308.252 236.821C307.61 236.18 307.068 235.446 306.644 234.644C306.228 235.451 305.685 236.186 305.037 236.821C302.798 238.523 300.064 239.444 297.253 239.444C294.441 239.444 291.707 238.523 289.469 236.821C288.826 236.18 288.284 235.446 287.861 234.644C287.452 235.45 286.916 236.185 286.274 236.821C284.036 238.523 281.302 239.444 278.49 239.444C275.678 239.444 272.944 238.523 270.706 236.821C270.058 236.186 269.515 235.451 269.099 234.644C268.675 235.446 268.133 236.18 267.491 236.821C265.253 238.523 262.519 239.444 259.707 239.444C256.895 239.444 254.161 238.523 251.923 236.821C251.281 236.18 250.739 235.446 250.315 234.644C249.907 235.45 249.371 236.185 248.728 236.821C247.098 237.915 245.275 238.688 243.356 239.1C241.823 239.386 240.245 239.33 238.736 238.936C237.227 238.542 235.824 237.82 234.626 236.821C232.951 235.148 232.007 232.88 232 230.513V227.053C232.014 226.863 232.062 226.677 232.143 226.504L238.431 206.357C238.705 205.475 239.272 204.712 240.038 204.194C240.803 203.676 241.722 203.434 242.644 203.508H313.869C314.774 203.498 315.662 203.763 316.414 204.268C317.166 204.773 317.747 205.495 318.081 206.337C319.729 211.221 324.186 222.617 325 226.951C325 227.928 325 229.475 325 230.513C325.001 231.686 324.77 232.847 324.319 233.93C323.868 235.013 323.208 235.995 322.375 236.821C319.75 239.446 315.741 239.385 312.302 238.592H312.322ZM115.965 269.646C116.232 269.642 116.494 269.718 116.718 269.864C116.942 270.01 117.118 270.219 117.222 270.465C117.326 270.712 117.354 270.983 117.303 271.246C117.252 271.508 117.124 271.749 116.935 271.938C116.746 272.128 116.504 272.256 116.242 272.307C115.98 272.358 115.708 272.33 115.462 272.226C115.215 272.122 115.006 271.946 114.86 271.722C114.714 271.498 114.638 271.236 114.642 270.969C114.647 270.619 114.788 270.286 115.035 270.039C115.282 269.792 115.616 269.651 115.965 269.646ZM161.65 243.313V281.306C161.645 282.611 161.125 283.86 160.202 284.783C159.28 285.705 158.03 286.226 156.726 286.231H86.213C84.9085 286.226 83.659 285.705 82.7366 284.783C81.8142 283.86 81.2936 282.611 81.2883 281.306V243.354C82.6289 243.609 83.9951 243.704 85.3583 243.638V281.306C85.3583 281.533 85.4483 281.75 85.6086 281.911C85.7689 282.071 85.9863 282.161 86.213 282.161H108.863V258.27C108.863 256.316 109.639 254.443 111.02 253.061C112.402 251.68 114.275 250.903 116.229 250.903H128.439C130.393 250.903 132.267 251.68 133.648 253.061C135.03 254.443 135.806 256.316 135.806 258.27V282.161H156.766C156.992 282.156 157.206 282.064 157.365 281.905C157.524 281.746 157.616 281.531 157.621 281.306V243.435C158.977 243.568 160.345 243.527 161.691 243.313H161.65ZM112.281 282.161H132.346V258.27C132.341 257.225 131.923 256.224 131.184 255.484C130.445 254.745 129.444 254.328 128.399 254.322H116.189C115.143 254.328 114.142 254.745 113.403 255.484C112.664 256.224 112.246 257.225 112.241 258.27V282.161H112.281ZM155.261 238.592C153.834 238.176 152.467 237.581 151.191 236.821C150.548 236.185 150.012 235.45 149.603 234.644C149.18 235.446 148.638 236.18 147.996 236.821C145.757 238.523 143.023 239.444 140.212 239.444C137.4 239.444 134.666 238.523 132.428 236.821C131.779 236.186 131.236 235.451 130.82 234.644C130.404 235.451 129.861 236.186 129.213 236.821C126.974 238.523 124.24 239.444 121.429 239.444C118.617 239.444 115.883 238.523 113.645 236.821C113.002 236.18 112.46 235.446 112.037 234.644C111.628 235.45 111.092 236.185 110.45 236.821C108.212 238.523 105.478 239.444 102.666 239.444C99.8544 239.444 97.1203 238.523 94.8821 236.821C94.2479 236.183 93.719 235.448 93.3151 234.644C92.8919 235.446 92.3499 236.18 91.7075 236.821C90.0866 237.918 88.2694 238.692 86.3554 239.1C84.8222 239.389 83.2442 239.334 81.7347 238.94C80.2252 238.546 78.8218 237.822 77.6253 236.821C76.7925 235.995 76.1317 235.013 75.6811 233.93C75.2305 232.847 74.999 231.686 75.0001 230.513V227.053C74.9975 226.863 75.0393 226.675 75.1222 226.504L81.4104 206.357C81.6854 205.471 82.2551 204.705 83.0249 204.187C83.7947 203.669 84.7185 203.429 85.6432 203.508H156.868C157.774 203.498 158.662 203.763 159.414 204.268C160.166 204.773 160.747 205.495 161.081 206.337C162.729 211.221 167.186 222.617 168 226.951C168 227.928 168 229.475 168 230.513C168.001 232.877 167.064 235.146 165.395 236.821C162.749 239.446 158.74 239.385 155.22 238.592H155.261ZM109.27 180.574C108.887 181.376 108.351 182.094 107.691 182.689C107.031 183.283 106.261 183.742 105.424 184.038C104.587 184.335 103.699 184.464 102.812 184.418C101.925 184.371 101.056 184.151 100.254 183.769C98.6353 182.997 97.3891 181.614 96.7899 179.923C96.4932 179.086 96.3644 178.198 96.4106 177.311C96.4569 176.425 96.6774 175.555 97.0595 174.754C100.591 167.342 104.946 160.352 110.043 153.915C115.13 147.468 120.91 141.599 127.279 136.414C128.666 135.286 130.445 134.755 132.223 134.939C133.104 135.029 133.958 135.293 134.737 135.713C135.516 136.134 136.204 136.704 136.762 137.391C137.321 138.078 137.739 138.868 137.992 139.716C138.245 140.564 138.329 141.454 138.238 142.335C138.147 143.216 137.884 144.07 137.463 144.848C137.042 145.627 136.472 146.316 135.786 146.874C124.557 156.001 115.499 167.513 109.27 180.574ZM267.491 148.4C266.773 147.845 266.175 147.15 265.733 146.357C265.29 145.564 265.013 144.69 264.917 143.788C264.821 142.885 264.908 141.972 265.174 141.104C265.439 140.236 265.877 139.431 266.462 138.736C267.047 138.042 267.766 137.473 268.576 137.063C269.386 136.654 270.27 136.412 271.176 136.353C272.082 136.294 272.99 136.418 273.847 136.719C274.703 137.02 275.49 137.491 276.16 138.103C277.523 139.243 278.582 140.138 279.396 140.891C280.21 141.644 281.431 142.763 282.509 143.842C286.575 147.824 290.324 152.118 293.722 156.683C297.141 161.251 300.216 166.066 302.92 171.091C303.359 171.877 303.635 172.743 303.734 173.637C303.833 174.532 303.753 175.438 303.497 176.301C303.241 177.164 302.815 177.967 302.245 178.663C301.674 179.359 300.97 179.934 300.174 180.355C299.378 180.775 298.506 181.032 297.61 181.111C296.713 181.19 295.81 181.088 294.953 180.813C294.096 180.538 293.302 180.094 292.619 179.508C291.936 178.921 291.377 178.204 290.975 177.399C288.65 172.987 285.976 168.768 282.977 164.782C279.989 160.764 276.696 156.981 273.128 153.468C272.334 152.654 271.398 151.819 270.401 150.883C269.404 149.947 268.366 148.991 267.572 148.4H267.491ZM232 305.706C232.851 305.381 233.759 305.232 234.668 305.267C235.578 305.302 236.471 305.521 237.295 305.91C238.118 306.298 238.854 306.85 239.459 307.53C240.064 308.211 240.525 309.007 240.814 309.87C241.104 310.733 241.216 311.646 241.144 312.553C241.072 313.461 240.817 314.344 240.395 315.151C239.973 315.958 239.392 316.671 238.687 317.247C237.982 317.824 237.169 318.252 236.294 318.506C230.62 320.428 224.792 321.864 218.875 322.8C212.942 323.778 206.939 324.268 200.926 324.265C194.79 324.267 188.664 323.764 182.611 322.759C176.581 321.768 170.645 320.27 164.866 318.282C164.025 317.995 163.25 317.545 162.583 316.958C161.917 316.371 161.372 315.658 160.981 314.861C160.191 313.25 160.073 311.392 160.653 309.695C161.234 307.997 162.464 306.6 164.075 305.81C164.872 305.419 165.739 305.188 166.625 305.132C167.512 305.076 168.401 305.195 169.241 305.482C174.339 307.228 179.574 308.549 184.89 309.43C190.211 310.304 195.595 310.739 200.987 310.732C206.27 310.743 211.544 310.321 216.758 309.471C221.964 308.654 227.09 307.395 232.082 305.706H232ZM240.14 114.843V152.816C240.135 154.121 239.615 155.37 238.692 156.293C237.77 157.215 236.52 157.736 235.216 157.741H164.744C163.439 157.736 162.19 157.215 161.267 156.293C160.345 155.37 159.824 154.121 159.819 152.816V114.884C161.162 115.123 162.527 115.211 163.889 115.149V152.816C163.889 153.043 163.979 153.26 164.139 153.421C164.3 153.581 164.517 153.671 164.744 153.671H187.393V129.78C187.409 127.828 188.193 125.96 189.576 124.582C190.958 123.203 192.828 122.424 194.78 122.413H206.99C208.941 122.424 210.808 123.204 212.188 124.583C213.567 125.962 214.346 127.83 214.357 129.78V153.671H235.277C235.502 153.666 235.716 153.574 235.875 153.415C236.035 153.256 236.126 153.041 236.132 152.816V114.965C237.488 115.076 238.854 115.035 240.202 114.843H240.14ZM190.832 153.671H210.877V129.78C210.856 128.745 210.431 127.76 209.694 127.034C208.956 126.308 207.964 125.898 206.929 125.893H194.719C194.201 125.893 193.688 125.996 193.209 126.195C192.731 126.394 192.296 126.686 191.931 127.053C191.561 127.416 191.267 127.85 191.068 128.329C190.869 128.808 190.768 129.322 190.771 129.841V153.671H190.832ZM233.73 110.122C232.304 109.696 230.937 109.095 229.66 108.331C229.012 107.696 228.469 106.961 228.053 106.154C227.629 106.956 227.087 107.69 226.445 108.331C224.207 110.033 221.473 110.954 218.661 110.954C215.849 110.954 213.115 110.033 210.877 108.331C210.249 107.688 209.721 106.954 209.31 106.154C208.901 106.96 208.365 107.695 207.723 108.331C205.485 110.033 202.751 110.954 199.939 110.954C197.127 110.954 194.393 110.033 192.155 108.331C191.506 107.696 190.964 106.961 190.547 106.154C190.13 106.955 189.595 107.689 188.96 108.331C186.722 110.033 183.988 110.954 181.176 110.954C178.365 110.954 175.631 110.033 173.392 108.331C172.75 107.69 172.208 106.956 171.785 106.154C171.369 106.961 170.826 107.696 170.177 108.331C168.562 109.443 166.743 110.224 164.825 110.631C163.29 110.911 161.713 110.85 160.204 110.453C158.695 110.055 157.293 109.331 156.095 108.331C155.264 107.504 154.604 106.521 154.154 105.439C153.703 104.356 153.471 103.195 153.47 102.023V98.5632C153.486 98.3734 153.534 98.1876 153.612 98.0138L159.9 77.8673C160.177 76.9736 160.753 76.2025 161.531 75.6836C162.309 75.1647 163.243 74.9297 164.174 75.0183H235.399C236.304 75.0138 237.189 75.281 237.94 75.7854C238.691 76.2897 239.273 77.0079 239.611 77.8469C241.239 82.7309 245.716 94.1269 246.51 98.4615C246.51 99.4383 246.51 100.985 246.51 102.023C246.512 103.194 246.282 104.354 245.835 105.436C245.388 106.519 244.733 107.502 243.905 108.331C241.26 110.977 237.271 110.895 233.73 110.122Z" fill="white"/>
<defs>
<clipPath id="clip0_1095_2347">
<rect width="400" height="400" fill="white"/>
</clipPath>
</defs>
</svg>
