<svg width="400" height="400" viewBox="0 0 400 400" fill="none" xmlns="http://www.w3.org/2000/svg">
<path d="M320.004 0H79.996C35.8153 0 0 35.8154 0 79.996V320.004C0 364.185 35.8153 399.999 79.996 399.999H320.004C364.183 399.999 400 364.185 400 320.004V79.996C400 35.8154 364.183 0 320.004 0Z" fill="#EB5B08"/>
<g opacity="0.15">
<path d="M303.77 174.251C307.156 174.89 310.382 176.196 313.258 178.094C316.135 179.991 318.605 182.443 320.524 185.304C323.718 190.057 325.225 195.743 324.806 201.454C324.348 207.092 322.05 212.423 318.266 216.627C314.482 220.832 309.422 223.676 303.863 224.724C317.267 228.307 324.806 236.824 324.806 251.019C324.647 256.968 322.405 262.671 318.472 267.137C314.538 271.602 309.162 274.545 303.281 275.453C306.826 276.002 310.214 277.295 313.222 279.249C316.23 281.202 318.79 283.771 320.734 286.785C322.745 289.742 324.088 293.101 324.671 296.629C325.254 300.157 325.062 303.77 324.108 307.216C322.95 311.681 320.608 315.751 317.328 318.994C314.048 322.237 309.953 324.534 305.475 325.641C300.998 326.749 296.304 326.625 291.89 325.285C287.477 323.944 283.508 321.436 280.402 318.025C277.297 314.614 275.171 310.428 274.249 305.908C273.327 301.389 273.644 296.704 275.166 292.349C276.687 287.995 279.357 284.133 282.893 281.171C286.429 278.209 290.699 276.257 295.253 275.522C281.756 272.032 273.938 263.631 273.821 249.344C273.972 243.401 276.186 237.696 280.084 233.208C283.982 228.72 289.321 225.729 295.183 224.747C288.98 223.718 283.369 220.454 279.407 215.571C275.446 210.689 273.409 204.524 273.682 198.243C274.009 192.41 276.293 186.857 280.165 182.483C284.037 178.109 289.27 175.167 295.02 174.135C291.633 173.553 288.398 172.295 285.508 170.436C282.617 168.577 280.13 166.155 278.196 163.314C275.198 159.012 273.634 153.874 273.728 148.631C273.81 142.626 275.984 136.837 279.874 132.263C283.765 127.688 289.13 124.614 295.044 123.569C291.478 122.972 288.079 121.627 285.071 119.621C282.063 117.616 279.514 114.996 277.591 111.934C275.646 108.933 274.373 105.548 273.859 102.009C273.345 98.4708 273.602 94.863 274.613 91.433C276.242 85.8428 279.729 80.9752 284.498 77.6338C289.267 74.2924 295.033 72.6768 300.843 73.0537C306.654 73.4306 312.163 75.7775 316.46 79.7069C320.757 83.6364 323.586 88.9136 324.48 94.6676C324.99 97.9241 324.841 101.25 324.042 104.448C323.242 107.645 321.809 110.65 319.826 113.284C315.944 118.683 310.093 122.336 303.537 123.453C317.616 127.455 325.155 136.367 324.48 151.377C324.393 155.068 323.376 158.677 321.525 161.871C319.646 165.083 317.089 167.847 314.032 169.969C310.93 172.064 307.441 173.52 303.77 174.251Z" fill="white"/>
<path d="M233.866 171.621C229.436 171.598 225.112 170.26 221.442 167.778C217.772 165.296 214.922 161.781 213.251 157.678C211.58 153.575 211.164 149.068 212.056 144.728C212.948 140.388 215.108 136.411 218.262 133.3C221.416 130.188 225.422 128.082 229.773 127.249C234.125 126.416 238.625 126.893 242.706 128.619C246.786 130.345 250.262 133.243 252.694 136.946C255.127 140.649 256.405 144.991 256.368 149.421C256.325 155.348 253.931 161.016 249.712 165.178C245.493 169.341 239.793 171.658 233.866 171.621Z" fill="white"/>
<path d="M233.843 222.233C229.423 222.201 225.112 220.86 221.454 218.379C217.796 215.898 214.955 212.389 213.291 208.295C211.626 204.2 211.212 199.704 212.1 195.375C212.989 191.045 215.141 187.076 218.284 183.969C221.427 180.861 225.421 178.755 229.76 177.916C234.1 177.076 238.59 177.542 242.666 179.253C246.741 180.965 250.217 183.846 252.656 187.532C255.095 191.218 256.387 195.544 256.368 199.964C256.356 202.906 255.763 205.818 254.624 208.531C253.484 211.244 251.821 213.705 249.728 215.774C247.636 217.843 245.155 219.478 242.429 220.587C239.703 221.695 236.786 222.255 233.843 222.233Z" fill="white"/>
<path d="M233.983 272.89C229.552 272.885 225.223 271.564 221.544 269.095C217.865 266.626 215.003 263.119 213.32 259.02C211.637 254.921 211.21 250.415 212.093 246.073C212.975 241.731 215.128 237.749 218.277 234.632C221.427 231.516 225.431 229.405 229.782 228.568C234.133 227.731 238.634 228.205 242.715 229.93C246.796 231.656 250.273 234.555 252.704 238.259C255.135 241.963 256.41 246.306 256.369 250.737C256.307 256.634 253.922 262.268 249.73 266.416C245.539 270.564 239.88 272.89 233.983 272.89Z" fill="white"/>
<path d="M233.867 323.574C229.442 323.546 225.125 322.207 221.462 319.724C217.799 317.242 214.955 313.729 213.289 309.63C211.624 305.53 211.212 301.029 212.105 296.695C212.999 292.362 215.159 288.39 218.31 285.285C221.462 282.179 225.464 280.077 229.81 279.247C234.156 278.417 238.651 278.894 242.726 280.619C246.8 282.344 250.272 285.24 252.7 288.938C255.129 292.637 256.406 296.973 256.369 301.398C256.307 307.317 253.907 312.971 249.691 317.126C245.475 321.281 239.786 323.599 233.867 323.574Z" fill="white"/>
<path d="M233.75 121.056C229.343 121.033 225.042 119.707 221.388 117.246C217.733 114.784 214.888 111.297 213.21 107.223C211.532 103.148 211.097 98.6686 211.959 94.3474C212.821 90.0261 214.941 86.0563 218.054 82.9373C221.167 79.8183 225.132 77.6895 229.451 76.8186C233.771 75.9477 238.251 76.3737 242.329 78.0429C246.407 79.7122 249.9 82.5501 252.37 86.1998C254.839 89.8494 256.173 94.1478 256.205 98.554C256.227 101.511 255.661 104.443 254.541 107.18C253.421 109.917 251.768 112.404 249.679 114.497C247.59 116.59 245.107 118.248 242.372 119.374C239.638 120.5 236.707 121.072 233.75 121.056Z" fill="white"/>
<path d="M195.285 149C195.285 152.676 194.196 156.27 192.157 159.328C190.117 162.387 187.218 164.773 183.825 166.186C180.431 167.599 176.695 167.975 173.088 167.268C169.481 166.561 166.163 164.802 163.555 162.212C160.946 159.623 159.162 156.319 158.428 152.717C157.694 149.115 158.042 145.376 159.43 141.973C160.818 138.569 163.182 135.652 166.225 133.589C169.268 131.527 172.853 130.412 176.529 130.384C178.986 130.366 181.421 130.834 183.696 131.761C185.971 132.688 188.04 134.057 189.783 135.787C191.527 137.518 192.91 139.576 193.855 141.844C194.799 144.112 195.285 146.544 195.285 149Z" fill="white"/>
<path d="M176.552 117.074C172.87 117.074 169.27 115.982 166.209 113.937C163.148 111.891 160.762 108.984 159.353 105.582C157.944 102.18 157.575 98.4372 158.293 94.826C159.012 91.2149 160.785 87.8978 163.388 85.2943C165.992 82.6908 169.309 80.9178 172.92 80.1995C176.531 79.4812 180.274 79.8499 183.676 81.2589C187.077 82.6679 189.985 85.0539 192.03 88.1153C194.076 91.1767 195.168 94.7759 195.168 98.4579C195.168 103.395 193.206 108.13 189.715 111.621C186.224 115.113 181.489 117.074 176.552 117.074Z" fill="white"/>
<path d="M176.622 319.594C172.95 319.548 169.374 318.417 166.343 316.344C163.313 314.271 160.963 311.348 159.589 307.942C158.216 304.537 157.88 300.801 158.625 297.206C159.369 293.61 161.16 290.315 163.773 287.734C166.385 285.154 169.703 283.404 173.307 282.704C176.912 282.005 180.643 282.387 184.031 283.802C187.419 285.218 190.313 287.604 192.348 290.66C194.384 293.716 195.47 297.306 195.47 300.978C195.471 303.442 194.981 305.882 194.031 308.156C193.081 310.43 191.689 312.493 189.936 314.224C188.182 315.956 186.103 317.322 183.817 318.244C181.532 319.166 179.086 319.625 176.622 319.594Z" fill="white"/>
<path d="M195.307 250.319C195.266 253.983 194.143 257.554 192.081 260.584C190.019 263.614 187.108 265.967 183.714 267.349C180.319 268.732 176.593 269.081 173 268.355C169.408 267.628 166.11 265.857 163.521 263.264C160.931 260.67 159.164 257.371 158.441 253.778C157.719 250.184 158.073 246.458 159.46 243.065C160.846 239.673 163.203 236.765 166.236 234.706C169.268 232.648 172.84 231.53 176.505 231.493C178.983 231.468 181.441 231.938 183.735 232.876C186.029 233.813 188.113 235.199 189.864 236.953C191.615 238.706 192.999 240.792 193.933 243.087C194.868 245.382 195.335 247.841 195.307 250.319Z" fill="white"/>
<path d="M176.716 180.927C180.388 180.973 183.964 182.104 186.994 184.177C190.025 186.25 192.375 189.174 193.748 192.579C195.122 195.984 195.457 199.72 194.713 203.316C193.968 206.911 192.177 210.207 189.565 212.787C186.952 215.367 183.635 217.117 180.03 217.817C176.426 218.516 172.695 218.134 169.306 216.719C165.918 215.303 163.025 212.917 160.989 209.861C158.954 206.805 157.867 203.215 157.867 199.543C157.867 197.079 158.356 194.639 159.306 192.365C160.256 190.091 161.648 188.029 163.402 186.297C165.155 184.565 167.235 183.199 169.52 182.277C171.806 181.355 174.252 180.896 176.716 180.927Z" fill="white"/>
<path d="M141.973 301.164C141.973 303.948 141.149 306.668 139.606 308.984C138.062 311.3 135.868 313.107 133.299 314.179C130.731 315.25 127.903 315.537 125.171 315.005C122.439 314.472 119.927 313.142 117.949 311.184C115.971 309.226 114.618 306.726 114.058 304C113.498 301.274 113.757 298.443 114.803 295.864C115.849 293.285 117.635 291.073 119.936 289.507C122.236 287.941 124.949 287.09 127.732 287.063C129.593 287.051 131.439 287.406 133.164 288.109C134.888 288.811 136.457 289.847 137.78 291.157C139.103 292.467 140.154 294.026 140.874 295.743C141.593 297.46 141.967 299.303 141.973 301.164Z" fill="white"/>
<path d="M113.793 250.295C113.844 247.545 114.705 244.871 116.27 242.609C117.834 240.347 120.032 238.597 122.587 237.58C125.143 236.562 127.941 236.322 130.633 236.889C133.324 237.456 135.788 238.806 137.715 240.768C139.642 242.731 140.947 245.219 141.465 247.92C141.983 250.621 141.692 253.415 140.628 255.951C139.564 258.488 137.775 260.653 135.485 262.177C133.195 263.7 130.506 264.512 127.755 264.513C125.9 264.513 124.063 264.144 122.353 263.426C120.642 262.709 119.091 261.657 117.791 260.333C116.491 259.01 115.468 257.44 114.782 255.717C114.095 253.993 113.759 252.15 113.793 250.295Z" fill="white"/>
<path d="M141.787 98.5743C141.787 101.336 140.968 104.035 139.434 106.331C137.9 108.627 135.72 110.417 133.168 111.474C130.617 112.53 127.81 112.807 125.101 112.268C122.393 111.729 119.905 110.4 117.953 108.447C116 106.494 114.67 104.007 114.132 101.298C113.593 98.5898 113.869 95.7825 114.926 93.2313C115.983 90.6801 117.772 88.4995 120.068 86.9653C122.364 85.4312 125.064 84.6123 127.825 84.6123C131.528 84.6123 135.08 86.0833 137.698 88.7017C140.316 91.3201 141.787 94.8714 141.787 98.5743Z" fill="white"/>
<path d="M127.754 163.244C125.897 163.244 124.058 162.874 122.346 162.155C120.633 161.436 119.081 160.382 117.781 159.056C116.481 157.73 115.458 156.157 114.773 154.431C114.088 152.705 113.755 150.859 113.792 149.002C113.792 145.272 115.274 141.694 117.912 139.056C120.55 136.418 124.128 134.936 127.859 134.936C131.589 134.936 135.167 136.418 137.805 139.056C140.443 141.694 141.925 145.272 141.925 149.002C141.963 150.877 141.623 152.74 140.925 154.48C140.227 156.221 139.186 157.802 137.863 159.132C136.54 160.461 134.964 161.51 133.227 162.216C131.49 162.923 129.629 163.272 127.754 163.244Z" fill="white"/>
<path d="M113.77 199.779C113.77 196.061 115.247 192.495 117.876 189.865C120.505 187.236 124.071 185.759 127.79 185.759C131.508 185.759 135.074 187.236 137.704 189.865C140.333 192.495 141.81 196.061 141.81 199.779C141.774 203.471 140.291 207.001 137.68 209.611C135.07 212.222 131.54 213.705 127.848 213.741C126.005 213.756 124.177 213.407 122.469 212.712C120.762 212.017 119.209 210.991 117.9 209.693C116.591 208.395 115.552 206.851 114.843 205.149C114.134 203.447 113.769 201.622 113.77 199.779Z" fill="white"/>
<path d="M75.025 149.049C75.0466 146.142 76.2221 143.363 78.2928 141.323C80.3635 139.283 83.1598 138.149 86.0667 138.17C88.9735 138.192 91.7527 139.367 93.7928 141.438C95.833 143.509 96.967 146.305 96.9454 149.212C96.9091 152.111 95.7395 154.882 93.6869 156.93C91.6343 158.978 88.8616 160.142 85.9619 160.172C84.5099 160.172 83.0723 159.883 81.7331 159.322C80.3939 158.761 79.1799 157.939 78.1618 156.903C77.1437 155.868 76.3421 154.64 75.8035 153.292C75.2649 151.943 75.0003 150.501 75.025 149.049Z" fill="white"/>
<path d="M86.0322 239.383C87.4852 239.379 88.9242 239.666 90.2648 240.226C91.6055 240.786 92.8208 241.609 93.8395 242.645C94.8582 243.681 95.6597 244.91 96.1972 246.26C96.7346 247.609 96.997 249.053 96.9692 250.506C96.896 253.417 95.6816 256.183 93.5877 258.207C91.4939 260.232 88.6884 261.352 85.7763 261.326C82.8977 261.259 80.1599 260.067 78.1501 258.005C76.1404 255.943 75.0186 253.176 75.0255 250.296C75.0192 248.854 75.3003 247.424 75.8524 246.091C76.4044 244.758 77.2164 243.548 78.241 242.532C79.2656 241.516 80.4822 240.715 81.8199 240.174C83.1575 239.633 84.5895 239.364 86.0322 239.383Z" fill="white"/>
<path d="M96.968 301.163C96.965 302.598 96.6779 304.018 96.1231 305.342C95.5683 306.665 94.757 307.866 93.7358 308.874C92.7147 309.882 91.5039 310.678 90.1736 311.216C88.8432 311.753 87.4194 312.022 85.9845 312.007C83.8063 312.007 81.6773 311.359 79.8682 310.146C78.0591 308.933 76.6515 307.209 75.8245 305.194C74.9974 303.179 74.7882 300.963 75.2234 298.829C75.6587 296.695 76.7187 294.738 78.2688 293.208C79.8188 291.677 81.7889 290.642 83.9286 290.234C86.0683 289.826 88.281 290.064 90.2854 290.917C92.2897 291.77 93.9953 293.199 95.1852 295.023C96.3751 296.848 96.9957 298.985 96.968 301.163Z" fill="white"/>
<path d="M96.8063 98.6236C96.8077 100.094 96.5113 101.549 95.9352 102.902C95.359 104.254 94.515 105.476 93.4539 106.494C92.3928 107.511 91.1367 108.303 89.7612 108.822C88.3857 109.342 86.9194 109.577 85.4506 109.514C82.6049 109.328 79.943 108.043 78.0277 105.931C76.1124 103.818 75.0939 101.043 75.1876 98.1929C75.2813 95.3428 76.4798 92.6408 78.5297 90.6584C80.5797 88.676 83.3202 87.5685 86.1719 87.5703C89.0421 87.6435 91.7678 88.8448 93.7583 90.9138C95.7489 92.9827 96.844 95.7528 96.8063 98.6236Z" fill="white"/>
<path d="M75.0016 199.731C74.9766 198.288 75.2413 196.854 75.7801 195.515C76.3188 194.176 77.1207 192.958 78.1382 191.934C79.1557 190.91 80.3682 190.1 81.704 189.553C83.0398 189.006 84.4718 188.732 85.9153 188.748C88.0905 188.734 90.2209 189.366 92.0363 190.565C93.8516 191.763 95.2703 193.474 96.1123 195.479C96.9543 197.485 97.1818 199.696 96.7659 201.831C96.3501 203.966 95.3095 205.93 93.7763 207.473C92.243 209.016 90.2861 210.069 88.1537 210.498C86.0212 210.928 83.8092 210.714 81.7982 209.885C79.7871 209.056 78.0676 207.648 76.8576 205.84C75.6476 204.033 75.0017 201.906 75.0016 199.731Z" fill="white"/>
</g>
<path fill-rule="evenodd" clip-rule="evenodd" d="M285.121 61.607C257.925 68.356 239.943 94.8853 244.386 121.701C246.24 132.89 250.347 140.755 260.748 153.036C273.727 168.361 280.512 178.358 288.353 193.707C297.692 211.99 298.831 212.098 307.681 195.531C315.554 180.793 324.174 167.926 335.748 153.637C350.246 135.734 354.71 122.699 352.103 105.857C347.26 74.562 316.035 53.9347 285.121 61.607ZM317.354 72.697C326.958 77.0937 334.843 84.831 339.63 94.5553C343.238 101.885 343.679 103.937 343.679 113.397C343.679 126.834 340.757 133.518 327.775 149.782C317.845 162.222 308.339 176.058 302.464 186.62C298.978 192.887 296.957 194.768 296.957 191.748C296.957 188.4 281.013 164.025 270.58 151.424C255.548 133.268 252.727 127.258 252.73 113.394C252.731 103.908 253.168 101.884 256.824 94.458C262.764 82.3927 274.139 73.0083 286.658 69.8463C294.748 67.8043 309.697 69.192 317.354 72.697ZM288.859 90.182C283.885 92.4647 278.313 98.1647 276.225 103.105C272.953 110.847 274.908 122.593 280.496 128.773C287.755 136.799 303.767 138.258 312.393 131.679C325.246 121.876 324.852 101.283 311.644 92.543C305.735 88.6323 294.721 87.491 288.859 90.182ZM305.72 99.1167C313.449 103.113 315.688 115.204 309.96 122.013C301.043 132.609 283.252 126.782 283.252 113.266C283.252 100.681 294.747 93.4427 305.72 99.1167ZM280.445 210.014C275.63 213.286 275.247 214.005 276.533 217.355C277.583 220.094 281.558 219.816 285.933 216.699C289.201 214.373 289.419 213.838 287.846 212.027C286.869 210.903 285.854 209.276 285.591 208.412C285.257 207.315 283.711 207.795 280.445 210.014ZM253.973 220.707C243.861 224.846 240.739 229.037 245.761 231.725C247.562 232.689 249.756 232.293 254.794 230.096C258.453 228.501 263.028 226.54 264.96 225.74C267.573 224.658 268.37 223.572 268.074 221.494C267.536 217.702 262.062 217.396 253.973 220.707ZM225.413 243.135C218.945 251.738 218.325 255.913 223.448 256.341C225.975 256.553 227.692 255.054 232.543 248.401C239.052 239.474 239.534 236.353 234.496 235.768C231.772 235.45 230.279 236.661 225.413 243.135ZM213.659 268.229C213.106 269.771 211.369 274.537 209.8 278.819C207.488 285.131 207.241 286.961 208.497 288.475C212.239 292.983 215.921 289.158 219.759 276.781C221.624 270.765 221.882 268.409 220.815 267.125C218.64 264.502 214.783 265.098 213.659 268.229ZM191.781 302.417C183.171 309.857 182.332 311.43 185.544 314.096C188.205 316.305 194.401 312.956 201.103 305.685C205.295 301.137 205.871 299.895 204.753 297.807C202.719 294.005 200.666 294.736 191.781 302.417ZM164.237 315.46C160.82 316.591 154.923 324.22 154.923 327.512C154.923 328.505 161.621 326.295 173.385 321.419C175.415 320.577 176.156 319.392 175.876 317.43C175.419 314.207 170.528 313.378 164.237 315.46Z" fill="#FFF1F1"/>
<path d="M47 237.001C47 232.032 51.0312 228.001 56 228.001H116C120.969 228.001 125 232.032 125 237.001V246.001H134.506C137.694 246.001 140.75 247.257 143 249.507L157.494 264.001C159.744 266.251 161 269.307 161 272.495V276.001V282.001V294.001C164.319 294.001 167 296.682 167 300.001C167 303.32 164.319 306.001 161 306.001H155C155 315.938 146.938 324.001 137 324.001C127.062 324.001 119 315.938 119 306.001H95C95 315.938 86.9375 324.001 77 324.001C67.0625 324.001 59 315.938 59 306.001H56C51.0312 306.001 47 301.97 47 297.001V237.001ZM125 276.001H149V272.495L134.506 258.001H125V276.001ZM77 315.001C79.3869 315.001 81.6761 314.053 83.364 312.365C85.0518 310.677 86 308.388 86 306.001C86 303.614 85.0518 301.325 83.364 299.637C81.6761 297.949 79.3869 297.001 77 297.001C74.6131 297.001 72.3239 297.949 70.636 299.637C68.9482 301.325 68 303.614 68 306.001C68 308.388 68.9482 310.677 70.636 312.365C72.3239 314.053 74.6131 315.001 77 315.001ZM146 306.001C146 303.614 145.052 301.325 143.364 299.637C141.676 297.949 139.387 297.001 137 297.001C134.613 297.001 132.324 297.949 130.636 299.637C128.948 301.325 128 303.614 128 306.001C128 308.388 128.948 310.677 130.636 312.365C132.324 314.053 134.613 315.001 137 315.001C139.387 315.001 141.676 314.053 143.364 312.365C145.052 310.677 146 308.388 146 306.001ZM95.1875 245.813C93.425 244.051 90.575 244.051 88.8313 245.813C87.0875 247.576 87.0688 250.426 88.8313 252.17L96.1438 259.482H65C62.5062 259.482 60.5 261.488 60.5 263.982C60.5 266.476 62.5062 268.482 65 268.482H96.1438L88.8313 275.795C87.0688 277.557 87.0688 280.407 88.8313 282.151C90.5938 283.895 93.4437 283.913 95.1875 282.151L110.188 267.151C111.95 265.388 111.95 262.538 110.188 260.795L95.1875 245.813Z" fill="white"/>
</svg>
