<svg width="400" height="400" viewBox="0 0 400 400" fill="none" xmlns="http://www.w3.org/2000/svg">
    <g clip-path="url(#clip0_601_2)">
        <path
            d="M340.571 400H59.4286C26.2857 400 0 373.714 0 340.571V59.4286C0 26.2857 26.2857 0 59.4286 0H339.429C373.714 0 400 26.2857 400 59.4286V339.429C400 373.714 373.714 400 340.571 400Z"
            fill="url(#paint0_linear_601_2)" />
        <path fill-rule="evenodd" clip-rule="evenodd"
            d="M321.017 69.8779C308.971 74.287 298.724 79.0758 298.247 80.518C297.771 81.9601 301.051 86.3021 305.536 90.1665L313.695 97.1914L295.355 117.501C230.795 188.997 149.256 242.523 78.2603 260.008C64.0225 263.514 61 264.902 61 267.926C61 273.688 75.9934 271.892 102.822 262.923C145.121 248.781 194.282 220.825 236.48 186.918C252.497 174.048 299.921 128.066 313.94 111.813L321.08 103.536L328.648 110.374C336.994 117.913 341.192 118.957 342.679 113.855C345.902 102.778 351.857 67.0837 350.896 64.5809C349.239 60.262 345.436 60.9371 321.017 69.8779ZM134.836 88.5037C134.836 92.3585 133.704 94.6752 131.48 95.3791C113.379 101.104 106.069 108.994 106.069 122.808C106.069 136.896 112.286 144.638 127.644 149.672L134.836 152.029V167.224C134.836 175.58 134.136 182.417 133.28 182.417C130.505 182.417 123.664 174.993 122.293 170.496C118.903 159.375 110.209 156.147 105.012 164.079C102.172 168.413 102.225 169.38 105.746 177.342C109.791 186.483 115.13 190.965 126.702 194.927C132.536 196.923 134.055 198.507 134.836 203.4C135.363 206.71 136.443 209.383 137.233 209.341C138.023 209.301 139.534 209.266 140.589 209.266C141.644 209.266 142.507 206.246 142.507 202.554C142.507 196.881 143.174 195.836 146.822 195.811C153.816 195.759 165.805 187.729 169.636 180.53C178.644 163.599 170.845 145.493 151.82 139.174L142.507 136.081V122.811C142.507 115.512 143.236 109.54 144.128 109.54C146.634 109.54 151.613 115.693 153.834 121.53C155.402 125.657 157.08 126.8 161.57 126.8C179.014 126.8 167.96 100.463 149.026 96.9114C143.136 95.8068 142.507 95.0626 142.507 89.1903C142.507 83.97 141.753 82.6908 138.671 82.6908C135.68 82.6908 134.836 83.97 134.836 88.5037ZM127.592 112.526C120.18 117.718 123.517 132.554 132.095 132.554C134.166 132.554 134.836 129.74 134.836 121.047C134.836 114.718 134.165 109.54 133.346 109.54C132.525 109.54 129.936 110.885 127.592 112.526ZM296.406 141.857L271.238 168.423L271.064 249.911C270.966 294.728 271.436 332.829 272.107 334.578C273.158 337.315 276.794 337.76 298.055 337.76H322.781V226.527C322.781 165.348 322.509 115.294 322.177 115.294C321.843 115.294 310.246 127.247 296.406 141.857ZM142.507 168.992C142.507 183.689 144.246 185.482 151.734 178.507C157.474 173.16 157.439 162.595 151.668 158.554C143.819 153.053 142.507 154.547 142.507 168.992ZM249.849 185.361C248.506 186.979 237.6 195.744 225.613 204.836L203.821 221.37L204.33 279.084L204.836 336.801H229.767H254.699L255.2 259.609C255.487 215.482 254.971 182.417 253.997 182.417C253.059 182.417 251.193 183.742 249.849 185.361ZM160.247 246.236L134.836 259.413V295.553C134.836 315.431 135.359 333.057 136 334.726C136.974 337.267 141.032 337.76 160.991 337.76C178.441 337.76 185.069 337.11 185.75 335.332C186.264 333.997 186.452 310.44 186.17 282.981L185.658 233.059L160.247 246.236ZM109.904 268.571C107.242 270.099 85.3025 276.369 72.9345 279.134L67.6107 280.323L68.14 308.563L68.6712 336.801H93.6028H118.534L119.058 301.801C119.541 269.361 119.33 266.805 116.181 266.858C114.311 266.891 111.486 267.662 109.904 268.571Z"
            fill="white" />
    </g>
    <defs>
        <linearGradient id="paint0_linear_601_2" x1="200" y1="0" x2="200" y2="400" gradientUnits="userSpaceOnUse">
            <stop stop-color="#3AE8CD" />
            <stop offset="1" stop-color="#30B5C0" />
        </linearGradient>
        <clipPath id="clip0_601_2">
            <rect width="400" height="400" fill="white" />
        </clipPath>
    </defs>
</svg>