<svg width="394" height="394" viewBox="0 0 394 394" fill="none" xmlns="http://www.w3.org/2000/svg">
<path d="M78.7 0H314.8C358.3 0 393.5 35.2 393.5 78.7V314.8C393.5 358.3 358.3 393.5 314.8 393.5H78.7C35.2 393.5 0 358.3 0 314.8V78.7C0 35.3 35.2 0 78.7 0Z" fill="#A7C1D4"/>
<g opacity="0.15">
<path d="M295.77 179.251C299.156 179.89 302.381 181.196 305.258 183.094C308.134 184.991 310.604 187.443 312.524 190.304C315.717 195.057 317.225 200.743 316.806 206.454C316.348 212.092 314.05 217.423 310.266 221.627C306.482 225.832 301.421 228.676 295.863 229.724C309.266 233.307 316.806 241.824 316.806 256.019C316.646 261.968 314.405 267.671 310.471 272.137C306.538 276.602 301.162 279.545 295.281 280.453C298.825 281.002 302.213 282.295 305.222 284.249C308.23 286.202 310.79 288.771 312.733 291.785C314.745 294.742 316.088 298.101 316.671 301.629C317.253 305.157 317.061 308.77 316.108 312.216C314.95 316.681 312.608 320.751 309.328 323.994C306.048 327.237 301.953 329.534 297.475 330.641C292.997 331.749 288.303 331.625 283.89 330.285C279.476 328.944 275.507 326.436 272.402 323.025C269.297 319.614 267.171 315.428 266.249 310.908C265.327 306.389 265.644 301.704 267.165 297.349C268.687 292.995 271.356 289.133 274.892 286.171C278.428 283.209 282.699 281.257 287.253 280.522C273.756 277.032 265.937 268.631 265.821 254.344C265.972 248.401 268.186 242.696 272.084 238.208C275.982 233.72 281.32 230.729 287.183 229.747C280.98 228.718 275.368 225.454 271.407 220.571C267.446 215.689 265.409 209.524 265.681 203.243C266.008 197.41 268.292 191.857 272.164 187.483C276.036 183.109 281.27 180.167 287.02 179.135C283.633 178.553 280.398 177.295 277.507 175.436C274.617 173.577 272.13 171.155 270.196 168.314C267.197 164.012 265.634 158.874 265.728 153.631C265.81 147.626 267.983 141.837 271.874 137.263C275.765 132.688 281.129 129.614 287.043 128.569C283.478 127.972 280.079 126.627 277.07 124.621C274.062 122.616 271.513 119.996 269.591 116.934C267.646 113.933 266.373 110.548 265.859 107.009C265.345 103.471 265.602 99.863 266.612 96.433C268.242 90.8428 271.729 85.9752 276.498 82.6338C281.267 79.2924 287.032 77.6768 292.843 78.0537C298.654 78.4306 304.162 80.7775 308.46 84.7069C312.757 88.6364 315.586 93.9136 316.48 99.6676C316.99 102.924 316.841 106.25 316.041 109.448C315.242 112.645 313.808 115.65 311.826 118.284C307.944 123.683 302.092 127.336 295.537 128.453C309.615 132.455 317.155 141.367 316.48 156.377C316.392 160.068 315.376 163.677 313.525 166.871C311.645 170.083 309.088 172.847 306.032 174.969C302.929 177.064 299.441 178.52 295.77 179.251Z" fill="white"/>
<path d="M225.866 176.621C221.436 176.598 217.112 175.26 213.442 172.778C209.772 170.296 206.921 166.781 205.251 162.678C203.58 158.575 203.164 154.068 204.056 149.728C204.948 145.388 207.108 141.411 210.262 138.3C213.416 135.188 217.422 133.082 221.773 132.249C226.125 131.416 230.625 131.893 234.706 133.619C238.786 135.345 242.262 138.243 244.694 141.946C247.127 145.649 248.405 149.991 248.368 154.421C248.325 160.348 245.931 166.016 241.712 170.178C237.492 174.341 231.793 176.658 225.866 176.621Z" fill="white"/>
<path d="M225.843 227.233C221.423 227.201 217.112 225.86 213.454 223.379C209.796 220.898 206.955 217.389 205.291 213.295C203.626 209.2 203.212 204.704 204.1 200.375C204.989 196.045 207.141 192.076 210.284 188.969C213.427 185.861 217.421 183.755 221.76 182.916C226.1 182.076 230.591 182.542 234.666 184.253C238.741 185.965 242.217 188.846 244.656 192.532C247.095 196.218 248.387 200.544 248.368 204.964C248.356 207.906 247.764 210.818 246.624 213.531C245.485 216.244 243.821 218.705 241.728 220.774C239.636 222.843 237.155 224.478 234.429 225.587C231.703 226.695 228.786 227.255 225.843 227.233Z" fill="white"/>
<path d="M225.983 277.89C221.552 277.885 217.222 276.564 213.543 274.095C209.865 271.626 207.002 268.119 205.32 264.02C203.637 259.921 203.21 255.415 204.092 251.073C204.975 246.731 207.128 242.749 210.277 239.632C213.426 236.516 217.431 234.405 221.781 233.568C226.132 232.731 230.634 233.205 234.715 234.93C238.796 236.656 242.273 239.555 244.703 243.259C247.134 246.963 248.41 251.306 248.368 255.737C248.307 261.634 245.922 267.268 241.73 271.416C237.538 275.564 231.88 277.89 225.983 277.89Z" fill="white"/>
<path d="M225.866 328.574C221.442 328.546 217.125 327.207 213.462 324.724C209.799 322.242 206.954 318.729 205.289 314.63C203.623 310.53 203.211 306.029 204.105 301.695C204.999 297.362 207.158 293.39 210.31 290.285C213.461 287.179 217.463 285.077 221.81 284.247C226.156 283.417 230.651 283.894 234.725 285.619C238.8 287.344 242.271 290.24 244.7 293.938C247.128 297.637 248.405 301.973 248.368 306.398C248.307 312.317 245.906 317.971 241.69 322.126C237.474 326.281 231.786 328.599 225.866 328.574Z" fill="white"/>
<path d="M225.75 126.056C221.344 126.033 217.042 124.707 213.388 122.246C209.733 119.785 206.888 116.297 205.21 112.223C203.532 108.148 203.097 103.669 203.959 99.3474C204.821 95.0261 206.942 91.0563 210.054 87.9373C213.167 84.8183 217.132 82.6895 221.452 81.8186C225.771 80.9477 230.252 81.3737 234.33 83.0429C238.407 84.7122 241.901 87.5501 244.37 91.1998C246.839 94.8494 248.173 99.1478 248.205 103.554C248.227 106.511 247.661 109.443 246.541 112.18C245.421 114.917 243.768 117.404 241.679 119.497C239.59 121.59 237.107 123.248 234.372 124.374C231.638 125.5 228.707 126.072 225.75 126.056Z" fill="white"/>
<path d="M187.285 154C187.284 157.676 186.196 161.27 184.157 164.328C182.117 167.387 179.218 169.773 175.824 171.186C172.431 172.599 168.695 172.975 165.088 172.268C161.48 171.561 158.163 169.802 155.554 167.212C152.945 164.623 151.161 161.319 150.427 157.717C149.693 154.115 150.042 150.376 151.43 146.973C152.817 143.569 155.182 140.652 158.225 138.589C161.268 136.527 164.853 135.412 168.529 135.384C170.985 135.366 173.421 135.834 175.696 136.761C177.971 137.688 180.039 139.057 181.783 140.787C183.526 142.518 184.91 144.576 185.854 146.844C186.798 149.112 187.285 151.544 187.285 154Z" fill="white"/>
<path d="M168.552 122.074C164.87 122.074 161.271 120.982 158.21 118.937C155.148 116.891 152.762 113.984 151.353 110.582C149.944 107.18 149.576 103.437 150.294 99.826C151.012 96.2149 152.785 92.8978 155.389 90.2943C157.992 87.6908 161.309 85.9178 164.92 85.1995C168.531 84.4812 172.275 84.8499 175.676 86.2589C179.078 87.6679 181.985 90.0539 184.031 93.1153C186.076 96.1767 187.168 99.7759 187.168 103.458C187.168 108.395 185.207 113.13 181.716 116.621C178.224 120.113 173.489 122.074 168.552 122.074Z" fill="white"/>
<path d="M168.622 324.594C164.95 324.548 161.374 323.417 158.344 321.344C155.313 319.271 152.963 316.348 151.59 312.942C150.216 309.537 149.881 305.801 150.625 302.206C151.369 298.61 153.161 295.315 155.773 292.734C158.386 290.154 161.703 288.404 165.308 287.704C168.912 287.005 172.643 287.387 176.031 288.802C179.419 290.218 182.313 292.604 184.349 295.66C186.384 298.716 187.47 302.306 187.471 305.978C187.471 308.442 186.982 310.882 186.032 313.156C185.082 315.43 183.69 317.493 181.936 319.224C180.183 320.956 178.103 322.322 175.817 323.244C173.532 324.166 171.086 324.625 168.622 324.594Z" fill="white"/>
<path d="M187.308 255.319C187.266 258.983 186.144 262.554 184.082 265.584C182.019 268.614 179.109 270.967 175.714 272.349C172.32 273.732 168.593 274.081 165.001 273.355C161.409 272.628 158.111 270.857 155.521 268.264C152.931 265.67 151.164 262.371 150.442 258.778C149.72 255.184 150.074 251.458 151.46 248.065C152.847 244.673 155.204 241.765 158.236 239.706C161.268 237.648 164.841 236.53 168.505 236.493C170.984 236.468 173.442 236.938 175.736 237.876C178.03 238.813 180.113 240.199 181.865 241.953C183.616 243.706 184.999 245.792 185.934 248.087C186.869 250.382 187.336 252.841 187.308 255.319Z" fill="white"/>
<path d="M168.715 185.927C172.387 185.973 175.963 187.104 178.993 189.177C182.024 191.25 184.374 194.174 185.747 197.579C187.121 200.984 187.456 204.72 186.712 208.316C185.968 211.911 184.176 215.207 181.564 217.787C178.951 220.367 175.634 222.117 172.029 222.817C168.425 223.516 164.694 223.134 161.306 221.719C157.918 220.303 155.024 217.917 152.988 214.861C150.953 211.805 149.867 208.215 149.866 204.543C149.866 202.079 150.355 199.639 151.305 197.365C152.255 195.091 153.647 193.029 155.401 191.297C157.154 189.565 159.234 188.199 161.52 187.277C163.805 186.355 166.251 185.896 168.715 185.927Z" fill="white"/>
<path d="M133.973 306.164C133.973 308.948 133.149 311.668 131.606 313.984C130.062 316.3 127.868 318.107 125.299 319.179C122.731 320.25 119.903 320.537 117.171 320.005C114.439 319.472 111.927 318.142 109.949 316.184C107.971 314.226 106.617 311.726 106.058 309C105.498 306.274 105.757 303.443 106.803 300.864C107.849 298.285 109.635 296.073 111.935 294.507C114.236 292.941 116.949 292.09 119.732 292.063C121.593 292.051 123.439 292.406 125.164 293.109C126.888 293.811 128.457 294.847 129.78 296.157C131.103 297.467 132.154 299.026 132.874 300.743C133.593 302.46 133.967 304.303 133.973 306.164Z" fill="white"/>
<path d="M105.793 255.295C105.843 252.545 106.705 249.871 108.269 247.609C109.834 245.347 112.032 243.597 114.587 242.58C117.142 241.562 119.941 241.322 122.632 241.889C125.324 242.456 127.787 243.806 129.714 245.768C131.642 247.731 132.946 250.219 133.464 252.92C133.983 255.621 133.692 258.415 132.628 260.951C131.564 263.488 129.775 265.653 127.484 267.177C125.194 268.7 122.505 269.512 119.755 269.513C117.9 269.513 116.063 269.144 114.352 268.426C112.641 267.709 111.09 266.657 109.791 265.333C108.491 264.01 107.468 262.44 106.781 260.717C106.095 258.993 105.759 257.15 105.793 255.295Z" fill="white"/>
<path d="M133.787 103.574C133.787 106.336 132.968 109.035 131.434 111.331C129.899 113.627 127.719 115.417 125.168 116.474C122.616 117.53 119.809 117.807 117.101 117.268C114.392 116.729 111.905 115.4 109.952 113.447C107.999 111.494 106.669 109.007 106.131 106.298C105.592 103.59 105.869 100.783 106.925 98.2313C107.982 95.6801 109.772 93.4995 112.068 91.9653C114.364 90.4312 117.063 89.6123 119.825 89.6123C123.527 89.6123 127.079 91.0833 129.697 93.7017C132.316 96.3201 133.787 99.8714 133.787 103.574Z" fill="white"/>
<path d="M119.755 168.244C117.898 168.244 116.059 167.874 114.347 167.155C112.634 166.436 111.082 165.382 109.782 164.056C108.482 162.73 107.459 161.157 106.774 159.431C106.089 157.705 105.756 155.859 105.793 154.002C105.793 150.272 107.275 146.694 109.913 144.056C112.551 141.418 116.129 139.936 119.86 139.936C123.59 139.936 127.168 141.418 129.806 144.056C132.444 146.694 133.926 150.272 133.926 154.002C133.964 155.877 133.624 157.74 132.926 159.48C132.228 161.221 131.187 162.802 129.864 164.132C128.541 165.461 126.965 166.51 125.228 167.216C123.491 167.923 121.63 168.272 119.755 168.244Z" fill="white"/>
<path d="M105.769 204.779C105.769 201.061 107.247 197.495 109.876 194.865C112.505 192.236 116.071 190.759 119.79 190.759C123.508 190.759 127.074 192.236 129.703 194.865C132.333 197.495 133.81 201.061 133.81 204.779C133.774 208.471 132.291 212.001 129.68 214.611C127.07 217.222 123.54 218.705 119.848 218.741C118.005 218.756 116.176 218.407 114.469 217.712C112.762 217.017 111.209 215.991 109.9 214.693C108.591 213.395 107.552 211.851 106.843 210.149C106.134 208.447 105.769 206.622 105.769 204.779Z" fill="white"/>
<path d="M67.0248 154.049C67.0464 151.142 68.2219 148.363 70.2926 146.323C72.3633 144.283 75.1597 143.149 78.0665 143.17C80.9733 143.192 83.7525 144.367 85.7927 146.438C87.8328 148.509 88.9668 151.305 88.9452 154.212C88.9089 157.111 87.7393 159.882 85.6867 161.93C83.6341 163.978 80.8614 165.142 77.9618 165.172C76.5097 165.172 75.0721 164.883 73.7329 164.322C72.3937 163.761 71.1797 162.939 70.1616 161.903C69.1436 160.868 68.3419 159.64 67.8033 158.292C67.2648 156.943 67.0001 155.501 67.0248 154.049Z" fill="white"/>
<path d="M78.0315 244.383C79.4845 244.379 80.9235 244.666 82.2641 245.226C83.6047 245.786 84.8201 246.609 85.8387 247.645C86.8574 248.681 87.659 249.91 88.1964 251.26C88.7338 252.609 88.9963 254.053 88.9684 255.506C88.8953 258.417 87.6808 261.183 85.587 263.207C83.4932 265.232 80.6877 266.352 77.7755 266.326C74.8969 266.259 72.1592 265.067 70.1494 263.005C68.1396 260.943 67.0179 258.176 67.0248 255.296C67.0185 253.854 67.2995 252.424 67.8516 251.091C68.4037 249.758 69.2157 248.548 70.2403 247.532C71.2648 246.516 72.4814 245.715 73.8191 245.174C75.1568 244.633 76.5888 244.364 78.0315 244.383Z" fill="white"/>
<path d="M88.9686 306.163C88.9656 307.598 88.6785 309.018 88.1237 310.342C87.5689 311.665 86.7576 312.866 85.7364 313.874C84.7153 314.882 83.5046 315.678 82.1742 316.216C80.8438 316.753 79.42 317.022 77.9851 317.007C75.8069 317.007 73.6779 316.359 71.8688 315.146C70.0597 313.933 68.6521 312.209 67.8251 310.194C66.998 308.179 66.7888 305.963 67.2241 303.829C67.6593 301.695 68.7193 299.738 70.2694 298.208C71.8195 296.677 73.7895 295.642 75.9292 295.234C78.0689 294.826 80.2816 295.064 82.286 295.917C84.2904 296.77 85.9959 298.199 87.1858 300.023C88.3757 301.848 88.9963 303.985 88.9686 306.163Z" fill="white"/>
<path d="M88.8056 103.624C88.807 105.094 88.5106 106.549 87.9345 107.902C87.3583 109.254 86.5142 110.476 85.4531 111.494C84.3921 112.511 83.1359 113.303 81.7605 113.822C80.385 114.342 78.9187 114.577 77.4498 114.514C74.6042 114.328 71.9422 113.043 70.0269 110.931C68.1116 108.818 67.0931 106.043 67.1868 103.193C67.2805 100.343 68.4791 97.6408 70.529 95.6584C72.5789 93.676 75.3195 92.5685 78.1712 92.5703C81.0413 92.6435 83.767 93.8448 85.7576 95.9138C87.7482 97.9827 88.8433 100.753 88.8056 103.624Z" fill="white"/>
<path d="M67.0016 204.731C66.9766 203.288 67.2413 201.854 67.7801 200.515C68.3188 199.176 69.1207 197.958 70.1382 196.934C71.1557 195.91 72.3682 195.1 73.704 194.553C75.0398 194.006 76.4718 193.732 77.9153 193.748C80.0905 193.734 82.2209 194.366 84.0363 195.565C85.8516 196.763 87.2703 198.474 88.1123 200.479C88.9543 202.485 89.1818 204.696 88.7659 206.831C88.3501 208.966 87.3095 210.93 85.7763 212.473C84.243 214.016 82.2861 215.069 80.1537 215.498C78.0212 215.928 75.8092 215.714 73.7982 214.885C71.7871 214.056 70.0676 212.648 68.8576 210.84C67.6476 209.033 67.0017 206.906 67.0016 204.731Z" fill="white"/>
</g>
<path d="M190.272 79.9477C176.93 81.6477 164.917 87.4952 155.51 96.9052C140.305 112.108 134.725 133.475 140.413 154.79C142.273 161.7 143.92 165.315 151.043 178.02C164.97 202.95 176.878 229.05 186.978 256.635C189.315 263.068 191.603 268.968 191.975 269.713C193.25 272.21 197.185 273.115 200.16 271.625C201.915 270.72 202.18 270.083 207.603 255.36C219.188 223.893 229.607 201.303 244.65 175.043C249.753 166.165 251.825 161.435 253.685 154.63C259.32 133.58 253.685 112 238.535 96.9027C229.978 88.3452 219.718 82.8702 208.29 80.6902C203.083 79.6827 195.002 79.3627 190.272 79.9477ZM201.86 115.03C211.11 116.73 219.347 124.598 221.423 133.688C223.975 144.585 218.288 156.278 208.028 161.223C191.975 169.038 173.105 157.13 173.105 139.218C173.103 124.068 187.083 112.268 201.86 115.03Z" fill="white"/>
<path d="M151.31 233.62C122.02 237.5 98.58 244.518 86.78 252.915C82.315 256.105 77.85 260.995 76.0425 264.768C74.7125 267.478 74.5 268.488 74.5 272.635C74.5 276.993 74.66 277.79 76.2 280.875C79.1225 286.88 85.2375 292.198 94.4325 296.823C141.05 320.263 253.685 320.158 299.93 296.663C302.535 295.333 305.725 293.473 307.052 292.623C311.305 289.753 316.035 284.543 317.843 280.875C319.33 277.793 319.542 276.943 319.49 272.635C319.49 268.488 319.33 267.425 318 264.768C311.78 251.905 291.102 241.965 258.148 236.01C250.44 234.628 234.652 232.448 234.335 232.768C234.015 233.033 227.85 248.075 227.958 248.183C228.065 248.235 231.945 248.66 236.622 249.193C266.018 252.435 291.107 259.823 300.195 268.01C303.438 270.933 304.235 272.528 303.118 274.23C298.12 281.83 278.188 289.645 252.833 293.845C234.28 296.928 219.45 298.043 197.02 298.043C179.692 298.043 170.55 297.618 156.358 296.023C124.308 292.41 97.675 283.693 91.35 274.763C89.7025 272.478 90.02 271.468 93.635 268.225C102.725 259.88 127.708 252.438 157.423 249.195C162.1 248.663 165.98 248.238 166.088 248.185C166.14 248.133 164.865 244.888 163.217 240.955C161.57 237.023 160.135 233.513 159.975 233.14C159.815 232.823 159.55 232.503 159.338 232.555C159.177 232.558 155.562 233.035 151.31 233.62Z" fill="white"/>
</svg>
