<svg width="20" height="19" viewBox="0 0 20 19" xmlns="http://www.w3.org/2000/svg">
<path d="M19 18L19.4479 17.7777C19.5346 17.9525 19.5118 18.1618 19.3893 18.3138C19.2668 18.4657 19.0671 18.5325 18.8779 18.4849L19 18ZM1.5 9.5C1.5 13.9218 5.05721 17.5 9.4375 17.5V18.5C4.49798 18.5 0.5 14.4671 0.5 9.5H1.5ZM17.375 9.5C17.375 5.07824 13.8178 1.5 9.4375 1.5V0.5C14.377 0.5 18.375 4.53292 18.375 9.5H17.375ZM9.4375 1.5C5.05721 1.5 1.5 5.07824 1.5 9.5H0.5C0.5 4.53292 4.49798 0.5 9.4375 0.5V1.5ZM9.4375 17.5C10.1041 17.5 10.8673 17.2504 11.6726 16.9625C12.0604 16.8239 12.4611 16.6759 12.832 16.5648C13.2001 16.4545 13.5822 16.3667 13.9375 16.3667V17.3667C13.7303 17.3667 13.4604 17.4205 13.119 17.5227C12.7804 17.6241 12.4141 17.7594 12.0092 17.9042C11.2294 18.1829 10.3051 18.5 9.4375 18.5V17.5ZM13.9375 16.3667C14.0582 16.3667 14.2323 16.393 14.4028 16.4229C14.5881 16.4553 14.8165 16.501 15.0696 16.5546C15.5763 16.6621 16.196 16.8048 16.795 16.9468C17.3946 17.0889 17.9763 17.231 18.4079 17.3375C18.6237 17.3907 18.8021 17.4351 18.9266 17.4662C18.9889 17.4817 19.0377 17.4939 19.071 17.5023C19.0876 17.5065 19.1003 17.5097 19.109 17.5118C19.1133 17.5129 19.1165 17.5137 19.1187 17.5143C19.1198 17.5146 19.1207 17.5148 19.1212 17.5149C19.1215 17.515 19.1217 17.515 19.1219 17.5151C19.122 17.5151 19.122 17.5151 19.122 17.5151C19.1221 17.5151 19.1221 17.5151 19 18C18.8779 18.4849 18.8779 18.4849 18.8778 18.4848C18.8778 18.4848 18.8778 18.4848 18.8777 18.4848C18.8776 18.4848 18.8774 18.4847 18.8771 18.4847C18.8766 18.4845 18.8758 18.4843 18.8747 18.4841C18.8726 18.4835 18.8694 18.4827 18.8652 18.4817C18.8567 18.4795 18.8442 18.4764 18.8277 18.4723C18.7948 18.464 18.7463 18.4519 18.6844 18.4364C18.5607 18.4055 18.3831 18.3614 18.1683 18.3084C17.7385 18.2023 17.16 18.0611 16.5644 17.9199C15.968 17.7785 15.3573 17.6379 14.8621 17.5329C14.6141 17.4803 14.3987 17.4374 14.2302 17.4079C14.1459 17.3931 14.0765 17.3822 14.0226 17.3752C13.9957 17.3717 13.9747 17.3694 13.9588 17.3681C13.942 17.3667 13.9359 17.3667 13.9375 17.3667V16.3667ZM19 18C18.5521 18.2223 18.5521 18.2222 18.5521 18.2222C18.5521 18.2222 18.552 18.2221 18.552 18.222C18.5519 18.2219 18.5518 18.2217 18.5517 18.2214C18.5515 18.2209 18.5511 18.2202 18.5507 18.2193C18.5498 18.2176 18.5485 18.2149 18.5468 18.2115C18.5435 18.2048 18.5386 18.1948 18.5322 18.1819C18.5195 18.156 18.501 18.1182 18.4776 18.0698C18.4307 17.9731 18.3639 17.834 18.2839 17.6638C18.1239 17.3237 17.9102 16.8573 17.6962 16.3541C17.4826 15.8521 17.2658 15.3068 17.1015 14.8102C16.9432 14.3318 16.8125 13.8385 16.8125 13.4667H17.8125C17.8125 13.6615 17.8927 14.0182 18.0509 14.4961C18.203 14.9557 18.408 15.4729 18.6163 15.9626C18.8241 16.451 19.0323 16.9055 19.1888 17.2383C19.267 17.4045 19.332 17.5399 19.3774 17.6336C19.4001 17.6804 19.4179 17.7167 19.4299 17.7412C19.4359 17.7535 19.4405 17.7627 19.4435 17.7689C19.445 17.7719 19.4461 17.7742 19.4469 17.7757C19.4472 17.7765 19.4475 17.777 19.4477 17.7773C19.4478 17.7775 19.4478 17.7776 19.4479 17.7777C19.4479 17.7777 19.4479 17.7777 19.4479 17.7777C19.4479 17.7777 19.4479 17.7777 19 18ZM16.8125 13.4667C16.8125 12.8418 16.9652 12.0465 17.1029 11.3358C17.248 10.5865 17.375 9.93653 17.375 9.5H18.375C18.375 10.0569 18.2207 10.8236 18.0846 11.526C17.9411 12.2669 17.8125 12.9582 17.8125 13.4667H16.8125Z"/>
</svg>
