<svg width="400" height="400" viewBox="0 0 400 400" fill="none" xmlns="http://www.w3.org/2000/svg">
<g clip-path="url(#clip0_193_258)">
<path d="M320.004 0H79.9959C35.8154 0 0 35.8154 0 79.9959V320.004C0 364.185 35.8154 400 79.9959 400H320.004C364.185 400 400 364.185 400 320.004V79.9959C400 35.8154 364.185 0 320.004 0Z" fill="#EF4B54"/>
</g>
<path fill-rule="evenodd" clip-rule="evenodd" d="M62.3172 75.6003C60.5645 77.353 60.7169 77.9626 63.9175 85.1259C65.213 88.0979 66.9657 90.384 68.566 91.6033C71.0807 93.356 71.6904 93.4322 87.922 93.8133C107.735 94.2705 108.345 94.4229 111.927 101.739C114.594 107.073 114.899 110.883 112.765 112.102C111.774 112.56 100.115 112.864 80.1491 112.864C47.2286 112.864 45.4759 113.093 45.0187 116.446C44.7138 118.275 48.2193 127.039 50.0482 129.172C50.8102 129.934 52.7154 131.23 54.3919 131.992C57.2876 133.287 60.6407 133.44 109.183 133.44C109.183 133.44 158.999 132.458 161.002 133.44C163.006 134.421 162.934 134.541 163.593 135.116C167.869 138.847 170.604 144.489 170.604 147.842C174.186 149.748 153.763 269.161 153.763 269.161C141.342 325.324 141.494 324.104 145.914 326.162C147.209 326.695 156.202 327 174.11 327C202.229 327 202.534 326.924 206.192 323.037C208.173 320.904 207.716 322.885 220.518 264.512C237.817 186.326 249.934 131.611 250.315 130.163C250.696 128.944 253.439 128.867 294.285 128.867C336.121 128.867 337.95 128.791 340.312 127.343C341.684 126.581 343.361 124.981 344.047 123.914C345.494 121.704 354.182 84.3639 354.258 80.2488C354.258 78.5723 354 75.2193 352.705 74H351.641H350.524C238.824 74 176.098 74 64.5963 74C64.3702 74 64.1439 74 63.9175 74C63.691 74 62.3172 75.6003 62.3172 75.6003Z" fill="white" fill-opacity="0.15"/>
<path d="M153.125 75C141.553 75 131.445 81.2988 126.074 90.625H98.4375C85.498 90.625 75 101.123 75 114.062V270.312C75 283.252 85.498 293.75 98.4375 293.75H168.75V160.938C168.75 139.355 186.23 121.875 207.812 121.875H231.25V114.062C231.25 101.123 220.752 90.625 207.812 90.625H180.176C174.805 81.2988 164.697 75 153.125 75ZM207.812 137.5C194.873 137.5 184.375 147.998 184.375 160.938V293.75V301.562C184.375 314.502 194.873 325 207.812 325H301.562C314.502 325 325 314.502 325 301.562V200H278.125C269.482 200 262.5 193.018 262.5 184.375V137.5H231.25H207.812ZM153.125 94.5312C156.233 94.5312 159.214 95.7659 161.411 97.9636C163.609 100.161 164.844 103.142 164.844 106.25C164.844 109.358 163.609 112.339 161.411 114.536C159.214 116.734 156.233 117.969 153.125 117.969C150.017 117.969 147.036 116.734 144.839 114.536C142.641 112.339 141.406 109.358 141.406 106.25C141.406 103.142 142.641 100.161 144.839 97.9636C147.036 95.7659 150.017 94.5312 153.125 94.5312ZM278.125 137.5V184.375H325L278.125 137.5Z" fill="white"/>
<defs>
<clipPath id="clip0_193_258">
<rect width="400" height="400" fill="white"/>
</clipPath>
</defs>
</svg>
