<svg width="400" height="400" viewBox="0 0 400 400" fill="none" xmlns="http://www.w3.org/2000/svg">
<g clip-path="url(#clip0_193_325)">
<path d="M320.004 0H79.9959C35.8154 0 0 35.8154 0 79.9959V320.004C0 364.185 35.8154 400 79.9959 400H320.004C364.185 400 400 364.185 400 320.004V79.9959C400 35.8154 364.185 0 320.004 0Z" fill="#F9A435"/>
</g>
<path fill-rule="evenodd" clip-rule="evenodd" d="M62.3172 75.6003C60.5645 77.353 60.7169 77.9626 63.9175 85.1259C65.213 88.0979 66.9657 90.384 68.566 91.6033C71.0807 93.356 71.6904 93.4322 87.922 93.8133C107.735 94.2705 108.345 94.4229 111.927 101.739C114.594 107.073 114.899 110.883 112.765 112.102C111.774 112.56 100.115 112.864 80.1491 112.864C47.2286 112.864 45.4759 113.093 45.0187 116.446C44.7138 118.275 48.2193 127.039 50.0482 129.172C50.8102 129.934 52.7154 131.23 54.3919 131.992C57.2876 133.287 60.6407 133.44 109.183 133.44C109.183 133.44 158.999 132.458 161.002 133.44C163.006 134.421 162.934 134.541 163.593 135.116C167.869 138.847 170.604 144.489 170.604 147.842C174.186 149.748 153.763 269.161 153.763 269.161C141.342 325.324 141.494 324.104 145.914 326.162C147.209 326.695 156.202 327 174.11 327C202.229 327 202.534 326.924 206.192 323.037C208.173 320.904 207.716 322.885 220.518 264.512C237.817 186.326 249.934 131.611 250.315 130.163C250.696 128.944 253.439 128.867 294.285 128.867C336.121 128.867 337.95 128.791 340.312 127.343C341.684 126.581 343.361 124.981 344.047 123.914C345.494 121.704 354.182 84.3639 354.258 80.2488C354.258 78.5723 354 75.2193 352.705 74H351.641H350.524C238.824 74 176.098 74 64.5963 74C64.3702 74 64.1439 74 63.9175 74C63.691 74 62.3172 75.6003 62.3172 75.6003Z" fill="white" fill-opacity="0.15"/>
<path d="M309.435 155.604H292.493V215.642C292.493 234.595 276.292 249.949 256.491 249.949H181.099L166.698 264.35C169.452 268.374 174.216 271.021 179.829 271.021H245.69L285.928 311.258V271.021H309.541C318.117 271.021 325 264.773 325 256.938V169.687C324.894 161.851 318.011 155.604 309.435 155.604Z" fill="white"/>
<path d="M174.216 233.219H256.491C267.186 233.219 275.762 225.383 275.762 215.641V106.577C275.762 96.8357 267.08 89 256.491 89H94.2715C83.6828 89 75 96.8357 75 106.577V215.535C75 225.277 83.6828 233.113 94.2715 233.113H123.708V283.409L174.216 233.219ZM229.066 146.391C237.219 146.391 243.89 153.062 243.89 161.215C243.89 169.368 237.219 176.039 229.066 176.039C220.913 176.039 214.242 169.368 214.242 161.215C214.242 152.956 220.807 146.391 229.066 146.391ZM175.381 146.391C183.535 146.391 190.205 153.062 190.205 161.215C190.205 169.368 183.535 176.039 175.381 176.039C167.228 176.039 160.557 169.368 160.557 161.215C160.557 152.956 167.228 146.391 175.381 146.391ZM121.696 175.934C113.543 175.934 106.872 169.263 106.872 161.109C106.872 152.956 113.543 146.285 121.696 146.285C129.85 146.285 136.521 152.956 136.521 161.109C136.521 169.368 129.85 175.934 121.696 175.934Z" fill="white"/>
<defs>
<clipPath id="clip0_193_325">
<rect width="400" height="400" fill="white"/>
</clipPath>
</defs>
</svg>
