<svg width="400" height="400" viewBox="0 0 400 400" fill="none" xmlns="http://www.w3.org/2000/svg">
<g clip-path="url(#clip0_193_289)">
<path d="M320.004 0H79.9959C35.8154 0 0 35.8154 0 79.9959V320.004C0 364.185 35.8154 400 79.9959 400H320.004C364.185 400 400 364.185 400 320.004V79.9959C400 35.8154 364.185 0 320.004 0Z" fill="#28B779"/>
</g>
<path fill-rule="evenodd" clip-rule="evenodd" d="M62.3172 75.6003C60.5645 77.353 60.7169 77.9626 63.9175 85.1259C65.213 88.0979 66.9657 90.384 68.566 91.6033C71.0807 93.356 71.6904 93.4322 87.922 93.8133C107.735 94.2705 108.345 94.4229 111.927 101.739C114.594 107.073 114.899 110.883 112.765 112.102C111.774 112.56 100.115 112.864 80.1491 112.864C47.2286 112.864 45.4759 113.093 45.0187 116.446C44.7138 118.275 48.2193 127.039 50.0482 129.172C50.8102 129.934 52.7154 131.23 54.3919 131.992C57.2876 133.287 60.6407 133.44 109.183 133.44C109.183 133.44 158.999 132.458 161.002 133.44C163.006 134.421 162.934 134.541 163.593 135.116C167.869 138.847 170.604 144.489 170.604 147.842C174.186 149.748 153.763 269.161 153.763 269.161C141.342 325.324 141.494 324.104 145.914 326.162C147.209 326.695 156.202 327 174.11 327C202.229 327 202.534 326.924 206.192 323.037C208.173 320.904 207.716 322.885 220.518 264.512C237.817 186.326 249.934 131.611 250.315 130.163C250.696 128.944 253.439 128.867 294.285 128.867C336.121 128.867 337.95 128.791 340.312 127.343C341.684 126.581 343.361 124.981 344.047 123.914C345.494 121.704 354.182 84.3639 354.258 80.2488C354.258 78.5723 354 75.2193 352.705 74H351.641H350.524C238.824 74 176.098 74 64.5963 74C64.3702 74 64.1439 74 63.9175 74C63.691 74 62.3172 75.6003 62.3172 75.6003Z" fill="white" fill-opacity="0.15"/>
<path d="M325 121.875C325 146.387 296.143 182.959 283.691 197.559C281.836 199.707 279.102 200.537 276.611 200H231.25C222.607 200 215.625 206.982 215.625 215.625C215.625 224.268 222.607 231.25 231.25 231.25H278.125C304.004 231.25 325 252.246 325 278.125C325 304.004 304.004 325 278.125 325H143.164C147.412 320.166 152.588 313.965 157.813 307.031C160.889 302.93 164.063 298.438 167.09 293.75H278.125C286.768 293.75 293.75 286.768 293.75 278.125C293.75 269.482 286.768 262.5 278.125 262.5H231.25C205.371 262.5 184.375 241.504 184.375 215.625C184.375 189.746 205.371 168.75 231.25 168.75H250.684C240.43 153.369 231.25 135.693 231.25 121.875C231.25 95.9961 252.246 75 278.125 75C304.004 75 325 95.9961 325 121.875ZM132.178 313.818C130.322 315.918 128.662 317.773 127.246 319.336L126.367 320.312L126.27 320.215C123.34 322.461 119.141 322.168 116.504 319.336C104.199 305.957 75 271.533 75 246.875C75 220.996 95.9961 200 121.875 200C147.754 200 168.75 220.996 168.75 246.875C168.75 261.523 158.447 279.59 147.51 294.678C142.285 301.855 136.914 308.35 132.471 313.477L132.178 313.818ZM137.5 246.875C137.5 242.731 135.854 238.757 132.924 235.826C129.993 232.896 126.019 231.25 121.875 231.25C117.731 231.25 113.757 232.896 110.826 235.826C107.896 238.757 106.25 242.731 106.25 246.875C106.25 251.019 107.896 254.993 110.826 257.924C113.757 260.854 117.731 262.5 121.875 262.5C126.019 262.5 129.993 260.854 132.924 257.924C135.854 254.993 137.5 251.019 137.5 246.875ZM278.125 137.5C282.269 137.5 286.243 135.854 289.174 132.924C292.104 129.993 293.75 126.019 293.75 121.875C293.75 117.731 292.104 113.757 289.174 110.826C286.243 107.896 282.269 106.25 278.125 106.25C273.981 106.25 270.007 107.896 267.076 110.826C264.146 113.757 262.5 117.731 262.5 121.875C262.5 126.019 264.146 129.993 267.076 132.924C270.007 135.854 273.981 137.5 278.125 137.5Z" fill="white"/>
<defs>
<clipPath id="clip0_193_289">
<rect width="400" height="400" fill="white"/>
</clipPath>
</defs>
</svg>
