<svg width="255" height="219" viewBox="0 0 255 219" fill="none" xmlns="http://www.w3.org/2000/svg">
<g clip-path="url(#clip0_52_413)">
<path d="M224.5 34.2998H217.6V173H224.5V34.2998Z" fill="#979FA1"/>
<path d="M221 68C239.778 68 255 52.7777 255 34C255 15.2223 239.778 0 221 0C202.222 0 187 15.2223 187 34C187 52.7777 202.222 68 221 68Z" fill="#1E7F44"/>
<path d="M221 64C204.5 64 191 50.5 191 34C191 17.5 204.5 4 221 4C237.5 4 251 17.4 251 34C251 50.6 237.5 64 221 64ZM221 5.9C205.5 5.9 192.9 18.5 192.9 34C192.9 49.5 205.5 62.1 221 62.1C236.5 62.1 249.1 49.5 249.1 34C249.1 18.5 236.5 5.9 221 5.9Z" fill="white"/>
<g clip-path="url(#clip1_52_413)">
<path d="M239.465 27.4186H235.442C235.279 27.4186 235.14 27.4884 235.047 27.6047L232.093 22.814C232.07 22.7907 232.07 22.7674 232.047 22.7442C231.372 22.0698 230.116 21.5581 229.163 21.5581H228.488V20H226.767V21.5349H215.256V20H213.535V21.5349H213.07C212.116 21.5349 210.86 22.0465 210.186 22.7209C210.163 22.7442 210.14 22.7674 210.14 22.7907L207 27.6512C206.907 27.5116 206.744 27.4186 206.581 27.4186H202.535C202.233 27.4186 202 27.6512 202 27.9535V30.093C202 30.3954 202.233 30.6279 202.535 30.6279H204.884C203.535 31.9302 202.651 34.3488 202.651 36.093V41.3488C202.651 42.3721 202.953 43.3488 203.465 44.1163V46.5116C203.465 47.6512 204.372 48.6047 205.512 48.6047H208C209.116 48.6047 210.047 47.6744 210.047 46.5116V46.1163H232V46.5116C232 47.6512 232.907 48.6047 234.047 48.6047H236.535C237.651 48.6047 238.581 47.6744 238.581 46.5116V44.1163C239.093 43.3256 239.395 42.3721 239.395 41.3488V36.1163C239.395 34.3721 238.512 31.9767 237.14 30.6512H239.488C239.791 30.6512 240.023 30.4186 240.023 30.1163V27.9767C240 27.6512 239.767 27.4186 239.465 27.4186ZM211.512 24.0465C211.977 23.6977 212.698 23.4651 213.07 23.4651H229.186C229.581 23.4651 230.256 23.7209 230.605 24L234.093 29.6977H207.907L211.512 24.0465ZM228.233 35.4186V39.2326H227.116V35.4186H228.233ZM226.326 35.4186V39.2326H225.209V35.4186H226.326ZM224.419 35.4186V39.2326H223.302V35.4186H224.419ZM222.512 35.4186V39.2326H221.395V35.4186H222.512ZM220.605 35.4186V39.2326H219.488V35.4186H220.605ZM218.674 35.4186V39.2326H217.581V35.4186H218.674ZM216.767 35.4186V39.2326H215.651V35.4186H216.767ZM214.86 35.4186V39.2326H213.744V35.4186H214.86ZM207.233 43.7674C203.977 42.6512 205.558 40.4884 205.558 40.4884H209.419L212 43.7674H207.233ZM212.395 39.2558H205V35.4186H212.395V39.2558ZM226.605 43.7674H215.395C214.233 43.7674 213.302 42.7209 213.302 41.4419H228.721C228.721 42.7209 227.767 43.7674 226.605 43.7674ZM234.767 43.7674H229.977L232.558 40.4884H236.419C236.442 40.4884 238.023 42.6512 234.767 43.7674ZM237 39.2558H229.605V35.4186H237V39.2558Z" fill="white"/>
</g>
</g>
<g clip-path="url(#clip2_52_413)">
<path d="M93.4654 131.338V152.764C93.4654 152.868 93.4654 152.868 93.4654 152.971C93.3619 162.08 85.1847 169.119 76.0759 169.119H26.9089C17.8 169.119 9.51929 162.08 9.51929 152.971C9.51929 152.868 9.51929 152.868 9.51929 152.764V131.338C9.51929 126.99 10.1403 122.85 11.3825 119.02C16.6614 102.252 32.4984 89.9341 51.0266 89.9341H52.0617C70.6934 89.9341 86.3233 102.252 91.7058 119.02C92.7409 122.85 93.4654 126.99 93.4654 131.338Z" fill="white"/>
<path d="M56.9789 75.2409C70.4715 72.1863 78.9332 58.7721 75.8786 45.2794C72.824 31.7868 59.4098 23.3251 45.9171 26.3798C32.4245 29.4344 23.9628 42.8486 27.0175 56.3412C30.0721 69.8338 43.4863 78.2955 56.9789 75.2409Z" fill="white"/>
<path d="M93.4655 131.338V152.971C93.362 160.838 87.2549 167.152 79.8022 168.705C82.39 165.91 84.0461 162.287 84.1496 158.147V136.513C84.1496 132.166 83.5286 128.026 82.2864 124.196C77.0075 107.427 61.274 95.1096 42.6423 95.1096H41.5037C36.1212 95.1096 31.0493 96.1447 26.3914 98.0078C33.223 92.9359 41.8143 89.9341 50.9231 89.9341H52.0617C70.6934 89.9341 86.3233 102.252 91.7058 119.02C92.7409 122.85 93.4655 126.99 93.4655 131.338Z" fill="#DFCCCC"/>
<path d="M76.5933 50.8073C76.5933 62.1933 69.0371 71.7162 58.6862 74.8215C63.8617 70.2671 67.174 63.539 67.174 55.9828C67.174 42.1125 55.8914 30.9335 42.1247 30.9335C39.6405 30.9335 37.2597 31.3475 34.879 31.9686C39.3299 28.0352 45.1265 25.758 51.4405 25.758C65.3108 25.6545 76.5933 36.937 76.5933 50.8073Z" fill="#DFCCCC"/>
<path d="M75.9724 172.534H26.9089C15.4194 172.534 6.10351 163.736 6 152.868V152.661V131.234C6 126.68 6.62105 122.229 7.96667 117.881C13.8667 99.2497 31.5668 86.311 50.9231 86.311H51.9582C71.7285 86.311 88.911 99.0427 94.9146 117.881C96.2602 122.229 96.8813 126.68 96.8813 131.234V152.868C96.7778 163.736 87.4619 172.534 75.9724 172.534ZM50.9231 93.3497C34.5686 93.3497 19.6632 104.322 14.6948 120.055C13.5562 123.678 13.0386 127.508 13.0386 131.338V152.971C13.1421 159.803 19.4562 165.703 27.0124 165.703H76.0759C83.5286 165.703 89.9461 159.906 90.0497 153.075V152.868V131.441C90.0497 127.611 89.5321 123.781 88.3935 120.159C83.3215 104.218 68.8302 93.5567 52.1652 93.5567H50.9231V93.3497Z" fill="#AD9898"/>
<path d="M51.4408 79.376C35.7074 79.376 22.8722 66.5408 22.8722 50.8074C22.8722 35.0739 35.7074 22.2388 51.4408 22.2388C67.1742 22.2388 80.0094 35.0739 80.0094 50.8074C80.1129 66.5408 67.2777 79.376 51.4408 79.376ZM51.4408 29.1739C39.5372 29.1739 29.8073 38.9038 29.8073 50.8074C29.8073 62.7109 39.5372 72.4408 51.4408 72.4408C63.3444 72.4408 73.0743 62.7109 73.0743 50.8074C73.0743 38.9038 63.3444 29.1739 51.4408 29.1739Z" fill="#AD9898"/>
<path d="M153.515 116.005C152.252 116.005 151.13 115.584 150.148 114.602C148.324 112.778 148.324 109.691 150.148 107.867L155.9 102.115H123.77C121.105 102.115 119 100.01 119 97.3446C119 94.6788 121.105 92.5742 123.77 92.5742H167.265C169.229 92.5742 170.913 93.6967 171.614 95.5206C172.316 97.3446 171.895 99.3088 170.632 100.712L156.882 114.462C155.9 115.584 154.637 116.005 153.515 116.005Z" fill="white"/>
<path d="M167.265 102.255C166.002 102.255 164.879 101.835 163.897 100.852L150.147 87.1026C148.323 85.2786 148.323 82.1919 150.147 80.368C151.971 78.544 155.058 78.544 156.882 80.368L170.632 94.1178C172.456 95.9418 172.456 99.0285 170.632 100.852C169.65 101.694 168.527 102.255 167.265 102.255Z" fill="white"/>
</g>
<defs>
<clipPath id="clip0_52_413">
<rect width="68" height="173" fill="white" transform="translate(187)"/>
</clipPath>
<clipPath id="clip1_52_413">
<rect width="38" height="28.6279" fill="white" transform="translate(202 20)"/>
</clipPath>
<clipPath id="clip2_52_413">
<rect width="195" height="195" fill="white" transform="translate(0 24)"/>
</clipPath>
</defs>
</svg>
