<svg width="390" height="42" viewBox="0 0 390 42" fill="none" xmlns="http://www.w3.org/2000/svg">
<path fill-rule="evenodd" clip-rule="evenodd" d="M20.5237 0H0V20.6322H20.5237V0ZM390 0H369.476V20.6322H390V0ZM348.953 0H328.429V20.6322H348.953V0ZM307.905 0H287.382V20.6322H307.905V0ZM266.858 0H246.334V20.6322H266.858V0ZM225.811 0H205.287V20.6322H225.811V0ZM184.713 0H164.189V20.6322H184.713V0ZM143.716 0H123.192V20.6322H143.716V0ZM102.618 0H82.0947V20.6322H102.618V0ZM61.5711 0H41.0474V20.6322H61.5711V0Z" fill="black" fill-opacity="0.8"/>
<path fill-rule="evenodd" clip-rule="evenodd" d="M369.953 41.5822H349.429V21H369.953V41.5822ZM328.905 41.5822H308.382V21H328.905V41.5822ZM287.808 41.5822H267.284V21H287.808V41.5822ZM246.761 41.5822H226.237V21H246.761V41.5822ZM205.713 41.5822H185.189V21H205.713V41.5822ZM164.666 41.5822H144.142V21H164.666V41.5822ZM123.618 41.5822H103.095V21H123.618V41.5822ZM82.5711 41.5822H62.0474V21H82.5711V41.5822ZM41.5237 41.5822H21V21H41.5237V41.5822Z" fill="black" fill-opacity="0.8"/>
</svg>
