<svg width="389" height="43" viewBox="0 0 389 43" fill="none" xmlns="http://www.w3.org/2000/svg">
<path d="M389 0H-1V42.6667H389V0Z" fill="black" fill-opacity="0.8"/>
<path fill-rule="evenodd" clip-rule="evenodd" d="M19.5237 0H-1V20.6322H19.5237V0ZM389 0H368.476V20.6322H389V0ZM347.953 0H327.429V20.6322H347.953V0ZM306.905 0H286.382V20.6322H306.905V0ZM265.858 0H245.334V20.6322H265.858V0ZM224.811 0H204.287V20.6322H224.811V0ZM183.713 0H163.189V20.6322H183.713V0ZM142.716 0H122.192V20.6322H142.716V0ZM101.618 0H81.0947V20.6322H101.618V0ZM60.5711 0H40.0474V20.6322H60.5711V0Z" fill="#F90303"/>
<path fill-rule="evenodd" clip-rule="evenodd" d="M368.953 41.214H348.429V20.6318H368.953V41.214ZM327.905 41.214H307.382V20.6318H327.905V41.214ZM286.808 41.214H266.284V20.6318H286.808V41.214ZM245.761 41.214H225.237V20.6318H245.761V41.214ZM204.713 41.214H184.189V20.6318H204.713V41.214ZM163.666 41.214H143.142V20.6318H163.666V41.214ZM122.618 41.214H102.095V20.6318H122.618V41.214ZM81.5711 41.214H61.0474V20.6318H81.5711V41.214ZM40.5237 41.214H20V20.6318H40.5237V41.214Z" fill="#F90303"/>
</svg>
