<svg width="166" height="155" viewBox="0 0 166 155" fill="none" xmlns="http://www.w3.org/2000/svg">
<path fill-rule="evenodd" clip-rule="evenodd" d="M158.655 72.2415V128.494V141.864V154.589H139.407V141.864H25.8798V154.589H6.63137V141.864V128.494V72.2415H0V59.5841H16.1951L25.2207 31.4982C27.884 23.2258 32.3229 15.7067 41.0123 15.7067H60.8929V4.56923C60.8929 -0.421117 59.8572 0.00931725 64.5516 0.00931725H101.313C105.241 0.00931725 104.394 -0.367312 104.394 3.81597V15.6933H127.637C136.326 15.6933 141.33 23.0644 143.429 31.4848L150.41 59.5706H165.287V72.2281H158.655V72.2415ZM53.8177 116.455H110.675V129.866H53.8177V116.455ZM13.0744 85.2218C27.5612 85.6791 36.4255 91.759 38.6987 104.403H13.0744V85.2218ZM150.383 85.2218C135.896 85.6791 127.032 91.759 124.759 104.403H150.383V85.2218ZM23.1089 59.5706H142.178L137.08 36.0178C135.681 29.5613 131.659 23.9791 125.041 23.9791H42.6937C36.0757 23.9791 32.6861 29.7093 30.655 36.0178L23.1089 59.5706Z" fill="black" fill-opacity="0.8"/>
</svg>
