<svg width="93" height="201" viewBox="0 0 93 201" fill="none" xmlns="http://www.w3.org/2000/svg">
<path d="M29.8328 0.508513C24.8324 1.69504 20.9338 5.00038 18.6455 9.83126C17.459 12.3738 17.2895 13.0518 17.2895 16.3572C17.2895 20.849 18.0523 23.3916 20.3406 26.3579C29.2396 38.1385 47.3765 33.9009 50.0886 19.2388C51.6141 11.0178 46.1052 2.62732 37.7148 0.508513C34.8332 -0.169504 32.7144 -0.169504 29.8328 0.508513Z" fill="black" fill-opacity="0.8"/>
<path d="M12.5433 35.7654C7.88195 36.3587 5.33939 38.308 3.30534 42.6304C0.762771 48.0545 0.0847522 56.1907 0 78.4806C0 92.7189 0.254253 97.2108 1.52554 101.872C2.96632 107.551 5.8479 111.703 9.577 113.229L11.6958 114.161V152.808V191.455L12.7128 193.574C14.5774 197.557 18.0522 199.676 22.7984 199.761C25.3409 199.761 26.0189 199.591 27.9682 198.49C30.426 197.049 32.8839 194.337 33.2229 192.472C33.4771 190.947 33.9856 190.947 34.3247 192.472C34.6637 194.337 37.1215 197.134 39.5793 198.49C41.5286 199.591 42.2066 199.761 44.7492 199.761C49.58 199.676 53.0549 197.473 55.0042 193.15C55.767 191.54 55.767 188.997 55.767 136.96C55.767 106.957 55.8517 82.4639 56.106 82.4639C56.2755 82.4639 59.7503 88.9898 63.8184 96.8718C67.8865 104.754 71.7004 111.788 72.2936 112.466C74.8362 115.433 78.2263 116.365 81.1926 114.924C84.0742 113.483 84.7522 112.212 84.7522 108.652C84.7522 105.686 84.498 105.008 72.1241 73.5649C63.7337 52.2921 59.157 40.9353 58.3095 40.003C57.6315 39.1555 56.2755 37.8842 55.3432 37.291L53.5634 36.0197L45.5967 35.7654C35.2569 35.3417 15.4249 35.4264 12.5433 35.7654Z" fill="black" fill-opacity="0.8"/>
<path d="M79.1586 125.688C78.8196 126.112 78.5653 127.891 78.4806 130.264L78.3111 134.163H74.8362C70.8529 134.163 69.4968 134.587 68.8188 136.197C68.5646 136.96 68.3951 146.452 68.4798 167.64L68.5646 198.066L69.7511 199.083C70.9376 200.1 70.9376 200.1 80.6841 200.1H90.5154L91.5324 199.083L92.5494 198.066V167.216V136.367L91.5324 135.35C90.6001 134.417 90.1764 134.333 86.532 134.333H82.5487V130.519C82.5487 128.4 82.3792 126.366 82.1249 125.942C81.6164 124.84 79.9214 124.756 79.1586 125.688Z" fill="black" fill-opacity="0.8"/>
</svg>
