<svg width="265" height="47" viewBox="0 0 265 47" fill="none" xmlns="http://www.w3.org/2000/svg">
<g clip-path="url(#clip0_144_249)">
<path d="M12.5 47C19.4036 47 25 41.4036 25 34.5C25 27.5964 19.4036 22 12.5 22C5.59644 22 0 27.5964 0 34.5C0 41.4036 5.59644 47 12.5 47Z" fill="white"/>
<path d="M20.1395 34.4999C20.1395 38.7191 16.7192 42.1394 12.5 42.1394C8.28081 42.1394 4.86047 38.7191 4.86047 34.4999C4.86047 30.2807 8.28081 26.8604 12.5 26.8604C16.7192 26.8604 20.1395 30.2807 20.1395 34.4999Z" fill="#9299A3" stroke="white"/>
</g>
<g clip-path="url(#clip1_144_249)">
<path d="M236 14.0458C236 21.6794 250.194 40 250.194 40C250.194 40 264.387 21.6794 264.387 14.0458C264.387 6.10687 257.907 0 250.194 0C242.171 0 236 6.10687 236 14.0458Z" fill="#9299A3"/>
<path d="M250.572 23.0941C244.929 23.0941 240.427 18.6311 240.427 13.0597C240.427 7.89062 244.917 3.41553 250.572 3.41553C255.808 3.41553 260.332 7.86837 260.717 13.0777C260.708 18.6407 256.209 23.0941 250.572 23.0941Z" fill="white" stroke="#9299A3"/>
</g>
<line x1="27.9992" y1="39" x2="244.999" y2="38.8259" stroke="#9299A3" stroke-width="2" stroke-dasharray="4 4"/>
<path fill-rule="evenodd" clip-rule="evenodd" d="M47.0459 35.2237L52.657 35.2688H65.8728C64.7823 30.2189 68.0252 28.1612 71.0036 28.4563C74.8366 28.8334 75.8456 31.9322 75.1865 35.3303H78.5026C79.4507 35.3713 79.8901 34.6089 80 33.3259V30.9977C79.8576 30.182 79.4507 29.6819 78.6491 29.6491C78.7183 28.8006 78.5637 28.0792 78.1893 27.4931C78.0184 27.2184 77.7947 26.9725 77.5302 26.7552C76.5984 25.9928 75.5486 25.9109 74.4053 25.7018C73.2944 25.4969 72.1836 25.3288 71.0728 25.1935C69.7301 25.0337 68.3873 24.9271 67.0446 24.8902C66.4221 24.8738 66.5726 24.9066 66.0803 24.5213C63.6633 22.6399 61.0308 21.0987 58.272 19.7583C57.3077 19.2787 56.0748 19.041 54.6304 19H52.661L42.2121 19.0492C40.0962 19 36.5278 18.7541 35.0264 20.4715L32.0276 23.9024C31.6166 24.3737 31.6004 24.3901 31.3766 24.9804L31.0633 25.8002C30.8476 26.374 30.7988 26.4109 30.7988 27.0217V29.6327C30.2007 29.7311 29.9809 29.977 30.0013 30.7517V31.7765C30.0013 32.5922 29.9769 33.1209 30.4204 33.8669C30.8598 34.6007 31.5759 34.9819 32.6013 34.9778H37.5613C36.9957 31.5715 38.3669 28.4891 42.1958 28.4768C44.865 28.4686 47.5627 30.5304 47.0459 35.2237ZM70.0515 31.6412V33.0226H68.6803C68.8431 32.3421 69.3761 31.8093 70.0515 31.6412ZM68.6803 33.9243H70.0515V35.3057C69.3761 35.1376 68.8431 34.6048 68.6803 33.9243ZM70.9426 35.3057V33.9243H72.3138C72.1511 34.6048 71.6181 35.1376 70.9426 35.3057ZM72.3138 33.0226H70.9426V31.6412C71.6181 31.8093 72.1511 32.3421 72.3138 33.0226ZM41.7279 31.6412V33.0226H40.3566C40.5194 32.3421 41.0524 31.8093 41.7279 31.6412ZM40.3566 33.9243H41.7279V35.3057C41.0524 35.1376 40.5194 34.6048 40.3566 33.9243ZM42.619 35.3057V33.9243H43.9902C43.8274 34.6048 43.2944 35.1376 42.619 35.3057ZM43.9902 33.0226H42.619V31.6412C43.2944 31.8093 43.8274 32.3421 43.9902 33.0226ZM63.582 25.8781H54.016L53.2429 20.1313H55.1024C56.913 20.3445 57.206 20.4059 58.8539 21.2831C60.2088 22.0086 61.4458 22.8038 62.76 23.6728C63.9075 24.4311 63.582 24.4352 63.582 25.8781ZM51.5706 20.0739L52.4291 25.8863H43.388L44.9586 20.0903L51.5706 20.0739ZM43.449 20.0288L42.0615 25.8412H35.5106C35.2949 25.6895 35.1037 25.5133 34.9409 25.3083C34.6073 24.8902 34.473 24.7754 34.7538 24.3737L36.0029 22.5579C36.601 21.6889 36.8899 21.0659 37.8665 20.5617C39.0668 19.9469 39.8684 20.0247 41.1501 20.0247H43.449V20.0288ZM42.1714 29.6368C40.0678 29.6368 38.3629 31.3543 38.3629 33.4734C38.3629 35.5926 40.0678 37.3101 42.1714 37.3101C44.275 37.3101 45.9799 35.5926 45.9799 33.4734C45.9799 31.3543 44.275 29.6368 42.1714 29.6368ZM70.4991 29.6368C68.3955 29.6368 66.6906 31.3543 66.6906 33.4734C66.6906 35.5926 68.3955 37.3101 70.4991 37.3101C72.6027 37.3101 74.3076 35.5926 74.3076 33.4734C74.3035 31.3543 72.5987 29.6368 70.4991 29.6368Z" fill="#9299A3"/>
<defs>
<clipPath id="clip0_144_249">
<rect width="25" height="25" fill="white" transform="translate(0 22)"/>
</clipPath>
<clipPath id="clip1_144_249">
<rect width="28.3871" height="40" fill="white" transform="translate(236)"/>
</clipPath>
</defs>
</svg>
