<svg width="314" height="62" viewBox="0 0 314 62" fill="none" xmlns="http://www.w3.org/2000/svg">
<g clip-path="url(#clip0_229_369)">
<path d="M18.5 55C25.4036 55 31 49.4036 31 42.5C31 35.5964 25.4036 30 18.5 30C11.5964 30 6 35.5964 6 42.5C6 49.4036 11.5964 55 18.5 55Z" fill="white"/>
<path d="M26.1395 42.5C26.1395 46.7192 22.7192 50.1395 18.5 50.1395C14.2808 50.1395 10.8605 46.7192 10.8605 42.5C10.8605 38.2808 14.2808 34.8605 18.5 34.8605C22.7192 34.8605 26.1395 38.2808 26.1395 42.5Z" fill="#9299A3" stroke="white"/>
</g>
<g clip-path="url(#clip1_229_369)">
<path d="M242 22.0458C242 29.6794 256.194 48 256.194 48C256.194 48 270.387 29.6794 270.387 22.0458C270.387 14.1069 263.907 8 256.194 8C248.171 8 242 14.1069 242 22.0458Z" fill="#9299A3"/>
<path d="M256.572 31.0941C250.929 31.0941 246.427 26.6311 246.427 21.0597C246.427 15.8906 250.917 11.4155 256.572 11.4155C261.808 11.4155 266.332 15.8684 266.717 21.0777C266.708 26.6407 262.209 31.0941 256.572 31.0941Z" fill="white" stroke="#9299A3"/>
</g>
<line x1="33.9992" y1="47" x2="250.999" y2="46.8259" stroke="#9299A3" stroke-width="2" stroke-dasharray="4 4"/>
<path fill-rule="evenodd" clip-rule="evenodd" d="M53.0459 43.2237L58.657 43.2688H71.8728C70.7823 38.2189 74.0252 36.1612 77.0036 36.4563C80.8366 36.8334 81.8456 39.9322 81.1865 43.3303H84.5026C85.4507 43.3713 85.8901 42.6089 86 41.3259V38.9977C85.8576 38.182 85.4507 37.6819 84.6491 37.6491C84.7183 36.8006 84.5637 36.0792 84.1893 35.4931C84.0184 35.2184 83.7947 34.9725 83.5302 34.7552C82.5984 33.9928 81.5486 33.9109 80.4053 33.7018C79.2944 33.4969 78.1836 33.3288 77.0728 33.1935C75.7301 33.0337 74.3873 32.9271 73.0446 32.8902C72.4221 32.8738 72.5726 32.9066 72.0803 32.5213C69.6633 30.6399 67.0308 29.0987 64.272 27.7583C63.3077 27.2787 62.0748 27.041 60.6304 27H58.661L48.2121 27.0492C46.0962 27 42.5278 26.7541 41.0264 28.4715L38.0276 31.9024C37.6166 32.3737 37.6004 32.3901 37.3766 32.9804L37.0633 33.8002C36.8476 34.374 36.7988 34.4109 36.7988 35.0217V37.6327C36.2007 37.7311 35.9809 37.977 36.0013 38.7517V39.7765C36.0013 40.5922 35.9769 41.1209 36.4204 41.8669C36.8598 42.6007 37.5759 42.9819 38.6013 42.9778H43.5613C42.9957 39.5715 44.3669 36.4891 48.1958 36.4768C50.865 36.4686 53.5627 38.5304 53.0459 43.2237ZM76.0515 39.6412V41.0226H74.6803C74.8431 40.3421 75.3761 39.8093 76.0515 39.6412ZM74.6803 41.9243H76.0515V43.3057C75.3761 43.1376 74.8431 42.6048 74.6803 41.9243ZM76.9426 43.3057V41.9243H78.3138C78.1511 42.6048 77.6181 43.1376 76.9426 43.3057ZM78.3138 41.0226H76.9426V39.6412C77.6181 39.8093 78.1511 40.3421 78.3138 41.0226ZM47.7279 39.6412V41.0226H46.3566C46.5194 40.3421 47.0524 39.8093 47.7279 39.6412ZM46.3566 41.9243H47.7279V43.3057C47.0524 43.1376 46.5194 42.6048 46.3566 41.9243ZM48.619 43.3057V41.9243H49.9902C49.8274 42.6048 49.2944 43.1376 48.619 43.3057ZM49.9902 41.0226H48.619V39.6412C49.2944 39.8093 49.8274 40.3421 49.9902 41.0226ZM69.582 33.8781H60.016L59.2429 28.1313H61.1024C62.913 28.3445 63.206 28.4059 64.8539 29.2831C66.2088 30.0086 67.4458 30.8038 68.76 31.6728C69.9075 32.4311 69.582 32.4352 69.582 33.8781ZM57.5706 28.0739L58.4291 33.8863H49.388L50.9586 28.0903L57.5706 28.0739ZM49.449 28.0288L48.0615 33.8412H41.5106C41.2949 33.6895 41.1037 33.5133 40.9409 33.3083C40.6073 32.8902 40.473 32.7754 40.7538 32.3737L42.0029 30.5579C42.601 29.6889 42.8899 29.0659 43.8665 28.5617C45.0668 27.9469 45.8684 28.0247 47.1501 28.0247H49.449V28.0288ZM48.1714 37.6368C46.0678 37.6368 44.3629 39.3543 44.3629 41.4734C44.3629 43.5926 46.0678 45.3101 48.1714 45.3101C50.275 45.3101 51.9799 43.5926 51.9799 41.4734C51.9799 39.3543 50.275 37.6368 48.1714 37.6368ZM76.4991 37.6368C74.3955 37.6368 72.6906 39.3543 72.6906 41.4734C72.6906 43.5926 74.3955 45.3101 76.4991 45.3101C78.6027 45.3101 80.3076 43.5926 80.3076 41.4734C80.3035 39.3543 78.5987 37.6368 76.4991 37.6368Z" fill="#9299A3"/>
<defs>
<clipPath id="clip0_229_369">
<rect width="25" height="25" fill="white" transform="translate(6 30)"/>
</clipPath>
<clipPath id="clip1_229_369">
<rect width="28.3871" height="40" fill="white" transform="translate(242 8)"/>
</clipPath>
</defs>
</svg>
