<svg width="273" height="50" viewBox="0 0 273 50" fill="none" xmlns="http://www.w3.org/2000/svg">
<g filter="url(#filter0_d_81_318)">
<g clip-path="url(#clip0_81_318)">
<path d="M16.5 47C23.4036 47 29 41.4036 29 34.5C29 27.5964 23.4036 22 16.5 22C9.59644 22 4 27.5964 4 34.5C4 41.4036 9.59644 47 16.5 47Z" fill="white"/>
<path d="M24.1395 34.4999C24.1395 38.7191 20.7192 42.1394 16.5 42.1394C12.2808 42.1394 8.86047 38.7191 8.86047 34.4999C8.86047 30.2807 12.2808 26.8604 16.5 26.8604C20.7192 26.8604 24.1395 30.2807 24.1395 34.4999Z" fill="#9299A3" stroke="white"/>
</g>
<g clip-path="url(#clip1_81_318)">
<path d="M240 14.0458C240 21.6794 254.194 40 254.194 40C254.194 40 268.387 21.6794 268.387 14.0458C268.387 6.10687 261.907 0 254.194 0C246.171 0 240 6.10687 240 14.0458Z" fill="#9299A3"/>
<path d="M254.572 23.0941C248.929 23.0941 244.427 18.6311 244.427 13.0597C244.427 7.89062 248.917 3.41553 254.572 3.41553C259.808 3.41553 264.332 7.86839 264.717 13.0778C264.708 18.6407 260.209 23.0941 254.572 23.0941Z" fill="white" stroke="#9299A3"/>
</g>
<line x1="31.9992" y1="39" x2="248.999" y2="38.8259" stroke="#9299A3" stroke-width="2" stroke-dasharray="4 4"/>
<path fill-rule="evenodd" clip-rule="evenodd" d="M51.0459 35.2237L56.6569 35.2688H69.8728C68.7823 30.2189 72.0252 28.1612 75.0036 28.4563C78.8366 28.8334 79.8456 31.9322 79.1865 35.3303H82.5026C83.4507 35.3713 83.8901 34.6089 84 33.3259V30.9977C83.8576 30.182 83.4507 29.6819 82.6491 29.6491C82.7183 28.8006 82.5637 28.0792 82.1893 27.4931C82.0184 27.2184 81.7947 26.9725 81.5302 26.7552C80.5984 25.9928 79.5486 25.9109 78.4053 25.7018C77.2944 25.4969 76.1836 25.3288 75.0728 25.1935C73.7301 25.0337 72.3873 24.9271 71.0446 24.8902C70.4221 24.8738 70.5726 24.9066 70.0803 24.5213C67.6633 22.6399 65.0308 21.0987 62.272 19.7583C61.3077 19.2787 60.0748 19.041 58.6304 19H56.661L46.2121 19.0492C44.0962 19 40.5278 18.7541 39.0264 20.4715L36.0276 23.9024C35.6166 24.3737 35.6004 24.3901 35.3766 24.9804L35.0633 25.8002C34.8476 26.374 34.7988 26.4109 34.7988 27.0217V29.6327C34.2007 29.7311 33.9809 29.977 34.0013 30.7517V31.7765C34.0013 32.5922 33.9769 33.1209 34.4204 33.8669C34.8598 34.6007 35.5759 34.9819 36.6013 34.9778H41.5613C40.9957 31.5715 42.367 28.4891 46.1958 28.4768C48.865 28.4686 51.5627 30.5304 51.0459 35.2237ZM74.0515 31.6412V33.0226H72.6803C72.8431 32.3421 73.3761 31.8093 74.0515 31.6412ZM72.6803 33.9243H74.0515V35.3057C73.3761 35.1376 72.8431 34.6048 72.6803 33.9243ZM74.9426 35.3057V33.9243H76.3138C76.1511 34.6048 75.6181 35.1376 74.9426 35.3057ZM76.3138 33.0226H74.9426V31.6412C75.6181 31.8093 76.1511 32.3421 76.3138 33.0226ZM45.7279 31.6412V33.0226H44.3566C44.5194 32.3421 45.0524 31.8093 45.7279 31.6412ZM44.3566 33.9243H45.7279V35.3057C45.0524 35.1376 44.5194 34.6048 44.3566 33.9243ZM46.619 35.3057V33.9243H47.9902C47.8274 34.6048 47.2944 35.1376 46.619 35.3057ZM47.9902 33.0226H46.619V31.6412C47.2944 31.8093 47.8274 32.3421 47.9902 33.0226ZM67.582 25.8781H58.016L57.2429 20.1313H59.1024C60.913 20.3445 61.206 20.4059 62.8539 21.2831C64.2088 22.0086 65.4458 22.8038 66.76 23.6728C67.9075 24.4311 67.582 24.4352 67.582 25.8781ZM55.5706 20.0739L56.4291 25.8863H47.388L48.9586 20.0903L55.5706 20.0739ZM47.449 20.0288L46.0615 25.8412H39.5106C39.2949 25.6895 39.1037 25.5133 38.9409 25.3083C38.6073 24.8902 38.473 24.7754 38.7538 24.3737L40.0029 22.5579C40.601 21.6889 40.8899 21.0659 41.8665 20.5617C43.0668 19.9469 43.8684 20.0247 45.1501 20.0247H47.449V20.0288ZM46.1714 29.6368C44.0678 29.6368 42.3629 31.3543 42.3629 33.4734C42.3629 35.5926 44.0678 37.3101 46.1714 37.3101C48.275 37.3101 49.9799 35.5926 49.9799 33.4734C49.9799 31.3543 48.275 29.6368 46.1714 29.6368ZM74.4991 29.6368C72.3955 29.6368 70.6906 31.3543 70.6906 33.4734C70.6906 35.5926 72.3955 37.3101 74.4991 37.3101C76.6027 37.3101 78.3076 35.5926 78.3076 33.4734C78.3035 31.3543 76.5987 29.6368 74.4991 29.6368Z" fill="#9299A3"/>
</g>
<defs>
<filter id="filter0_d_81_318" x="0" y="0" width="272.387" height="55" filterUnits="userSpaceOnUse" color-interpolation-filters="sRGB">
<feFlood flood-opacity="0" result="BackgroundImageFix"/>
<feColorMatrix in="SourceAlpha" type="matrix" values="0 0 0 0 0 0 0 0 0 0 0 0 0 0 0 0 0 0 127 0" result="hardAlpha"/>
<feOffset dy="4"/>
<feGaussianBlur stdDeviation="2"/>
<feComposite in2="hardAlpha" operator="out"/>
<feColorMatrix type="matrix" values="0 0 0 0 0 0 0 0 0 0 0 0 0 0 0 0 0 0 0.25 0"/>
<feBlend mode="normal" in2="BackgroundImageFix" result="effect1_dropShadow_81_318"/>
<feBlend mode="normal" in="SourceGraphic" in2="effect1_dropShadow_81_318" result="shape"/>
</filter>
<clipPath id="clip0_81_318">
<rect width="25" height="25" fill="white" transform="translate(4 22)"/>
</clipPath>
<clipPath id="clip1_81_318">
<rect width="28.3871" height="40" fill="white" transform="translate(240)"/>
</clipPath>
</defs>
</svg>
