<svg width="190" height="190" viewBox="0 0 190 190" fill="none" xmlns="http://www.w3.org/2000/svg">
<circle cx="95" cy="95" r="95" fill="#F90303"/>
<path fill-rule="evenodd" clip-rule="evenodd" d="M39.0501 49.6515C38.3365 50.3651 38.3986 50.6132 39.7016 53.5295C40.229 54.7395 40.9425 55.6702 41.594 56.1666C42.6178 56.8801 42.866 56.9111 49.4742 57.0663C57.5404 57.2524 57.7886 57.3145 59.2468 60.2928C60.3326 62.4645 60.4567 64.0157 59.588 64.512C59.1847 64.6982 54.438 64.8223 46.3097 64.8223C32.9073 64.8223 32.1937 64.9154 32.0076 66.2804C31.8835 67.025 33.3106 70.5928 34.0552 71.4614C34.3654 71.7717 35.141 72.2991 35.8236 72.6093C37.0025 73.1367 38.3675 73.1988 58.1299 73.1988C58.1299 73.1988 78.4106 72.7992 79.2263 73.1988C80.042 73.5984 80.0128 73.6472 80.2811 73.8813C82.0216 75.4001 83.1353 77.6973 83.1353 79.0623C84.5934 79.8379 76.279 128.453 76.279 128.453C71.2221 151.317 71.2841 150.821 73.0835 151.659C73.6109 151.876 77.2718 152 84.5624 152C96.0103 152 96.1344 151.969 97.6236 150.387C98.4302 149.518 98.244 150.325 103.456 126.56C110.499 94.7295 115.431 72.4542 115.587 71.8648C115.742 71.3684 116.859 71.3373 133.487 71.3373C150.52 71.3373 151.264 71.3063 152.226 70.7169C152.784 70.4066 153.467 69.7551 153.746 69.3208C154.336 68.4211 157.872 53.2193 157.903 51.544C157.903 50.8614 157.798 49.4964 157.271 49H156.838H156.383C110.908 49 85.3721 49 39.9779 49C39.8859 49 39.7938 49 39.7016 49C39.6094 49 39.0501 49.6515 39.0501 49.6515Z" fill="white"/>
</svg>
