<svg width="28" height="44" viewBox="0 0 28 44" fill="none" xmlns="http://www.w3.org/2000/svg">
<g clip-path="url(#clip0_66_849)">
<path d="M26.5 13.8088C26.5 18.483 23.8529 22.5605 19.9315 24.6465L7.364 25.9708L8.06846 24.6465C8.06846 24.6465 8.06845 24.6465 8.06845 24.6465C4.14711 22.5605 1.5 18.483 1.5 13.8088C1.5 7.03021 7.07693 1.5 14 1.5C20.9231 1.5 26.5 7.03021 26.5 13.8088Z" fill="black" stroke="black" stroke-width="3"/>
<path d="M14 27.6175C11.5989 27.6175 9.3389 27.0213 7.36401 25.9708C12.2092 35.3072 13.4466 45.5846 14 43.4029C14.5534 41.2211 15.8241 34.8057 20.636 25.9708C18.6611 27.0213 16.4011 27.6175 14 27.6175Z" fill="black"/>
<path fill-rule="evenodd" clip-rule="evenodd" d="M5.83037 6.41568C5.72609 6.51868 5.73516 6.55451 5.92559 6.97549C6.00266 7.15015 6.10695 7.2845 6.20216 7.35616C6.35178 7.45916 6.38805 7.46364 7.35379 7.48603C8.53262 7.5129 8.5689 7.52186 8.78199 7.95179C8.94068 8.26528 8.95882 8.48921 8.83187 8.56086C8.77293 8.58773 8.07923 8.60565 6.89132 8.60565C4.93264 8.60565 4.82836 8.61908 4.80116 8.81613C4.78302 8.92362 4.99159 9.43864 5.1004 9.56404C5.14574 9.60882 5.25909 9.68496 5.35884 9.72974C5.53113 9.80587 5.73063 9.81483 8.61877 9.81483C8.61877 9.81483 11.5827 9.75715 11.7019 9.81483C11.8211 9.87251 11.8168 9.87957 11.856 9.91336C12.1104 10.1326 12.2732 10.4642 12.2732 10.6613C12.4863 10.7732 11.2711 17.791 11.2711 17.791C10.5321 21.0916 10.5412 21.0199 10.8041 21.1409C10.8812 21.1722 11.4162 21.1901 12.4817 21.1901C14.1548 21.1901 14.1729 21.1856 14.3905 20.9572C14.5084 20.8318 14.4812 20.9483 15.2429 17.5178C16.2721 12.9229 16.993 9.70735 17.0157 9.62226C17.0384 9.5506 17.2016 9.54612 19.6318 9.54612C22.121 9.54612 22.2298 9.54165 22.3703 9.45656C22.4519 9.41177 22.5517 9.31772 22.5925 9.25502C22.6786 9.12515 23.1955 6.9307 23.2 6.68887C23.2 6.59034 23.1847 6.39329 23.1076 6.32163H23.0444H22.9779C16.332 6.32163 12.6 6.32163 5.96597 6.32163C5.95252 6.32163 5.93906 6.32163 5.92559 6.32163C5.91211 6.32163 5.83037 6.41568 5.83037 6.41568Z" fill="white"/>
</g>
<defs>
<clipPath id="clip0_66_849">
<rect width="28" height="44" fill="white"/>
</clipPath>
</defs>
</svg>
