<svg width="309" height="767" viewBox="0 0 309 767" fill="none" xmlns="http://www.w3.org/2000/svg">
<path fill-rule="evenodd" clip-rule="evenodd" d="M2.11644 639.844L11.0055 687.79L14.3918 709.854C14.3918 709.854 16.9315 726.402 21.1644 731.918C25.3973 737.433 27.5137 739.555 33.863 743.798C40.2123 748.041 52.911 751.86 52.911 751.86C52.911 751.86 65.6096 756.103 74.9219 757.8C74.9219 757.8 88.2621 760.414 96.9329 762.043C116.026 765.63 127.039 766.181 146.458 766.71C171.618 767.396 185.986 767.138 210.797 762.891C220.689 761.199 226.215 759.836 235.865 757.457L236.195 757.376C239.378 756.591 242.217 755.973 244.883 755.393C252.131 753.816 258.101 752.517 266.248 748.89C267.438 748.36 268.533 747.902 269.567 747.47C273.288 745.915 276.202 744.697 279.793 741.676C284.025 738.117 285.99 735.481 288.682 730.645C290.926 726.614 292.915 719.613 292.915 719.613L297.995 691.609L302.651 658.938L307.73 634.329V614.811L309 568.562L307.73 536.315L305.19 506.614L304.344 337.319V242.7V206.634V197.3L306.46 193.905L307.307 174.387L308.153 148.929L306.46 99.2862L303.921 72.131L296.301 54.7347L279.793 33.0954L260.745 18.2449L233.232 6.7888L202.331 1.2729L173.125 0H128.679L94.3932 2.9701L74.0753 6.7888L54.1808 14.4262L37.6726 23.7608L22.4342 38.187L9.73562 57.7048L2.96301 76.7983L0.423288 103.529V160.81V181.176L4.23288 199.421V213.423V273.674V381.446V470.124L2.11644 513.827L0 542.68V593.171L2.11644 639.844ZM20.3178 222.758L35.9795 305.92C37.8137 313.982 41.4822 334.179 41.4822 350.472C41.4822 359.213 41.7258 371.438 41.9517 382.771C42.1469 392.564 42.3288 401.69 42.3288 407.328L43.5986 500.25V560.076V613.962L44.0219 654.271L28.3603 666.575C26.6671 664.454 23.1962 656.732 22.8575 642.815C22.5189 628.898 21.5877 599.677 21.1644 586.807L20.7411 540.558L19.4712 481.156L18.2014 425.149L17.7781 378.9V331.803V285.13L19.0479 222.758H20.3178ZM285.296 246.518L289.529 227.001L290.799 260.096V344.956V411.147L289.529 507.463L288.259 570.259C287.836 583.413 286.989 614.896 286.989 635.601C286.989 656.307 283.321 664.595 281.486 666.151L268.364 654.271V558.803L269.211 476.489V413.693C269.634 400.964 270.565 370.584 270.904 350.896C271.243 331.209 273.021 316.669 273.867 311.861L279.37 281.311L285.296 246.518ZM155.347 163.356C171.996 162.224 214.184 163.186 249.74 176.085C285.296 188.983 286.848 204.654 283.179 210.877L267.095 301.253C266.812 303.799 265.147 308.806 260.745 308.466C256.343 308.127 256.371 352.735 256.936 375.081L255.242 452.304L252.703 540.558L248.893 645.36L246.777 691.609C246.777 691.609 190.03 695.451 153.653 695.428C118.269 695.405 63.0699 691.609 63.0699 691.609L54.6041 390.356C54.8863 365.464 54.2655 314.237 49.5247 308.466C47.8315 308.183 44.0219 304.053 42.3288 289.797C40.6356 275.54 37.1082 261.227 35.5562 255.853L29.6301 226.576L25.8205 208.331C24.6918 203.805 26.4312 194.811 38.5192 187.541C39.5577 186.916 39.9379 186.676 40.3288 186.454C40.7345 186.225 41.1518 186.016 42.3288 185.419C56.728 178.12 79.272 167.012 148.574 163.356H155.347ZM51.2178 714.097L44.8685 695.852L44.4452 695.428C29.6301 719.613 29.6024 728.428 39.7891 734.888C58.6735 746.864 75.1016 749.694 84.9202 751.386C85.8855 751.552 86.7869 751.708 87.6206 751.86C106.245 754.83 150.013 756.782 177.781 756.103C205.548 755.424 230.833 750.162 240.004 747.617C244.801 746.627 256.682 743.204 265.825 737.433C274.968 731.663 274.996 723.997 273.867 720.886L263.708 696.701C263.003 699.388 261.084 706.375 259.052 712.824C257.02 719.273 249.74 725.695 246.353 728.099C242.967 730.503 236.618 731.069 236.618 731.069C236.618 731.069 208.865 735.937 190.903 737.433C163.886 739.684 121.484 737.433 121.484 737.433C111.748 736.868 88.7211 734.973 74.4986 731.918C60.2762 728.863 53.0521 718.764 51.2178 714.097Z" fill-opacity="0.51"/>
</svg>
