<svg width="400" height="400" viewBox="0 0 400 400" fill="none" xmlns="http://www.w3.org/2000/svg">
<g clip-path="url(#clip0_297_368)">
<path d="M320.004 0H79.9959C35.8154 0 0 35.8154 0 79.9959V320.004C0 364.185 35.8154 400 79.9959 400H320.004C364.185 400 400 364.185 400 320.004V79.9959C400 35.8154 364.185 0 320.004 0Z" fill="#54A0CB"/>
<path fill-rule="evenodd" clip-rule="evenodd" d="M62.3172 74.6003C60.5645 76.353 60.7169 76.9626 63.9175 84.1259C65.213 87.0979 66.9657 89.384 68.566 90.6033C71.0807 92.356 71.6904 92.4322 87.922 92.8133C107.735 93.2705 108.345 93.4229 111.927 100.739C114.594 106.073 114.899 109.883 112.765 111.102C111.774 111.56 100.115 111.864 80.1491 111.864C47.2286 111.864 45.4759 112.093 45.0187 115.446C44.7138 117.275 48.2193 126.039 50.0482 128.172C50.8102 128.934 52.7154 130.23 54.3919 130.992C57.2876 132.287 60.6407 132.44 109.183 132.44C109.183 132.44 158.999 131.458 161.002 132.44C163.006 133.421 162.934 133.541 163.593 134.116C167.869 137.847 170.604 143.489 170.604 146.842C174.186 148.748 153.763 268.161 153.763 268.161C141.342 324.324 141.494 323.104 145.914 325.162C147.209 325.695 156.202 326 174.11 326C202.229 326 202.534 325.924 206.192 322.037C208.173 319.904 207.716 321.885 220.518 263.512C237.817 185.326 249.934 130.611 250.315 129.163C250.696 127.944 253.439 127.867 294.285 127.867C336.121 127.867 337.95 127.791 340.312 126.343C341.684 125.581 343.361 123.981 344.047 122.914C345.494 120.704 354.182 83.3639 354.258 79.2488C354.258 77.5723 354 74.2193 352.705 73H351.641H350.524C238.824 73 176.098 73 64.5963 73C64.3702 73 64.1439 73 63.9175 73C63.691 73 62.3172 74.6003 62.3172 74.6003Z" fill="white" fill-opacity="0.15"/>
</g>
<path d="M130 145.312C130 126.664 137.408 108.78 150.594 95.5941C163.78 82.4079 181.664 75 200.312 75C218.961 75 236.845 82.4079 250.031 95.5941C263.217 108.78 270.625 126.664 270.625 145.312C270.625 163.961 263.217 181.845 250.031 195.031C236.845 208.217 218.961 215.625 200.312 215.625C181.664 215.625 163.78 208.217 150.594 195.031C137.408 181.845 130 163.961 130 145.312ZM200.312 114.062C204.609 114.062 208.125 110.547 208.125 106.25C208.125 101.953 204.609 98.4375 200.312 98.4375C174.434 98.4375 153.438 119.434 153.438 145.312C153.438 149.609 156.953 153.125 161.25 153.125C165.547 153.125 169.062 149.609 169.062 145.312C169.062 128.076 183.076 114.062 200.312 114.062ZM184.688 309.375V229.834C189.766 230.762 194.99 231.25 200.312 231.25C205.635 231.25 210.859 230.762 215.938 229.834V309.375C215.938 318.018 208.955 325 200.312 325C191.67 325 184.688 318.018 184.688 309.375Z" fill="white"/>
<defs>
<clipPath id="clip0_297_368">
<rect width="400" height="400" fill="white"/>
</clipPath>
</defs>
</svg>
