<svg width="267" height="243" viewBox="0 0 267 243" fill="none" xmlns="http://www.w3.org/2000/svg">
<g clip-path="url(#clip0_171_235)">
<path d="M219.127 106.356C204.519 65.6981 186.306 32.3749 172.013 17.8315C125.848 80.8737 64.8212 124.377 51.2245 133.672L72.2203 192.162C82.0857 191.466 112.694 189.822 151.713 192.415L152.851 195.64C154.622 200.572 152.029 206.073 147.097 207.843L80.3783 231.808C75.4455 233.579 69.9436 230.986 68.1729 226.054L56.1573 192.604L61.0268 190.834L43.3828 141.766L13.4702 152.515C11.7627 153.148 11.1303 155.551 11.1935 158.965L1.581 162.443C-4.74301 164.719 9.29631 203.86 15.6203 201.583L25.2328 198.106C27.383 200.825 29.4067 202.279 31.1142 201.647L46.1653 196.209L58.181 229.658C61.9121 240.092 73.4851 245.593 83.9829 241.799L150.701 217.834C160.757 214.23 166.132 203.417 163.223 193.3C186.875 195.26 212.993 198.801 239.111 204.998C241.008 184.764 233.799 147.33 219.127 106.356Z" fill="white"/>
<path d="M184.029 0.379393C181.057 1.45433 178.97 4.67916 177.768 9.61124C192.63 20.74 213.436 57.0351 229.752 102.499C246.131 148.152 253.15 189.443 248.724 207.4C248.85 207.464 249.04 207.464 249.166 207.527C253.087 210.372 256.565 211.447 259.411 210.372C273.198 205.44 267.506 154.412 246.637 96.4286C225.894 38.445 197.815 -4.55269 184.029 0.379393Z" fill="white"/>
</g>
<defs>
<clipPath id="clip0_171_235">
<rect width="267" height="243" fill="white"/>
</clipPath>
</defs>
</svg>
