<svg width="195" height="29" viewBox="0 0 195 29" fill="none" xmlns="http://www.w3.org/2000/svg">
<path d="M34.5 0.5H180.5C188.232 0.5 194.5 6.76801 194.5 14.5C194.5 22.232 188.232 28.5 180.5 28.5H34.5V0.5Z" fill="#DADADA" stroke="#E30613"/>
<path d="M50.1192 21L52.2612 9.66H55.1172L57.2312 21H54.9212L54.5432 18.606H52.8772L52.4852 21H50.1192ZM53.1012 17.108H54.3052L53.7032 12.684L53.1012 17.108ZM58.3761 21V9.66H61.2461C62.2355 9.66 63.0055 9.786 63.5561 10.038C64.1068 10.2807 64.4941 10.668 64.7181 11.2C64.9421 11.7227 65.0541 12.404 65.0541 13.244V17.36C65.0541 18.2093 64.9421 18.9047 64.7181 19.446C64.4941 19.978 64.1068 20.37 63.5561 20.622C63.0148 20.874 62.2541 21 61.2741 21H58.3761ZM60.8821 19.264H61.2741C61.6568 19.264 61.9321 19.208 62.1001 19.096C62.2681 18.984 62.3708 18.816 62.4081 18.592C62.4548 18.368 62.4781 18.088 62.4781 17.752V12.81C62.4781 12.474 62.4501 12.2033 62.3941 11.998C62.3475 11.7927 62.2401 11.6433 62.0721 11.55C61.9041 11.4567 61.6335 11.41 61.2601 11.41H60.8821V19.264ZM72.3893 23.226C72.1839 23.1327 71.9366 22.9787 71.6473 22.764C71.3579 22.5587 71.0686 22.3113 70.7793 22.022C70.4993 21.742 70.2613 21.4527 70.0653 21.154C70.0279 21.1633 69.9906 21.168 69.9533 21.168C69.9159 21.168 69.8739 21.168 69.8273 21.168C68.9779 21.168 68.3059 21.0187 67.8113 20.72C67.3166 20.4213 66.9619 19.992 66.7473 19.432C66.5326 18.872 66.4253 18.2047 66.4253 17.43V13.216C66.4253 12.432 66.5326 11.7647 66.7473 11.214C66.9619 10.6633 67.3166 10.2433 67.8113 9.954C68.3059 9.65533 68.9779 9.506 69.8273 9.506C70.6859 9.506 71.3626 9.65533 71.8573 9.954C72.3613 10.2433 72.7206 10.6633 72.9353 11.214C73.1499 11.7647 73.2573 12.432 73.2573 13.216V17.43C73.2573 17.962 73.2059 18.4427 73.1033 18.872C73.0099 19.3013 72.8513 19.6747 72.6273 19.992C72.4126 20.3093 72.1233 20.5613 71.7593 20.748C71.8806 20.8787 72.0066 21.0047 72.1373 21.126C72.2679 21.2567 72.3986 21.3733 72.5293 21.476C72.6599 21.588 72.7906 21.6767 72.9213 21.742L72.3893 23.226ZM69.8273 19.39C70.0886 19.39 70.2799 19.3247 70.4013 19.194C70.5226 19.0633 70.6019 18.8953 70.6393 18.69C70.6766 18.4847 70.6953 18.2747 70.6953 18.06V12.6C70.6953 12.376 70.6766 12.166 70.6393 11.97C70.6019 11.7647 70.5226 11.5967 70.4013 11.466C70.2799 11.3353 70.0886 11.27 69.8273 11.27C69.5659 11.27 69.3746 11.3353 69.2533 11.466C69.1413 11.5967 69.0666 11.7647 69.0293 11.97C69.0013 12.166 68.9873 12.376 68.9873 12.6V18.06C68.9873 18.2747 69.0013 18.4847 69.0293 18.69C69.0666 18.8953 69.1413 19.0633 69.2533 19.194C69.3746 19.3247 69.5659 19.39 69.8273 19.39ZM78.0584 21.168C77.1904 21.168 76.509 21.028 76.0144 20.748C75.529 20.4587 75.1884 20.0433 74.9924 19.502C74.7964 18.9513 74.6984 18.2793 74.6984 17.486V9.66H77.1764V17.864C77.1764 18.0973 77.195 18.3307 77.2324 18.564C77.2697 18.7973 77.349 18.9887 77.4704 19.138C77.601 19.2873 77.797 19.362 78.0584 19.362C78.329 19.362 78.525 19.2873 78.6464 19.138C78.7677 18.9887 78.8424 18.7973 78.8704 18.564C78.9077 18.3307 78.9264 18.0973 78.9264 17.864V9.66H81.4184V17.486C81.4184 18.2793 81.3157 18.9513 81.1104 19.502C80.9144 20.0433 80.5737 20.4587 80.0884 20.748C79.603 21.028 78.9264 21.168 78.0584 21.168ZM83.0269 21V9.66H85.5329V21H83.0269ZM87.2238 21V9.66H92.3198V11.368H89.7298V14.182H91.7038V15.918H89.7298V19.306H92.3478V21H87.2238ZM93.4855 21V9.66H96.6075C97.3728 9.66 98.0355 9.744 98.5955 9.912C99.1555 10.08 99.5895 10.3833 99.8975 10.822C100.215 11.2513 100.374 11.8627 100.374 12.656C100.374 13.1227 100.336 13.538 100.262 13.902C100.187 14.266 100.047 14.5833 99.8415 14.854C99.6455 15.1153 99.3608 15.3347 98.9875 15.512L100.542 21H97.9515L96.7055 15.918H95.9915V21H93.4855ZM95.9915 14.476H96.6915C97.0462 14.476 97.3215 14.4153 97.5175 14.294C97.7135 14.1633 97.8488 13.9813 97.9235 13.748C98.0075 13.5053 98.0495 13.216 98.0495 12.88C98.0495 12.3947 97.9608 12.0167 97.7835 11.746C97.6062 11.4753 97.2795 11.34 96.8035 11.34H95.9915V14.476ZM101.88 21V9.66H106.976V11.368H104.386V14.182H106.36V15.918H104.386V19.306H107.004V21H101.88ZM112.746 21V11.522H111.038V9.66H116.96V11.522H115.266V21H112.746ZM121.234 21.168C120.366 21.168 119.685 21.028 119.19 20.748C118.705 20.4587 118.364 20.0433 118.168 19.502C117.972 18.9513 117.874 18.2793 117.874 17.486V9.66H120.352V17.864C120.352 18.0973 120.371 18.3307 120.408 18.564C120.445 18.7973 120.525 18.9887 120.646 19.138C120.777 19.2873 120.973 19.362 121.234 19.362C121.505 19.362 121.701 19.2873 121.822 19.138C121.943 18.9887 122.018 18.7973 122.046 18.564C122.083 18.3307 122.102 18.0973 122.102 17.864V9.66H124.594V17.486C124.594 18.2793 124.491 18.9513 124.286 19.502C124.09 20.0433 123.749 20.4587 123.264 20.748C122.779 21.028 122.102 21.168 121.234 21.168ZM129.771 21V9.66H133.579C134.26 9.66 134.82 9.79067 135.259 10.052C135.697 10.304 136.024 10.6773 136.239 11.172C136.453 11.6573 136.561 12.25 136.561 12.95C136.561 13.8273 136.416 14.4993 136.127 14.966C135.837 15.4233 135.445 15.7407 134.951 15.918C134.456 16.0953 133.901 16.184 133.285 16.184H132.277V21H129.771ZM132.277 14.434H133.117C133.425 14.434 133.658 14.378 133.817 14.266C133.975 14.154 134.078 13.986 134.125 13.762C134.181 13.538 134.209 13.2533 134.209 12.908C134.209 12.6187 134.185 12.3667 134.139 12.152C134.101 11.928 134.003 11.7507 133.845 11.62C133.686 11.4893 133.439 11.424 133.103 11.424H132.277V14.434ZM136.566 21L138.708 9.66H141.564L143.678 21H141.368L140.99 18.606H139.324L138.932 21H136.566ZM139.548 17.108H140.752L140.15 12.684L139.548 17.108ZM150.633 23.226C150.428 23.1327 150.181 22.9787 149.891 22.764C149.602 22.5587 149.313 22.3113 149.023 22.022C148.743 21.742 148.505 21.4527 148.309 21.154C148.272 21.1633 148.235 21.168 148.197 21.168C148.16 21.168 148.118 21.168 148.071 21.168C147.222 21.168 146.55 21.0187 146.055 20.72C145.561 20.4213 145.206 19.992 144.991 19.432C144.777 18.872 144.669 18.2047 144.669 17.43V13.216C144.669 12.432 144.777 11.7647 144.991 11.214C145.206 10.6633 145.561 10.2433 146.055 9.954C146.55 9.65533 147.222 9.506 148.071 9.506C148.93 9.506 149.607 9.65533 150.101 9.954C150.605 10.2433 150.965 10.6633 151.179 11.214C151.394 11.7647 151.501 12.432 151.501 13.216V17.43C151.501 17.962 151.45 18.4427 151.347 18.872C151.254 19.3013 151.095 19.6747 150.871 19.992C150.657 20.3093 150.367 20.5613 150.003 20.748C150.125 20.8787 150.251 21.0047 150.381 21.126C150.512 21.2567 150.643 21.3733 150.773 21.476C150.904 21.588 151.035 21.6767 151.165 21.742L150.633 23.226ZM148.071 19.39C148.333 19.39 148.524 19.3247 148.645 19.194C148.767 19.0633 148.846 18.8953 148.883 18.69C148.921 18.4847 148.939 18.2747 148.939 18.06V12.6C148.939 12.376 148.921 12.166 148.883 11.97C148.846 11.7647 148.767 11.5967 148.645 11.466C148.524 11.3353 148.333 11.27 148.071 11.27C147.81 11.27 147.619 11.3353 147.497 11.466C147.385 11.5967 147.311 11.7647 147.273 11.97C147.245 12.166 147.231 12.376 147.231 12.6V18.06C147.231 18.2747 147.245 18.4847 147.273 18.69C147.311 18.8953 147.385 19.0633 147.497 19.194C147.619 19.3247 147.81 19.39 148.071 19.39ZM156.303 21.168C155.435 21.168 154.753 21.028 154.259 20.748C153.773 20.4587 153.433 20.0433 153.237 19.502C153.041 18.9513 152.943 18.2793 152.943 17.486V9.66H155.421V17.864C155.421 18.0973 155.439 18.3307 155.477 18.564C155.514 18.7973 155.593 18.9887 155.715 19.138C155.845 19.2873 156.041 19.362 156.303 19.362C156.573 19.362 156.769 19.2873 156.891 19.138C157.012 18.9887 157.087 18.7973 157.115 18.564C157.152 18.3307 157.171 18.0973 157.171 17.864V9.66H159.663V17.486C159.663 18.2793 159.56 18.9513 159.355 19.502C159.159 20.0433 158.818 20.4587 158.333 20.748C157.847 21.028 157.171 21.168 156.303 21.168ZM161.257 21V9.66H166.353V11.368H163.763V14.182H165.737V15.918H163.763V19.306H166.381V21H161.257ZM168.541 21V11.522H166.833V9.66H172.755V11.522H171.061V21H168.541ZM173.753 21V9.66H178.849V11.368H176.259V14.182H178.233V15.918H176.259V19.306H178.877V21H173.753Z" fill="black"/>
<path d="M0 5C0 2.23858 2.23858 0 5 0H34V29H5C2.23858 29 0 26.7614 0 24V5Z" fill="#E30613"/>
<path d="M14.5102 24C14.2694 24 14.0551 23.8551 13.9633 23.6347C13.9572 23.6204 13.6511 22.902 12.3164 20.598C11.5756 19.3204 11.0327 18.0449 10.5551 16.9204C10.1368 15.9367 9.7429 15.0082 9.27556 14.2102C8.92862 13.6163 8.90821 12.9633 9.22045 12.4184C9.58168 11.7898 10.349 11.3816 11.1756 11.3816C11.6674 11.3816 12.1225 11.5184 12.5164 11.7694L12.5837 6.22245C12.6062 5.44898 13.0592 4 14.6368 4C15.2327 4.00816 15.7041 4.20612 16.0409 4.57143C16.6021 5.17959 16.6021 6.03878 16.5939 6.23673L16.6613 8.72041C16.9164 8.6102 17.2082 8.55306 17.5327 8.55306C18.3592 8.56122 18.9511 8.8102 19.3225 9.29184C19.4062 9.4 19.4735 9.51224 19.5245 9.62449C19.8307 9.48571 20.1858 9.42653 20.6184 9.45918C21.2123 9.5 21.698 9.73673 22.0286 10.1408C22.1817 10.3306 22.2919 10.5429 22.3694 10.7592C22.6878 10.6184 23.0653 10.5878 23.4674 10.6755C24.9245 11 25.198 12.5204 25.1368 13.3041L25.1429 15.6531C25.147 15.7531 25.2102 18.4918 23.6102 21.2163C22.5184 23.0755 22.2796 23.5143 22.2266 23.6143C22.2062 23.6714 22.1715 23.7286 22.1307 23.7776C22.0123 23.9204 21.8245 24.002 21.6388 23.9898L14.5102 24ZM11.1756 12.5633C10.7756 12.5633 10.3939 12.7469 10.2429 13.0102C10.1429 13.1857 10.1572 13.3857 10.2939 13.6184C10.8 14.4816 11.2082 15.4449 11.6409 16.4612C12.1266 17.6082 12.6327 18.7918 13.3368 20.0061C14.2245 21.5367 14.6715 22.3918 14.8837 22.8224L21.3184 22.8204C21.5143 22.4694 21.8817 21.8347 22.5898 20.6286C24.0205 18.1939 23.9613 15.7041 23.9613 15.6816L23.9551 13.2898C23.9551 13.2735 23.9551 13.2531 23.9572 13.2367C23.9592 13.1898 24.0409 12.0204 23.2062 11.8367C23.1388 11.8224 23.0735 11.8143 23.0143 11.8143C22.9184 11.8143 22.6327 11.8143 22.4776 12.4184C22.447 12.6163 22.4184 12.7388 22.4184 12.7388C22.347 13.0388 22.0531 13.2306 21.7511 13.1837C21.447 13.1327 21.2327 12.8633 21.2551 12.5571C21.2572 12.5286 21.2694 12.3939 21.3143 12.202C21.3858 11.6306 21.3082 11.1429 21.1082 10.898C21.0286 10.802 20.8837 10.6714 20.5307 10.6449C20.0572 10.6122 19.7327 10.6959 19.6674 11.298L19.6898 11.8673C19.7021 12.1755 19.4756 12.4408 19.1694 12.4776C18.8633 12.5204 18.5817 12.3082 18.5205 12.0061C18.5143 11.9714 18.4551 11.6592 18.4837 11.2714L18.4715 10.9C18.4694 10.8429 18.4756 10.7857 18.4878 10.7327C18.4878 10.7327 18.5858 10.2816 18.3776 10.0163C18.2041 9.79388 17.8266 9.7449 17.5449 9.74286C17.1694 9.74286 16.8225 9.83469 16.7062 10.4918L16.7388 11.6633C16.747 11.9694 16.5225 12.2306 16.2184 12.2673C15.9143 12.3082 15.6347 12.1041 15.5694 11.8041C15.5654 11.7755 15.4266 11.1184 15.5205 10.4204L15.4062 6.25918C15.4062 6.24082 15.4062 6.22245 15.4062 6.20408C15.4143 6.05918 15.3878 5.62041 15.1633 5.38163C15.049 5.25918 14.8776 5.19592 14.647 5.19184C13.8082 5.19184 13.7592 6.14898 13.7572 6.25918L13.6715 13.4367C13.6674 13.7184 13.4654 13.9592 13.1878 14.0102C12.9123 14.0592 12.6347 13.9061 12.5327 13.6429C12.1654 12.6673 11.4613 12.5633 11.1756 12.5633Z" fill="#DADADA"/>
</svg>
