<svg width="147" height="50" viewBox="0 0 147 50" fill="none" xmlns="http://www.w3.org/2000/svg">
<path d="M131.73 50L116.51 50L130.812 25.066L116.51 -1.29041e-06L131.73 -6.25134e-07L146.032 25.066L131.73 50Z" fill="#2C2C2C" fill-opacity="0.5"/>
<path d="M102.603 50L87.3829 50L101.684 25.066L87.3829 -1.29041e-06L102.603 -6.25134e-07L116.904 25.066L102.603 50Z" fill="#2C2C2C" fill-opacity="0.5"/>
<path d="M73.3439 50L58.2552 50L72.5567 25.066L58.2552 -1.29041e-06L73.3439 -6.30869e-07L87.7765 25.066L73.3439 50Z" fill="#2C2C2C" fill-opacity="0.5"/>
<path d="M44.2163 50L29.1276 50L43.429 25.066L29.1276 -1.29041e-06L44.2163 -6.30869e-07L58.6489 25.066L44.2163 50Z" fill="#2C2C2C" fill-opacity="0.5"/>
<path d="M15.0886 50L-1.94715e-06 50L14.3014 25.066L2.38419e-07 -1.29041e-06L15.0886 -6.30869e-07L29.5212 25.066L15.0886 50Z" fill="#2C2C2C" fill-opacity="0.5"/>
</svg>
