<svg width="186" height="50" viewBox="0 0 186 50" fill="none" xmlns="http://www.w3.org/2000/svg">
<path d="M163.034 37.0463L173.461 47.4488L185.507 35.4114L175.08 24.991L185.507 14.5885L173.461 2.5332L163.034 12.9536L152.606 2.5332L140.56 14.5885L150.988 24.991L140.56 35.4114L152.606 47.4488L163.034 37.0463Z" fill="#2C2C2C" fill-opacity="0.5"/>
<path d="M67.7449 35.4114L78.1548 24.991L67.7449 14.5886L82.3439 -1.54898e-06L92.7537 10.4204L103.182 -6.3814e-07L117.78 14.5886L107.353 24.991L117.78 35.4114L103.182 50L92.7537 39.5257L82.3439 49.9461L67.7449 35.4114ZM83.2428 24.991L72.833 35.4114L82.3439 44.9156L92.7537 34.4952L103.182 44.9156L112.692 35.4114L102.265 24.991L112.692 14.5886L103.182 5.08444L92.7537 15.4869L82.3439 5.08444L72.833 14.5886L83.2428 24.991Z" fill="#2C2C2C" fill-opacity="0.5"/>
<path d="M22.4918 37.0463L32.9016 47.4488L44.9655 35.4114L34.5377 24.991L44.9655 14.5885L32.9016 2.5332L22.4918 12.9536L12.064 2.5332L0.0180364 14.5885L10.4279 24.991L0.0180355 35.4114L12.064 47.4488L22.4918 37.0463Z" fill="#2C2C2C" fill-opacity="0.5"/>
</svg>
