<svg width="195" height="29" viewBox="0 0 195 29" fill="none" xmlns="http://www.w3.org/2000/svg">
<path d="M34 0H180.5C188.508 0 195 6.49187 195 14.5V14.5C195 22.5081 188.508 29 180.5 29H34V0Z" fill="white"/>
<path d="M50.1192 21L52.2612 9.66H55.1172L57.2312 21H54.9212L54.5432 18.606H52.8772L52.4852 21H50.1192ZM53.1012 17.108H54.3052L53.7032 12.684L53.1012 17.108ZM58.3761 21V9.66H61.2461C62.2355 9.66 63.0055 9.786 63.5561 10.038C64.1068 10.2807 64.4941 10.668 64.7181 11.2C64.9421 11.7227 65.0541 12.404 65.0541 13.244V17.36C65.0541 18.2093 64.9421 18.9047 64.7181 19.446C64.4941 19.978 64.1068 20.37 63.5561 20.622C63.0148 20.874 62.2541 21 61.2741 21H58.3761ZM60.8821 19.264H61.2741C61.6568 19.264 61.9321 19.208 62.1001 19.096C62.2681 18.984 62.3708 18.816 62.4081 18.592C62.4548 18.368 62.4781 18.088 62.4781 17.752V12.81C62.4781 12.474 62.4501 12.2033 62.3941 11.998C62.3475 11.7927 62.2401 11.6433 62.0721 11.55C61.9041 11.4567 61.6335 11.41 61.2601 11.41H60.8821V19.264ZM72.3893 23.226C72.1839 23.1327 71.9366 22.9787 71.6473 22.764C71.3579 22.5587 71.0686 22.3113 70.7793 22.022C70.4993 21.742 70.2613 21.4527 70.0653 21.154C70.0279 21.1633 69.9906 21.168 69.9533 21.168C69.9159 21.168 69.8739 21.168 69.8273 21.168C68.9779 21.168 68.3059 21.0187 67.8113 20.72C67.3166 20.4213 66.9619 19.992 66.7473 19.432C66.5326 18.872 66.4253 18.2047 66.4253 17.43V13.216C66.4253 12.432 66.5326 11.7647 66.7473 11.214C66.9619 10.6633 67.3166 10.2433 67.8113 9.954C68.3059 9.65533 68.9779 9.506 69.8273 9.506C70.6859 9.506 71.3626 9.65533 71.8573 9.954C72.3613 10.2433 72.7206 10.6633 72.9353 11.214C73.1499 11.7647 73.2573 12.432 73.2573 13.216V17.43C73.2573 17.962 73.2059 18.4427 73.1033 18.872C73.0099 19.3013 72.8513 19.6747 72.6273 19.992C72.4126 20.3093 72.1233 20.5613 71.7593 20.748C71.8806 20.8787 72.0066 21.0047 72.1373 21.126C72.2679 21.2567 72.3986 21.3733 72.5293 21.476C72.6599 21.588 72.7906 21.6767 72.9213 21.742L72.3893 23.226ZM69.8273 19.39C70.0886 19.39 70.2799 19.3247 70.4013 19.194C70.5226 19.0633 70.6019 18.8953 70.6393 18.69C70.6766 18.4847 70.6953 18.2747 70.6953 18.06V12.6C70.6953 12.376 70.6766 12.166 70.6393 11.97C70.6019 11.7647 70.5226 11.5967 70.4013 11.466C70.2799 11.3353 70.0886 11.27 69.8273 11.27C69.5659 11.27 69.3746 11.3353 69.2533 11.466C69.1413 11.5967 69.0666 11.7647 69.0293 11.97C69.0013 12.166 68.9873 12.376 68.9873 12.6V18.06C68.9873 18.2747 69.0013 18.4847 69.0293 18.69C69.0666 18.8953 69.1413 19.0633 69.2533 19.194C69.3746 19.3247 69.5659 19.39 69.8273 19.39ZM78.0584 21.168C77.1904 21.168 76.509 21.028 76.0144 20.748C75.529 20.4587 75.1884 20.0433 74.9924 19.502C74.7964 18.9513 74.6984 18.2793 74.6984 17.486V9.66H77.1764V17.864C77.1764 18.0973 77.195 18.3307 77.2324 18.564C77.2697 18.7973 77.349 18.9887 77.4704 19.138C77.601 19.2873 77.797 19.362 78.0584 19.362C78.329 19.362 78.525 19.2873 78.6464 19.138C78.7677 18.9887 78.8424 18.7973 78.8704 18.564C78.9077 18.3307 78.9264 18.0973 78.9264 17.864V9.66H81.4184V17.486C81.4184 18.2793 81.3157 18.9513 81.1104 19.502C80.9144 20.0433 80.5737 20.4587 80.0884 20.748C79.603 21.028 78.9264 21.168 78.0584 21.168ZM83.0269 21V9.66H85.5329V21H83.0269ZM87.2238 21V9.66H92.3198V11.368H89.7298V14.182H91.7038V15.918H89.7298V19.306H92.3478V21H87.2238ZM93.4855 21V9.66H96.6075C97.3728 9.66 98.0355 9.744 98.5955 9.912C99.1555 10.08 99.5895 10.3833 99.8975 10.822C100.215 11.2513 100.374 11.8627 100.374 12.656C100.374 13.1227 100.336 13.538 100.262 13.902C100.187 14.266 100.047 14.5833 99.8415 14.854C99.6455 15.1153 99.3608 15.3347 98.9875 15.512L100.542 21H97.9515L96.7055 15.918H95.9915V21H93.4855ZM95.9915 14.476H96.6915C97.0462 14.476 97.3215 14.4153 97.5175 14.294C97.7135 14.1633 97.8488 13.9813 97.9235 13.748C98.0075 13.5053 98.0495 13.216 98.0495 12.88C98.0495 12.3947 97.9608 12.0167 97.7835 11.746C97.6062 11.4753 97.2795 11.34 96.8035 11.34H95.9915V14.476ZM101.88 21V9.66H106.976V11.368H104.386V14.182H106.36V15.918H104.386V19.306H107.004V21H101.88ZM112.746 21V11.522H111.038V9.66H116.96V11.522H115.266V21H112.746ZM121.234 21.168C120.366 21.168 119.685 21.028 119.19 20.748C118.705 20.4587 118.364 20.0433 118.168 19.502C117.972 18.9513 117.874 18.2793 117.874 17.486V9.66H120.352V17.864C120.352 18.0973 120.371 18.3307 120.408 18.564C120.445 18.7973 120.525 18.9887 120.646 19.138C120.777 19.2873 120.973 19.362 121.234 19.362C121.505 19.362 121.701 19.2873 121.822 19.138C121.943 18.9887 122.018 18.7973 122.046 18.564C122.083 18.3307 122.102 18.0973 122.102 17.864V9.66H124.594V17.486C124.594 18.2793 124.491 18.9513 124.286 19.502C124.09 20.0433 123.749 20.4587 123.264 20.748C122.779 21.028 122.102 21.168 121.234 21.168ZM129.771 21V9.66H133.579C134.26 9.66 134.82 9.79067 135.259 10.052C135.697 10.304 136.024 10.6773 136.239 11.172C136.453 11.6573 136.561 12.25 136.561 12.95C136.561 13.8273 136.416 14.4993 136.127 14.966C135.837 15.4233 135.445 15.7407 134.951 15.918C134.456 16.0953 133.901 16.184 133.285 16.184H132.277V21H129.771ZM132.277 14.434H133.117C133.425 14.434 133.658 14.378 133.817 14.266C133.975 14.154 134.078 13.986 134.125 13.762C134.181 13.538 134.209 13.2533 134.209 12.908C134.209 12.6187 134.185 12.3667 134.139 12.152C134.101 11.928 134.003 11.7507 133.845 11.62C133.686 11.4893 133.439 11.424 133.103 11.424H132.277V14.434ZM136.566 21L138.708 9.66H141.564L143.678 21H141.368L140.99 18.606H139.324L138.932 21H136.566ZM139.548 17.108H140.752L140.15 12.684L139.548 17.108ZM150.633 23.226C150.428 23.1327 150.181 22.9787 149.891 22.764C149.602 22.5587 149.313 22.3113 149.023 22.022C148.743 21.742 148.505 21.4527 148.309 21.154C148.272 21.1633 148.235 21.168 148.197 21.168C148.16 21.168 148.118 21.168 148.071 21.168C147.222 21.168 146.55 21.0187 146.055 20.72C145.561 20.4213 145.206 19.992 144.991 19.432C144.777 18.872 144.669 18.2047 144.669 17.43V13.216C144.669 12.432 144.777 11.7647 144.991 11.214C145.206 10.6633 145.561 10.2433 146.055 9.954C146.55 9.65533 147.222 9.506 148.071 9.506C148.93 9.506 149.607 9.65533 150.101 9.954C150.605 10.2433 150.965 10.6633 151.179 11.214C151.394 11.7647 151.501 12.432 151.501 13.216V17.43C151.501 17.962 151.45 18.4427 151.347 18.872C151.254 19.3013 151.095 19.6747 150.871 19.992C150.657 20.3093 150.367 20.5613 150.003 20.748C150.125 20.8787 150.251 21.0047 150.381 21.126C150.512 21.2567 150.643 21.3733 150.773 21.476C150.904 21.588 151.035 21.6767 151.165 21.742L150.633 23.226ZM148.071 19.39C148.333 19.39 148.524 19.3247 148.645 19.194C148.767 19.0633 148.846 18.8953 148.883 18.69C148.921 18.4847 148.939 18.2747 148.939 18.06V12.6C148.939 12.376 148.921 12.166 148.883 11.97C148.846 11.7647 148.767 11.5967 148.645 11.466C148.524 11.3353 148.333 11.27 148.071 11.27C147.81 11.27 147.619 11.3353 147.497 11.466C147.385 11.5967 147.311 11.7647 147.273 11.97C147.245 12.166 147.231 12.376 147.231 12.6V18.06C147.231 18.2747 147.245 18.4847 147.273 18.69C147.311 18.8953 147.385 19.0633 147.497 19.194C147.619 19.3247 147.81 19.39 148.071 19.39ZM156.303 21.168C155.435 21.168 154.753 21.028 154.259 20.748C153.773 20.4587 153.433 20.0433 153.237 19.502C153.041 18.9513 152.943 18.2793 152.943 17.486V9.66H155.421V17.864C155.421 18.0973 155.439 18.3307 155.477 18.564C155.514 18.7973 155.593 18.9887 155.715 19.138C155.845 19.2873 156.041 19.362 156.303 19.362C156.573 19.362 156.769 19.2873 156.891 19.138C157.012 18.9887 157.087 18.7973 157.115 18.564C157.152 18.3307 157.171 18.0973 157.171 17.864V9.66H159.663V17.486C159.663 18.2793 159.56 18.9513 159.355 19.502C159.159 20.0433 158.818 20.4587 158.333 20.748C157.847 21.028 157.171 21.168 156.303 21.168ZM161.257 21V9.66H166.353V11.368H163.763V14.182H165.737V15.918H163.763V19.306H166.381V21H161.257ZM168.541 21V11.522H166.833V9.66H172.755V11.522H171.061V21H168.541ZM173.753 21V9.66H178.849V11.368H176.259V14.182H178.233V15.918H176.259V19.306H178.877V21H173.753Z" fill="#FF0000"/>
<path d="M0 5C0 2.23858 2.23858 0 5 0H34V29H5C2.23858 29 0 26.7614 0 24V5Z" fill="#FF0000"/>
<g clip-path="url(#clip0_1252_509)">
<path d="M29.0171 15.6854C27.3077 13.6061 22.8205 13.2319 21.6239 15.8933C21.1111 15.1864 20.2991 14.6458 19.4872 14.3963C17.4359 13.6893 15.4701 14.2299 13.9744 15.6438C13.9744 15.5606 13.9744 15.4359 13.9744 15.3527C13.9744 13.6061 13.9316 11.5685 14.5726 9.86348C15.0427 10.3209 15.9402 10.5288 16.5385 10.5288C17.9915 10.4457 19.359 10.3625 19.9573 8.82385C20.5128 7.40996 19.8718 5.78814 18.8462 4.74851C18.1624 3.99998 17.906 3.95839 16.8803 3.99998C15.8547 4.04156 14.8291 4.12473 13.8462 4.29107C12.1795 4.58217 10.7692 7.07727 9.95726 8.408C7.5641 12.4418 5.34188 16.8082 5 21.4657C5 21.5489 5.04274 21.6737 5.12821 21.7152C11.4957 25.7906 20.8547 26.6639 27.5214 22.6301C29.9573 21.1746 30.8974 18.0142 29.0171 15.6854ZM27.0085 22.2558C23.547 24.2103 19.2735 24.8757 15.2991 24.543C13.2906 24.3767 11.2821 23.9193 9.35897 23.2123C8.33333 22.838 7.30769 22.339 6.36752 21.7984C5.17094 21.0915 5.7265 19.6776 6.02564 18.5132C6.5812 16.2676 7.52137 14.1467 8.58974 12.1091C9.61538 10.113 10.6838 8.07532 12.1368 6.32874C12.5641 5.82972 12.9487 5.3307 13.547 5.0396C14.3162 4.66534 15.2564 4.70692 16.0684 4.62375C16.8376 4.58217 17.6068 4.45741 18.2479 4.95643C18.8034 5.37228 19.188 6.1624 19.359 6.78618C19.5726 7.61788 19.5299 8.82385 18.7179 9.36446C18.1624 9.78031 17.3932 9.78031 16.7094 9.82189C16.5385 9.82189 16.2821 9.90506 16.1111 9.86348C15.5556 9.78031 14.6154 9.2397 15.1282 8.57434C15.3419 8.28324 16.1966 8.15849 16.5385 8.15849C16.9231 8.15849 16.9231 7.5763 16.5385 7.5763C15.812 7.5763 14.2735 7.95056 14.188 8.86544C14.188 8.94861 14.188 9.03178 14.188 9.07336C13.547 10.3625 13.4615 11.8596 13.3761 13.2735C13.3333 14.0636 13.3761 14.8537 13.3333 15.6022C13.2051 17.0577 12.1795 18.1805 11.1966 19.1785C10.9402 19.4281 11.3675 19.8439 11.6239 19.5944C12.6068 18.6379 13.4188 17.6815 13.7607 16.4755C13.8034 16.4755 13.8034 16.4339 13.8462 16.4339C15.2564 14.7705 17.265 14.022 19.4017 14.8537C20.2137 15.1448 21.0684 15.7686 21.3675 16.6003C21.453 16.8498 21.8803 16.8914 21.9231 16.6003C22.5641 13.315 27.6923 14.2299 28.8889 16.6419C30.0427 18.8875 29.0598 21.0915 27.0085 22.2558Z" fill="white"/>
<path d="M20.5556 19.6776C19.6154 20.5093 18.718 20.842 17.4787 20.7588C16.2394 20.6756 15.1283 20.5093 14.1026 19.8439C13.8035 19.636 13.5043 20.135 13.8035 20.3429C15.0001 21.1331 16.4103 21.2994 17.8633 21.341C19.1454 21.3826 20.0428 20.8836 20.983 20.0519C21.2394 19.8439 20.812 19.4281 20.5556 19.6776Z" fill="white"/>
<path d="M14.9573 17.4736C15.2137 16.9329 15.7265 16.6419 16.2393 16.3508C16.5812 16.1428 16.282 15.6438 15.9402 15.8517C15.3419 16.1844 14.7863 16.5587 14.4444 17.1825C14.2735 17.5151 14.7863 17.8062 14.9573 17.4736Z" fill="white"/>
<path d="M16.9231 16.0597C17.3077 16.0597 17.3077 15.4775 16.9231 15.4775C16.5385 15.4775 16.5385 16.0597 16.9231 16.0597Z" fill="white"/>
</g>
<defs>
<clipPath id="clip0_1252_509">
<rect width="25" height="21.25" fill="white" transform="translate(5 4)"/>
</clipPath>
</defs>
</svg>
