<svg width="91" height="79" viewBox="0 0 91 79" fill="none" xmlns="http://www.w3.org/2000/svg">
<path d="M32.4394 0.645471C30.5712 1.17925 29.3511 1.86555 28.0166 3.2C25.9959 5.22075 25.0808 7.81341 25.0808 11.588V13.1894H21.3062H17.5697L17.9129 12.6556C18.4848 11.8168 18.3704 10.7111 17.6841 10.1392C17.1503 9.71978 16.7309 9.64353 14.672 9.64353C12.4988 9.64353 12.27 9.68165 11.7744 10.1773C11.1643 10.8255 11.0881 12.1218 11.66 12.7318C12.0031 13.1131 12.0031 13.1512 10.7831 13.1512C6.13152 13.2275 2.12815 16.4302 1.17496 20.853C1.02245 21.6155 0.946198 30.3086 0.984326 46.5889L1.06058 71.2192L1.82313 72.7824C3.19571 75.6801 5.71212 77.739 8.64793 78.349C10.4018 78.7303 81.5474 78.7303 83.3013 78.349C86.2371 77.739 88.7535 75.6801 90.1261 72.7824L90.8886 71.2192L90.9649 46.5889C91.003 30.3086 90.9268 21.5774 90.7743 20.853C90.0117 17.3071 87.0378 14.2569 83.4919 13.4563C82.8819 13.3038 79.1454 13.1894 74.6845 13.1894H66.9065L66.754 10.673C66.6015 7.81341 66.1059 6.09768 64.962 4.42008C64.0089 3.04749 62.255 1.63678 60.5774 0.988617C59.2048 0.454834 59.2048 0.454834 46.4321 0.416706C35.9471 0.302324 33.4688 0.378579 32.4394 0.645471ZM59.3573 4.53446C60.6536 5.10637 61.8356 6.21207 62.4838 7.43214C62.9413 8.27094 63.0175 8.88098 63.0557 12.1599C63.1319 15.5914 63.2082 15.9727 63.6276 16.3921C64.047 16.7733 64.8477 16.8115 73.6551 16.9259L83.1869 17.0402L84.3307 17.6884C85.5889 18.4509 86.7328 19.8617 87.0759 21.158C87.2284 21.7299 87.3047 30.4611 87.2665 46.3983L87.1903 70.7236L86.5421 71.8293C86.199 72.4393 85.5508 73.2018 85.1314 73.5069C83.3394 74.8794 85.5889 74.8032 46.0509 74.8032C6.47466 74.8032 8.76231 74.8794 6.97032 73.5069C6.55092 73.2018 5.90275 72.4393 5.55961 71.8293L4.91144 70.7236L4.83519 46.3983C4.79706 30.4611 4.87332 21.7299 5.02583 21.158C5.36897 19.8617 6.51279 18.4509 7.771 17.6884L8.91482 17.0402L18.4467 16.9259C27.2541 16.8115 28.0547 16.7733 28.4742 16.3921C28.8936 16.0108 28.9317 15.5914 29.0461 12.1599C29.1223 8.84285 29.1986 8.23281 29.618 7.39401C30.2661 6.21206 31.9819 4.64884 33.0113 4.3057C33.507 4.15319 38.1585 4.03881 46.089 4.03881C57.8703 4.03881 58.3279 4.07693 59.3573 4.53446Z" />
<path d="M36.252 10.2536C35.337 11.1305 35.6039 12.6556 36.7858 13.1512C37.1671 13.3037 40.1791 13.4181 46.0126 13.4181C51.8461 13.4181 54.8582 13.3419 55.2394 13.1512C56.3833 12.6174 56.6883 11.1305 55.7732 10.2536L55.2013 9.68164H46.0507H36.9002L36.252 10.2536Z" />
<path d="M41.8188 21.2722C31.6388 23.2167 24.2039 30.1177 21.5732 40.1834C20.8106 43.0048 20.7344 47.8851 21.3825 50.9353C22.3738 55.8156 24.3946 59.7046 27.7498 63.2885C32.7063 68.512 38.8067 71.1428 46.0128 71.1428C53.2951 71.1428 59.4336 68.4739 64.4664 63.0598C67.631 59.6664 69.6899 55.7012 70.6431 50.9353C71.2912 47.8088 71.215 42.9667 70.4143 40.1071C69.1942 35.4937 66.9828 31.5666 63.742 28.3639C60.5012 25.123 56.5741 22.8735 52.1894 21.7678C49.2917 20.9672 44.4877 20.7765 41.8188 21.2722ZM49.4824 24.9324C53.4476 25.5806 57.4129 27.5251 60.4631 30.3846C65.4577 35.1124 67.5548 40.3359 67.2497 47.2369C67.0972 50.5921 66.6397 52.3841 65.1527 55.5106C60.0818 66.0337 47.1185 70.4184 36.5572 65.2712C30.7237 62.4497 26.3391 56.7688 25.0046 50.4015C24.5852 48.3426 24.509 44.4155 24.8902 42.3566C26.4535 33.5111 33.6214 26.4194 42.3907 24.8943C44.0683 24.6655 47.7667 24.6655 49.4824 24.9324Z" />
<path d="M44.1065 28.326C40.675 28.8979 38.6543 29.6604 36.2904 31.1474C31.7914 34.0451 28.703 39.1541 28.2836 44.5301C27.9405 48.3428 28.5505 49.9823 30.2281 49.9823C30.9907 49.9823 31.9439 49.3341 31.9439 48.7241C31.9439 44.9876 32.1726 42.8906 32.7064 41.4799C33.5833 39.116 34.689 37.4384 36.4429 35.7989C39.1118 33.2825 42.8864 31.8337 46.4704 31.9481C48.6437 32.0243 48.758 31.9862 49.2918 31.4905C49.9019 30.8805 49.8637 29.7748 49.2537 29.0123C48.758 28.4785 48.5293 28.4022 46.7373 28.326C45.5935 28.2878 44.4115 28.2878 44.1065 28.326Z" />
<path d="M9.98245 23.4074C9.33428 24.0174 9.25803 24.5893 9.6393 25.4663C10.0587 26.4195 10.7831 26.572 14.9009 26.572H18.7899L19.4762 25.8857C19.8574 25.5044 20.1625 25.0088 20.1625 24.8181C20.1625 24.2462 19.5143 23.1405 19.0949 22.9499C18.8661 22.8736 16.8835 22.7974 14.634 22.7974C10.6306 22.7974 10.5544 22.7974 9.98245 23.4074Z" />
<path d="M74.9513 23.1785C74.4557 23.331 73.5787 23.9411 73.045 24.4749C70.2617 27.1819 70.9861 31.5666 74.4938 33.4348C76.4764 34.5024 79.4122 33.9686 80.9755 32.2529C83.1487 29.9271 83.0725 26.8388 80.8611 24.5511C79.1453 22.8735 77.1246 22.3779 74.9513 23.1785ZM78.2303 27.1438C78.6116 27.4869 78.8022 27.9826 78.8022 28.4401C78.8022 28.8976 78.5734 29.3933 78.2303 29.7364C77.8871 30.1177 77.3915 30.3084 76.934 30.3084C76.4764 30.3084 75.9808 30.0796 75.6376 29.7364C75.2564 29.3933 75.0657 28.8976 75.0657 28.4401C75.0657 27.9826 75.2945 27.4869 75.6376 27.1438C75.9808 26.7625 76.4764 26.5719 76.934 26.5719C77.3915 26.5719 77.849 26.7625 78.2303 27.1438Z" />
</svg>
