<svg width="90" height="90" viewBox="0 0 90 90" fill="none" xmlns="http://www.w3.org/2000/svg">
<path d="M27.6681 15.6445L24.2228 20.8477H18.3517C11.7775 20.8477 11.2853 20.918 9.17589 21.9375C7.41808 22.7813 5.58995 24.6445 4.64073 26.5078C3.44542 28.9687 3.48058 27.8086 3.48058 50.168C3.48058 72.5273 3.44542 71.3672 4.64073 73.8281C5.5548 75.6914 7.38292 77.5195 9.17589 78.3984C11.5665 79.5937 8.9298 79.4883 45.0001 79.4883C76.8517 79.4883 77.5196 79.4883 78.7501 79.1719C80.4728 78.75 81.8087 77.9766 83.1798 76.6758C84.5157 75.4102 85.4298 73.9687 85.9923 72.2812L86.379 71.1562L86.4142 50.7305C86.4493 32.2031 86.4142 30.1992 86.2032 29.0742C85.465 25.7695 83.5314 23.2734 80.5079 21.7969C78.6798 20.918 78.047 20.8125 71.6134 20.8125H65.7775L62.3321 15.6094L58.8868 10.4062H45.0001H31.1134L27.6681 15.6445ZM58.6407 22.4648L61.9806 27.5625L69.504 27.6328L77.0275 27.7031L77.8009 28.1602C78.3282 28.4766 78.715 28.8633 79.0314 29.4609L79.5235 30.3047V50.168C79.5235 69.1172 79.5235 70.0664 79.2071 70.6992C78.7853 71.5781 77.8712 72.3516 76.8517 72.5625C76.254 72.7031 66.7267 72.7383 44.5079 72.7031L13.0079 72.6328L12.34 72.2812C11.4962 71.8594 10.8634 71.1211 10.6525 70.3125C10.5118 69.8906 10.4767 63.6328 10.5118 49.8164L10.547 29.9531L11.0392 29.25C11.3204 28.8633 11.8829 28.3711 12.2696 28.1602L13.0079 27.7383L20.4962 27.7031L27.9845 27.668L31.254 22.7813C33.047 20.0742 34.629 17.7539 34.7696 17.5781C34.9806 17.332 35.6485 17.2969 45.1407 17.332L55.3009 17.3672L58.6407 22.4648Z" />
<path d="M42.2227 31.3596C34.9805 32.6956 29.6367 37.8284 28.0195 45.0706C27.668 46.6526 27.668 50.2034 28.0195 51.8909C29.4258 58.4299 34.2773 63.5276 40.6758 65.2151C42.1172 65.6018 42.5742 65.637 44.9648 65.637C47.3555 65.637 47.8125 65.6018 49.2539 65.2151C58.6758 62.6838 64.2305 53.051 61.5586 43.7346C59.9063 37.8987 55.3359 33.3987 49.5 31.7815C48.2344 31.4299 47.5313 31.3596 45.457 31.3245C44.1211 31.2541 42.6445 31.2893 42.2227 31.3596ZM47.707 38.4612C48.1641 38.6018 49.043 38.9182 49.6406 39.2346C53.0156 40.9573 55.0547 44.0862 55.3008 47.9182C55.4766 50.8713 54.4219 53.6135 52.207 55.7932C50.1328 57.8674 47.8828 58.7815 44.9648 58.7815C42.0469 58.7815 39.7969 57.8323 37.7227 55.7932C35.1211 53.2268 34.1016 49.887 34.8398 46.3713C35.7188 42.1174 39.1289 38.8831 43.418 38.2502C44.6133 38.0393 46.5117 38.1448 47.707 38.4612Z" />
</svg>
