<svg width="91" height="90" viewBox="0 0 91 90" fill="none" xmlns="http://www.w3.org/2000/svg">
<path d="M9.97085 0.457723C5.50805 1.33503 2.26584 4.76795 1.38854 9.5359C1.04525 11.3286 0.892672 24.6026 0.968959 46.9166C1.12153 85.3654 0.968959 83.3056 4.63074 86.853C5.62248 87.8447 7.33894 88.9509 8.33067 89.2942C9.74199 89.79 18.0192 89.9426 46.2836 89.9426C80.7654 89.9426 82.52 89.9045 84.3127 88.989C86.7539 87.7684 88.7755 85.7849 89.9961 83.3056C90.9116 81.5129 90.9497 79.7583 90.9497 45.2764C90.9497 17.012 90.7971 8.73488 90.3013 7.32357C89.958 6.33184 88.8518 4.61538 87.8601 3.62364C84.3127 -0.0762871 86.4488 0.114431 47.3134 0C28.0128 0.0381436 11.1914 0.190718 9.97085 0.457723ZM82.2148 8.9256C83.1684 9.87919 83.2066 10.5658 83.2066 25.4799V41.0425H76.9892H70.7717L70.4285 39.1353C69.3604 33.4519 63.5626 25.8995 57.8411 22.8862C50.6701 19.0337 41.5156 19.0337 34.3446 22.8862C28.6231 25.8995 22.7871 33.4901 21.7572 39.1353L21.4139 41.0425H15.1584H8.94097V25.4799C8.94097 10.5658 8.97911 9.87919 9.9327 8.9256C10.9244 7.93387 11.5729 7.93387 46.0547 7.93387C80.5365 7.93387 81.1849 7.93387 82.2148 8.9256ZM50.3268 28.2644C58.9091 30.4767 64.7832 39.2879 63.2193 47.6795C62.4564 51.7609 61.0451 54.4691 58.2606 57.2535C55.438 60.0762 52.7298 61.4875 48.6866 62.2122C40.295 63.7761 31.4838 57.902 29.2715 49.3197C28.3179 45.6197 28.3179 44.5136 29.2715 40.7755C30.8354 34.787 35.6796 29.8283 41.5538 28.2644C45.1774 27.349 46.7031 27.349 50.3268 28.2644ZM21.7191 50.9217C22.3294 54.2021 24.9231 58.97 27.7076 61.9452C37.8538 72.8543 54.2937 72.8543 64.4399 61.9452C67.1862 58.9319 69.8182 54.1639 70.4285 50.9217L70.7717 49.0527H76.9892H83.2066V64.6152C83.2066 79.5294 83.1684 80.216 82.2148 81.1696C81.2231 82.1613 80.5747 82.1613 46.0928 82.1613C11.611 82.1613 10.9626 82.1613 9.97085 81.1696C9.01726 80.216 8.97911 79.5294 8.97911 64.6152V49.0527H15.1965H21.4139L21.7191 50.9217Z" />
<path d="M70.3522 14.9521C67.4914 16.0964 66.8049 19.987 68.9409 22.1612C72.4883 25.6704 78.2861 21.4746 75.9593 17.05C75.5016 16.2108 74.5099 15.2954 73.5944 14.9902C71.7635 14.3418 71.7635 14.3418 70.3522 14.9521Z" />
<path d="M41.6681 31.9264C38.0063 33.2232 35.527 35.3974 33.7724 38.7922C29.0044 48.0229 35.6414 58.8176 46.0546 58.8176C53.9504 58.8176 59.8245 52.9435 59.8245 45.0478C59.8245 35.5119 50.4793 28.7986 41.6681 31.9264ZM50.136 40.4324C51.2803 41.5004 51.738 42.3777 51.9287 44.0942C52.4246 48.557 49.5638 51.4177 45.101 50.9219C41.8207 50.5786 40.0279 48.4807 40.0279 45.0096C40.0279 42.7591 40.2187 42.2633 41.7444 40.7375C43.232 39.2499 43.766 39.0211 46.0165 39.0211C48.0762 39.0211 48.8391 39.2881 50.136 40.4324Z" />
</svg>
