<svg width="19" height="19" viewBox="0 0 19 19" fill="none" xmlns="http://www.w3.org/2000/svg">
    <path
        d="M10.0433 18.0808C8.00522 18.0808 5.99765 17.4235 4.37172 16.1953C2.47258 14.7616 1.2682 12.6988 0.979724 10.3867C0.597312 7.31686 1.78956 4.32628 4.16975 2.38745C6.59417 0.411374 9.74662 -0.118431 12.8188 0.934903C16.2664 2.11608 18.5726 5.47726 18.5577 9.29882C18.5499 11.2137 18.0974 12.7576 17.1353 14.1353L18.3483 17.0863C18.4419 17.3141 18.3902 17.5741 18.216 17.7482C18.0419 17.9224 17.7827 17.9753 17.5553 17.8812L14.6358 16.682C13.6917 17.371 12.6885 17.7812 11.499 17.9675C11.0152 18.0435 10.5283 18.0808 10.0433 18.0808ZM9.71726 1.23059C7.89131 1.23059 6.14443 1.84118 4.68915 3.02706C2.5309 4.78549 1.44942 7.49843 1.7966 10.2847C2.0569 12.3737 3.14777 14.2388 4.86725 15.5373C6.70337 16.9239 9.07182 17.5114 11.3722 17.1533C12.4998 16.9769 13.4377 16.5745 14.3238 15.8867L14.5117 15.7404L17.3913 16.9235L16.1991 14.022L16.3376 13.8349C17.2841 12.5569 17.7279 11.1149 17.7354 9.29569C17.7491 5.82824 15.6664 2.78157 12.5534 1.7149C11.6062 1.3902 10.6512 1.23059 9.71726 1.23059Z" />
    <path
        d="M6.03522 10.4863C6.71681 10.4863 7.26934 9.93269 7.26934 9.24981C7.26934 8.56692 6.71681 8.01334 6.03522 8.01334C5.35362 8.01334 4.80109 8.56692 4.80109 9.24981C4.80109 9.93269 5.35362 10.4863 6.03522 10.4863Z" />
    <path
        d="M9.39001 10.4863C10.0716 10.4863 10.6241 9.93269 10.6241 9.24981C10.6241 8.56692 10.0716 8.01334 9.39001 8.01334C8.70842 8.01334 8.15588 8.56692 8.15588 9.24981C8.15588 9.93269 8.70842 10.4863 9.39001 10.4863Z" />
    <path
        d="M12.7452 10.4863C13.4268 10.4863 13.9794 9.93269 13.9794 9.24981C13.9794 8.56692 13.4268 8.01334 12.7452 8.01334C12.0636 8.01334 11.5111 8.56692 11.5111 9.24981C11.5111 9.93269 12.0636 10.4863 12.7452 10.4863Z" />
</svg>