<svg width="121" height="121" viewBox="0 0 121 121" fill="none" xmlns="http://www.w3.org/2000/svg">
<path d="M60.4001 116C91.1071 116 116 91.1068 116 60.3998C116 29.6928 91.1071 4.7998 60.4001 4.7998C29.693 4.7998 4.80005 29.6928 4.80005 60.3998C4.80005 91.1068 29.693 116 60.4001 116Z" fill="#8BC53F"/>
<path d="M60.4 10C88.2 10 110.8 32.6 110.8 60.4C110.8 88.2 88.4 111 60.4 111C32.6 111 10 88.4 10 60.4C10 32.4 32.6 10 60.4 10ZM60.4 0C27 0 0 27 0 60.4C0 93.8 27 120.8 60.4 120.8C94 121 121 94 121 60.4C121 26.8 94 0 60.4 0Z" fill="white"/>
<path d="M74.1961 44.0876L53.9925 59.3796L41.5902 43.0815C39.99 41.0694 36.9894 40.667 34.789 42.2767L26.7876 48.313C24.7872 49.9227 24.3872 52.7396 25.9874 54.7518L44.9909 79.7019L49.3916 85.537C50.7919 87.3479 53.5924 87.5492 55.1927 85.7383L59.5935 80.5068L96 38.2525C88.1986 37.2464 80.3972 39.2585 74.1961 44.0876Z" fill="white"/>
</svg>
