<svg width="20" height="21" viewBox="0 0 20 21" fill="none" xmlns="http://www.w3.org/2000/svg">
<path d="M10 3.3643L9.95812 3.31533C8.70676 1.85205 6.89915 1.15899 5.10201 1.50923L5.10188 1.50926C2.39414 2.03774 0.5 4.7394 0.5 7.79652V8.03496C0.5 9.85471 1.14419 11.6109 2.30522 12.8748L8.65747 19.8095L8.65752 19.8096C9.00746 20.1915 9.48567 20.4199 10 20.4199C10.5143 20.4199 10.9925 20.1915 11.3425 19.8096L11.3425 19.8095L17.6948 12.8748C17.6948 12.8747 17.6949 12.8747 17.6949 12.8746C18.8559 11.6108 19.5 9.85464 19.5 8.03496V7.79652C19.5 4.7394 17.6059 2.03774 14.8981 1.50926L14.898 1.50923C13.1009 1.15899 11.2932 1.85205 10.0419 3.31533L10 3.3643Z" />
</svg>
