<svg width="23" height="22" viewBox="0 0 23 22" fill="transparent" xmlns="http://www.w3.org/2000/svg">
<path d="M1 9.59091C1 8.99328 1.26726 8.42696 1.72859 8.04705L10.2286 1.04705C10.9671 0.438861 12.0329 0.438861 12.7714 1.04705L21.2714 8.04705C21.7327 8.42696 22 8.99328 22 9.59091V19C22 20.1046 21.1046 21 20 21H16.125C15.0204 21 14.125 20.1046 14.125 19V15.5882C14.125 14.4837 13.2296 13.5882 12.125 13.5882H10.875C9.77043 13.5882 8.875 14.4837 8.875 15.5882V19C8.875 20.1046 7.97957 21 6.875 21H3C1.89543 21 1 20.1046 1 19V9.59091Z" stroke-linejoin="round"/>
</svg>
