<svg width="93" height="93" viewBox="0 0 93 93" fill="none" xmlns="http://www.w3.org/2000/svg">
<path d="M46.0938 27.6563C35.9375 27.6563 27.6563 35.9375 27.6563 46.0938C27.6563 56.25 35.9375 64.5312 46.0938 64.5312C56.25 64.5312 64.5312 56.25 64.5312 46.0938C64.5312 35.9375 56.25 27.6563 46.0938 27.6563ZM46.0938 59.9219C38.4375 59.9219 32.2656 53.75 32.2656 46.0938C32.2656 38.4375 38.4375 32.2656 46.0938 32.2656C53.75 32.2656 59.9219 38.4375 59.9219 46.0938C59.9219 53.75 53.75 59.9219 46.0938 59.9219ZM92.1875 55.3125V36.875L78.8281 34.6484C78.4766 33.3984 77.9688 32.1484 77.3047 31.0156L85.2344 20L72.1875 6.95312L61.1719 14.8828C60 14.2187 58.7891 13.75 57.5391 13.3594L55.3125 0H36.875L34.6484 13.3594C33.3594 13.7109 32.1484 14.2969 30.9766 14.8828L20.0391 7.10938L6.99219 20.0781L14.8438 31.0156C14.2578 32.1875 13.75 33.3984 13.3594 34.6484L0 36.875V55.3125L13.3594 57.5391C13.7891 58.8281 14.2969 60.1172 14.9219 61.3281L7.07031 72.2656L20.1172 85.3125L31.0938 77.4219C32.2656 77.9688 33.3984 78.4766 34.6484 78.8672L36.875 92.2266H55.3125L57.5391 78.8672C58.8281 78.4375 60.0781 77.9297 61.2891 77.3047L72.3047 85.2344L85.3516 72.1875L77.4219 61.1328C77.9688 59.9609 78.4766 58.8281 78.8672 57.5781L92.1875 55.3125ZM74.4141 56.2109C74.1016 57.2266 73.6719 58.1641 73.2422 59.0625C72.5 60.5859 72.6562 62.3828 73.6719 63.75L79.3359 71.6406L71.8359 79.1406L63.9844 73.5156C63.2031 72.9297 62.2266 72.6562 61.2891 72.6562C60.5469 72.6562 59.7656 72.8516 59.1016 73.2031C58.2031 73.6719 57.2656 74.1016 56.1328 74.4531C54.4922 74.9609 53.2812 76.3672 53.0078 78.0859L51.4063 87.5781H40.7812L39.2188 78.0859C38.9453 76.3281 37.6563 74.9219 35.9766 74.4141C34.9609 74.1406 34.0234 73.6719 33.125 73.2422C32.5 72.9297 31.7969 72.7734 31.1328 72.7734C30.1953 72.7734 29.2578 73.0469 28.4375 73.6328L20.625 79.2188L13.125 71.7188L18.6719 63.9844C19.6875 62.5391 19.8047 60.6641 18.9844 59.1016C18.5156 58.2422 18.125 57.2656 17.7344 56.0938C17.2266 54.4531 15.8203 53.2422 14.1016 52.9688L4.60937 51.4063V40.7812L14.1016 39.2188C15.8594 38.9453 17.2656 37.6563 17.7734 35.9766C18.0469 35.0391 18.4375 34.0625 18.9062 33.1641C19.6875 31.6406 19.5703 29.7656 18.5547 28.3594L13.0469 20.5859L20.5469 13.125L28.2812 18.6328C29.0625 19.1797 30 19.4922 30.9766 19.4922C31.6797 19.4922 32.3828 19.3359 33.0469 18.9844C33.9844 18.5156 34.9609 18.0469 35.9375 17.7734C37.6562 17.2656 38.9062 15.8594 39.2188 14.1016L40.7812 4.60937H51.4063L52.9688 14.1016C53.2422 15.8594 54.5312 17.2656 56.2109 17.7734C57.1875 18.0469 58.0859 18.4375 58.9062 18.9062C59.6094 19.2969 60.3906 19.4922 61.1719 19.4922C62.1094 19.4922 63.0469 19.2188 63.8672 18.6328L71.7188 13.0078L79.2188 20.5078L73.5938 28.3594C72.5391 29.8047 72.4219 31.7188 73.3203 33.3203C73.7891 34.1016 74.1406 35.0391 74.4531 36.0156C74.9609 37.6953 76.3672 38.9453 78.125 39.2578L87.6172 40.8203V51.4453L78.125 53.0078C76.3281 53.2812 74.9219 54.5312 74.4141 56.2109Z" />
</svg>
