<svg  viewBox="0 0 50 147" fill="none" xmlns="http://www.w3.org/2000/svg">
<g clip-path="url(#clip0_985_1023)">
<path d="M50 14.3014V29.5212L25.066 15.2198L0 29.5212V14.3014L25.066 0L50 14.3014Z" fill="#2C2C2C" fill-opacity="0.5"/>
<path d="M50 43.4293V58.6492L25.066 44.3478L0 58.6492V43.4293L25.066 29.1279L50 43.4293Z" fill="#2C2C2C" fill-opacity="0.5"/>
<path d="M50 72.6875V87.7761L25.066 73.4747L0 87.7761V72.6875L25.066 58.2549L50 72.6875Z" fill="#2C2C2C" fill-opacity="0.5"/>
<path d="M50 101.815V116.904L25.066 102.603L0 116.904V101.815L25.066 87.3828L50 101.815Z" fill="#2C2C2C" fill-opacity="0.5"/>
<path d="M50 130.943V146.032L25.066 131.731L0 146.032V130.943L25.066 116.511L50 130.943Z" fill="#2C2C2C" fill-opacity="0.5"/>
</g>
<defs>
<clipPath id="clip0_985_1023">
<rect width="50" height="146.032" fill="white"/>
</clipPath>
</defs>
</svg>
