<svg width="50" height="186" viewBox="0 0 50 186" fill="none" xmlns="http://www.w3.org/2000/svg">
<g clip-path="url(#clip0_985_475)">
<path d="M37.0464 22.4737L47.4488 12.0459L35.4114 0L24.991 10.4278L14.5886 0L2.53326 12.0459L12.9537 22.4737L2.53326 32.9016L14.5886 44.9475L24.991 34.5197L35.4114 44.9475L47.4488 32.9016L37.0464 22.4737Z" fill="#2C2C2C" fill-opacity="0.5"/>
<path d="M35.4114 117.762L24.991 107.352L14.5886 117.762L0 103.163L10.4204 92.7533L0 82.3255L14.5886 67.7266L24.991 78.1544L35.4114 67.7266L50 82.3255L39.5257 92.7533L49.9461 103.163L35.4114 117.762ZM24.991 102.264L35.4114 112.674L44.9156 103.163L34.4952 92.7533L44.9156 82.3255L35.4114 72.8146L24.991 83.2424L14.5886 72.8146L5.08444 82.3255L15.4869 92.7533L5.08444 103.163L14.5886 112.674L24.991 102.264Z" fill="#2C2C2C" fill-opacity="0.5"/>
<path d="M37.0464 163.016L47.4488 152.606L35.4114 140.542L24.991 150.97L14.5886 140.542L2.53326 152.606L12.9537 163.016L2.53326 173.444L14.5886 185.489L24.991 175.08L35.4114 185.489L47.4488 173.444L37.0464 163.016Z" fill="#2C2C2C" fill-opacity="0.5"/>
</g>
<defs>
<clipPath id="clip0_985_475">
<rect width="50" height="185.507" fill="white"/>
</clipPath>
</defs>
</svg>
