<svg width="38" height="35" viewBox="0 0 38 35" fill="none" xmlns="http://www.w3.org/2000/svg">
<circle cx="18.5" cy="17.5" r="17.5" fill="#D70000"/>
<path d="M24.9231 9.72559C25.014 9.71863 25.0762 9.70972 25.138 9.70972C25.8085 9.70856 26.4785 9.70624 27.1489 9.71011C27.7049 9.71321 27.9972 9.98108 27.9972 10.4975C27.9992 15.5421 27.998 20.5867 28 25.6313C28 26.0958 27.728 26.4407 27.1254 26.4396C21.3883 26.4279 15.6508 26.4268 9.91371 26.4407C9.22773 26.4423 8.9996 26.0354 9 25.5705C9.00519 20.5708 9.00319 15.5715 9.00359 10.5718C9.00359 9.97527 9.28795 9.71011 9.92647 9.70934C10.6352 9.70856 11.3443 9.70895 12.0785 9.70895C12.0841 9.80611 12.0921 9.88469 12.0921 9.96366C12.0933 10.7657 12.1148 11.5686 12.0873 12.3694C12.0626 13.0848 12.7493 13.564 13.3384 13.5621C13.6734 13.5609 14.0088 13.5698 14.3438 13.5602C15.0765 13.5392 15.585 13.0573 15.5918 12.3702C15.5997 11.5682 15.5997 10.7661 15.5906 9.96404C15.5882 9.77398 15.636 9.70392 15.855 9.70508C17.6266 9.71321 19.3978 9.71282 21.1693 9.70546C21.3767 9.70469 21.421 9.77282 21.419 9.95166C21.4102 10.7386 21.4138 11.5256 21.4158 12.3129C21.4174 13.055 21.9167 13.542 22.7016 13.5621C23.0287 13.5702 23.3561 13.571 23.6827 13.5602C24.4086 13.5358 24.9195 13.0395 24.9223 12.3594C24.9255 11.5647 24.9235 10.7704 24.9235 9.97566C24.9231 9.89553 24.9231 9.81501 24.9231 9.72559ZM18.5068 15.808C15.8016 15.808 13.0967 15.808 10.3915 15.808C10.0018 15.808 9.98151 15.8258 9.98151 16.1874C9.98111 19.2307 9.98151 22.274 9.98191 25.3174C9.98191 25.675 10.0146 25.7056 10.3891 25.7056C15.7992 25.706 21.2092 25.706 26.6197 25.706C26.9922 25.706 27.0332 25.6677 27.0332 25.3205C27.0332 22.2771 27.0336 19.2338 27.0332 16.1905C27.0332 15.8359 27.0029 15.8076 26.6225 15.8076C23.9168 15.808 21.2116 15.808 18.5068 15.808Z" fill="white"/>
<path d="M24.2092 10.2578C24.2092 10.7967 24.2104 11.3359 24.2088 11.8747C24.2076 12.2661 24.0417 12.4407 23.6237 12.46C23.3138 12.4744 23.0016 12.4755 22.6921 12.4581C22.2972 12.436 22.1182 12.2479 22.1178 11.8805C22.1158 10.78 22.1162 9.67953 22.1182 8.57902C22.119 8.25928 22.2597 8.06535 22.5932 8.0336C22.9705 7.9976 23.3577 7.99722 23.7354 8.03167C24.0752 8.06264 24.2072 8.24573 24.2084 8.5736C24.2112 9.13489 24.2092 9.69656 24.2092 10.2578Z" fill="white"/>
<path d="M12.8057 10.235C12.8061 9.68032 12.8041 9.126 12.8065 8.5713C12.808 8.22949 12.9428 8.05762 13.303 8.02549C13.6504 7.99414 14.0053 7.99143 14.3531 8.01891C14.7256 8.04833 14.8827 8.23878 14.8831 8.58988C14.8851 9.69155 14.8851 10.7932 14.8827 11.8949C14.8819 12.2502 14.7192 12.4314 14.3463 12.4542C14.0129 12.4748 13.6759 12.4755 13.3425 12.4554C12.9616 12.4322 12.8072 12.2576 12.8061 11.8988C12.8041 11.3441 12.8053 10.7893 12.8057 10.235Z" fill="white"/>
</svg>
