<svg width="55" height="47" viewBox="0 0 55 47" fill="none" xmlns="http://www.w3.org/2000/svg">
<path d="M27.1 39.0003C20.1 39.0003 14.5 33.4003 14.5 26.4003C14.5 19.4003 20.1 13.8003 27.1 13.8003C34.1 13.8003 39.7 19.4003 39.7 26.4003C39.7 33.3003 34.1 39.0003 27.1 39.0003ZM27.1 16.3003C21.6 16.3003 17 20.8003 17 26.4003C17 32.0003 21.5 36.5003 27.1 36.5003C32.6 36.5003 37.2 32.0003 37.2 26.4003C37.2 20.8003 32.7 16.3003 27.1 16.3003Z" />
<path d="M48.2 46.3001H6C2.7 46.3001 0 43.6001 0 40.3001V12.3001C0 9.0001 2.7 6.3001 6 6.3001H11.7L12.7 3.8001C13.6 1.5001 15.7 0.100098 18.2 0.100098H36C38.4 0.100098 40.6 1.6001 41.5 3.8001L42.5 6.3001H48.2C51.5 6.3001 54.2 9.0001 54.2 12.3001V40.2001C54.2 43.6001 51.5 46.3001 48.2 46.3001ZM6 8.8001C4.1 8.8001 2.5 10.4001 2.5 12.3001V40.2001C2.5 42.1001 4.1 43.7001 6 43.7001H48.1C50 43.7001 51.6 42.1001 51.6 40.2001V12.3001C51.6 10.4001 50 8.8001 48.1 8.8001H41.5C41 8.8001 40.5 8.5001 40.3 8.0001L39 4.7001C38.5 3.4001 37.2 2.6001 35.8 2.6001H18.2C16.8 2.6001 15.6 3.4001 15 4.7001L13.8 8.0001C13.6 8.5001 13.2 8.8001 12.6 8.8001H6Z" />
</svg>
