<svg width="6" height="10" viewBox="0 0 6 10" fill="none" xmlns="http://www.w3.org/2000/svg">
<g clip-path="url(#clip0_1094_1719)">
<path fill-rule="evenodd" clip-rule="evenodd" d="M1.05192 0H4.4981C4.77697 0.000629837 5.04425 0.112583 5.24151 0.311388C5.43877 0.510192 5.54998 0.779677 5.55081 1.06093V8.71907C5.54998 9.00032 5.43877 9.26981 5.24151 9.46861C5.04425 9.66742 4.77697 9.77937 4.4981 9.78H1.05192C0.772928 9.77958 0.50549 9.66756 0.308284 9.46851C0.111078 9.26947 0.000208673 8.99966 0 8.71827L0 1.06093C0.000417455 0.779685 0.111379 0.510077 0.308562 0.311205C0.505746 0.112333 0.773064 0.00042103 1.05192 0ZM2.77462 8.62515C2.85987 8.62499 2.94325 8.65035 3.01421 8.698C3.08517 8.74566 3.14052 8.81347 3.17325 8.89286C3.20598 8.97225 3.21463 9.05965 3.19809 9.144C3.18156 9.22835 3.14058 9.30586 3.08036 9.36671C3.02013 9.42756 2.94336 9.46903 2.85975 9.48586C2.77615 9.5027 2.68948 9.49414 2.6107 9.46127C2.53192 9.4284 2.46458 9.3727 2.4172 9.30122C2.36983 9.22974 2.34454 9.14569 2.34453 9.05971C2.34474 8.94466 2.3901 8.83437 2.47068 8.75294C2.55127 8.67152 2.66054 8.62557 2.77462 8.62515ZM5.24778 8.29167V1.33313H0.302241V8.29167H5.24778Z" fill="#666666"/>
</g>
<defs>
<clipPath id="clip0_1094_1719">
<rect width="5.55081" height="9.78" fill="white"/>
</clipPath>
</defs>
</svg>
