<svg width="15" height="15" viewBox="0 0 15 15" fill="none" xmlns="http://www.w3.org/2000/svg">
<path d="M10.3466 12.6562C9.22664 12.6562 8.1708 12.0188 7.59914 10.9875C7.2958 10.4625 7.13831 9.85 7.13831 9.21875C7.13831 7.325 8.57914 5.78125 10.3466 5.78125C12.1141 5.78125 13.555 7.325 13.555 9.21875C13.555 9.85 13.3916 10.4625 13.0883 10.9938C12.5225 12.0188 11.4725 12.6562 10.3466 12.6562ZM10.3466 6.71875C9.05747 6.71875 8.01331 7.8375 8.01331 9.21875C8.01331 9.675 8.12997 10.1187 8.35164 10.5C8.77164 11.2562 9.53581 11.7188 10.3466 11.7188C11.175 11.7188 11.9216 11.2687 12.3416 10.5062C12.5633 10.1187 12.68 9.675 12.68 9.21875C12.68 7.8375 11.6358 6.71875 10.3466 6.71875Z" />
<path d="M11.3849 9.67499H9.31409C9.07492 9.67499 8.87659 9.46249 8.87659 9.20624C8.87659 8.94999 9.07492 8.73749 9.31409 8.73749H11.3849C11.6241 8.73749 11.8224 8.94999 11.8224 9.20624C11.8224 9.46249 11.6241 9.67499 11.3849 9.67499Z" />
<path d="M10.3466 10.8062C10.1074 10.8062 9.90906 10.5937 9.90906 10.3375V8.125C9.90906 7.86875 10.1074 7.65625 10.3466 7.65625C10.5857 7.65625 10.7841 7.86875 10.7841 8.125V10.3437C10.7841 10.6 10.5916 10.8062 10.3466 10.8062Z" />
<path d="M6.87576 14.2188C6.59576 14.2188 6.31576 14.1438 6.06493 13.9938C5.54576 13.6813 5.23659 13.1187 5.23659 12.4875V9.14375C5.23659 8.83125 5.04409 8.35624 4.85743 8.11249L2.64076 5.61874C2.27326 5.21249 1.98743 4.53126 1.98743 4.03126V2.575C1.98743 1.56875 2.69909 0.78125 3.60326 0.78125H11.3849C12.2774 0.78125 13.0008 1.55626 13.0008 2.51251V3.89999C13.0008 4.55624 12.6391 5.29377 12.2891 5.68127L11.2391 6.675C11.1341 6.775 10.9883 6.81248 10.8483 6.78123C10.6908 6.73748 10.5216 6.71875 10.3466 6.71875C9.05743 6.71875 8.01326 7.8375 8.01326 9.21875C8.01326 9.675 8.12993 10.1187 8.35159 10.5062C8.53826 10.8375 8.78909 11.1125 9.08076 11.3063C9.20909 11.3938 9.29076 11.5437 9.29076 11.7062V11.9188C9.29076 12.4125 9.01076 13.1063 8.54409 13.4L7.73909 13.9563C7.47659 14.1313 7.17326 14.2188 6.87576 14.2188ZM3.6091 1.71875C3.19493 1.71875 2.86826 2.09375 2.86826 2.575V4.03126C2.86826 4.25626 3.04326 4.71876 3.27659 4.96876L5.52243 7.5C5.81993 7.89375 6.11743 8.56251 6.11743 9.15001V12.4937C6.11743 12.9062 6.38576 13.1125 6.49659 13.1813C6.74743 13.3313 7.04493 13.325 7.27243 13.175L8.08909 12.6125C8.24659 12.5125 8.40409 12.1938 8.41576 11.9688C8.09493 11.7125 7.81493 11.3812 7.60493 11.0062C7.30159 10.475 7.13826 9.86252 7.13826 9.23752C7.13826 7.34377 8.57909 5.80002 10.3466 5.80002C10.5099 5.80002 10.6733 5.81252 10.8249 5.83752L11.6883 5.01877C11.8866 4.80002 12.1316 4.28126 12.1316 3.91251V2.52499C12.1316 2.08749 11.7991 1.73126 11.3908 1.73126H3.6091V1.71875Z" />
</svg>
