<svg width="15" height="11" viewBox="0 0 15 11" fill="none" xmlns="http://www.w3.org/2000/svg">
<g clip-path="url(#clip0_1094_1711)">
<path d="M0.860596 0H14.1394C14.3664 0.00224661 14.5834 0.09383 14.7433 0.254911C14.9032 0.415992 14.9933 0.6336 14.9939 0.860596V9.98657C14.9952 10.1607 14.9432 10.3311 14.845 10.4749C14.8273 10.5209 14.7998 10.5626 14.7644 10.5969C14.7406 10.6197 14.7134 10.6386 14.6838 10.6531C14.5298 10.783 14.3348 10.8544 14.1333 10.8545H0.860596C0.63466 10.8523 0.418608 10.7615 0.258839 10.6018C0.099071 10.442 0.00832964 10.2259 0.00610352 10V0.860596C0.00673454 0.6336 0.0967714 0.415992 0.25671 0.254911C0.416649 0.09383 0.63361 0.00224661 0.860596 0ZM0.823975 9.62402L5.31372 4.9585L0.823975 1.16455V9.62402ZM5.98999 5.54077L1.19263 10.1868H13.7659L9.18213 5.54077L7.83936 6.66504C7.78019 6.71418 7.7057 6.74108 7.62878 6.74108C7.55187 6.74108 7.47738 6.71418 7.41821 6.66504L5.98999 5.54077ZM9.84741 4.94995L14.176 9.66187V1.12305L9.84741 4.94995ZM1.24634 0.6604L7.61597 5.82275L13.7048 0.6604H1.24634Z" fill="#666666"/>
</g>
<defs>
<clipPath id="clip0_1094_1711">
<rect width="15" height="10.8472" fill="white"/>
</clipPath>
</defs>
</svg>
