<svg width="979" height="872" viewBox="0 0 979 872" fill="none" xmlns="http://www.w3.org/2000/svg">
<path fill-rule="evenodd" clip-rule="evenodd" d="M62.5 0.98C33.916 4.709 11.319 24.25 2.342 53L0 60.5V436V811.5L2.342 819C10.202 844.174 27.439 861.414 52.516 869.182L60 871.5L447 871.796C713.811 872 836.871 871.765 843.245 871.037C871.819 867.777 894.895 849.046 904.276 821.5L907 813.5L907.268 685.25L907.537 557H860.064H812.591L812.239 635.25C811.848 722.204 812.099 718.807 804.943 733.686C796.075 752.123 779.824 765.884 759.484 772.18L752 774.496L459 774.787C262.894 774.981 163.417 774.738 158.188 774.052C141.285 771.833 129.301 765.774 116.344 752.898C109.079 745.678 106.957 742.788 103.13 734.898C94.812 717.75 95.531 747.619 95.515 418.865C95.501 147.409 95.626 124.84 97.168 120.065C100.467 109.851 109.575 102.604 123.369 99.218C129.327 97.756 146.427 97.557 291.75 97.264L453.5 96.937V48.468V0L260.75 0.131C154.738 0.203 65.525 0.585 62.5 0.98ZM672.255 95.552L672 190.5L644.5 191.117C570.273 192.783 504.364 205.291 444 229.167C328.428 274.879 243.922 364.502 202.705 485.074C193.826 511.05 185.752 544.632 183.13 566.5L182.53 571.5L187.265 566.011C251.142 491.958 332.226 438.254 425.5 408.222C474.567 392.423 525.207 383.577 581.836 380.911C611.051 379.536 656.385 381.39 670.245 384.527L672.49 385.036L672.745 478.905L673 572.774L769 483.242C821.8 433.999 890.801 369.648 922.336 340.24C953.871 310.833 979.296 286.44 978.836 286.035C977.384 284.754 680.18 7.89 676.255 4.161L672.51 0.604L672.255 95.552Z" />
</svg>
