<svg width="155" height="155" viewBox="0 0 155 155" fill="none" xmlns="http://www.w3.org/2000/svg">
<path fill-rule="evenodd" clip-rule="evenodd" d="M151.4 107.2C150.9 107.2 150.8 107.5 150.7 107.8C150.6 108.2 150.4 108.1 150.1 107.9C149.7 107.6 149.5 107.3 149.8 106.8C150.1 106.2 150.1 106.2 149.8 106C149.1 105.5 148.3 105.2 147.8 104.5C147.9 104.3 147.9 104.1 148 103.9C148.5 103.8 148.5 103.8 148.2 103.3C148.3 103.1 148.3 103 148.4 102.9C148.6 102.9 148.8 102.9 149 102.7C149.7 102.2 149.8 101.7 149.3 101.2C149.4 100.9 149.5 100.5 149.8 100.3C149.7 100.2 149.6 100.1 149.5 100.3C149.4 99.9 149.6 99.7 149.5 99.4C149.7 99.1 149.7 99.4 149.8 99.7C150.1 99.4 150 98.9 150.2 98.5C150.2 98.3 150 98.6 149.9 98.7C149.8 98.3 150.1 98.2 150 97.8C150.1 97.8 150.2 98.1 150.3 97.8C150.3 97.6 150.2 97.4 150.2 97.2C150.4 96.9 150.5 97.2 150.7 96.8C150.9 95.8 151.1 94.8 151.3 93.8C151.6 93.3 152 92.8 151.8 92.2C151.7 92.2 151.7 92.1 151.6 92.1C151.7 91.7 151.8 91.2 151.8 90.6C151.8 90.1 151.8 89.6 151.7 89.4C152 89.2 152.1 88.9 152 88.3C151.7 89 151.7 88.3 151.7 87.9C151.6 89.2 151.2 89.7 151.1 91.1C151.2 91.3 151.2 91 151.3 90.9C151.4 91.1 151.3 91.3 151.2 91.5C151.2 91.4 151 91.2 150.9 91.2C151 90.8 151 90.5 151 90.1C151.1 89.2 151.2 88.3 151.5 87.8C151.5 87.7 151.4 87.8 151.3 87.6C151.2 87 151.5 87.8 151.7 87.3C151.3 86.3 151.7 85.6 151.8 84.7C151.5 84.4 151.6 83.8 151.7 83.3C151.9 83.5 152.1 84.1 152.4 83.7C152.4 84.1 152.3 84.8 152.5 84.9C152.5 84.3 152.6 84.3 152.8 84.1C152.5 83.8 152.6 83.5 152.4 83.3C152.3 82.8 152.6 82.4 152.3 81.9C152.8 81.4 152.6 80.1 152.4 79.1C152.8 79.1 152.8 78.6 152.5 77.8C152.6 77.7 152.7 77.7 152.8 78C153 77.1 152.5 76.1 152.6 75.1C152.5 74.8 152.4 75.5 152.2 75.1C152 74.8 152.5 74.5 152.2 74.2C152.3 74 152.4 73.9 152.5 74.1C152.5 73.6 152.1 74.1 152.3 73.4C152.4 73 152.5 72.9 152.7 73.1C152.5 72.4 152.7 71.1 152.3 70.8C152.4 70.4 152.6 70.8 152.6 70.2C152.2 70.2 152.5 69.5 152.5 69.5C152.3 68.5 151.8 68.2 152 67.1C151.6 66.9 151.6 65.8 151.4 65.1C151.5 65 151.6 65.3 151.7 64.9C151.2 64.5 151.5 63.8 150.9 63.1C150.6 62.9 150.7 63.9 150.9 64.1C150.9 64.4 150.5 63.5 150.5 63.3C150.1 63.1 150.6 63.9 150.5 64.1C150.4 64.3 150.2 63.9 150.1 63.7C150 63.5 150.3 62.9 149.8 62.3C149.9 61.9 149.9 61.6 150.2 61.8C150.3 61.3 149.9 60.8 150.1 60.2C149.9 60.1 149.7 60.3 149.6 59.7C150.2 59.9 150.7 60.9 151.2 61.9C151.1 61.4 151.2 60.9 151.2 60.5C151 60.3 150.8 60.3 150.8 59.8C150.7 59.7 150.6 59.9 150.4 59.7C150.1 59.1 150.5 59.3 150.5 58.7C150 58.9 149.3 56.5 149.7 56.1C149.4 56.2 149.5 55.5 149.1 55.2C149 55.7 149.5 56.1 149.4 56.6C149.2 56.6 149 55.4 148.9 55C148.8 55 148.6 54.9 148.4 54.5C148.2 54.2 148.5 54.1 148.6 54.4C148.5 53.9 148.1 54 148.1 54.4C148.3 54.7 148.2 55 148.6 55.3C148.5 55.5 148.4 55.5 148.3 55.6C148.3 55.5 148.2 55.5 148.2 55.4C148 54.9 148 54.2 147.7 53.7C147.9 53.5 148.7 54.5 148.4 53.5C148.1 53.8 148.2 53.4 147.9 52.9C148.2 52.7 148.2 53.3 148.1 52.3C147.8 52.3 147.7 52.3 147.4 51.7C147.8 51.3 146.9 50.8 147 50C147.7 51.6 148.6 52.7 148.8 54.7C149 53.9 149.4 55.9 149.8 55.5C149.8 55.2 149.7 55 149.8 54.8C149.3 54.6 149.2 53.4 149.4 53.1C149.2 53.6 148.9 52.5 148.7 53.1C148.6 52.7 148.3 52.4 148.3 52C148.4 51.7 148.7 53.1 148.7 52.1C149.1 52.3 148.8 52.7 149.1 52.9C149.1 52.6 149.3 52.7 149.3 52.4C148.6 51.7 148.8 51.4 149 51.1C148.5 51.2 148.2 49.4 147.7 48.6C147.4 48.4 147.6 48.7 147.6 49.1C146.8 48.4 146.6 46.8 146 46.4C145.9 45.8 146.3 46.4 146.4 46.1C146.7 46.8 147.1 47.5 147.3 48.2C147.6 48.4 147.7 48.3 147.8 48C147.6 47.9 147.6 47.7 147.6 47.5C147.5 47.5 147.4 47.4 147.4 47.6C147.4 47.2 147.1 46.5 146.7 45.9C146.3 45.3 145.8 44.8 145.6 44.6C146.4 44.7 145.4 43.5 145.7 43C145.5 42.8 145.4 42.6 145.3 42.4C144.9 42.3 145.5 43 145.4 43.3C145.3 43.6 144.7 42.9 144 42.4C144 41.7 144.6 42.8 144.9 42.7C144.8 41.9 144.6 42.2 144.1 41.6C144.1 41.9 143.9 41.8 143.8 41.9C143.5 41.6 143.7 41.2 143.3 41C143.4 41.6 144.2 42 144 42.7C144.6 43.2 145.1 43.8 145.4 44.5C145.4 44.8 145 44 144.9 43.8C144.6 43.7 144.9 44.3 145.1 44.3C144.6 44.5 144.1 43.6 143.6 42.5C143 41.3 142.4 39.8 141.6 39C141.6 39.2 141.7 39.4 141.5 39.4C141.5 39.8 142 39.9 141.9 40.3C141.8 40.4 141 39.6 141.1 39.1C141 39.5 140 38.7 140 38.1C140 37.9 140.7 38.7 140.7 39C140.9 38.7 141.2 39.1 141.6 39.1C141.4 38.5 141.6 38.6 141.3 37.9C142 38.7 142.1 39.3 143.1 40.2C143.1 39.5 143.4 40.1 143.1 39.2C142.9 39.3 143 39.9 142.4 39.2C141.9 38.4 141.5 37.5 140.9 36.7C141 37.1 140.9 37.2 140.7 37.1C140.9 37.5 141.1 37.9 141.3 38.2C141.1 38.3 140.7 37.8 140.5 37.6C140.4 37.3 140.6 37.4 140.7 37.5C140.4 36.7 140.3 37.5 139.9 36.6C140 36.5 140.4 36.7 140.5 36.5C139.5 35.9 138.8 34 137.8 33.4C137.8 33.2 138.1 33.4 137.9 32.8C137.5 32.5 137.3 31.9 136.7 31.7C136.8 32.1 136.8 32.3 136.7 32.4C136.2 31.9 135.9 31.3 135.3 30.9C135.3 30.5 136.2 30.9 136.3 31.6C136.3 31.2 136.7 31.6 136.7 31.2C136 31 135.7 30.4 134.7 29.6C134.7 30 135.2 30 135.3 30.4C135 30.6 134.7 29.8 134.2 29.6C134.1 29.3 134.3 29.4 134.2 29.1C133.4 29.3 133.1 27.8 132.4 27.5C132.5 26.9 133.4 28.1 133.7 28C133.7 27.9 133.5 27.8 133.4 27.7C133.1 27.1 133.8 27.8 133.5 27.3C133 27 132.6 26.3 132.6 26.7C132.1 26.5 132.1 25.9 131.6 25.6C131.7 25.4 132 25.4 132.2 25.9C132.5 25.5 130.7 24.8 131 24.3L130.1 23.9C130.3 24.2 130.1 24.2 130.2 24.4C129.7 24.1 129.9 23.9 129.8 23.6C128.8 23.3 128.5 22.4 127.5 21.2C127.1 21 126.6 20.6 126.1 20C125.6 19.5 125 18.9 124.4 18.6C124.2 18.8 124.8 19 125 19.4C124.6 19.5 123.6 18.6 123 18.1C123 17.7 123.7 18.7 123.8 18.3C123.5 17.9 123.3 17.6 123.4 17.5C123 17.4 122.3 17.3 121.7 17.2C121.1 16.9 121.5 16.6 121.2 16.3C120.9 16.1 119.8 15.7 120.2 15.5C119.1 15.1 118.2 14.5 117.3 13.8C116.9 13.3 118 13.8 117.5 13.3C116.7 13 117.5 13.7 116.8 13.5C116.1 13.3 116.4 12.9 116.1 12.5C115.7 12.4 115.5 12.1 115.1 11.9C115.3 11.8 115.3 11.6 114.9 11.2C114.8 11.3 114.6 11.3 114.4 11.1C114 11.1 114.8 11.4 114.8 11.6C114.3 11.6 114.1 11.2 113.8 11C113.4 11 114.2 11.5 114.3 11.5C114.3 11.7 114 11.7 113.9 11.8C113.4 11.5 113.5 11.3 113.1 11.5C112.7 11 113.4 11.4 113.5 11.2C113.1 10.8 112.9 11.1 112.7 11.1C112 10.9 111.5 10.4 110.9 10.1C111 9.9 111.5 10 111.6 9.8C111.1 9.4 110.8 8.7 110 8.6C109.7 8 109.7 7.8 108.5 7.2C108.8 7.5 109.2 7.7 109.1 7.9C108.6 7.9 108.3 7.6 107.9 7.4C107.6 7.4 108 7.7 107.4 7.6C107.9 7.8 108.7 8.6 109 8.3C109 8.5 109.1 8.7 108.6 8.6C108.1 8.4 108.5 8.1 107.6 8.2C107.1 7.8 108.1 8.1 107.5 7.7C107.4 8.1 106.7 7.8 106.2 7.4C105.8 7.5 106.2 7.7 106.6 7.9C106.3 7.9 106.1 7.8 105.8 7.8C105.7 7.6 105 7.1 105.3 7.1C105.1 7 104 6.9 104.4 6.6C104 6.3 103.5 6.8 102.9 6.4C102.8 6.3 103.2 6.3 103.4 6.3C102.7 6 101.6 5.2 101.2 5.5C101 5.5 100 5 100.8 5.1C99.6 4.7 97.8 4.6 97.1 5.2C96.8 5.1 96.5 5 96.1 5C95.6 4.7 96.7 4.7 96 4.3C96.8 4.2 96.7 4.4 97.1 4.6C97.8 4.6 98 4.4 97.6 4.1C97.4 4.1 97.6 4.2 97.7 4.3C97.2 4.3 96.8 4.3 96.4 4C96.3 4 97 4.3 97.2 4.2C96.9 3.8 96.4 4.1 96.1 3.8C95.6 4.3 94.2 3.5 93.3 3C92.8 3.1 92.3 3.4 93.2 3.7C93.1 3.3 93.6 3.6 94.1 3.8C94.2 3.9 93.8 3.9 93.7 3.8C93.8 4 95.4 4.1 96 4.4C93.6 4.2 90.2 3.1 87.4 3C87.3 2.9 87.6 2.9 87.7 2.8C87.3 2.7 87 2.5 86.5 2.8C86.4 2.4 85.9 2.7 85.4 2.4C85 2.2 86.4 2.2 85.6 2C85 2.3 84.7 2.1 83.7 1.9C83.2 2.2 82.6 2.3 81.9 1.9C81.4 2.1 80.9 1.9 80.4 2.2C79.7 1.7 78.6 1.6 77.4 1.6C76.2 1.6 74.8 1.7 73.5 1.5C73.6 1.8 72.9 2 72.6 1.7C72 1.9 72.2 2 72.1 2.2C71.9 2.2 71.7 2.3 71.5 2.2C71.6 2 71.4 1.8 72 1.6C71.2 1.4 71.8 2.1 70.8 1.8C70.6 2.3 70.3 2.1 69.5 2.2C69.2 2.1 69.6 1.9 69.9 1.7C68.5 2.1 66.3 2.1 65.4 3C64.7 3.2 64.7 3 64.2 3.1C63.8 3 64.5 2.7 64 2.5C63.5 2.8 63.6 2.9 63.7 3.1C63 3.1 63.2 3.3 62.6 3.5C62.1 3.2 63 2.6 63.7 2.6C63.4 2.6 63.5 2.4 63.7 2.5C62.7 2.3 61.2 2.1 59.8 3.1C59.2 3 60.4 2.6 59.7 2.6C59.2 3.1 57.7 2.9 56.8 3.2C56.5 3.4 56.7 3.4 56.4 3.6C56.3 3.5 56.6 3.3 56.2 3.3C55.7 3.5 56 3.4 55.7 3.7C55.6 3.6 55.9 3.5 55.7 3.4C55 3.3 54.4 3.7 54.6 4C54.4 4 54.3 4 54.2 4.1C54 4.1 54.3 3.9 54.4 3.8C53.1 4.1 50.9 4.4 50.1 5.1C48.7 5.2 49.2 5.6 48.4 5.6C47.8 6.4 47.3 6.4 46.5 7.1C46.9 7.1 47.2 6.9 47.5 6.9C47.1 7.3 46.6 7.1 46.3 7.5C46.1 7.5 46.4 7.3 46.5 7.1C45.6 7.4 44.7 7.6 43.8 7.9C43.6 7.9 43.9 7.7 44 7.5C43.6 7.7 43.1 7.7 42.8 8.1C42.6 9 39.5 9.3 38.5 10.5C40.1 9.7 41.7 9.1 43.3 8.5C42.8 8.9 42.2 9 41.7 9.3C41.6 9.7 42.4 9 42.7 9L42 9.4C41.7 9.4 41.8 9.3 41.5 9.3C40.4 10 40.7 10.5 39.3 11C39.1 10.9 40 10.3 40.3 10C40.2 9.9 39.8 9.9 40 9.7C39.8 9.9 39.4 11 38.3 11.3C38.1 11.3 38.1 11.1 38.4 10.8C37.8 10.9 37.6 11.9 36.7 12.2C36.1 12.4 36.9 11.7 36.2 11.9C36.1 12 36.2 12 36.3 12C36.4 12.1 35.6 12.4 36 12.7C35.8 12.8 34.9 13.2 35.2 13.4C34.9 13.5 34.7 13.9 34.3 13.9C34.2 13.7 34.9 13 34.6 12.9C34.3 13.2 33.9 13.5 33.6 13.9C33.2 14 33.4 13.7 32.9 13.9C32.2 14.5 31.4 14.9 30.7 15.4C30.4 15.4 31.1 15 31.2 14.7C30.1 15.2 30.4 16.1 29.2 16.3C29 16.5 28.9 17 28.6 17.1C28.4 17.5 29 16.8 29.2 17L28.9 17.4C28.1 17.7 27.5 18.5 26.6 18.8C26.4 18.5 27.3 17.7 27.9 17.7C28.1 17.3 28.4 17 28.7 16.8C28.3 17.1 27.1 17.4 26.8 18.3C26.2 18.5 26.7 17.9 26.1 18.1C25.9 18.9 24.5 19.9 23.5 20.9C23.1 20.9 23.8 20.5 23.8 20.3C23.3 20.7 23.4 20.4 22.9 20.6C22.4 21.3 21.7 21.7 21.3 22.4C20.2 22.8 20.6 23.2 19.7 24.7C20.1 24.2 20.5 23.6 21 23.3C21.2 23 21 23 20.8 23.1C21 22.7 21.3 22.5 21.7 22.3C22 22.1 21.5 22.8 21.3 22.8C21.6 22.8 23 22.3 23.3 21.5C23.9 21.5 25.1 20.4 25.8 19.6C26.2 19.5 26.1 19.8 26.4 19.2C27.8 18.6 29.1 17.8 30.2 16.7C30.5 17 31.6 15.9 31.4 16.5C31.5 16.3 31.9 16 32.4 15.6C32.1 15.6 32 15.8 31.7 15.8C31.9 15.6 32.2 15.4 32.4 15.2C32.5 15.2 32.6 15.3 32.4 15.6C32.8 15.6 33.1 15.2 33.5 15.2C33.7 15 33.5 15 33.6 14.8C34 14.8 34.3 14.7 34.5 14.3C34.8 14.3 35 14.3 35.2 14.1C35.6 14 34.7 14.7 35.4 14.4C35.5 14 36.2 13.6 36.8 13.2C37.5 12.8 38.2 12.6 38.5 12.6C39 12.5 38.6 12.3 38.9 12.1C39 12 39.2 12 39.3 11.8C39.8 11.7 39.6 12 40.1 11.9C40.8 11.1 42.6 10.6 43.9 10.1C44.4 9.4 44.7 9.3 45 9C44.2 9 44.5 9.4 43.8 9.6C44.1 9.3 44 9.4 43.5 9.2C44.2 8.4 45.1 8.3 45.4 8.5C45.1 8.9 44.6 8.5 44.3 9C44.9 8.7 45.3 9 44.9 9.4C45.7 9 46.7 8.8 47.5 8.5C47.4 8.9 47.4 8.7 48.2 8.7C47.7 8.9 47.3 9 46.8 9C46.6 9.2 47.2 9.1 46.9 9.4C47.4 9.1 47.9 9.1 48.4 8.9C48.7 8.6 48.1 8.6 47.7 8.6C48.4 8.2 49.3 8.1 50 7.6C50 7.3 49.7 7.2 49.8 7C50.6 6.6 49.9 7.3 50.6 7.2C50.8 7.3 50.4 7.3 50.2 7.5C51.1 7.6 52.9 6.8 53.9 7C54.9 6.2 56.1 6.3 57.2 6C57.6 6.2 56.5 6.5 56.5 6.8C57.4 6.8 57.5 6.1 57.8 6.7C58 6.4 58 6.1 57.7 6C58.6 5.6 59.6 5.5 60.6 5.4C60.8 4.9 61.8 4.8 62.5 4.8C62.6 4.9 62.4 5 62.2 5.1C62 5.2 61.7 5.1 61.5 5C61.3 5.1 61.3 5.2 61.4 5.2L61.1 5.4C61.6 5.5 62.1 5 62.7 5.3C62.4 5.5 62 5.4 61.7 5.5C61.6 5.9 62.5 5.5 62.8 5.6C61.9 6.3 63.9 5.5 64.6 5.6C64.5 5.4 64.7 5 65.3 4.9C64.9 5.3 65.7 5.2 65.8 5.5C65.9 5.4 66.1 5.4 66.2 5.4C66 5.2 67 5.1 67.1 4.8C67.5 4.8 68.7 5 69.5 4.6C70 4.7 69.5 4.9 69.5 5.1C70.3 5.2 71 5.2 71.5 5.4C71.7 5.3 71.9 5.2 72.1 5.1L71.5 4.9C71 5.3 70.5 4.9 70 4.9C70.7 4.6 71.3 5 72 4.7C72 5.5 73.5 4.9 74.6 5.3C74.2 5.2 73.8 5.4 73.3 5.3C73.2 5.6 74.4 5.5 74.8 5.5C75 5.2 74.9 5 75.1 4.9C75.9 4.8 75.5 5.2 75.8 5.3C76 5.2 76.2 5.2 76.4 5.3C76.4 4.9 77.1 4.9 77.8 5.3C77.4 4.9 78 5.2 78.7 4.8C79.5 5.2 77.7 5.1 78.6 5.4C78.9 4.9 79.4 5.1 79.8 4.8C80.4 5.1 79 5.1 79.2 5.3C79.9 5.3 80 5.3 80.5 5C81 5.4 80 5.2 80.1 5.5C81.3 6 81.7 5.5 82.9 5.5C83.2 5.7 83 5.8 83.5 6C84.2 5.8 84.7 6.1 85.3 6C85.4 6.2 85.1 6.3 85.2 6.5C85 6.6 84.8 6.5 84.6 6.5C84.2 6.3 84.7 6.3 84.7 6.1C83.9 6.1 83.6 6.3 82.6 6.1C83.2 6.3 83.7 6.5 84.4 6.5C84.8 6.7 83.6 6.4 84.1 6.7C83.5 6.5 82.8 6.5 82.2 6.4C82.1 6.5 82.3 6.6 82.2 6.7C81.7 6.8 82.1 6.4 81.6 6.3C81.4 6.4 81.1 6.4 80.9 6.3C80.7 7.1 79.6 6.1 78.8 6.5C78.3 6.3 79 6.1 78.3 6.1C77.9 6.3 78.4 6.6 77.9 6.8C78.2 7 78.6 6.8 79 7C79.1 6.9 78.9 6.8 78.8 6.7C79.3 6.5 79.7 6.7 80.2 6.8C80.3 7 79.8 6.9 79.6 7.2C79.1 7.2 78.5 7.1 78 7.2C77.3 7 78 6.8 77.3 6.8C76.8 7.3 75.6 7.3 74.3 7.3C74.3 7.1 74.3 7 74.2 6.8C74.8 6.8 75.4 6.9 76 6.9C75.6 6.7 75 6.7 75.6 6.5C75.1 6.6 74.7 6.6 74.2 6.6C74.1 6.4 74.6 6.3 74 6.1C73.5 6.5 73.4 6.4 72.7 6.3C72.3 6.2 73 6 72.4 5.9C71.6 5.9 70.5 6.1 69.9 6.3V6.2C69.9 6.2 70 6.2 70.1 6.1C70 6.1 69.9 6.1 69.9 6.1C69.8 6 69.8 6 69.7 6.1C69 6.1 68.4 6.3 67.7 6.1L66.7 6.7C66.4 6.6 66.4 6.4 65.8 6.3C65.3 6.8 66.2 6.7 66.4 6.9C65.9 7.2 65.4 6.6 64.9 7.1C64.2 6.9 65.4 6.5 64.6 6.4C64.5 6.5 64.7 6.5 64.7 6.6C63.7 7 62.6 6.9 61.5 7.1C61 7.5 61.9 7.6 62.4 7.4C61.9 7.6 61.5 8.3 61 8.2C60.7 8 61.6 8 61.4 7.8C61.1 7.6 60.9 8.1 60.6 7.8C60.3 8.1 60.7 8.1 60 8.4C59.7 8.3 59.6 8.2 59.9 8C59.1 7.9 59.3 8.6 58.6 8.6C58.4 8.5 59.3 8 58.6 8C58 8 58.2 8.1 57.9 8.4C57.7 8.5 57.6 8.6 57.4 8.5C57.3 8.3 58.1 8.1 57.9 7.9C57.2 8.1 57.3 7.9 56.6 7.8C55.3 7.9 54 8.6 53.1 9C53.4 8.7 52.9 8.8 52.1 9C51.3 9.2 50.4 9.6 49.9 9.7C49.9 9.4 51.1 9.3 51.6 8.8C50.4 8.9 49.7 9.9 48.8 9.8C48.7 9.9 49 9.9 49.1 9.9C48.8 10.3 48.4 10.2 48.1 10.6C46.9 10.4 45.8 11.5 45.1 11.3C44 12.1 43.2 12.1 42.4 13C42.9 12.8 42.6 13 43 13C41.8 14.1 41.1 13.6 40.8 13.2C40.6 13.6 41 13.7 40.8 14C40.2 14.2 39.7 14.6 39.1 14.7C38.9 14.7 39.6 14.3 39.8 14C39.5 14.2 37.8 14.8 37.6 15.1C37.3 15.2 37.1 14.9 37.5 14.9C37.3 14.6 37 15.2 36.8 15.3C36.7 15.5 37 15.4 37.2 15.4C36.7 15.7 36 15.9 35.2 16.2C34.5 16.5 33.7 16.9 33.1 17.5L32.3 17.6C32.1 17.9 31.8 17.8 31.7 18.2C30.3 18.4 29.7 19.7 28.4 19.9C27.6 21 26.4 21.6 25.2 22.2C25.7 21.5 25.6 21.4 26 20.8C24.9 21.7 24.1 23.1 23.3 23.3C23.7 23.7 23.1 24.6 23.7 24.8C23.1 25.2 22.5 25.6 22 26.1C22.4 26.5 24 24.4 24.4 25C24.3 25.3 23.9 25.2 23.6 25.4C23.8 25.8 22.8 26.2 22.6 26.9C22.5 26.7 22.4 26.5 21.8 26.8C22 27 21.8 27.4 21.5 28C21 28.1 20.3 28.5 20.5 28.8C20 29.1 20.1 28.7 19.7 29.2C19.3 29.2 19.6 29 19.8 28.6C19.3 29 18.9 29.5 18.6 30.1C18.1 30.3 18.7 29.4 18.2 29.6C18.1 29.9 18.3 30.4 17.8 30.6C17.9 30.8 17.7 31.2 18.2 30.8C17.8 31.5 17.8 31.4 17.9 31.9C17.9 32.3 17.3 32.1 17.3 32.5C17.1 33.2 17.7 32.4 17.9 32.3C17.7 32.6 17.3 32.8 17.2 33.2C16.9 33.3 17.3 32.5 16.8 32.8C16.9 33.1 16.2 33.7 16.3 33.3C16.1 34.3 15.1 35.4 14 36.1C14.1 36.2 14 36.6 14.1 36.7C14.5 36.3 14.4 36.5 14.9 36.2C15 35.8 14.8 36 14.6 36.1C15.2 35.1 16.2 34.3 17.1 33.5C16.7 34.4 15.7 34.9 15.2 35.9C15.6 35.5 15.9 35.2 16.4 34.8C16.2 35.4 15.6 35.6 15.6 36.3C15.3 36.4 15.5 35.9 15 36.2C14.9 36.5 14.8 36.6 14.7 36.9C14.4 37.1 14.5 36.8 14.5 36.6C14.2 36.8 14.3 37.1 13.9 37.2C14.1 37.5 13.4 38.2 13.7 38.5C13.1 39 13.4 38.2 12.9 38.6C12.7 39.2 11.8 40.2 11.6 40.2C11.3 41.1 11 40.9 10.7 41.7C10.3 41.9 10.9 41.3 10.8 41.1C10.2 41.6 9.9 42.5 9.4 43.1C9.4 43.5 9.4 43.6 9.7 43.8C9.1 44.2 8.7 45 9 45.2C8.6 45.7 9 44.7 8.5 45.2C8.2 45.5 8.2 46.1 7.9 46.3C7.8 46.9 8.1 46.6 7.9 47.1C7.5 47.4 7.8 46.3 7.6 46.2C7.5 46 8.2 46 8 45.5C7.7 45.5 7.2 46.5 7.1 47.2C6.8 47.6 6.8 47.2 6.5 47.5C6.4 47.9 6.3 48.5 6.1 48.9C6 49.4 5.8 49.8 5.6 49.8C5.4 50 5.6 50.1 5.7 50C5.5 50.5 5.4 51 4.9 51.4C5 51.8 4.7 52.1 4.8 52.5C4.8 51.8 5.7 51.5 5.6 50.8C6 50.6 5.9 51.2 6.5 50.3C6.6 51.3 6.1 51.3 5.9 51.5C6 52.2 6.3 51.1 6.6 51.2C6.5 50.8 6.6 50.6 6.9 50.4C6.8 49.9 7.1 49.7 6.9 49.6C6.6 50 6.6 50.4 6.3 50.1C6.3 49.7 6.8 49.6 6.8 49.2C7.1 49.1 6.9 49.7 7.4 49C7 49.1 7.8 48.5 8 48C8.1 48 8.4 48.3 8.1 48.5C8.3 48.1 9 47.5 9.2 46.8C9.9 46.6 10 45.6 10.6 45.5C10.8 44.8 10.6 44.7 11 44C11.2 43.9 11.1 44.3 11.1 44.5C11.7 44.2 11.8 43.5 12.3 43.1C12.3 42.8 12.1 42.9 11.9 43.2C11.8 42.7 12.4 42.3 12.1 42.2C12.2 42.2 12.5 42.3 12.6 41.9C12.9 41.8 12.7 42 12.6 42.4C13.2 41.9 13.3 41.1 14.1 40.7C13.7 40.1 14.9 40 14.8 39.1C15 39.5 15.3 38.7 15.5 38.8C15.3 39.3 15 39.7 14.5 40C14.7 40.7 13.6 41.6 12.9 42.1C13 42.3 13.2 42.4 13 43C13.1 42.3 13.8 41.5 14.4 40.8C15.1 40.1 15.7 39.3 15.6 38.4C16.1 37.7 16.6 36.9 17.3 36.4C17.3 36.1 17.2 36.2 16.9 36.5C17 36.2 17 35.9 17.1 35.6C17.2 35.3 17.4 35.2 17.7 35C17.6 35.5 17.2 35.7 17.2 36.2C17.6 36 17.8 35.6 18.2 35.4C18.2 35.2 18.3 35 18.3 34.8C18.4 34.6 18.6 34.5 18.8 34.3C19.1 34.2 19 34.5 18.9 34.9C19.6 34.2 18.8 34.1 19.7 33.4C19.7 33.2 19.6 33.2 19.4 33.3C19.5 33 19.6 32.7 19.8 32.6C19.8 33 20.2 32.8 20.7 32.5C21.2 32.2 21.7 31.7 22.1 31.5C21.6 32.2 20.1 33.5 20.5 33.8C20 34.4 19.3 34.9 18.8 35.6C19 35.9 19.5 34.9 19.8 34.7C19.5 35.3 19.4 35.2 19.4 35.8C18.8 35.7 18.9 36.4 18.3 36.2C18.1 36.9 18.4 36.8 18.7 36.8C18.6 37 18.5 37.1 18.4 37.1H18.3C18.2 37.1 18 37.1 17.9 37.2C17.8 37.6 17.6 37.8 17.6 38.2C17.2 38.5 17.3 38.2 17 38.4C16.9 39.1 16.8 38.7 16.4 39.2C16.2 39.9 15.7 40.3 15.5 41C15.1 41.4 15.3 40.8 15.1 40.8C15.4 40.2 16.3 39.3 15.9 39.1C15.7 39.4 15.6 39.8 15.5 40.2C15.4 40.2 15.3 40.2 15.1 40.3C15 41 14.9 41.1 14.5 41.4C14.3 42.2 14.9 41.6 14.7 42.4C14.7 42.5 14.6 42.6 14.5 42.8C14.1 43.1 14.2 42.6 14.1 42.5C13.7 42.6 13.7 43.1 13.3 43.3C13.2 43.6 13.4 43.5 13.5 43.4C13.2 44.2 12.3 44.6 12.4 45.6C12 46.2 11.6 46.8 11.3 47.3C11 47.9 10.7 48.4 10.3 48.8C10.4 49.4 10 49.7 9.8 50.1C10 50.4 10.1 50.2 10.1 50.8C10.6 50.3 10.5 50.3 11 50.1C10.9 49.7 10.8 49.9 10.8 49.4C11 48.8 11.4 48.4 11.4 47.7C11.8 47.5 11.5 48.5 11.7 48.7C12 48.5 12.2 47.5 12.5 47.8C13 47.1 13.1 46 13.9 45.5C13.8 46.1 13.4 46.5 13.3 47.1C13.5 46.8 13.6 46.5 14 46.3C14 46.4 13.9 46.4 13.9 46.5C13.4 47.5 13 48.4 13.7 49.5C13.9 49.9 13.8 50.5 13.9 51.1C13.1 51.6 13.6 52.7 12.9 53.2C12.8 53.3 12.8 53.4 12.7 53.4C12.1 53.6 11.9 54.4 11.4 54.5C10.8 54.7 10.7 55.2 10.4 55.6C9.6 55 9.6 55.6 9.6 56.2C9.6 56.7 9.6 57.1 9.9 57.5C10.1 57.7 10.1 58 10 58.2C9.7 58.7 9.6 59 10.3 59C10.5 59 10.6 59.2 10.7 59.3C10.9 59.5 11.2 59.6 11 59.9C10.3 60.7 10.3 61.9 9.7 62.7C9.2 63.3 8.9 63.9 9 64.6C9.2 65.7 8.9 66.5 8.1 67.3C8.1 67.6 8 68 7.8 68.2C7.3 68.9 6.6 70.9 6.5 71.6C6.4 72.5 6.7 72.9 7.5 73.2C7.7 73.2 7.9 73.5 7.9 73.4C8.2 73.2 8.2 72.9 8 72.7C7.5 72.2 7.6 71.5 7.6 70.9C7.6 70.6 7.7 70.4 8 70.3C8.3 70.1 8.7 69.8 9 69.9C9.4 70 9.3 70.5 9.3 70.8C9.3 72 9.6 73.3 8.8 74.5C8.7 74.6 8.8 74.9 8.9 75C9.7 75.9 9.1 76.6 8.7 77.4C8.5 77.9 8.4 78.4 8 78.8C7.4 79.5 7.9 80.6 7.2 81.3C7.4 81.8 7.6 82.3 7.8 82.7C7.9 82.9 8.2 83.1 8.4 83.2C8.5 83.2 8.7 83 8.8 82.9C9.1 82.7 9.3 82.5 9.6 82.3C9.8 82.2 10.2 82.5 10.2 82.7C10.2 82.9 10.2 83.1 10.1 83.2C9.8 83.6 9.8 83.8 10.3 83.9C10.8 84 10.9 84.3 10.7 84.7C10.6 85 10.5 85.4 10.2 85.6C9.5 86.3 9.6 87.1 9.7 87.9C9.7 88.7 10.1 88.8 10.7 88.5C11.1 88.3 11.5 88.1 11.9 87.9C12.4 87.6 12.5 88 12.7 88.2C12.8 88.3 12.9 88.5 12.9 88.6C12.9 88.7 12.9 88.9 13 89C13 89.2 13 89.3 12.9 89.4C12.5 89.9 12.5 90.6 12.3 91.1C11.4 91.3 11.4 92.4 10.8 92.8C10.7 92.9 10.5 92.9 10.4 93C10.4 93.6 10.4 94.2 10.4 94.8C10.4 94.9 10.7 95 10.7 95L10.8 94.9C10.7 95.3 10.8 95.7 10.8 96.1C10.7 96.2 10.6 96.3 10.5 96.4C10.4 96.6 10.3 96.9 10.3 97.1C10.3 97.2 10.6 97.3 10.7 97.4H10.8C11 98 11.1 98.6 11 99.2C11.1 99.4 11.2 99.3 11.3 99.4C11.1 100 11.5 100.4 11.6 101C11.5 101.1 11.5 101.1 11.4 101.2C11.3 101.1 11.2 101 11.1 100.9C11.1 101 11.1 101.2 11.1 101.3C11 101.3 11 101.3 10.9 101.3C10.3 101.3 10.2 101.7 10 102.1C9.9 102.2 9.7 102.3 9.6 102.4C9.5 102.8 9.9 103 10.2 103.2C10.5 103.5 11 103.6 11.3 103.8C11.6 104 11.7 104.2 11.4 104.6C11.4 104.5 11.3 104.5 11.3 104.5C11.3 104.6 11.3 104.7 11.4 104.8C11.3 105.1 11.3 105.4 11.3 105.7C11.3 105.8 11.5 105.9 11.6 106C11.7 105.9 11.7 105.9 11.8 105.8C11.8 105.7 11.9 105.6 11.9 105.5C12 105.7 12 105.8 12.2 105.9C12.2 106.2 12 106.1 12 106.4C12.5 107.2 12.9 108 13.2 108.8C13.5 109 13.6 109 13.7 108.7C13.8 108.7 13.8 108.8 13.9 108.8C14.1 109 14.2 109.1 14.3 109.3C14.3 109.4 14.2 109.4 14.2 109.5C13.9 109.4 13.7 109.6 13.6 109.8C13 108.9 12.1 107.9 11.5 107.8C11.1 107.1 10.7 106.3 10.4 105.5C10.1 104.7 9.8 103.9 9.6 103.1C9.2 103.6 9 102.4 8.8 101.7C9 101.4 9 102.4 9.3 102.6C9.4 101.8 8.6 101.3 8.3 100.6C8.3 100.1 8.7 100.8 8.5 100.1C8 100 7.5 98.2 7.4 97.3C6.8 96.6 6.8 95.6 6.4 94.5C5.9 94.5 6.5 95.5 6.6 95.9C6.4 95.5 6 94.7 5.7 93.8C5.4 92.9 5.3 91.9 5.3 91C4.6 89.9 4.6 85.9 3.5 85.6C3.6 84.6 3 84.2 3.1 83.4C3.3 83.4 3.3 84 3.6 83.8C3.4 83.2 3.3 82.6 3.1 82.1C3.1 81.4 3.8 81.4 4.1 81.1C4.5 80.7 4.6 80 4.9 79.5C5 79.3 5.3 79.3 5.6 79.1C5.8 79 5.9 78.8 5.7 78.7C5.2 78.5 4.8 78.2 4.3 78C3.8 77.7 3.7 77.4 4 77C4.3 76.7 4.7 76.3 4.8 75.9C5 75.3 4.4 75 4.1 74.6C4 74.5 4 74.3 3.9 74.2C3.6 74.2 3.4 74.4 3.4 74.7C3.3 75.6 3.4 76.5 3.2 77.3C2.7 78.5 2.9 79.7 2.9 81C2.5 80 2.1 79.3 1.6 79.2C1.4 79.7 1.2 80.7 0.9 80.4C0.6 81.6 0.8 83.6 0 84C0.4 84.6 0.3 85.7 0.7 85.8C0.8 85.6 0.6 85.4 0.5 85.2C0.7 84.9 0.7 85.3 0.8 85.6C0.6 86 0.5 86.4 0.6 86.8C0.5 87.2 0.3 87.1 0.1 86.6C0.1 87 0.2 87.3 0.3 87.3C0 88.2 0.6 90.3 1.1 91.6C0.8 93.3 1.9 94.9 2.7 96.4L2.6 96.7C2 96.1 1.6 94.5 1 93.8C0.9 94.1 1.1 94.4 0.9 94.7C2.1 97.1 2.2 98.6 3.4 100.9C3.4 101 3.3 100.9 3.2 101.1C2.9 100.3 2.2 99 1.8 98.7C1.7 99 2 99.3 2 99.7C2.2 99.5 2.4 99.8 2.4 100.4C2.5 100.2 2.7 100.2 2.9 100.3C3 101.2 3.8 102.9 4.1 102.4C4.4 102.7 3.8 102.6 4.1 103.1C4 103.2 3.8 102.6 3.6 102.9C3.7 103.5 4.4 103.8 4.5 103.6C4.7 103.9 4.3 104 4.3 104.4C4.7 105.1 4.8 104.6 5.1 105C5.4 105.3 5.1 105.5 4.9 105.3C5 105.9 5.3 105.7 5.5 105.8C5.5 106 5.6 106.6 5.4 106.7C5 106.4 5 106.1 4.7 105.8C4.8 106.7 5.4 106.9 5.6 106.8C6 107.7 6.4 108.6 7.1 109.1C7.2 109.8 6.7 109.1 6.7 109.5C6.4 109 6.1 108.5 5.8 107.9C5.8 108.5 5.5 108.6 5.1 108.1C5.1 108.5 5.4 108.8 5.5 108.7C5.2 108.9 5.7 109.4 5.5 109.6C6.2 110.2 6.4 110.9 6.9 111.9C6.8 112.2 6.3 111.3 6.4 111C6.3 110.9 6.3 111 6.3 111H6.2C6.2 111.6 6.7 112.1 7 112.6C6.9 113 6.5 112.8 6.4 113.1C6.8 113.3 6.7 113.3 7.1 113.8C7.2 114.4 7 114.3 7 114.6C7.3 114.9 7.3 114.8 7.5 114.9C7.6 115.3 7.3 115 7.4 115.6C7.9 116.4 8.3 117.2 8.8 117.9C8.7 118.4 8.5 117.7 8 117.4C8.1 117.9 8.6 118.1 8.6 118.6C8.7 118.6 8.9 118.8 9 118.6C9.2 119.1 9.5 119.6 9.8 120.1C10.1 120.6 10.4 121 10.8 121.4C11.5 122.3 12.1 123.2 12.7 124.1C12.9 124.2 12.8 123.9 12.8 123.7C13.1 123.9 13.5 124.1 13.7 124.4C13.4 124.9 13.9 125.5 14.5 126C15.1 126.6 15.9 127.1 16.2 127.7C15.2 127.9 14.4 126.5 13.4 125.7C13.6 126.3 14.4 126.7 14.2 127.1L15.1 127.6C15.2 128 15.1 127.9 15.1 128.1C14.9 127.8 14.4 127.6 14.3 127.2C14.2 127.5 13.9 127 13.6 127.1C13.6 127.9 15 127.9 15 128.7C15.7 129 16.4 129.4 17.1 129.6C17.3 130.2 17 130 16.7 129.9C16.8 130.5 17.3 130.7 17.6 131.1C17.7 130.9 17.9 130.9 18.4 131.3C18.3 131 17.9 130.9 17.9 130.5C18.3 130.8 18.7 131.2 18.9 131.6C19.3 131.8 19.8 132 20.3 132.3C20.2 132.7 19.9 132.3 20.5 133C20.8 133.6 20 133 20.3 133.5C20.9 133.3 21.3 134 22.4 134.3C23 135 23.6 135.6 24.1 136.3C25 136.4 25.8 136.9 26.7 137.3C27.1 137.9 26.1 137.2 26.1 137.4C27.1 138.3 28.8 138.5 29.5 138.6C28.5 137.6 27.7 138 26.9 137.5C26.8 137.3 26.9 137.2 27 137.2C26.8 136.9 26.1 136.8 26.3 137.1C25.7 136 22.9 135.3 22.2 133.7C23.5 133.9 25.1 135.5 26.1 136.5C27.4 136.5 28.9 137.9 30.4 139C29.7 139 29.3 139 28.9 139.3C29.4 139.4 29.6 139.7 30.1 139.8C30.7 141.1 31.8 140.6 32.4 141.8C33.7 142.4 33.3 142.2 34.5 142.8C34.2 142.5 34.7 142.7 34.6 142.5C35 142.6 35.3 142.9 35.7 143C36.1 143.6 35.3 143.2 35 143C34.9 143.3 36.6 143.9 36.7 143.7C37.2 144 37.8 144.2 38.1 144.8C38.8 145.2 39.9 145.1 40.5 145.7C40.8 146.3 39.8 146.1 39.2 146.2C40.1 146.7 40.8 146.5 42 147.2C42.3 147.7 42.1 147.6 42.6 147.8C43.1 147.8 41.8 147.3 42.4 147.3C42 147.1 41.7 146.8 41.2 146.7C41.2 146.3 41.3 146.4 40.6 146.1C40.5 146 40.8 146 41 146C41.4 146.1 41.5 146.6 41.9 146.8C42 146.7 42.3 146.8 42.2 146.6C42.7 146.7 43 147.1 43.5 147.3C43.6 147.5 43.4 147.5 43.1 147.4C42.8 147.3 43 147.3 42.8 147C42.6 147.1 42.3 147.2 42.6 147.5C43.7 147.5 44.7 147.8 45.7 148C46.7 148.2 47.6 148.6 48.6 148.7C48.8 148.9 48.9 149 48.7 149C48.9 148.9 50.5 149.1 51.4 149.4C51.4 149.7 49.9 149.3 49.9 149.5C49.6 149.1 49.2 149.1 49.7 149.5C51.3 149.9 52.8 150.2 53.9 150.6C54.2 151.2 52.4 150.4 52.2 150.8C52.7 151 52.9 151.2 53.2 151C53.6 151.2 54.2 151.4 54.8 151.6C55.4 151.7 56.1 151.8 56.8 151.9C58.1 152.1 59.5 152.1 60.5 152.3C60.9 152.6 59.3 152.3 60.1 152.7C60.5 152.4 61.2 152.5 61.8 152.5C61.4 152.3 61 152.1 60.6 152.1C60.5 152 60.6 152 60.5 151.9C61.4 151.9 62.1 152.6 63.1 152.3C63.3 152.5 63.2 152.5 63.4 152.7C64.1 152.5 64.7 152.9 65.4 152.8C65.6 153 65.6 153.1 65.5 153.1C65.8 153.3 66.2 153 66.5 153.3C66.8 153.3 66.7 153.2 66.6 153.1C67.9 153.3 69 153.4 70.1 153.5C71.2 153.6 72.3 153.6 73.6 153.6C73.8 153.7 73.6 153.9 73.3 154C73.7 154.1 74.2 153.9 74.6 154C75.3 153.9 74.3 153.6 75 153.5C75.6 153.8 76.3 153.7 77 153.5C77.4 153.6 77 153.8 77.5 153.9C77.8 153.8 77.4 153.6 77.7 153.5C78.5 153.9 78.4 153.5 79.4 153.4C79.8 153.5 79.4 153.7 79.9 153.8C80 153.7 80 153.6 79.8 153.5C80.2 153.4 80.9 153.4 81.5 153.6C82.1 153.7 82.6 153.9 82.6 154.1C83.9 153.8 81.5 153.8 82.3 153.3C82.8 153.3 82.6 153.5 83.3 153.6C84 153.3 84.7 153.5 85 153C85.6 153 86.3 152.8 86.5 153.2L87.2 152.8C86.7 152.5 87 153.1 86.5 152.8C86.8 152.3 88.9 152.4 90.1 151.8C89.9 152.1 90.1 152.3 89.4 152.5C90.4 152.7 90.5 151.8 91.4 151.6C92.1 151.9 92.7 151.4 93.3 151.1C94.1 151.3 94.9 151 95.6 150.7C95.8 150.9 94.9 151 94.7 151.2C95 151.3 94.4 151.7 94.6 151.8C95.3 151.3 96.4 151 97 150.4C97.2 150.5 97.6 150.3 98.1 150.2C98.5 150.5 96.5 150.7 97.6 150.8C97.2 151.2 96.8 150.9 96.4 151.3C96.9 151.5 97.9 150.7 97.9 151.1C98.3 150.8 98.8 150.7 99.5 150.3C99.6 150.8 100.3 150.1 101.1 150.2C101.8 149.6 102.7 149.4 103.4 148.9C103.3 148.7 102.6 148.7 102.3 149C102.3 148.6 103.5 148.4 104 148.2C104.2 148.3 103.9 148.7 103.7 148.8C103.9 149 104.2 148.8 104.4 149.1C104.3 148.5 105.1 148.7 105.7 148C105.3 147.8 105.1 148.3 104.7 148.2C105.1 148 105.5 147.6 106 147.7C106.2 147.8 105.8 147.8 105.7 148C105.9 148 106.3 147.8 106.2 148C106.8 148 106.2 147.5 106.8 147.7C106.6 147.6 106.3 147.5 106.6 147.1C107.2 146.8 106.7 147.3 107.2 147.2C107.5 146.9 107.3 146.8 107.2 146.7C107.4 146.6 107.7 146.6 107.8 146.4C108.6 146.4 107.6 147.1 108.2 147.1C108.3 146.9 108.4 146.6 108.3 146.5C108.6 146 109.3 146.4 109.6 145.8C110.1 145.7 110 145.9 110.4 145.9C110.9 145.4 111.5 145.3 112 145C112.1 144.4 113.1 144.1 113.8 143.7C114.2 143.6 113.3 144.3 113.9 144.1C114.3 143.4 115 143.3 115.8 142.8C116.2 142.4 115.4 142.7 115.7 142.3C115.7 142.4 115.8 142.4 115.8 142.4C115.9 142.4 116 142.3 116 142.3C116 142.3 116 142.3 116.1 142.2C116.2 142.3 116.2 142.4 116.6 142.3C116.9 142.1 117 142 117 141.8C117.1 141.8 117.2 141.8 117.3 141.7C117.4 141.8 117.4 141.9 117.6 142C117.8 142.1 117.9 142.4 118.2 142.2C118.6 142 119 141.8 119.4 141.6C119.8 141.4 119.7 141.1 119.6 140.5C119.6 140.4 119.5 140.2 119.5 140.1C119.9 139.8 120.2 139.5 120.7 139.3C120.8 138.9 120.9 138.7 121.2 138.5C122 138.5 122.7 138.6 123.3 137.8C123.8 137.1 124.5 136.8 125.4 136.9C125.7 136.9 125.9 136.9 126.2 136.9C126.3 136.9 126.4 137.1 126.4 137.2C126.4 137.2 126.3 137.3 126.2 137.4C126.1 137.4 126 137.4 125.9 137.4C125.8 137.5 125.7 137.6 125.6 137.7C125.8 137.8 125.9 137.9 126.1 137.9C127.7 137.9 128.5 136.6 129.8 136C129.9 135.9 129.9 135.5 129.9 135.2C129.9 134.9 129.7 134.7 129.4 134.7C129.2 134.7 129.1 134.5 128.9 134.5C129 134.4 129.1 134.3 129.3 134.2C129.8 134 130.2 133.8 130.7 133.5C130.8 133.5 130.8 133.4 130.9 133.3C130.8 133.2 130.6 133.1 130.5 133C130.3 132.9 130.1 133 130 133C129.8 133 129.7 132.9 129.5 132.8C129.6 132.7 129.7 132.5 129.8 132.4C129.9 132.3 130 132.3 130.1 132.2C130.3 132.1 130.4 132.1 130.6 132.1C130.5 132.3 130.5 132.4 130.3 132.4C130.5 132.5 131.1 131.9 131.5 131.4C131.6 131.4 131.8 131.3 131.9 131.3C132.2 131.3 132.4 131.2 132.5 130.9C132.6 130.7 132.5 130.5 132.3 130.4C132.6 130.2 132.9 129.8 132.9 129.5C132.6 129.7 132.3 130 132.1 130.2C132 130.2 132 130.1 131.9 130.1C131.8 130 131.7 130 131.6 129.9C131.7 129.4 131.5 129.2 131.6 128.8C131.8 129.2 132.3 128.7 132.8 128.5C133.1 128.4 132.6 129.2 133.1 128.9C133.1 128.6 133.2 128.5 133 128.3C133.2 128 133.8 127.8 133.3 127.8C133.6 127.5 134 127.3 134.4 127.1C134.6 127.2 133.6 128.1 134 128.2C134.2 127.8 134.7 126.9 135.3 126.2C135.8 125.5 136.3 125 136.4 125.5C136.7 125.2 136.7 124.6 137.2 124.5C137.2 124.1 137.5 123.6 137.8 123.2C138.1 122.7 138.5 122.2 138.5 121.6C139 121.7 139.3 120.8 139.4 121.3C139.8 121 139.4 120.8 139.6 120.2L139.7 120.1C140 120.1 140.3 120.1 140.5 119.9C140.4 120.1 140.3 120.3 140.4 120.5C140.6 120.2 140.8 119.9 141 119.5C141.1 119.4 141.3 119.3 141.4 119.2C141.9 118.9 142.2 119.1 142.3 119.6C143.1 119.2 143.2 118.5 143.3 117.8C143.3 117.6 143.1 117.5 142.9 117.7C142.6 118.1 142.2 117.6 142 117.6C141.6 117.7 141.3 118.1 141 118.4C140.9 118.5 140.9 118.5 140.8 118.5C141 118.2 141.1 117.9 141.2 117.5C141.6 117.6 142 116.7 141.8 116.5C142.3 116.3 142.3 115.8 142.7 115.6C142.5 115.6 142.3 115.8 142 115.8C142.2 115.3 142.8 114.9 143 114.8C143.4 114.2 142.9 114.3 143.7 113.6C143.6 113.5 143.4 113.6 143.5 113.3C143.3 113.9 142.9 114.4 142.4 114.8C143 113.9 143.4 113 143.9 112.1C144 112.1 144 112.2 144.1 112.1C144 112.6 143.3 113.2 143.6 113.5C144.1 112.9 144 112.1 144.8 111.4C144.8 111.2 144.8 111.1 144.9 111C144.9 111 145 111 145 110.9C145.5 110.6 145.7 109.9 146.3 109.7C146.5 109.7 146.6 109.5 146.8 109.4C147.3 109.2 147.9 109.4 148.2 109.8C148.4 110 148.5 110.3 148.5 110.5C148.7 111.1 149.2 110.9 149.6 110.9C149.7 110.6 149.8 110.4 150.1 110.4C150.8 110.5 151.4 110.2 151.6 109.6C151.9 109 152.3 108.6 152.6 108.1C152.9 107.7 152.7 107.4 152.3 107C152 107.2 151.7 107.2 151.4 107.2ZM148.4 50.2C148.4 50.6 148.3 50.7 148.1 50.6C148.1 50.4 148.2 50.2 148 50C147.9 49.9 147.8 49.8 147.8 49.6L148.4 50.2ZM22 22.2C22 21.9 22.1 21.6 22.4 21.3C22.4 21.7 22.9 21 22.7 20.9C23.1 20.7 23.1 21 23.1 21.2C22.6 21.6 22.8 21.6 22 22.2ZM29.9 16C30.4 15.7 31.4 14.8 31.6 15.1C31 15.4 30.5 15.8 29.9 16ZM32.4 14.4C32.6 14.1 33.6 13.8 33.6 14.1C33.3 14.1 32.4 14.7 32.4 14.4ZM41.7 10.4C42.1 10 42.5 9.4 43 9.4C42.7 9.8 42.2 10.3 41.7 10.4ZM43.9 8.7C43.6 8.5 43.3 8.8 42.7 8.8C43.6 8.3 44.1 7.3 44.8 7.6C44 8 44.2 8.3 43.9 8.7ZM44.9 8.1C45.1 7.8 44.7 7.7 45 7.4C45.6 7.3 45.4 7.6 46 7.5C45.7 7.8 45.3 7.9 44.9 8.1ZM45.6 8.7C45.8 8.5 46.6 8.1 46.3 8C45.9 7.9 45.1 8.6 45.1 8.2C45.6 8 46.1 7.7 46.6 7.7C46.5 8 46.6 8 46.9 8C46.5 8.4 46.1 8.6 45.6 8.7ZM46.1 7.5C46.4 7 47.5 7 47.4 7.2C47 7.4 46.6 7.5 46.1 7.5ZM52.6 6C52 6.1 51.9 5.8 51.2 6.3C51.2 6.5 52.1 6.2 51.7 6.6C51.2 6.8 50.8 6.8 50.5 6.6C51.1 6 52.6 5.4 53 5.7C52.6 5.7 52.8 5.9 52.6 6ZM56.4 3.6C55.7 3.9 55 3.9 54.2 4.1C55 3.7 55.7 3.5 56.4 3.6ZM54.8 5.5C54.5 5.6 54.2 5.6 53.9 5.5C54.2 5.2 54.6 5.1 55 5.2C54.9 5.3 54.9 5.4 54.8 5.5ZM56 5.6C56.3 5.3 56.8 5.5 57.1 5.4C56.8 5.8 56.4 5.6 56 5.6ZM59.8 3.2C60.6 3.2 59.3 3.6 59.7 3.7C60.1 3.8 60.4 3.3 60.8 3.5C60.1 4 59.3 4 58.5 4.1C58.7 3.8 59.5 3.7 59.8 3.2ZM60.3 5C60.3 4.9 60.6 4.5 61 4.5C60.9 4.7 60.9 5 60.3 5ZM63.5 3.9C62.8 3.8 63.1 3.3 63.6 3.2C64 3.4 64 3.6 63.5 3.9ZM66 4.8C65.8 4.7 65.6 4.8 65.4 4.8C65.6 4.7 65.9 4.5 66.1 4.4C66.5 4.4 66.2 4.6 66 4.8ZM65.5 3.3C65.3 2.9 64.8 3.3 64.2 3.2C64.8 2.9 65.4 3.1 66.1 2.7C66.3 2.8 66.6 2.8 66.8 2.8C66.1 3.1 65.9 2.9 65.5 3.3ZM69 3.5C68.8 3.5 68.5 3.5 68.3 3.4C68.9 3.2 68.7 3.1 69.3 3.1C69 3.2 69.5 3.3 69 3.5ZM67.1 3C67.9 2.9 70.2 2.3 70.1 3C69.2 2.6 67.5 3.4 67.1 3ZM74.1 2.9C74.3 2.8 74.1 2.7 74.3 2.6C74.6 2.8 75 2.5 75.3 2.8C74.9 2.9 74.5 3 74.1 2.9ZM80.4 3.5L81.3 3.2C81.7 3.6 82.2 3.2 82.6 3.5C81.8 3.6 81.1 3.5 80.4 3.5ZM8.3 46.5C8.3 46.3 8.1 46.3 8.2 45.9C8.4 45.8 8.5 45.5 8.7 45.4C8.7 45.9 8.7 46.3 8.3 46.5ZM10.2 43.3C9.7 43.3 9.9 43.8 9.5 44.2C9.1 44.1 10.3 42.3 10.2 43.3ZM12.6 40.5C12.2 40.8 12.3 40.2 11.9 40.8C12 39.7 12.8 40 13.3 39.3C13.2 39.9 12.5 39.9 12.6 40.5ZM16.1 37.1C15.8 36.9 15.7 37.5 15.7 37.9C15.1 38.1 15.6 36.6 16.2 36.3C16.4 36.4 16.2 36.8 16.1 37.1ZM3.3 88.5C3.5 88.5 3.8 89.2 3.8 89.6C3.6 89.6 3.1 88.9 3.3 88.5ZM8 113.6C8 113.2 8 113 7.7 113.1C7.6 112.4 8.4 113.5 8.3 113.8C8.2 113.6 8.1 113.6 8 113.6ZM9 113.7C8.5 112.9 8.3 112.9 7.6 112.3C7.7 111.9 7.4 111.6 7.1 111.4C7.2 110.9 7.1 110.8 7.4 110.4C6.9 109.8 6.8 110.4 6.7 110.6C6.4 109.4 7 109.3 7.6 109.9C7.6 111 8.8 111.6 9 112.6C9 113.2 8.6 112.2 8.5 112.5C8.8 112.9 9.2 113.6 9 113.7ZM9.1 112.9C9.4 113.2 9.7 113.5 9.6 113.9C9.3 113.6 9.1 113.3 9.1 112.9ZM10.2 115.5C10.7 116.1 11.3 116.6 11.4 117.3C11.1 116.7 10.4 116.3 10.2 115.5ZM12.2 119.1C12.2 119.5 12.7 119.6 12.7 120C12.3 119.9 11.9 119 12.2 119.1ZM12.6 99.3C12.4 98.7 12.1 98.1 11.9 97.5C12.2 97.5 12.3 97.3 12.5 97.1C12.9 96.6 13 96.6 13.3 97C13.8 97.9 13.8 98.5 13 99.2C12.9 99.3 12.8 99.4 12.7 99.5C12.6 99.3 12.6 99.3 12.6 99.3ZM13.1 95.3C13.3 95.4 13.5 95.4 13.5 95.5C13.6 95.6 13.5 95.8 13.3 95.7C13.2 95.6 13.2 95.4 13.1 95.3ZM33.7 21C33.5 21 33.4 21.2 33.2 21.2C32.9 21 33.7 20.1 34.4 19.9C34.1 20.3 33.9 20.6 33.7 21ZM100.2 10.2C100 10.2 99.8 10.2 99.6 10.2C99.2 10.1 98.9 9.9 98.6 9.8C98.6 9.7 99.3 9.7 99.6 9.8C99.4 9.9 100 10 100.2 10.2ZM100.9 10.9C101.2 11 101.6 11.1 101.9 11.3C101.4 11.3 101.3 11.6 100.7 11.3C101 11.3 100.5 10.9 100.9 10.9ZM109 14.8C109.1 15.2 110.1 15.2 109.7 15.4C109.4 15.3 108.4 14.9 109 14.8ZM124.6 21.7C125 21.9 125 21.3 125.4 21.9C125.3 21.9 125.3 21.9 125.3 22C125.2 21.9 125.1 21.8 125 21.7C124.9 21.8 124.8 21.9 124.7 21.9C124.6 21.8 124.6 21.8 124.6 21.7ZM132.6 36.3C132.5 36.2 132.4 36.2 132.2 36.2C131.9 36 131.5 35.5 131.5 35.2C131.7 35.3 131.7 35.1 131.8 35.1C132.4 35.8 131.8 35.8 132.6 36C132.6 36.2 132.6 36.3 132.6 36.3ZM151.8 70.2C151.7 70 151.6 70.3 151.5 70.3C151.1 69.5 151.1 68.7 151.2 67.9C151.4 68.3 151.6 68 151.8 68.4C151.7 69.1 151.8 69.7 151.8 70.2ZM150.7 67.7C150.8 67.5 150.8 67.3 150.7 67.1C151 67.4 151.1 66.5 151.4 67.2C151.3 68 151 67.9 150.7 67.7ZM47.2 17.5L47.1 17.6H47C47 17.6 47 17.6 46.9 17.5C46.9 17.5 46.9 17.4 47 17.3C47 17.3 47 17.3 47.1 17.3C47.1 17.4 47.1 17.5 47.2 17.5ZM72.3 13.7C72.3 13.7 72.3 13.6 72.4 13.5C72.5 13.5 72.5 13.5 72.6 13.5C72.7 13.6 72.7 13.7 72.5 13.8C72.4 13.9 72.3 13.8 72.3 13.7ZM89.6 14.4C90.4 13.8 91.6 15 92.7 14.8C92.6 14.9 93.1 15.2 92.8 15.2C93.1 15.2 93.3 15.2 93.6 15.2C93.7 15.4 93.8 15.6 93.7 15.7C93.5 15.8 93 15.3 92.5 15.5C92.8 15.5 93.3 15.7 93.5 15.9C93 15.8 92.4 15.6 91.8 15.5C91.8 15.4 92.1 15.3 91.8 15.1L91.1 15.2C91.2 15.3 91.2 15.3 91.3 15.4C90.8 15.3 90.4 15.2 89.9 15.1C89.7 15 89.6 14.9 89.4 14.9C89.8 14.8 90 15.4 90.5 15.1C90.2 14.7 89.7 14.9 89.3 14.7C89.2 14.7 89.3 14.8 89.3 14.9C89.2 14.8 89.1 14.8 88.9 14.7H89C88.8 14.7 88.7 14.6 88.5 14.6C88.2 14.5 87.8 14.3 87.4 14.3C87.3 14.3 87.1 13.8 87.2 13.7C87.4 13.7 87.7 13.7 87.8 13.6C88.1 13.8 87.9 13.9 88.3 14.2C88.9 14.2 89.3 14 89.6 14.4ZM123.3 26.5C123.7 26.7 123.5 26.4 124 26.6C124.1 26.9 124.2 27.1 124.4 27.3C124.2 27.2 124.1 27.1 123.9 27C123.7 26.8 123.5 26.6 123.3 26.5ZM124.4 26.6C124.5 26.8 124.6 26.9 124.7 27C124.7 27.1 124.6 27.1 124.6 27.2C124.3 26.9 124 26.6 124.4 26.6ZM68.3 8C68.3 7.9 68.3 7.8 68.3 7.7C68.5 7.7 68.6 7.7 68.8 7.8C68.6 7.9 68.5 8 68.3 8ZM128.2 133.8C128.3 133.9 128.4 133.9 128.4 134C128.3 134.2 128.1 134.2 128 134C128 133.9 128.2 133.9 128.2 133.8ZM126.6 29.2C126.7 29.2 126.8 29.1 126.9 29.1C127.2 29.2 127.5 29.5 127.5 29.8C127.1 29.8 126.8 29.5 126.6 29.2ZM120.2 23.5C120.4 23.5 120.9 23.7 121 24.1C120.7 24 120.4 23.8 120.2 23.5ZM121.7 23.7C121.4 23.3 120.6 22.9 120.1 22.4C120.1 22.3 120.1 22.3 120 22.2C120.1 22.2 120.1 22.2 120.1 22.2C120.8 22.8 121.6 23.3 121.7 23.7ZM115.9 19.2C115.7 19.2 115.5 19.2 115.4 19.2C115.4 19.1 115.3 19 115.3 19C115.6 18.9 115.5 18.8 115.3 18.5C115.6 18.6 115.8 18.9 115.9 19.2ZM103.5 13C103.5 13.1 103.6 13.1 103.4 13.1C102.8 12.6 103.1 13.3 102.7 13.2C102.5 13 102.1 13 101.9 12.7C102.6 12.8 102.7 12.6 103.2 12.5C103.4 12.7 103.5 12.8 103.7 12.9C103.7 12.9 103.6 12.9 103.5 13ZM102 7.7C102.3 7.7 102.8 7.5 103.1 7.8C103 7.9 102.3 8 102 7.7ZM102.3 10.9C102.4 11.1 102.7 11.3 102.5 11.3C102 10.9 101.2 11.1 100.8 10.5C101.6 10.6 101.8 11 102.3 10.9ZM92.8 10.6L92.5 10.3C92.9 10.2 93.2 10.2 93.4 10.5L92.8 10.6ZM88.7 7.9C89.5 7.7 89.2 8.2 90 8.4C89.5 8.4 88.7 8.1 88.7 7.9ZM77.5 13.1C77.5 13.3 77.4 13.3 77.3 13.3C77.3 13.3 77.3 13.3 77.2 13.3H77.1C76.9 13.1 76.7 13 76.5 12.8C76.4 12.7 76.4 12.6 76.4 12.5C76.8 12.5 77.1 12.5 77.5 12.5C77.5 12.6 77.5 12.9 77.5 13.1ZM72.3 12.9C72.1 13 71.7 12.8 71.6 12.4C72 12.5 72.5 12.6 73 12.6C72.8 12.6 72.5 12.8 72.3 12.9ZM72 11.9C72.4 12 72 12.2 72.5 12.3C72.2 12.5 71.9 12.4 71.6 12.4C71.6 12.4 71.6 12.4 71.6 12.3C71.6 12.2 71.6 12.2 71.6 12.1C71.7 12.1 71.8 12 72 11.9ZM68.7 7.3C68.6 7.3 68.5 7.3 68.4 7.3C68.4 7.2 68.4 7.1 68.4 6.9C68.5 7.1 68.6 7.2 68.7 7.3ZM55.8 10.9C55.7 11 55.6 11 55.4 11C55.3 10.9 55.3 10.9 55.2 10.9C55.4 10.7 55.7 10.7 55.9 10.7C55.9 10.8 55.9 10.9 55.8 10.9ZM36.7 24.4C36.7 24.5 36.8 24.5 36.8 24.6C36.7 24.6 36.7 24.7 36.6 24.7C36.6 24.7 36.5 24.7 36.5 24.6C36.6 24.6 36.7 24.5 36.7 24.4ZM18.7 109.9C18.8 109.9 19 109.9 19 110.1C18.8 110.1 18.7 110 18.7 109.9ZM118.4 140.7C118.3 140.8 118.2 140.8 118.1 140.8C118.2 140.7 118.2 140.7 118.3 140.6H118.5C118.5 140.6 118.4 140.6 118.4 140.7ZM150.6 94.8C150.5 94.4 150.5 95.2 150.2 95.3C150.1 95 150.5 94.1 150.6 94.4C150.5 94.6 150.7 94.5 150.6 94.8ZM151.5 91.9C151.4 91.8 151.3 91.7 151.3 91.6C151.4 91.5 151.5 91.7 151.5 91.9ZM150.8 86.7C150.6 86 150.6 85.4 150.9 84.9C150.9 85.6 151 86.3 151.1 86.4C151 86.5 150.9 86.4 150.8 86.7ZM151.6 82.5C151.4 82 151.4 81.5 151.4 81H151.5C151.5 80.9 151.5 80.9 151.5 80.8L151.4 80.7C151.4 80.5 151.5 80.3 151.5 80.1C151.9 81 151.5 81.7 151.6 82.5ZM151.5 79.9C151.6 79.7 151.5 79.4 151.6 79.2C151.7 79.4 151.8 79.1 151.9 79.2C151.9 79.3 151.9 79.5 151.9 79.6C151.7 80 151.6 80.1 151.5 79.9ZM151.9 74.6C151.6 74.1 151.4 73.2 151.8 73.2C152 73.7 151.8 74.1 151.9 74.6ZM152.1 78.1C152.3 78.5 152.3 79.6 152 79.5C152.1 79.1 151.9 78.6 152.1 78.1ZM152.3 83C151.9 82.7 152 81.8 152.1 81.1C152.3 81.8 152.5 82.4 152.3 83ZM152.4 76.3C152.5 76.7 152.6 77.2 152.5 77.6C152.2 77.2 152.4 76.8 152.4 76.5C152.3 76.6 152.3 76.8 152.2 76.6C152.3 76.4 152.3 76.4 152.4 76.3ZM152.6 71.2C152.5 71.5 152.4 71.4 152.3 71.6C152.4 71.7 152.4 71.7 152.5 71.7C152.5 71.8 152.4 71.9 152.4 72C152.4 72 152.3 72 152.3 71.9C152.2 71.8 152.2 71.7 152.1 71.5C152.2 71.3 152.3 71.1 152.2 70.9C152.1 71 152 70.8 151.9 70.6C151.9 70.5 152 70.3 152 70.2C152.3 71.1 152.2 71 152.6 71.2ZM152 68.4C151.9 68.3 151.9 68.4 151.8 68.5C151.9 68.7 152 68.9 151.9 69.1C151.7 68.3 151.6 67.6 151.6 66.8C151.8 67.6 152 67.8 152 68.4ZM151.4 64.3C151.4 64.9 151.8 66.3 151.5 66.4C151.5 66 151.3 65.6 151.2 65.1C151.1 65.3 151.2 65.6 151.1 65.8C150.9 65.4 150.7 64.8 150.5 64.9C150.8 64.6 151.1 64.4 151.4 64.3ZM149.9 60.2C150.1 60.6 150.2 60.9 150.1 61.3C150 61 149.9 60.6 149.7 60.3V60.2C149.8 60.3 149.9 60.3 149.9 60.2ZM149.2 56.5C149.1 56.4 149.2 57.1 149.2 57.2C149.3 57.3 149.4 57.2 149.6 57.3C149.8 58 149.6 58.3 149.1 57.8C149 57.1 148.7 56.3 148.6 55.6C148.9 56.2 149.1 56.3 149.2 56.5ZM147.4 51.7C147.3 52.1 147.8 52.3 147.6 52.7C147.3 52.3 147 51.4 147.4 51.7ZM147.1 49C147.1 49.2 147.1 49.6 147 49.5C146.9 48.8 146.7 48.5 146.3 48.4C146.5 47.8 146.8 48.5 147.1 49ZM145.9 46.7C145.4 46.1 145.1 45.5 144.8 44.8C145.3 45.4 145.8 45.9 145.9 46.7ZM143.9 44C144.3 44.2 145.1 45.6 144.9 46C145.5 46.2 145.2 46.6 145.4 47C145.6 46.5 146.1 47.1 146.4 47.3C146.4 48 145.5 46.7 145.6 47.4C145.8 47.5 145.8 47.4 146.1 47.7C146.2 47.9 146.3 48.8 146.1 48.6C146 48.2 145.4 47.4 145 46.7C144.6 46.1 144.2 45.6 144.8 45.7C144.4 45.4 143.6 44.3 143.9 44ZM143.5 43.9C143.2 43.5 142.9 43.1 142.8 42.6C143.3 43 143.4 43.4 143.5 43.9ZM138 45.3C138.1 45.9 138.5 45.6 138.8 46.2C138.8 47.1 137.5 45.5 138 45.3ZM133.9 37.1C134 37.3 133.9 37.4 133.8 37.4C133.5 37.1 133.2 36.9 132.8 36.8C132.8 36.8 132.8 36.8 132.8 36.9L132.7 36.8C132.7 36.8 132.7 36.8 132.8 36.8C132.8 36.7 132.8 36.7 132.8 36.7C133.3 36.7 133.3 37.1 133.9 37.1ZM131.1 33.8C131.6 34 131.9 35 132.3 34.8L132.4 35.4C132 35.3 131.9 34.9 131.7 35C131.4 34.3 131.1 34 130.7 34.1C130.4 33.6 130.8 33.9 130.8 33.7L130.1 33.4C130 32.7 130.6 33.1 129.9 32.2C130.4 32.6 131.2 33.5 131.1 33.8ZM127.2 22.9C126.8 22.8 126.5 22.6 126.4 22.3C126.8 22.4 127.1 22.6 127.2 22.9ZM126.3 20.9C126.2 20.9 125.6 20.7 125.6 21C125.9 21.1 126.1 21.5 126.2 21.8C125.5 21.4 124.7 21.2 124.4 20.6C125.4 21.1 125.5 19.7 126.3 20.9ZM123.5 19.2C123.7 19.6 124.2 19.5 124.3 20C123.9 20 123.2 19.3 123.5 19.2ZM124.4 20.4C123.8 20.3 123.6 19.9 123.2 19.6C123.6 19.8 124.1 20 124.4 20.4ZM114 17.5C113.2 17.2 112 16.5 111.1 16C110.8 15.9 110.5 15.7 110.2 15.6C110.1 15.6 110.1 15.5 110 15.4C110.6 15.4 110.9 15.6 111 15.1C111.4 16.3 113 16.7 114 17.5ZM111.8 11.2C111.7 11.3 111.5 11.3 111.1 11.2C110.9 10.8 110.4 10.8 110.2 10.4C110.3 10.4 110.4 10.4 110.5 10.4C110.8 10.9 111.2 10.8 111.8 11.2ZM109.2 8.9C109.9 9.3 110.7 9.4 111.2 10C110.5 9.7 110.5 10.2 109.9 9.9C109.3 9.4 110.2 9.4 109.6 9.2C109.3 9.2 109.6 9.5 109 9.4C108.7 9.1 109 9 109.2 8.9ZM110 10.3C109.4 10.3 109 10.1 108.6 9.8C109.1 9.9 109.7 9.9 110 10.3ZM108.4 14.4C108.3 14.6 107.8 14.3 107.3 14.4C106.5 13.9 106.5 13.7 106 13.9C105.5 13.7 105.5 13.4 105.7 13.3C104.7 13.1 103.2 12.4 103 11.8C103.9 12.5 105.2 12.8 106.1 13C105.9 13.1 105.9 13.3 106.1 13.6C106.3 13.4 106.3 13.4 106.9 13.6C107.1 13.8 106.9 13.8 106.9 13.9C107.3 13.7 107.2 13.9 107.7 14.1C107.4 13.8 108.2 14.1 108.4 14.4ZM107.9 13.8C107.5 13.7 107.1 13.6 106.7 13.4C107 13.4 105.7 12.9 106.4 12.8C106.9 13.2 107.4 13.4 107.9 13.8ZM107.6 8.9C107.3 8.9 107.8 9.2 107.6 9.2C107.3 8.9 106.9 9 106.6 8.6C107 8.6 107.4 8.6 107.6 8.9ZM107.6 11.5C107 11.3 106.6 11.1 106 10.9C106.2 10.7 107.7 11.2 107.6 11.5ZM104.6 7.5C105.2 7.9 105.9 8.1 106.5 8.5C105.6 8.3 104.9 7.8 104.1 7.5H104.6ZM103.9 7.3C103.7 7.3 103.6 7.4 103.5 7.4C103.2 7.2 102.2 6.9 102.4 6.7C102.9 7 103.6 6.9 103.9 7.3ZM100.6 5.9C101.3 5.9 102 5.8 102.8 6.4C102.4 6.5 102.1 6.2 101.7 6.3C102 6.6 102.4 6.6 102 6.7C101.6 6.5 100.4 6.2 100.6 5.9ZM98.5 5.2C99.1 5.7 99.9 5.3 100.3 5.4C100.8 5.9 99.9 5.6 99.5 5.8C99.3 5.5 98.9 5.7 98.6 5.7C98.4 5.4 98.3 5.2 98.5 5.2ZM94.7 8.2C95.1 8.4 95.5 8.3 95.9 8.6C95.5 8.5 94.4 8.5 94.7 8.2ZM93.9 6C93.5 6.1 93.2 6.1 92.9 5.8C93.3 5.7 93.7 5.7 93.9 6ZM91.1 7.2C91.5 7.4 91.9 7.3 92.3 7.5C91.9 7.6 90.8 7.5 91.1 7.2ZM93.2 8.1C93.9 8.9 95.6 8.6 96.7 8.9C96.5 9 95.8 8.9 96 9.1C96.5 9.1 97 9.3 97.6 9.2C97.4 9.1 97.1 9 97.3 8.9C97.7 9.3 99 9.2 98.9 9.6C98.3 9.2 97.2 9.4 97.6 9.9C97.8 9.6 98.7 9.9 99.2 10.2C99.1 10.2 99.1 10.2 99 10.3C98.4 10.1 97.7 9.8 97.8 10.2C98 10.2 98.3 10.3 98.4 10.5C97.3 10.5 97.1 9.6 96.7 9.4C96.4 9.4 96.2 9.5 95.9 9.5C95 8.8 94 8.7 92.9 8.5C92.7 8.8 92.2 8.9 91.9 8.9C92 8.4 91.4 9 90.9 8.6C91.9 8.3 92.6 8.3 93.2 8.1ZM89.8 8.7C90.1 8.9 90.3 8.6 90.4 8.6L90.9 9C90.5 9 89.5 8.9 89.8 8.7ZM89.7 6.8C89.4 6.7 89.1 6.8 88.9 6.5C89.2 6.3 90 6.7 89.7 6.8ZM89 7C89.5 7.5 90.2 7.3 90.8 7.6C90.4 7.8 90.8 8.1 90 8C89.4 7.7 89.9 7.6 89.9 7.5C89.5 7.5 89.1 7.3 88.6 7.4C88.1 7.2 88.5 7.1 89 7ZM88 4.2C88 4.4 87.2 4.4 86.8 4.2C87.2 4 87.6 4.1 88 4.2ZM86 7.1C86 7 85.9 6.8 86.5 6.7C87.1 7 86.4 7.4 86 7.1ZM85.6 6.1C86 5.9 86.3 6.1 86.6 6.2L86 6.4L85.6 6.1ZM83.1 3.7C83.6 3.6 84.1 3.3 84.6 3.6C84.1 3.8 83.5 4 83.1 3.7ZM84.6 3.8C85.3 3.8 86 4 86.7 4.2C86 4.1 84.7 4.1 84.6 3.8ZM85.8 6.7C85.6 6.8 86 7.1 86 7.2C85.6 7.4 85.3 7.2 85 7C85.4 7 85.4 6.5 85.8 6.7ZM84.8 7.2C85.2 7.5 86.3 7.3 86.2 7.6C85.8 7.6 84.4 7.6 84.8 7.2ZM73 12.4C72.7 12.3 72.6 12.2 72.8 12C73.3 12.1 73.9 11.6 74.4 12C73.9 12.2 73.5 12.2 73 12.4ZM73.2 6.7C73 7 72.8 7.1 72.6 7.2C72.3 7.2 72 7.2 71.7 7.2C71.6 7 72.2 6.8 72 6.7C72.4 6.7 72.8 6.7 73.2 6.7ZM72.1 6.4C72 6.4 72 6.3 72 6.2C72.1 6.3 72.1 6.4 72.1 6.4ZM71.8 6.1C71.7 6.1 71.6 6.2 71.6 6.2C71.6 6.3 71.7 6.4 71.7 6.5C71.5 6.5 71.4 6.3 71 6.2C71.3 6 71.6 6 71.8 6.1ZM70.8 7C71.1 7.2 71.4 6.5 71.8 6.9L71 7.2C70.9 7.1 70.6 7.1 70.8 7ZM70.5 7C70.4 7 70.2 7.1 70.1 7.1C70.1 7 70.1 7 70 6.9C70.2 7 70.4 7 70.5 7ZM67.5 6.4C68.1 6.2 68.5 6.3 68.9 6.4C68.8 6.4 68.6 6.5 68.5 6.6C68.5 6.6 68.5 6.5 68.4 6.5C67.8 6.8 67.5 6.9 67.4 7.1C67.3 7.1 67.1 7.2 67 7.2C66.9 7.1 66.9 7 66.7 6.9C67.1 6.6 67.4 6.7 67.8 6.5C67.7 6.5 67.3 6.6 67.5 6.4ZM66.8 7.2C66.4 7.5 66.1 7.4 65.7 7.5C65.7 7.1 66.4 7 66.8 7.2ZM64.9 7.2C64.5 7.3 64.1 7.8 63.7 7.6C64.1 7.3 64.5 7.2 64.9 7.2ZM62.1 7.5C62.4 7.5 62.6 7.5 62.9 7.6C62.6 7.9 61.8 7.8 62.1 7.5ZM59.4 8.7C59.6 8.8 59.7 8.8 59.9 8.8C59.9 8.9 59.9 8.9 59.9 9C59.9 9 59.9 9 60 9C60 9.1 59.9 9.1 59.8 9.2C59.5 9 59.3 9 58.8 9.4C58.5 9.4 58.4 9.3 58.4 9.2C58.7 8.9 59 8.8 59.4 8.7ZM56.7 8.4C56.3 8.4 56 8.7 55.6 8.6C55.8 8.2 56.8 8.1 56.7 8.4ZM55.1 8.3C55.7 8.2 55.6 8.7 55.1 8.8C55.4 8.5 54.6 8.6 55.1 8.3ZM55.2 9.7C55.9 9.7 56.6 9.2 57.3 9.1C57 9.7 56.1 9.7 55.2 10C55.1 10.1 55.2 10.2 54.8 10.2C54.8 10.1 54.9 9.9 55.2 9.7ZM51.5 9.7C51.1 10.1 50.6 10.4 50.1 10.3C50.5 9.9 51 9.8 51.5 9.7ZM45.7 11.6C46.2 11.7 46.6 11.4 47.1 11.4C46.7 11.8 46.1 11.7 45.8 12.3C45.5 12.2 45.3 12.5 44.9 12.4C45.4 11.9 45.3 12.1 45.7 11.6ZM42 13.4C42.8 13.4 43.2 12.6 44 12.7C44 12.9 41.8 14 42 13.4ZM42.5 19.6C42.7 19.2 43 19.2 43.2 18.9C43.9 18.8 42.9 19.5 42.5 19.6ZM38.6 22.3C39 22 39.3 21.6 39.6 21.1C40 21 40.1 21.1 39.8 21.4C40.4 20.9 41.2 20.6 41.9 20.3C42.6 20 43.3 19.6 43.8 18.9C44.1 18.8 44 19 44.1 19.1C43.8 19.3 43.5 19.6 43.2 19.8C42.9 20 42.8 20.4 43.1 20.7C43.6 21.2 43.5 21.7 43 22.1C42.6 22.4 42.6 22.7 42.7 23C42.4 23.2 42.1 23.4 41.8 23.7C41.7 23.7 41.7 23.6 41.7 23.6C41.7 23.5 41.8 23.5 41.8 23.4C41.9 23.1 41.9 22.9 41.7 22.7C41.5 22.5 41 22.5 40.8 22.9C40.6 23.2 40.6 23.6 40.1 23.6C39.5 23.6 39.1 23.9 38.7 24.3C38.6 24.4 38.6 24.4 38.5 24.5C38.3 24.7 38.2 24.7 38.1 24.5C38.1 24.4 38 24.3 38 24.3C37.9 23.7 38.2 23.3 38.5 22.8C38.6 22.6 38.5 22.4 38.3 22.3C38.4 22.2 38.4 22.2 38.5 22.1C38.6 22.2 38.7 22.2 38.6 22.3ZM35.2 21.9C34.7 22.1 34.4 22.5 33.9 22.6C34.1 22.2 35.1 21.7 35.2 21.9ZM32.3 20C32.7 20.2 33.2 19.5 33.8 19.2C33.5 19.9 34.3 18.9 34.7 19.1C34.3 19.6 33.6 19.6 33.2 20.1C32.5 21.1 33.2 21.5 32.1 22C32.6 21.3 33 20.1 31.8 20.7C31.6 20.6 32.1 20.3 32.3 20ZM31.3 23.3C30.9 23.7 30.6 24.1 30.2 24.3C30.4 23.7 30.9 23.6 31.3 23.3ZM31.4 27.3C31.5 27.1 31 27.3 31.1 27.1C31.3 26.9 31.5 26.8 31.8 26.7C31.8 26.6 31.8 26.4 32 26.1C32.3 25.6 32.5 26.1 32.8 25.4C33 25.4 33 25.6 32.8 25.9C33.5 25.5 33.8 25.3 34.2 25.1C34.4 25.2 34.5 25.3 34.7 25.1L36.6 25.5C36.6 26.2 36 26.5 35.5 26.9C34.7 27.7 34 28.7 33 29.2C32.9 29.3 32.9 29.6 32.8 29.6C32.5 29.7 32.5 29.4 32.4 29.3C31.4 29.7 30.9 30.8 30 31.3C29 31.9 28 32.5 27.1 33.2C26.7 33.5 26.2 33.7 25.8 34C25.4 34.4 25 34.6 24.5 34.8C24.1 35 24 35.8 23.3 35.4C22.8 35.1 22.4 35.5 22.1 35.7C22.9 34.8 23.7 34 24.6 33.3C24.4 32.7 25.5 31.9 25.9 32C25.9 31.6 25.4 31.7 25.4 31.3C25.9 30.7 26.1 31.1 26.6 30.4C26.7 30.4 26.6 30.6 26.6 30.8C27.1 30.4 27.4 29.7 28 29.4C27.9 30.5 29.4 28.6 30.5 28.3C30.8 27.8 30.3 28.1 30.1 28.2C30.9 27.4 30.6 27.8 31.4 27.3ZM24.3 27.8C24.1 28.2 23.9 28.4 23.5 28.6C23.4 28.5 23.6 28 23.8 27.7C24.4 27.3 23.8 28.1 24.3 27.8ZM27.2 28.6C27.1 28.9 27 29.3 26.6 29.4C26.7 29.2 26.7 29.1 26.4 29.2C26.1 29.6 26.5 29.5 26.3 29.9C25.7 30.2 26.2 29.3 26.1 29.1C26.5 28.8 26.5 29.3 26.6 28.9C26.7 28.6 26.3 28.7 26.4 28.5C26.6 28.4 26.8 28.4 27 28.3C27.1 28.4 26.9 28.7 27.2 28.6ZM25.6 28.9C26.3 28.3 25.6 28.4 26.3 27.8C26.3 28.1 26.2 28.4 25.6 28.9ZM25.2 26.8C25.3 26.6 25 26.7 25 26.6C25.7 26.3 26 25.5 26.7 25.2C26.1 25.7 25.9 26.6 25.2 26.8ZM25.4 29.7C24.9 29.5 24.8 30.3 24.2 30.6C24.1 29.9 25.3 29 25.4 29.7ZM28.7 28.9C29 28.4 29.5 28 30 27.8C29.7 28.4 29.3 28.7 28.7 28.9ZM29.2 25C28.8 25 28.7 25.4 28.4 25.5C28.5 25.3 28.6 25.1 28.7 24.9C28.8 25 29.1 24.9 29.2 25ZM28.4 21.3C28.6 21.1 29.2 21 29 21.4C28.6 21.5 28.3 21.6 28.4 21.3ZM25 23.6C25.1 23.4 25.4 23.4 25.6 23.2C25.3 23.3 25.2 23.3 25.1 23.2C25.4 22.7 25.8 22.6 25.4 22.5C25.7 22.3 25.9 22 26.3 22C26.2 22.2 25.9 22.4 26.1 22.4C26.5 22.1 26.9 21.8 27.3 21.6C27 22.2 27.4 21.6 27.7 21.6C27.6 22 27.1 21.9 27 22.3C27.6 22.3 27.9 21.9 28.3 21.7C28.5 21.7 29.1 21.7 28.4 22.2C28.5 21.8 27.9 22.5 27.7 22.4C27.5 23.1 26.8 23.1 26.5 23.6C26 23.6 25.7 23.8 25.2 24.3C25.1 24.5 25.6 24.3 25.5 24.5C24.4 25.1 24.7 24.4 24.8 23.6C25 23.3 24.9 23.6 25 23.6ZM24.3 23.2C24.2 23.5 24.7 23.1 24.5 23.5C24.1 24 23.7 23.6 24.3 23.2ZM23.5 26.4C24 25.9 23.7 26.6 24.3 26.2L24 27C23.8 27 23.2 27.6 23.3 27.3C23.5 27 23.8 26.9 24 26.6C24.1 26.3 23.2 27 23.5 26.4ZM23.4 27.8C23.3 28.2 23 28.4 22.7 28.4L22.9 27.8C23.2 27.8 23.2 27.9 23.4 27.8ZM18.5 34.4C18.3 34.5 18.1 34.6 18.1 34.4C18.3 34.2 18.1 34 18.6 33.7L18.5 34.4ZM18.5 33.6L18.8 33.5C18.8 33.2 18.6 33.1 18.5 33C18.8 32.9 18.8 32.5 19.1 32.4C18.7 33.6 19.9 31.8 20 32.3C19.4 32.5 18.9 33.8 18.5 33.6ZM18.4 31.7C19 31.3 18.7 31.3 19.1 30.8C18.9 30.8 19.1 30.4 19.1 30.2C19.3 29.9 19.6 29.6 19.9 29.3C20.1 29.3 20.1 29.6 20.2 29.8C20.3 29 20.9 28.6 21.3 28C22 27.9 22.4 27.4 23.2 26.9C23.1 27.5 21.9 28.3 21.2 28.9C21.4 28.8 21.5 28.9 21.5 29C20.9 29.6 20.7 29.7 20.8 29.3C20.4 30 19.2 31.7 18.4 31.7ZM21.8 29.4C21.7 29.9 20.9 30.5 21 30C21.3 29.8 21.5 29.5 21.8 29.4ZM20.4 31.8C20.4 31.6 20.2 31.7 20 31.8C20.4 31.2 21.1 30.9 21.5 30.3C21.3 30.9 21 31.1 20.4 31.8ZM21.5 30.7C21.6 30.3 22.4 29.6 22.5 29.9C22.1 30.1 21.9 30.5 21.5 30.7ZM23.1 30.8C23 31.1 23.1 31.1 23.4 30.9L23.2 31.6C22.9 31.9 22.5 32 22.2 32.3C22.5 31.9 22.7 31.3 23.1 30.8ZM21 34C21.4 34 21.2 33.5 21.6 33.5C21.5 34 21.7 34 21.5 34.6L21.1 34.8L21.2 34.4C21.4 34 20.9 34.3 21 34ZM20.8 35.1C20.7 35.5 20.6 36 20.2 36.2C20.4 35.8 20.4 35.2 20.8 35.1ZM17.9 38.4C17.9 38.6 17.8 38.8 17.8 39L17.4 39.2C17.3 38.8 17.6 38.7 17.9 38.4ZM16.9 41.4C16.9 41.5 16.9 41.6 16.8 41.7C16.8 41.6 16.8 41.6 16.8 41.5C16.8 41.5 16.8 41.4 16.9 41.4ZM16.3 42.1C16.4 42.1 16.4 42.3 16.5 42.3C16.4 42.4 16.3 42.5 16.2 42.6C16 42.8 15.9 43 15.8 43.2C15.7 43.1 15.7 43.1 15.7 43C15.9 42.5 16.2 42.3 16.3 42.1ZM15.8 43.8C15.7 44 15.7 44.2 15.5 44.4C15.1 44.7 14.9 45.1 14.7 45.5C14.8 44.8 15.3 44.4 15.8 43.8ZM15.7 42.1C15.5 42.5 15.4 43 15 43.3C14.9 42.6 15.2 42.3 15.7 42.1ZM15.6 43.1C15.4 44 14.6 45.2 14.2 45.4C14.7 44.6 15.1 43.7 15.6 43.1ZM12.7 45.3C12.9 45 13.2 44.2 13.3 44.7C13.1 44.8 12.9 45.7 12.7 45.3ZM14.1 44.1L13.7 44.3C13.7 44.1 13.6 44.1 13.7 43.8C14.1 43.8 14 43.5 14.4 43.1C14.4 43.4 14.7 43 14.7 43.2C14.2 43.7 14.1 43.4 14.1 44.1ZM14.5 45.8C14.4 45.9 14.4 46.1 14.3 46.2C14.2 46 14.2 45.9 14.5 45.8ZM12.6 62.2C12.7 62.3 12.9 62.4 13 62.4C12.8 62.5 12.6 62.6 12.4 62.6C12.4 62.6 12.3 62.4 12.2 62.3C12.3 62.3 12.5 62.3 12.6 62.2ZM11.5 62.8C11.4 62.9 11.3 63.1 11.2 63.2C11.2 63.1 11.1 63.1 11 63C11 63 11 62.9 11 62.8C11 62.6 10.9 62.3 11 62C11 61.9 11.2 61.8 11.3 61.8C11.3 61.8 11.5 61.9 11.5 62C11.5 62.2 11.5 62.3 11.5 62.4C11.5 62.6 11.5 62.7 11.5 62.8ZM12 65C11.8 64.9 11.6 64.8 11.6 64.7C11.5 64.6 11.6 64.4 11.8 64.5C11.9 64.6 11.9 64.7 12 65C12.1 65 12.2 65.1 12.3 65.1V65.3C12.1 65.3 12.1 65.1 12 65ZM14 93.5C13.9 93.6 13.8 93.6 13.6 93.6C13.5 93.6 13.3 93.5 13.2 93.4C13.2 93.3 13.3 93.3 13.3 93.2C13.5 93 13.6 92.9 13.8 92.8C13.9 93 13.9 93.2 14 93.5ZM13.1 94.7C13.1 94.6 13.2 94.4 13.3 94.4C13.4 94.3 13.6 94.4 13.5 94.6C13.4 94.6 13.3 94.6 13.1 94.7ZM10.9 95C11.1 94.9 11.2 94.8 11.3 94.6C11.9 94 12.4 94.3 12.9 94.7C12.9 94.7 13 94.7 13.1 94.8C13.1 95 13.1 95.1 13.1 95.3C12.4 95.3 11.8 95.6 11.3 96C11.1 95.6 11 95.3 10.9 95ZM12.2 105.1C12.3 105 12.4 104.9 12.6 105C12.6 105 12.6 105 12.7 105C12.8 105.1 12.9 105.3 13 105.5C12.8 105.8 12.5 105.5 12.2 105.1ZM21.6 134C21.3 133.9 21.1 133.7 20.9 133.6C20.6 132.9 21.7 133.6 21.2 132.6C21.6 133 22.2 133.2 22.3 133.7C21.7 133 21.2 133.1 21.6 134ZM30.6 139.6C30.9 139.5 31.9 140 32.2 140.4C31.5 140.3 31.1 139.9 30.6 139.6ZM54.2 151.1H54.8L55.1 151.4C54.7 151.5 54.5 151.2 54.2 151.1ZM55.3 151.1C56 151.3 56.7 151.4 57.3 151.8C56.5 151.8 55.8 151.6 55.3 151.1ZM57.5 151.6C57.9 151.9 58.6 151.7 59 152C58.5 152.3 57.3 151.9 57.5 151.6ZM82.8 153.4C83.3 153.1 83.8 153.4 84.4 153.3C83.8 153.6 83.3 153.6 82.8 153.4ZM98.6 150.1C99.3 150 99 149.7 99.7 149.7C99.8 149.8 98.5 150.6 98.6 150.1ZM100.3 149.9C100.2 149.7 100.8 149.6 101.1 149.2C101.6 149.2 101.2 149.4 101.5 149.5C101.1 149.8 100.7 149.8 100.3 149.9ZM113.9 143.5C114.6 143.5 115.1 142.6 115.1 143.2C114.8 143.2 114 143.9 113.9 143.5ZM117 141.8C117.1 141.8 117.1 141.8 117 141.8V141.8ZM130.6 132.3C130.7 132.3 130.8 132.2 130.9 132.2C130.8 132.3 130.7 132.3 130.6 132.3ZM144.6 111.6C144.4 111.9 144.4 112.4 144 112.5C144 112.3 144.2 111.8 144.4 111.6C144.4 111.6 144.5 111.6 144.6 111.6C144.6 111.5 144.6 111.5 144.6 111.6ZM147.6 105.9C147.5 105.9 147.5 105.8 147.5 105.7C147.5 105.6 147.5 105.6 147.4 105.5C147.4 105.5 147.4 105.5 147.3 105.5C147.3 105.5 147.3 105.5 147.3 105.4C147.3 105.4 147.3 105.4 147.4 105.4C147.4 105.4 147.4 105.4 147.4 105.5C147.5 105.5 147.7 105.6 147.7 105.7C147.9 105.9 147.8 106 147.6 105.9ZM148.9 107C148.8 107.1 148.7 107.1 148.6 107.2C148.6 107.2 148.6 107.2 148.6 107.3C148.6 107.3 148.6 107.3 148.5 107.3C148.5 107.4 148.4 107.6 148.3 107.7C148.1 107.8 148 107.6 148.1 107.5C148.2 107.4 148.3 107.4 148.5 107.3C148.5 107.3 148.5 107.3 148.5 107.2C148.5 107.2 148.5 107.2 148.6 107.2C148.6 107.1 148.7 106.9 148.8 106.9C148.9 106.7 149 106.8 148.9 107Z" fill="#D70000"/>
<path fill-rule="evenodd" clip-rule="evenodd" d="M153.8 99.6C153.2 99.9 152.6 100.3 152 100.7C151.8 100.8 151.8 100.9 152 101.1C152.4 101.7 153.1 101.6 153.6 102.1C153.8 102.2 153.9 102.1 154 101.9C154.1 101.6 154.3 101.3 154.4 100.9C154.5 100.7 154.5 100.4 154.5 100.1C154.5 99.8 154 99.5 153.8 99.6Z" fill="#D70000"/>
<path fill-rule="evenodd" clip-rule="evenodd" d="M5 71.4C5.2 71.4 5.3 71.2 5.4 70.9C5.4 70.6 5.3 70.4 5 70.4C4.7 70.4 4.5 70.6 4.5 70.9C4.5 71.2 4.6 71.3 5 71.4Z" fill="#D70000"/>
<path fill-rule="evenodd" clip-rule="evenodd" d="M147.5 111.8C147.5 112.1 147.4 112.3 147.7 112.5C147.8 112.6 148 112.5 148.2 112.5C148.3 112.5 148.3 112.4 148.4 112.3C148.1 112.1 147.9 111.8 147.6 111.6C147.6 111.6 147.6 111.7 147.5 111.8Z" fill="#D70000"/>
<path fill-rule="evenodd" clip-rule="evenodd" d="M4.4 73.4C4.4 73.3 4.3 73.3 4.3 73.2C4.2 73.1 4 73.2 4 73.4C4 73.6 4 73.9 4 74.1C4.3 74 4.4 73.8 4.4 73.4Z" fill="#D70000"/>
<path fill-rule="evenodd" clip-rule="evenodd" d="M30 29.3C30.1 29.4 30.1 29.6 30.2 29.6C30.6 29.7 30.8 29.5 30.9 29.1C30.7 29.1 30.4 29.1 30.2 29.1C30.1 29.2 30 29.3 30 29.3Z" fill="#D70000"/>
<path fill-rule="evenodd" clip-rule="evenodd" d="M31 29.1C30.9 29.1 30.9 29.2 31 29.1C31 29.2 31 29.2 31 29.1Z" fill="#D70000"/>
<path fill-rule="evenodd" clip-rule="evenodd" d="M31.2 28.8C31.1 28.9 31.1 29 31 29.1C31.1 29.1 31.3 29 31.3 28.9C31.5 28.8 31.3 28.7 31.2 28.8Z" fill="#D70000"/>
<path fill-rule="evenodd" clip-rule="evenodd" d="M33 28.8C32.7 28.7 32.7 28.9 32.7 29.1C32.9 29.1 33 29.1 33.2 29.1C33.1 29 33 28.8 33 28.8Z" fill="#D70000"/>
<path fill-rule="evenodd" clip-rule="evenodd" d="M9.70002 62.1L9.80002 62C9.70002 61.9 9.70003 61.9 9.60003 61.8C9.50003 61.9 9.50002 61.9 9.40002 62C9.50002 61.9 9.60002 62 9.70002 62.1Z" fill="#D70000"/>
<path fill-rule="evenodd" clip-rule="evenodd" d="M8.70005 84.1C8.70005 84 8.60005 84 8.50005 83.9C8.40005 84 8.30005 84 8.30005 84.1C8.30005 84.2 8.40005 84.2 8.40005 84.3C8.50005 84.3 8.60005 84.2 8.70005 84.1Z" fill="#D70000"/>
<path fill-rule="evenodd" clip-rule="evenodd" d="M11.2 90.8C11.3 90.7 11.3 90.7 11.4 90.6C11.3 90.5 11.3 90.5 11.2 90.4C11.1 90.5 11 90.5 11 90.6C11 90.7 11.1 90.8 11.2 90.8Z" fill="#D70000"/>
<path fill-rule="evenodd" clip-rule="evenodd" d="M152 91.6C151.9 91.7 151.9 91.8 151.9 91.9C152 91.9 152.2 91.8 152.2 91.7C152.2 91.6 152.1 91.5 152 91.6Z" fill="#D70000"/>
<path fill-rule="evenodd" clip-rule="evenodd" d="M10 92.9C10.1 93 10.2 93 10.3 93.1C10.3 93 10.2 92.8 10.1 92.8C10 92.6 9.90004 92.7 10 92.9Z" fill="#D70000"/>
<path fill-rule="evenodd" clip-rule="evenodd" d="M152 98.6C151.9 98.7 151.9 98.8 151.8 99C151.9 99 152.1 98.9 152.1 98.8C152.3 98.7 152.1 98.5 152 98.6Z" fill="#D70000"/>
<path fill-rule="evenodd" clip-rule="evenodd" d="M151.6 99.4C151.7 99.3 151.7 99.2 151.8 99C151.7 99 151.5 99.1 151.5 99.2C151.3 99.4 151.4 99.5 151.6 99.4Z" fill="#D70000"/>
<path fill-rule="evenodd" clip-rule="evenodd" d="M150.8 100.3C150.9 100.4 151 100.4 151.1 100.5C151.1 100.4 151.2 100.4 151.2 100.3C151.1 100.2 151.1 100.1 151 100.1C150.9 100.2 150.9 100.3 150.8 100.3Z" fill="#D70000"/>
<path fill-rule="evenodd" clip-rule="evenodd" d="M9.50004 102.1C9.60004 102.2 9.70004 102.2 9.80004 102.3C9.80004 102.2 9.70004 102 9.60004 102C9.50004 101.8 9.40004 101.9 9.50004 102.1Z" fill="#D70000"/>
<path fill-rule="evenodd" clip-rule="evenodd" d="M150 111.8C150 111.5 149.9 111.5 149.7 111.5C149.8 111.6 149.8 111.7 149.9 111.9C149.8 111.9 150 111.9 150 111.8Z" fill="#D70000"/>
<path fill-rule="evenodd" clip-rule="evenodd" d="M141.8 120.5C141.9 120.4 141.9 120.3 142 120.2C141.9 120.2 141.7 120.3 141.7 120.4C141.6 120.5 141.7 120.6 141.8 120.5Z" fill="#D70000"/>
<path fill-rule="evenodd" clip-rule="evenodd" d="M9.40002 53.2C9.70002 52.8 10.1 52.6 10 52C9.80002 52.4 9.40002 52.7 9.40002 53.2Z" fill="#D70000"/>
<path fill-rule="evenodd" clip-rule="evenodd" d="M8.90002 53.2C9.00002 53.5 9.40003 52.6 9.30002 52.3C8.90002 52.4 9.10002 52.9 8.90002 53.2Z" fill="#D70000"/>
<path fill-rule="evenodd" clip-rule="evenodd" d="M9.89997 51C9.79997 51.2 9.69998 51.4 9.59998 51.6C9.69998 51.8 9.89998 51.8 10.2 51.6C10.1 51.2 9.89997 51.3 9.89997 51Z" fill="#D70000"/>
<path fill-rule="evenodd" clip-rule="evenodd" d="M4.70003 52.6C4.60003 53.3 4.40003 53.8 4.50003 54.6C4.70003 54.2 4.70003 53.5 4.70003 52.6Z" fill="#D70000"/>
<path fill-rule="evenodd" clip-rule="evenodd" d="M9.30005 48.4C9.80005 48 10 47.5 10.1 46.9C9.90005 47.5 9.30005 47.8 9.30005 48.4Z" fill="#D70000"/>
<path fill-rule="evenodd" clip-rule="evenodd" d="M17.0999 37.2C16.8999 37.8 16.7999 37.9 16.8999 38.3C17.2999 37.8 17.6999 37 17.0999 37.2Z" fill="#D70000"/>
<path fill-rule="evenodd" clip-rule="evenodd" d="M27.6 30.4C27.4 30.5 27.4 30.8 27.3 31C27.7 30.7 27.5 31 27.8 30.8C27.9 30.6 27.7 30.6 27.6 30.4Z" fill="#D70000"/>
<path fill-rule="evenodd" clip-rule="evenodd" d="M26.4 22.4C26.2 22.5 26.1 22.8 26 23C26.3 22.9 26.6 22.6 26.9 22.5C27.2 22.1 26.1 22.9 26.4 22.4Z" fill="#D70000"/>
<path fill-rule="evenodd" clip-rule="evenodd" d="M19.4 24.2C19 24.7 18.2 25.4 18.3 25.7C18.8 25.4 19.2 24.8 19.4 24.2Z" fill="#D70000"/>
<path fill-rule="evenodd" clip-rule="evenodd" d="M29.9 17.7C29.6 17.8 29.5 18.3 29 18.3C29 18.8 28.2 19 27.8 19.7C28.4 19.5 28.8 18.9 29.5 18.8C29.6 18.5 29.3001 18.6 29.1 18.5C29.4 18.1 30.1 18 29.9 17.7Z" fill="#D70000"/>
<path fill-rule="evenodd" clip-rule="evenodd" d="M36.4 13.5C35.8 13.9 35.3 14.4 34.6 14.6C34.8 14.8 36.5 13.9 36.4 13.5Z" fill="#D70000"/>
<path fill-rule="evenodd" clip-rule="evenodd" d="M33.7 12.3C33.3 12.6 32.8 12.8 32.5 13.2C33 13.1 33.4 12.8 33.7 12.3Z" fill="#D70000"/>
<path fill-rule="evenodd" clip-rule="evenodd" d="M41.4 11.9C41.9 11.7 42.3 11.7 42.7 11.3C42.2 11.4 41.7 11.5 41.4 11.9Z" fill="#D70000"/>
<path fill-rule="evenodd" clip-rule="evenodd" d="M46.7001 9.70001L46.3 10.2C46.6 10.2 46.9001 9.90001 47.2001 9.90001C47.3001 9.70001 46.9001 9.70001 46.7001 9.70001Z" fill="#D70000"/>
<path fill-rule="evenodd" clip-rule="evenodd" d="M48.2 9.20001C48.6 9.30001 48.8999 8.90001 49.2999 8.90001C49.3999 8.70001 48.4 8.70001 48.2 9.20001Z" fill="#D70000"/>
<path fill-rule="evenodd" clip-rule="evenodd" d="M55.8 7.49999C56.4 7.39999 56.3 6.99999 56 6.89999C55.3 7.09999 55.9 7.29999 55.8 7.49999Z" fill="#D70000"/>
<path fill-rule="evenodd" clip-rule="evenodd" d="M56.6 6.29999C55.9 6.59999 55.2 6.39999 54.6 7.09999C55.3 6.89999 56.4 6.79999 56.6 6.29999Z" fill="#D70000"/>
<path fill-rule="evenodd" clip-rule="evenodd" d="M56.7 7.20001C57.2 7.00001 57.7 7.00001 58.1 6.70001C57.6 6.80001 57.2 6.90001 56.7 6.90001C56.6 7.00001 56.9 7.00001 56.7 7.20001Z" fill="#D70000"/>
<path fill-rule="evenodd" clip-rule="evenodd" d="M59.7999 6.89999C59.1999 7.19999 59.3 7.39999 59.2 7.59999C60.4 7.29999 60.6999 7.39999 59.7999 6.89999Z" fill="#D70000"/>
<path fill-rule="evenodd" clip-rule="evenodd" d="M68.1 5.19999C68.1 4.79999 67.2 5.49999 67.4 5.59999C68.2 5.69999 67.7 5.09999 68.1 5.19999Z" fill="#D70000"/>
<path fill-rule="evenodd" clip-rule="evenodd" d="M69.4 5C69 5 68.6 5.1 68.1 5.3C68.6 5.4 69 5.3 69.4 5Z" fill="#D70000"/>
<path fill-rule="evenodd" clip-rule="evenodd" d="M77.8 6.10002C77.2 6.00002 76.3 6.50002 77.3 6.50002C77.6 6.40002 77.2 6.30002 77.8 6.10002Z" fill="#D70000"/>
<path fill-rule="evenodd" clip-rule="evenodd" d="M99.4 4.20001C99 4.00001 98.5 4.10001 98 4.10001C98.6 4.60001 99.3 4.40001 99.4 4.20001Z" fill="#D70000"/>
<path fill-rule="evenodd" clip-rule="evenodd" d="M112.1 10.3C112.5 10.7 113.1 10.8 113.4 10.7C113.1 10.5 113 10.4 113 10.2C113.7 10.2 114 10.9 114.8 11C114.5 10.8 114.2 10.7 114 10.3C113.1 10.2 112.5 9.69999 112.2 9.29999C112.1 9.49999 112.5 9.99999 111.7 9.79999C112.1 10.3 112.4 9.79999 112.9 10.4C113 10.7 112.3 10.3 112.1 10.3Z" fill="#D70000"/>
<path fill-rule="evenodd" clip-rule="evenodd" d="M117.9 13.1C117.6 12.6 116.6 12.7 117.2 12.5C117 12.2 116.6 12.4 116.5 12.4L116.8 12.9C117.5 13.1 117.5 13.2 117.9 13.1Z" fill="#D70000"/>
<path fill-rule="evenodd" clip-rule="evenodd" d="M119.3 14L119.1 13.6C118.9 13.6 118.8 13.5 118.7 13.4C118.5 13.6 118.7 13.6 118.1 13.4C118.3 13.6 118.1 13.6 118.3 13.9C118.3 13.8 118.8 13.9 119.3 14Z" fill="#D70000"/>
<path fill-rule="evenodd" clip-rule="evenodd" d="M121.3 16.1C120.9 15.6 120.2 15.5 119.9 14.9C119.5 15 120 15.2 120 15.5C120.5 15.5 120.8 15.9 121.3 16.1Z" fill="#D70000"/>
<path fill-rule="evenodd" clip-rule="evenodd" d="M122.4 16.8C122.5 16.7 122.4 16.5 122.3 16.3C121.9 16.2 121.6 16.2 121.9 16.5C122 16.6 122.2 16.7 122.4 16.8Z" fill="#D70000"/>
<path fill-rule="evenodd" clip-rule="evenodd" d="M122.6 17.2C122.9 17.3 122.9 17.1 123.1 17.3C123.3 17.3 123.1 17 123 16.8L122.5 16.7C122.7 16.9 122.5 16.9 122.6 17.2Z" fill="#D70000"/>
<path fill-rule="evenodd" clip-rule="evenodd" d="M124.5 17.9C124.2 17.5 124 17 123.5 16.8C123.4 16.9 124 17.9 124.5 17.9Z" fill="#D70000"/>
<path fill-rule="evenodd" clip-rule="evenodd" d="M130.4 23.3C130.3 22.9 129.9 22.9 129.8 22.5C129.5 22.4 129.1 22.3 129.4 22.8C129.9 22.9 130.1 23.2 130.4 23.3Z" fill="#D70000"/>
<path fill-rule="evenodd" clip-rule="evenodd" d="M133.5 26.8L133.3 26.2L132.7 25.9C132.9 26.3 133.2 26.6 133.5 26.8Z" fill="#D70000"/>
<path fill-rule="evenodd" clip-rule="evenodd" d="M135.6 28.9C135.4 28.6 135.3 28.7 135.2 28.7C135 28.5 134.9 28.2 134.5 28.1C134.8 28.6 135.2 29 135.5 29.5C136 29.7 135.2 28.6 135.6 28.9Z" fill="#D70000"/>
<path fill-rule="evenodd" clip-rule="evenodd" d="M137 29.8C137.2 29.6 136.9 29.3 136.6 28.8C136.3 28.7 136.6 29.2 136.3 29C136.4 29.4 136.9 29.5 137 29.8Z" fill="#D70000"/>
<path fill-rule="evenodd" clip-rule="evenodd" d="M139.1 34.3C139.8 34.6 138.9 33.2 138.9 32.7C138.5 32.8 138.6 33 137.9 32.3C137.8 31.7 138 31.6 137.5 31C137.1 31.1 137.3 31.4 137.5 32.2C138.4 32.7 138.6 33.6 139.1 34.3Z" fill="#D70000"/>
<path fill-rule="evenodd" clip-rule="evenodd" d="M138.4 31.9C138.7 32.5 139.2 32.9 139.5 33.5C139.6 33.3 139 32.2 138.4 31.9Z" fill="#D70000"/>
<path fill-rule="evenodd" clip-rule="evenodd" d="M140.7 35C141.1 35.2 140.8 34.5 141.3 34.8C141.2 34.5 141 34.3 140.7 34.1C140.9 34.7 141 34.6 140.5 34.2C140.4 34.5 140.6 34.7 140.7 35Z" fill="#D70000"/>
<path fill-rule="evenodd" clip-rule="evenodd" d="M143.3 38.2C143.1 38.3 143.1 38.1 142.8 37.8C142.8 38.1 142.9 38.3 143 38.5C143 38.4 143.4 38.6 143.3 38.2Z" fill="#D70000"/>
<path fill-rule="evenodd" clip-rule="evenodd" d="M152.5 86.2C152.4 86 152.2 86 152 85.8C151.7 86.5 151.8 87.2 151.9 88C152.1 87.4 152.4 86.8 152.5 86.2Z" fill="#D70000"/>
<path fill-rule="evenodd" clip-rule="evenodd" d="M150.4 99.7C150.1 99.9 150.2 100.4 150 100.6C150.1 100.9 150.6 100.1 150.4 99.7Z" fill="#D70000"/>
<path fill-rule="evenodd" clip-rule="evenodd" d="M143.7 114.6C144.1 114.2 144.2 113.6 144.5 113.1C144.3 112.9 143.8 114 143.7 114.6Z" fill="#D70000"/>
<path fill-rule="evenodd" clip-rule="evenodd" d="M121 139.2C121 139.4 120.8 139.7 120.9 139.8C121.2 139.7 121.4 139.5 121.5 139.2C121.3 139.3 121.3 139.2 121 139.2Z" fill="#D70000"/>
<path fill-rule="evenodd" clip-rule="evenodd" d="M97.7 151.8C96.8 152 96.5 152.1 95.5 152.5C96.5 152.5 97.4 152.2 98.3 151.8C97.8 151.8 97.9 151.6 97.5 151.5C97.4 151.7 97.5 151.8 97.7 151.8Z" fill="#D70000"/>
<path fill-rule="evenodd" clip-rule="evenodd" d="M93 151.6C93 151.8 92.4 152.1 92.9 152.2C93.5 152.1 93.5 151.8 93 151.6Z" fill="#D70000"/>
<path fill-rule="evenodd" clip-rule="evenodd" d="M93.4 152.9C93.7 152.9 94 152.5 94.4 152.6C94.5 152.5 94.1 152.4 93.9 152.4C93.6 152.6 93.4 152.7 93.4 152.9Z" fill="#D70000"/>
<path fill-rule="evenodd" clip-rule="evenodd" d="M59.2 153.6C59.5 153.7 59.7999 153.7 60.0999 153.7C59.9999 153.6 60.1999 153.6 60.2999 153.6C59.7999 153.3 59.5 153.5 59.2 153.6Z" fill="#D70000"/>
<path fill-rule="evenodd" clip-rule="evenodd" d="M56.9 153.9C57.5 154.1 57.8 154 57.9 153.8C57.6 153.5 56.9 153.8 56.9 153.9Z" fill="#D70000"/>
<path fill-rule="evenodd" clip-rule="evenodd" d="M50.8 151.6C52.5 152.2 53.7 152.3 55.6 152.7C54.4 152.2 53.2 151.9 52 151.6C52.1 151.9 51.3 151.6 50.8 151.6Z" fill="#D70000"/>
<path fill-rule="evenodd" clip-rule="evenodd" d="M51.2999 151.4C50.8999 151.1 50.3 151.1 49.7 151C50.2 151.3 50.6999 151.5 51.2999 151.4Z" fill="#D70000"/>
<path fill-rule="evenodd" clip-rule="evenodd" d="M49.2 150.8C48.7 150.6 48.2 150.2 47.6 150.1C47.6 150.3 48.5 150.9 49.2 150.8Z" fill="#D70000"/>
<path fill-rule="evenodd" clip-rule="evenodd" d="M46.7 148.9C46.2 149 45.9 148.9 46.1 149.3C46.4 149 47.2 149.7 47.9 149.7C47.3 149.5 47.1 149.2 46.7 148.9Z" fill="#D70000"/>
<path fill-rule="evenodd" clip-rule="evenodd" d="M44.3 152C44.4 152.2 44.7001 152.3 44.9001 152.5C45.2001 152.5 45.2001 152.3 45.4001 152.5C45.7001 152.3 44.6 152 44.3 152Z" fill="#D70000"/>
<path fill-rule="evenodd" clip-rule="evenodd" d="M40.4 147.3C40.6 147.3 40.5 147.3 40.5 147.2L40.3 146.9C39.8 146.9 38.6 146 37.6 145.8C37.7 146 37.7 146 37.6 146C38.3 146.2 38.9 146.6 39.6 146.8C40.1 147.4 39.2 146.8 39 147.1C39.2 147.4 39.8 147.1 40 147.5C40.3 147.6 39.8 146.8 40.4 147.3Z" fill="#D70000"/>
<path fill-rule="evenodd" clip-rule="evenodd" d="M42.8 151.4C42 151 41.1 150.5 40.1 150.3C40.9 150.8 41.9 151.2 42.8 151.4Z" fill="#D70000"/>
<path fill-rule="evenodd" clip-rule="evenodd" d="M36.2 144.6C36.3 144.9 36.1 145 35.4 144.7C35.8 145.1 36.4 145.3 36.9 145.6C36.5 145.3 36.8 145 36.2 144.6Z" fill="#D70000"/>
<path fill-rule="evenodd" clip-rule="evenodd" d="M35.8 145.3C35.3 144.8 34.6 144.6 33.9 144.3C34.7 145 35 144.9 35.8 145.3Z" fill="#D70000"/>
<path fill-rule="evenodd" clip-rule="evenodd" d="M30.3 141.8C31.1 142.4 32.3 142.5 32.8 143.4C33.2 142.8 31 142.3 30.4 141.5C30.2 141.5 30.5 141.9 30.3 141.8Z" fill="#D70000"/>
<path fill-rule="evenodd" clip-rule="evenodd" d="M32.9 143.8C32.2 143 31.1 142.7 30.1 142.3C30.8 143 31.9 143.3 32.9 143.8Z" fill="#D70000"/>
<path fill-rule="evenodd" clip-rule="evenodd" d="M29 142.3C29.3 142.7 29.9 142.8 30.3 143.1C30.6 142.9 29.4 142.5 29 142.3Z" fill="#D70000"/>
<path fill-rule="evenodd" clip-rule="evenodd" d="M27.9 141C28.8 141.3 29.1 142.2 30 142.5C29.5 141.9 28.9 141.2 27.9 141Z" fill="#D70000"/>
<path fill-rule="evenodd" clip-rule="evenodd" d="M25.1 139.2C26.2 139.7 27.3 140 28.9 140.5C28.5 139.9 27.8 139.7 27 139.4C27.4 140.2 26.5 139.7 26.1 139.2C26 138.8 26.6 139.2 27 139.4C26.9 138.9 26.3 139 26.2 138.5C25.6 138.7 23.6 137.8 22.8 137.3C22.6 137.5 23.1 137.8 23.6 138C24.1 138.2 24.7 138.4 24.8 138.3C24.7 138.7 25.7 139.2 25.1 139.2Z" fill="#D70000"/>
<path fill-rule="evenodd" clip-rule="evenodd" d="M23.6 137.1C23.8 137.1 23.6 136.8 23.5 136.6C23.2 136.4 22.7 136.2 22.5 135.9C22.4 135.9 22.5 136.2 22.1 136C22.3 136.2 22.5 136.5 22.6 136.7C23 136.9 23.1 136.4 23.6 137.1Z" fill="#D70000"/>
<path fill-rule="evenodd" clip-rule="evenodd" d="M21.8 135.3C22.3 135.6 22.3 135.4 22.7 135.5C22.3 135.3 21.5 134.6 21.8 135.3Z" fill="#D70000"/>
<path fill-rule="evenodd" clip-rule="evenodd" d="M20.3 134.4C20.5 134.9 21.1 135.1 21.4 135.4C21.8 135.4 20.9 134.9 21 134.6C20.7 134.7 20.8 134.8 20.3 134.4Z" fill="#D70000"/>
<path fill-rule="evenodd" clip-rule="evenodd" d="M76.1 6.9C76.4 6.9 76.6 6.9 76.9 6.9C77.2 6.7 76.3 6.7 76.1 6.9Z" fill="#D70000"/>
<path fill-rule="evenodd" clip-rule="evenodd" d="M87.6999 2.49999C87.4999 2.59999 88.1 2.59999 87.8 2.69999C89.6 2.29999 90.9999 3.09999 92.6999 3.19999C91.3999 2.69999 90.0999 2.49999 88.6999 2.29999C88.4999 2.39999 88.7999 2.49999 88.8999 2.59999C88.4999 2.49999 87.9999 2.59999 87.6999 2.49999Z" fill="#D70000"/>
<path fill-rule="evenodd" clip-rule="evenodd" d="M3.89994 56.4C4.29994 55.6 4.09994 55.5 4.19994 55.1C4.09994 54.9 4.09994 55.3 3.89994 55.4C4.09994 55.5 3.79994 56 3.89994 56.4Z" fill="#D70000"/>
<path fill-rule="evenodd" clip-rule="evenodd" d="M12.1 44.4C12.5 44 12.4 43.7 12.8 43.7C12.8 43.6 12.7 43.7 12.6 43.7C12.6 43.4 12.9 43.2 12.8 42.8C12.5 43.3 12.1 43.7 12.1 44.4Z" fill="#D70000"/>
<path fill-rule="evenodd" clip-rule="evenodd" d="M24.5 33.9C24.8 33.3 25 33.6 25.5 33C25.5 32.6 25.5 32.6 25.5 32.2C25.2 32.8 24.5 33.6 24.5 33.9Z" fill="#D70000"/>
<path fill-rule="evenodd" clip-rule="evenodd" d="M16.1 27.5C16.3 27.4 16.5 27.3 16.5 27.5C16.7 27.4 16.8 27 16.9 26.8C16.6 27 16.3 27.3 16 27.6C15.9 27.7 16.1 27.6 16.1 27.5Z" fill="#D70000"/>
<path fill-rule="evenodd" clip-rule="evenodd" d="M28.9 17.8C28.4 18 28.1 18.8 27.5 18.9C27.4 19.2 29.3 18.1 29.7 17.4C29.5 17.5 28.9 18.2 28.9 17.8Z" fill="#D70000"/>
<path fill-rule="evenodd" clip-rule="evenodd" d="M34.1 14.8C33.6 15.3 34.5 14.8 34 15.3C34.6 15.1 35 15.3 35.6 14.6C35.3 14.3 34.3 15.4 34.1 14.8Z" fill="#D70000"/>
<path fill-rule="evenodd" clip-rule="evenodd" d="M49.4 8.20001C49.4 8.40001 49.3 8.50001 48.9 8.50001C49 8.70001 50.1 8.20001 50.6 8.20001C50.5 8.60001 51.7 8.50001 52.1 8.50001C52 8.20001 51.5 7.90001 51.2 7.70001C51.2 8.20001 50.3 7.80001 49.4 8.20001Z" fill="#D70000"/>
<path fill-rule="evenodd" clip-rule="evenodd" d="M55.8 7.7C56.2 7.4 54.8 7.8 55.2 7.5C55 7.6 54.3 8.1 53.6 8.1C53.9 8.3 55.2 7.8 55.8 7.7Z" fill="#D70000"/>
<path fill-rule="evenodd" clip-rule="evenodd" d="M53.6 7.40001C53.7 7.20001 53.3 7.30001 53.1 7.20001C52.8 7.50001 52.4 7.60001 52 7.50001C51.5 7.80001 52.1 7.70001 52.3 7.50001C52.6 7.50001 52.6 7.60001 52.5 7.80001C52.7 7.80001 53 7.60001 53.2 7.60001C53 7.70001 52.7 7.30001 53.6 7.40001Z" fill="#D70000"/>
<path fill-rule="evenodd" clip-rule="evenodd" d="M58.1 6.6C58.5 6.5 58.5 6.3 59.2 6C59 6 58.7 6.1 58.5 6.1C57.9 6.3 58.6 6.3 58.1 6.6Z" fill="#D70000"/>
<path fill-rule="evenodd" clip-rule="evenodd" d="M65 2.69999L65.4 2.39999C65.1 2.29999 64.9 2.09999 65.7 2.09999C66 1.89999 65.2 2.09999 65.1 1.89999C65.1 2.09999 64.9 1.99999 64.5 2.19999C65.2 2.39999 64.3 2.69999 65 2.69999Z" fill="#D70000"/>
<path fill-rule="evenodd" clip-rule="evenodd" d="M75.5 6.20001C75.9 6.30001 76.6 5.80001 76.1 5.70001C76 5.80001 75.8 5.80001 75.7 5.80001C75.3 5.70001 75.6 6.00001 75.8 5.90001C75.8 5.90001 75.7 6.10001 75.5 6.20001Z" fill="#D70000"/>
<path fill-rule="evenodd" clip-rule="evenodd" d="M83.3 1.20001C83.2 1.20001 81.2 0.600011 80.9 1.00001C80.4 0.700011 79.8 0.700011 79.1 0.800011C79.7 1.20001 80.4 1.10001 81.1 1.40001C81.6 1.00001 82.5 1.30001 83.3 1.20001Z" fill="#D70000"/>
<path fill-rule="evenodd" clip-rule="evenodd" d="M84.1 1.50001C83.6 1.60001 83.2 1.30001 82.7 1.60001C83.5 1.70001 84.3 1.50001 85 1.80001C85.3 1.10001 87.3 2.30001 88.4 2.10001C88.4 2.00001 88.1 1.80001 88.3 1.80001C87.7 1.80001 86.9 2.00001 86.4 1.50001C85.4 1.60001 84.5 1.30001 83.6 1.20001C83.6 1.30001 84 1.40001 84.1 1.50001Z" fill="#D70000"/>
<path fill-rule="evenodd" clip-rule="evenodd" d="M85.6 0.7C84.2 0.5 82.2 0.6 81.4 0C81.5 0.7 84.9 0.9 85.6 0.7Z" fill="#D70000"/>
<path fill-rule="evenodd" clip-rule="evenodd" d="M92.3 2.29999C92.9 2.49999 93.4 2.59999 94 2.79999C94 2.49999 92.8 2.29999 92.3 2.29999Z" fill="#D70000"/>
<path fill-rule="evenodd" clip-rule="evenodd" d="M100.9 4.5C101 4.9 100.6 4.8 99.9 4.6C100.7 5.1 102.7 5.9 104.1 6.3C103.7 5.8 102.9 5.9 102.9 5.4C102.6 5.8 101.8 4.9 101.1 5C100.7 4.7 101.7 4.8 100.9 4.5Z" fill="#D70000"/>
<path fill-rule="evenodd" clip-rule="evenodd" d="M101.5 4.6C101.9 4.5 101 4.3 100.9 4.1C100.3 4.2 100.4 4.3 99.8 4C99.7 4.2 101.1 4.3 101.5 4.6Z" fill="#D70000"/>
<path fill-rule="evenodd" clip-rule="evenodd" d="M104.4 6.39999C105.3 6.99999 106.2 7.39999 107.2 7.79999C107.1 6.89999 105.3 6.59999 104.4 6.39999Z" fill="#D70000"/>
<path fill-rule="evenodd" clip-rule="evenodd" d="M118.1 14.1C118.4 14.4 118.8 14.6 119.5 14.9L119.3 14.5C118.7 14.6 118.5 14.1 118.1 14.1Z" fill="#D70000"/>
<path fill-rule="evenodd" clip-rule="evenodd" d="M125.8 18.9C126.2 19 125.4 18.5 125.4 18.3L124.5 18C124.9 18.6 125.3 18.2 125.8 18.9Z" fill="#D70000"/>
<path fill-rule="evenodd" clip-rule="evenodd" d="M132.3 25.6C132.4 25.6 132.5 25.6 132.7 25.7C132.5 25.1 131.9 24.7 131.5 24.3C131.1 24.8 132.3 24.6 132.3 25.6Z" fill="#D70000"/>
<path fill-rule="evenodd" clip-rule="evenodd" d="M142.1 38C142.6 38.5 142.1 37.6 142.6 38.1C142 37.5 141.8 36.6 141.1 36.1C141 35.8 141.2 35.9 141.1 35.6C140.9 35.7 140.5 35.2 140.2 34.9C140.1 34.5 140 34.9 140.2 35C140.2 35.3 139.9 35.1 139.7 35.1C139.9 35.5 140.5 35.8 140.5 36.3C141.5 36.5 141.6 37.4 142.1 38Z" fill="#D70000"/>
<path fill-rule="evenodd" clip-rule="evenodd" d="M150.7 58.5C150.8 58.6 150.8 58.2 150.9 58C150.4 57.5 150.7 56.8 150.1 56.2C150 57 150.8 57.6 150.7 58.5Z" fill="#D70000"/>
<path fill-rule="evenodd" clip-rule="evenodd" d="M153.3 71.1C153.1 71.1 153.2 72.9 153.4 73C153.3 72.3 153.2 71.7 153.3 71.1Z" fill="#D70000"/>
<path fill-rule="evenodd" clip-rule="evenodd" d="M151.8 85.2C151.9 85.4 152.1 85.4 152.3 85.6C152.4 85.2 152.4 84.8 152.3 84.4C152.1 84.6 152.3 85 152.2 85.2C152.1 85.5 152.2 84.3 151.8 85.2Z" fill="#D70000"/>
<path fill-rule="evenodd" clip-rule="evenodd" d="M50.8 151.8C50 151.7 50.8 152.2 50 152C50.1 152.1 50.3 152.1 50.4 152.2H50.7C50.1 151.8 51.5 152.2 50.8 151.8Z" fill="#D70000"/>
<path fill-rule="evenodd" clip-rule="evenodd" d="M44.9 149.2C44.6 149 44.6 148.8 44.9 148.9C44.3 148.2 44.7 149.4 44.1 148.9C43.8 148.9 44.6 149.3 44.9 149.2Z" fill="#D70000"/>
<g clip-path="url(#clip0_1094_1777)">
<path fill-rule="evenodd" clip-rule="evenodd" d="M77 32C101.851 32 122 52.1489 122 77C122 101.851 101.851 122 77 122C52.1489 122 32 101.851 32 77C32 52.1489 52.1489 32 77 32ZM83.7676 64.8418C82.918 63.7944 83.0718 62.249 84.1265 61.3994C85.1738 60.5498 86.7119 60.7036 87.5689 61.751C87.73 61.9487 87.9424 62.1538 88.1987 62.3662C89.4731 63.4062 91.4141 64.1021 93.4795 64.2119C95.5156 64.3218 97.603 63.8457 99.1851 62.564C99.5073 62.3003 99.8223 61.9853 100.123 61.6191C100.979 60.5718 102.525 60.418 103.572 61.2749C104.62 62.1318 104.773 63.6772 103.917 64.7246C103.426 65.3252 102.869 65.8672 102.269 66.3579C99.6538 68.4819 96.3579 69.2656 93.2231 69.0972C90.1177 68.936 87.1221 67.8228 85.0859 66.1602C84.6025 65.772 84.1558 65.3252 83.7676 64.8418ZM55.1738 97.9253C54.5293 99.1118 53.0425 99.5513 51.856 98.8994C50.6694 98.2549 50.23 96.7681 50.8745 95.5815C54.0825 89.7002 59.1069 85.5034 64.8345 83.0278C69.2217 81.1309 74.0264 80.2446 78.7358 80.3838C83.4746 80.5229 88.1401 81.7021 92.2051 83.9214C96.9438 86.5068 100.877 90.4985 103.221 95.9111C103.755 97.1489 103.184 98.5845 101.946 99.1191C100.708 99.6538 99.2656 99.0825 98.7383 97.8447C96.8633 93.5015 93.6919 90.3008 89.876 88.2134C86.4922 86.3677 82.5957 85.3862 78.6113 85.269C74.5977 85.1519 70.5107 85.8989 66.7827 87.5103C62.0073 89.583 57.8325 93.0547 55.1738 97.9253ZM50.0908 64.8418C49.2412 63.7944 49.395 62.249 50.4497 61.3994C51.4971 60.5498 53.0352 60.7036 53.8921 61.751C54.0532 61.9487 54.2656 62.1538 54.522 62.3662C55.7891 63.4062 57.7373 64.1021 59.8027 64.2119C61.8389 64.3218 63.9263 63.8457 65.5083 62.564C65.8306 62.3003 66.1455 61.9853 66.4458 61.6191C67.3027 60.5718 68.8481 60.418 69.8955 61.2749C70.9429 62.1318 71.0967 63.6772 70.2397 64.7246C69.749 65.3252 69.1924 65.8672 68.5918 66.3579C65.9771 68.4819 62.6812 69.2656 59.5464 69.0972C56.4409 68.936 53.4453 67.8228 51.4092 66.1602C50.9258 65.772 50.479 65.3252 50.0908 64.8418Z" fill="white"/>
</g>
<defs>
<clipPath id="clip0_1094_1777">
<rect width="90" height="90" fill="white" transform="translate(32 32)"/>
</clipPath>
</defs>
</svg>
