<svg width="38" height="35" viewBox="0 0 38 35" fill="none" xmlns="http://www.w3.org/2000/svg">
<circle cx="18.5" cy="17.5" r="17.5" fill="black"/>
<path d="M18.986 22.0983C19.3421 22.7029 19.5445 23.4061 19.5445 24.1534C19.5445 24.9007 19.3421 25.6044 18.9836 26.2085C19.2576 26.5251 19.5911 26.7866 19.9696 26.9776C20.4902 26.1578 20.791 25.1883 20.791 24.1529C20.791 23.1157 20.4907 22.148 19.9696 21.3283C19.5911 21.5178 19.2576 21.7813 18.986 22.0983Z" fill="white"/>
<path d="M15.3846 28.2618C13.0898 28.2618 11.2229 26.4199 11.2229 24.1534C11.2229 22.4523 12.2756 20.9881 13.7735 20.364C14.2677 20.1574 14.8127 20.0432 15.3846 20.0432C15.7742 20.0432 16.1523 20.0958 16.5107 20.1972C16.5885 20.1005 16.671 20.0058 16.7578 19.9138C16.9848 19.6674 17.2295 19.4414 17.4943 19.2367C17.2563 19.1377 17.0112 19.0543 16.7578 18.9903C16.4527 18.9088 16.137 18.8562 15.8121 18.832C15.672 18.8211 15.5295 18.8145 15.3846 18.8145C15.1064 18.8145 14.8329 18.8344 14.5656 18.8761C14.2408 18.9244 13.9222 19.0012 13.6199 19.1069C11.5036 19.83 9.97876 21.8192 9.97876 24.1539C9.97876 27.097 12.4046 29.4933 15.3851 29.4933C16.1331 29.4933 16.8451 29.3436 17.4953 29.0711C17.1301 28.7877 16.7986 28.4646 16.5093 28.1082C16.1504 28.2087 15.7742 28.2618 15.3846 28.2618Z" fill="white"/>
<path d="M23.001 19.0429C22.6963 18.9528 22.3801 18.887 22.0553 18.8514C21.8504 18.8249 21.6436 18.814 21.432 18.814C21.2229 18.814 21.0161 18.8249 20.8112 18.8514C20.4864 18.8865 20.1702 18.9505 19.8655 19.0429C19.6784 19.0978 19.4985 19.1637 19.3224 19.2386C19.0019 19.3727 18.6972 19.5376 18.4098 19.729C18.0495 19.9707 17.7175 20.2545 17.4262 20.5729C17.2127 20.808 17.0189 21.061 16.85 21.3292C16.3289 22.149 16.0286 23.1161 16.0286 24.1539C16.0286 25.1893 16.3289 26.1588 16.85 26.9785C17.0169 27.2467 17.2103 27.4993 17.4243 27.7324C17.7179 28.0513 18.0476 28.3347 18.4103 28.5787C18.6977 28.7702 19.0024 28.9346 19.3229 29.0687C19.9706 29.3412 20.685 29.4928 21.433 29.4928C24.4154 29.4928 26.8394 27.097 26.8394 24.1534C26.8379 21.7462 25.2201 19.7086 23.001 19.0429ZM21.432 28.2617C21.0425 28.2617 20.6663 28.2091 20.3103 28.1077C19.9874 28.0196 19.6784 27.8921 19.3934 27.732C19.0263 27.5296 18.6948 27.2728 18.4098 26.9714C18.1872 26.7407 17.9938 26.4834 17.8312 26.2066C17.4752 25.602 17.2727 24.9012 17.2727 24.1539C17.2727 23.4066 17.4752 22.7053 17.8312 22.1007C17.9938 21.8235 18.1872 21.5643 18.4098 21.3335C18.6948 21.0345 19.0263 20.7772 19.3934 20.5729C19.5445 20.4872 19.7029 20.4123 19.8655 20.3464C20.0099 20.2872 20.1572 20.2389 20.3084 20.1972C20.6644 20.0963 21.0429 20.0432 21.4325 20.0432C21.9867 20.0432 22.5164 20.1507 23.0015 20.3464C24.5215 20.9596 25.5943 22.4347 25.5943 24.1534C25.5938 26.4194 23.7264 28.2617 21.432 28.2617Z" fill="white"/>
<path d="M15.8122 17.8952V4.94423H14.5657V17.935C14.8329 17.8976 15.1064 17.88 15.3847 17.88C15.5296 17.88 15.6721 17.8843 15.8122 17.8952Z" fill="white"/>
<path d="M22.0554 17.9108V4.94423H20.8113V17.9108C21.0162 17.8909 21.2229 17.88 21.4321 17.88C21.6432 17.88 21.8505 17.8909 22.0554 17.9108Z" fill="white"/>
</svg>
