<svg width="90" height="95" viewBox="0 0 90 95" fill="none" xmlns="http://www.w3.org/2000/svg">
<path d="M87.8287 57.9444C85.9214 77.0558 70.434 92.4669 51.2845 94.2216C28.6636 96.3197 9.36156 79.6497 7.11092 58.0207H3.14369C0.70232 58.0207 -0.78539 55.3886 0.435295 53.2905L9.36156 37.8412C10.5822 35.7432 13.5958 35.7432 14.8165 37.8412L23.7428 53.2905C24.9634 55.3886 23.4376 58.0207 21.0344 58.0207H17.5249C19.7755 74.1566 34.8052 86.2872 52.0474 83.7695C64.7883 81.9004 75.1641 71.8297 77.3385 59.1269C80.5809 40.0919 65.9327 23.5363 47.508 23.5363C41.519 23.5363 35.7589 25.2529 30.7998 28.5717C28.5111 30.0975 25.3068 29.7923 23.6283 27.618C21.7973 25.2529 22.3695 21.8579 24.8109 20.2176C30.1132 16.6318 36.1403 14.3812 42.4726 13.5801V7.70558H38.3528C36.9414 7.70558 35.797 6.56118 35.797 5.14977V2.55581C35.797 1.14439 36.9414 0 38.3528 0H57.5023C58.9138 0 60.0581 1.14439 60.0581 2.55581V5.14977C60.0581 6.56118 58.9138 7.70558 57.5023 7.70558H52.9629V13.6183C74.0579 16.4793 90.0412 35.6287 87.8287 57.9444ZM89.1639 18.9969L81.382 11.8254C80.352 10.8717 78.7117 10.9099 77.7581 11.978L75.6982 14.1905C74.7445 15.2204 74.7827 16.8607 75.8508 17.8144L83.6326 24.9859C84.6626 25.9396 86.3029 25.9014 87.2565 24.8333L89.3164 22.6208C90.2701 21.5909 90.232 19.9506 89.1639 18.9969ZM47.3554 28.8387V54.0153H72.265C72.265 38.6805 60.6303 28.8387 47.3554 28.8387Z" />
</svg>
