<svg width="63" height="104" viewBox="0 0 63 104" fill="none" xmlns="http://www.w3.org/2000/svg">
<path d="M61.3 38.4C61.9 36 62.2 33.5 62.2 31.1C62.1 13.9 48.2 0 31.1 0C13.9 0 0 13.9 0 31.1C0 33.6 0.3 36 0.9 38.4C1.7 43.4 2.9 47.5 4.3 50.5C7.4 56.9 20.2 78.1 26.1 87.7C18.1 88.7 14.4 92.1 14.4 95.4C14.4 99.2 19.6 103.4 31.1 103.4C42.6 103.4 47.8 99.3 47.8 95.4C47.8 92.2 44.1 88.7 36.1 87.7C42 78.1 54.8 56.9 57.9 50.5C59.3 47.5 60.4 43.5 61.3 38.4ZM42.9 95.4C42.6 96.3 38.6 98.6 31 98.6C23.4 98.6 19.4 96.3 19.1 95.4C19.3 94.6 22.6 92.6 28.8 92.3C28.9 92.4 28.9 92.5 29 92.6C29.4 93.3 30.2 93.7 31 93.7C31.8 93.7 32.6 93.3 33 92.6C33 92.6 33.1 92.5 33.2 92.3C39.4 92.7 42.6 94.6 42.9 95.4ZM8.6 48.4C7.4 45.8 6.3 42.1 5.6 37.5C5.6 37.4 5.6 37.4 5.6 37.3C5.1 35.2 4.8 33.1 4.8 31C4.8 16.5 16.6 4.7 31.1 4.7C45.6 4.7 57.4 16.5 57.4 31C57.4 33.1 57.1 35.2 56.6 37.3C56.6 37.4 56.6 37.4 56.6 37.5C55.9 42.1 54.8 45.8 53.6 48.4C50.5 54.9 36.4 78 31.1 86.7C25.8 78 11.7 54.9 8.6 48.4Z" />
<path d="M31.1 13.5C21.9 13.5 14.4 21 14.4 30.2C14.4 39.4 21.9 46.9 31.1 46.9C40.3 46.9 47.8 39.4 47.8 30.2C47.7 21 40.3 13.5 31.1 13.5ZM19.2 30.2C19.2 23.7 24.5 18.3 31.1 18.3C37.6 18.3 43 23.6 43 30.2C43 36.7 37.7 42.1 31.1 42.1C24.5 42 19.2 36.7 19.2 30.2Z" />
</svg>