<?xml version="1.0" encoding="utf-8"?>
<!-- Svg Vector Icons : http://www.onlinewebfonts.com/icon -->
<!DOCTYPE svg PUBLIC "-//W3C//DTD SVG 1.1//EN" "http://www.w3.org/Graphics/SVG/1.1/DTD/svg11.dtd">
<svg version="1.1" xmlns="http://www.w3.org/2000/svg" xmlns:xlink="http://www.w3.org/1999/xlink" x="0px" y="0px" viewBox="0 0 1000 1000" enable-background="new 0 0 1000 1000" xml:space="preserve">
<metadata> Svg Vector Icons : http://www.onlinewebfonts.com/icon </metadata>
<g><path d="M943.5,949.3c0,22.1-17.9,40.1-40.1,40.1c-22.1,0-40.1-17.9-40.1-40.1l-0.4-3.7c0-1.6,0.3-3.1,0.4-4.7c-25-175.9-175.8-305.2-359.5-307.2c-1.5,0-2.9,0.2-4.4,0.2c-1.5,0-2.9-0.2-4.3-0.2c-181.5,2-330.9,128.4-358.5,301.3c0.9,3.4,1.6,6.9,1.6,10.6l0.4,3.8c0,22.5-18.2,40.7-40.7,40.7s-40.7-18.2-40.7-40.7l0-0.4h-0.8c0.1-1.2,0.3-2.3,0.5-3.5c0-3.4,0.5-6.5,1.3-9.7C79.2,773.6,187.8,642.5,335.7,586c-86.1-55.2-142.3-152.7-142.3-264.1C193.5,149.7,327.3,10,499.6,10c172.3,0,306.1,139.7,306.1,311.9c0,111.3-56.1,208.8-142.2,264c146.9,56,255.1,185.6,277.1,346.2c1.5,4.2,2.5,8.7,2.5,13.4L943.5,949.3L943.5,949.3z M735.4,322c0-130.3-105.6-235.8-235.8-235.8S263.7,191.8,263.7,322c0,130.2,105.6,235.8,235.8,235.8C629.8,557.8,735.4,452.3,735.4,322z"/></g>
</svg>