<svg width="121" height="123" viewBox="0 0 121 123" fill="none" xmlns="http://www.w3.org/2000/svg">
<path d="M54.03 108.91C52.48 110.54 51.72 112.65 51.75 114.76C51.78 116.87 52.59 118.96 54.19 120.55L54.31 120.67C55.89 122.17 57.91 122.9 59.92 122.87C61.93 122.84 63.93 122.05 65.47 120.5C83.13 102.84 100.6 84.89 118.15 67.1C118.22 67.05 118.28 67 118.34 66.94C119.89 65.31 120.65 63.18 120.62 61.07C120.59 58.96 119.77 56.86 118.17 55.27L117.9 55.01C100.43 37.47 82.98 19.87 65.46 2.36C63.93 0.820003 61.93 0.030003 59.92 2.99432e-06C57.91 -0.029997 55.89 0.700003 54.31 2.21L54.16 2.36C52.59 3.94 51.78 6.02 51.75 8.12C51.72 10.22 52.48 12.34 54.03 13.97L101.25 61.24L54.03 108.91ZM2.26001 106.91C0.720011 108.53 -0.0299892 110.64 1.08213e-05 112.74C0.0300108 114.85 0.840011 116.94 2.44001 118.53L2.56001 118.65C4.13001 120.15 6.16001 120.88 8.17001 120.86C10.18 120.83 12.19 120.04 13.72 118.49C31.01 101.2 48.87 84.2 66.39 67.12C66.46 67.07 66.53 67.01 66.6 66.95C68.15 65.32 68.91 63.19 68.88 61.08C68.85 58.97 68.03 56.87 66.43 55.28C48.94 38.33 31.36 21.44 13.83 4.51L13.71 4.38C12.18 2.84 10.18 2.06 8.17001 2.03C6.16001 2 4.14001 2.73 2.56001 4.23L2.41001 4.38C0.840011 5.96 0.0300108 8.05 1.08213e-05 10.14C-0.0299892 12.24 0.730011 14.36 2.28001 15.99L49.46 61.23L2.26001 106.91Z" />
</svg>
