<svg width="55" height="55" viewBox="0 0 55 55" fill="none" xmlns="http://www.w3.org/2000/svg">
<circle cx="27.5" cy="27.5" r="27.5" fill="#2D2D2D"/>
<path d="M25.2234 6.02377C24.7945 5.91771 24.3588 6.17647 24.2519 6.60298L18.0239 31.3691C17.9171 31.7956 18.1778 32.2274 18.6074 32.3335C18.6726 32.35 19.0166 32.3575 19.081 32.3575C19.4402 32.3575 19.7668 32.1161 19.8577 31.7543L20.1328 30.6086L23.4676 47.9097C23.4676 47.9097 23.87 48.7289 24.6952 48.4882C25.5204 48.2475 25.1809 46.9454 25.1809 46.9454L21.6846 24.1478L24.1314 13.9612L24.2822 18.039C24.2822 18.039 24.3004 18.6716 24.9195 18.6536C25.5386 18.6355 25.6659 18.4189 25.7023 17.9668C25.7364 17.5425 25.8167 8.02318 25.8265 6.85648C25.8576 6.47661 25.6083 6.1193 25.2234 6.02377Z" fill="#E30613"/>
<path d="M36.9761 31.3691L30.7481 6.60298C30.6413 6.17647 30.2055 5.91771 29.7767 6.02377C29.4311 6.10952 29.1955 6.40515 29.172 6.73988C29.1689 6.77825 29.1697 6.81736 29.1727 6.85723C29.1826 8.02393 29.2629 17.5433 29.297 17.9675C29.3334 18.4196 29.4607 18.6363 30.0798 18.6543C30.6988 18.6724 30.717 18.0398 30.717 18.0398L30.8678 13.962L33.3146 24.1485L29.8183 46.9461C29.8183 46.9461 29.4781 48.2475 30.3041 48.4889C31.1292 48.7296 31.5316 47.9105 31.5316 47.9105L34.8665 30.6094L35.1415 31.755C35.2325 32.1168 35.5591 32.3583 35.9182 32.3583C35.9827 32.3583 36.3267 32.3508 36.3918 32.3342C36.8215 32.2267 37.0829 31.7949 36.9761 31.3691Z" fill="#E30613"/>
</svg>
