<svg width="36" height="78" viewBox="0 0 36 78" fill="none" xmlns="http://www.w3.org/2000/svg">
<path d="M13.9675 0.450966C13.1833 0.257843 12.3867 0.729007 12.1914 1.50561L0.804643 46.6004C0.6093 47.377 1.08588 48.1632 1.87141 48.3563C1.99056 48.3864 2.61954 48.4001 2.7373 48.4001C3.39399 48.4001 3.9911 47.9605 4.15735 47.3017L4.66026 45.2157L10.7575 76.7179C10.7575 76.7179 11.4931 78.2095 13.0019 77.7712C14.5106 77.3329 13.8899 74.962 13.8899 74.962L7.49759 33.4516L11.9711 14.9037L12.2468 22.3286C12.2468 22.3286 12.2801 23.4805 13.4119 23.4476C14.5438 23.4147 14.7766 23.0203 14.8431 22.1971C14.9054 21.4246 15.0523 4.09153 15.0703 1.96718C15.1271 1.2755 14.6713 0.624913 13.9675 0.450966Z" fill="#E30613"/>
<path d="M35.4553 46.6004L24.0685 1.50561C23.8732 0.729007 23.0766 0.257843 22.2924 0.450966C21.6607 0.607107 21.2298 1.14538 21.1869 1.75488C21.1813 1.82474 21.1827 1.89596 21.1883 1.96855C21.2063 4.0929 21.3531 21.426 21.4155 22.1985C21.482 23.0216 21.7147 23.4161 22.8466 23.449C23.9785 23.4819 24.0117 22.33 24.0117 22.33L24.2874 14.905L28.761 33.453L22.3686 74.9634C22.3686 74.9634 21.7466 77.3329 23.2567 77.7726C24.7654 78.2109 25.5011 76.7193 25.5011 76.7193L31.5983 45.217L32.1012 47.303C32.2674 47.9618 32.8646 48.4015 33.5212 48.4015C33.639 48.4015 34.268 48.3878 34.3871 48.3577C35.1727 48.1618 35.6506 47.3756 35.4553 46.6004Z" fill="#E30613"/>
</svg>
