<svg width="35" height="56" viewBox="0 0 35 56" fill="none" xmlns="http://www.w3.org/2000/svg">
<g clip-path="url(#clip0_1140_194)">
<path d="M35 17.4749C35 24.129 31.2757 29.9143 25.795 32.866C23.3264 34.1954 20.5014 34.9499 17.5 34.9499C14.4986 34.9499 11.6736 34.1954 9.205 32.866C3.72434 29.9143 0 24.129 0 17.4749C0 7.8238 7.83502 0 17.5 0C27.165 0 35 7.8238 35 17.4749Z" fill="black"/>
<path d="M16.2457 6.01397C15.9936 5.95163 15.7375 6.10373 15.6747 6.35442L12.0141 20.9114C11.9513 21.1621 12.1045 21.4158 12.357 21.4782C12.3953 21.4879 12.5975 21.4923 12.6354 21.4923C12.8465 21.4923 13.0385 21.3504 13.0919 21.1377L13.2536 20.4644L15.2137 30.6335C15.2137 30.6335 15.4502 31.115 15.9353 30.9735C16.4203 30.832 16.2208 30.0667 16.2208 30.0667L14.1657 16.6668L15.6039 10.6794L15.6925 13.0762C15.6925 13.0762 15.7032 13.4481 16.0671 13.4375C16.431 13.4269 16.5058 13.2995 16.5272 13.0338C16.5472 12.7844 16.5945 7.18917 16.6002 6.50342C16.6185 6.28014 16.472 6.07012 16.2457 6.01397Z" fill="#E30613"/>
<path d="M23.1537 20.9114L19.493 6.35442C19.4302 6.10373 19.1741 5.95163 18.922 6.01397C18.7189 6.06438 18.5804 6.23814 18.5666 6.43489C18.5648 6.45744 18.5653 6.48043 18.5671 6.50386C18.5729 7.18962 18.6201 12.7849 18.6401 13.0342C18.6615 13.3 18.7363 13.4273 19.1002 13.4379C19.4641 13.4485 19.4748 13.0767 19.4748 13.0767L19.5634 10.6799L21.0016 16.6673L18.9465 30.0671C18.9465 30.0671 18.7466 30.832 19.232 30.974C19.7171 31.1155 19.9536 30.634 19.9536 30.634L21.9137 20.4648L22.0754 21.1382C22.1288 21.3508 22.3208 21.4928 22.5319 21.4928C22.5698 21.4928 22.772 21.4884 22.8103 21.4786C23.0628 21.4154 23.2165 21.1616 23.1537 20.9114Z" fill="#E30613"/>
<path d="M17.5 34.9499C14.4986 34.9499 11.6736 34.1954 9.20502 32.866C15.2615 44.6811 16.8083 57.6872 17.5 54.9262C18.1917 52.1651 19.7801 44.0465 25.795 32.866C23.3264 34.1954 20.5014 34.9499 17.5 34.9499Z" fill="black"/>
</g>
<defs>
<clipPath id="clip0_1140_194">
<rect width="35" height="55.6818" fill="white"/>
</clipPath>
</defs>
</svg>
