<svg width="90" height="88" viewBox="0 0 90 88" fill="none" xmlns="http://www.w3.org/2000/svg">
<path d="M51.0164 2.96607C51.0164 1.3329 52.6276 0 54.6342 0C56.6409 0 58.2521 1.32558 58.2521 2.96607V15.9435C58.2521 17.5767 56.6409 18.9096 54.6342 18.9096C52.6276 18.9096 51.0164 17.584 51.0164 15.9435V2.96607ZM66.9159 41.7666C70.0358 41.7666 73.0165 42.3891 75.7409 43.517C78.5751 44.6887 81.1164 46.4025 83.2403 48.5263C85.3641 50.6502 87.0779 53.1988 88.2497 56.0184C89.3775 58.7428 90 61.7235 90 64.8434C90 67.9632 89.3775 70.9439 88.2497 73.6683C87.0779 76.5026 85.3641 79.0439 83.2403 81.1677C81.1164 83.2916 78.5678 85.0053 75.7482 86.1771C73.0238 87.3049 70.0431 87.9274 66.9233 87.9274C63.8034 87.9274 60.8227 87.3049 58.0983 86.1771C55.2641 85.0053 52.7228 83.2916 50.5989 81.1677C48.4751 79.0439 46.7613 76.4952 45.5896 73.6683C44.4617 70.9439 43.8392 67.9632 43.8392 64.8434C43.8392 61.7235 44.4617 58.7428 45.5896 56.0184C46.7613 53.1841 48.4751 50.6429 50.5989 48.519C52.7228 46.3951 55.2714 44.6814 58.091 43.5096C60.8154 42.3891 63.7888 41.7666 66.9159 41.7666ZM65.1876 55.1981C65.1876 54.6416 65.4146 54.1362 65.7808 53.77C66.147 53.4039 66.6523 53.1768 67.2162 53.1768C67.7801 53.1768 68.2855 53.4039 68.6516 53.77C69.0178 54.1362 69.2449 54.6415 69.2449 55.2055V66.0005L77.3155 70.7901L77.3814 70.8341C77.8281 71.1197 78.1211 71.5518 78.2383 72.0278C78.3628 72.5258 78.3042 73.0678 78.0332 73.5365L78.0186 73.5585C78.0039 73.5878 77.9893 73.6097 77.9673 73.6317C77.6817 74.0711 77.2496 74.3641 76.7809 74.4812C76.2829 74.6057 75.7409 74.5472 75.2722 74.2762L66.2495 68.9373C65.9346 68.7688 65.6709 68.5125 65.4805 68.2122C65.2901 67.9046 65.1802 67.5458 65.1802 67.1649L65.1876 55.1981ZM80.3768 51.3825C78.6191 49.6249 76.5245 48.2114 74.2029 47.252C71.9619 46.3219 69.5012 45.8166 66.9159 45.8166C64.3307 45.8166 61.87 46.3292 59.6289 47.252C57.3073 48.2114 55.2128 49.6249 53.4551 51.3825C51.6975 53.1402 50.284 55.2348 49.3246 57.5563C48.3945 59.7974 47.8892 62.2581 47.8892 64.8434C47.8892 67.4286 48.4018 69.8893 49.3246 72.1304C50.284 74.4519 51.6975 76.5465 53.4551 78.3042C55.2128 80.0618 57.3073 81.4753 59.6289 82.4347C61.87 83.3648 64.3307 83.8701 66.9159 83.8701C69.5012 83.8701 71.9619 83.3575 74.2029 82.4347C76.5245 81.4753 78.6191 80.0618 80.3768 78.3042C83.8262 74.8547 85.95 70.1017 85.95 64.8434C85.95 62.2581 85.4374 59.7974 84.5146 57.5563C83.5479 55.2348 82.1344 53.1402 80.3768 51.3825ZM9.85027 42.0083C9.64521 42.0083 9.46212 41.1075 9.46212 40.0016C9.46212 38.8958 9.62324 38.0023 9.85027 38.0023H19.7225C19.9276 38.0023 20.1107 38.9031 20.1107 40.0016C20.1107 41.1075 19.9495 42.0083 19.7225 42.0083H9.85027ZM25.5887 42.0083C25.3837 42.0083 25.2006 41.1075 25.2006 40.0016C25.2006 38.8958 25.3617 38.0023 25.5887 38.0023H35.461C35.666 38.0023 35.8491 38.9031 35.8491 40.0016C35.8491 41.1075 35.688 42.0083 35.461 42.0083H25.5887ZM41.3272 42.0083C41.1221 42.0083 40.9391 41.1075 40.9391 40.0016C40.9391 38.8958 41.1002 38.0023 41.3272 38.0023H51.1994C51.4045 38.0023 51.5876 38.8958 51.5876 39.9943C50.5989 40.6095 49.6468 41.2833 48.7387 42.0083H41.3272ZM9.87224 53.4917C9.66718 53.4917 9.48409 52.5909 9.48409 51.4851C9.48409 50.3792 9.64521 49.4784 9.87224 49.4784H19.7445C19.9495 49.4784 20.1326 50.3792 20.1326 51.4851C20.1326 52.5909 19.9715 53.4917 19.7445 53.4917H9.87224ZM25.6107 53.4917C25.4056 53.4917 25.2226 52.5909 25.2226 51.4851C25.2226 50.3792 25.3837 49.4784 25.6107 49.4784H35.483C35.688 49.4784 35.8711 50.3792 35.8711 51.4851C35.8711 52.5909 35.71 53.4917 35.483 53.4917H25.6107ZM9.89421 64.9825C9.68915 64.9825 9.50606 64.0817 9.50606 62.9758C9.50606 61.87 9.66718 60.9692 9.89421 60.9692H19.7665C19.9715 60.9692 20.1546 61.87 20.1546 62.9758C20.1546 64.0817 19.9935 64.9825 19.7665 64.9825H9.89421ZM25.6327 64.9825C25.4276 64.9825 25.2445 64.0817 25.2445 62.9758C25.2445 61.87 25.4056 60.9692 25.6327 60.9692H35.5049C35.71 60.9692 35.8931 61.87 35.8931 62.9758C35.8931 64.0817 35.732 64.9825 35.5049 64.9825H25.6327ZM18.5214 2.96607C18.5214 1.3329 20.1326 0 22.1393 0C24.146 0 25.7572 1.32558 25.7572 2.96607V15.9435C25.7572 17.5767 24.1387 18.9096 22.1393 18.9096C20.1326 18.9096 18.5214 17.584 18.5214 15.9435V2.96607ZM3.98405 28.3717H72.8847V13.4315C72.8847 12.9189 72.6796 12.4721 72.3501 12.1426C72.0205 11.813 71.5518 11.6079 71.0611 11.6079H64.4552C63.3493 11.6079 62.4485 10.7071 62.4485 9.60127C62.4485 8.4954 63.3493 7.5946 64.4552 7.5946H71.0611C72.6796 7.5946 74.1297 8.2464 75.1916 9.30832C76.2536 10.3702 76.9054 11.8203 76.9054 13.4388V37.1601C75.5871 36.706 74.2322 36.3398 72.8408 36.0688V32.3631H72.8847H3.98405V71.0538C3.98405 71.5664 4.18911 72.0132 4.51868 72.3427C4.84824 72.6723 5.31695 72.8774 5.80763 72.8774H38.5515C38.9251 74.2689 39.3938 75.6237 39.9577 76.9273H5.84425C4.23305 76.9273 2.77565 76.2755 1.71373 75.2136C0.651802 74.159 0 72.7089 0 71.0904V13.4462C0 11.835 0.651802 10.3776 1.71373 9.31565C2.77565 8.25372 4.22573 7.60192 5.84425 7.60192H12.8969C14.0028 7.60192 14.9036 8.50273 14.9036 9.60859C14.9036 10.7145 14.0028 11.6153 12.8969 11.6153H5.84425C5.3316 11.6153 4.88486 11.8203 4.55529 12.1499C4.22573 12.4795 4.02067 12.9482 4.02067 13.4388V28.379H3.98405V28.3717ZM31.5428 11.6079C30.437 11.6079 29.5362 10.7071 29.5362 9.60127C29.5362 8.4954 30.437 7.5946 31.5428 7.5946H44.989C46.0949 7.5946 46.9957 8.4954 46.9957 9.60127C46.9957 10.7071 46.0949 11.6079 44.989 11.6079H31.5428Z" />
</svg>
