<svg width="90" height="90" viewBox="0 0 90 90" fill="none" xmlns="http://www.w3.org/2000/svg">
<path d="M40.1515 0.283169C29.4724 1.73248 19.7087 6.65249 12.4621 14.2041C7.12258 19.7725 3.49931 26.1037 1.51605 33.3502C-0.50535 40.7112 -0.50535 49.1782 1.51605 56.5391C6.43606 74.5029 22.4166 87.8136 41.4101 89.7587C44.3087 90.0639 51.212 89.8732 53.7292 89.4536C68.6799 86.8601 81.3042 77.7829 87.7879 65.0061C89.5805 61.421 90 60.2768 90 58.6749C90 55.5475 87.6353 53.221 84.4698 53.221C83.0204 53.221 82.2958 53.488 79.8167 55.0517C76.7655 56.9587 72.7227 58.3317 68.7562 58.8275C66.3534 59.1326 61.9674 58.9801 59.8315 58.5224C49.6864 56.3866 41.8296 49.5596 38.7403 40.2154C37.1003 35.2954 37.1385 29.0786 38.8166 24.0442C40.4948 19.0479 43.9273 14.3567 48.3134 11.0385C49.305 10.3139 50.3729 9.43668 50.6399 9.13156C53.2334 6.42365 51.9748 1.54178 48.3515 0.20689C47.4743 -0.0982268 42.6306 -0.0600872 40.1515 0.283169ZM46.1013 5.66086C45.9869 5.73714 45.2241 6.30923 44.4231 6.91947C42.5924 8.29249 39.5031 11.4199 38.0538 13.4032C32.5617 20.8023 30.5785 30.0702 32.5236 38.9949C33.0957 41.5884 33.7822 43.5717 35.2315 46.394C38.9692 53.9838 46.0631 60.0861 54.3394 62.8322C58.4204 64.2052 60.0222 64.434 65.2092 64.434C69.3283 64.434 70.0911 64.3959 71.9218 64.0145C75.9646 63.1373 80.1218 61.5354 82.8297 59.781C84.546 58.6749 84.4316 58.7131 84.2409 59.247C81.6093 66.1503 75.9646 73.0154 69.252 77.4778C62.0055 82.2834 53.8436 84.6099 45.0715 84.3048C39.6938 84.1141 35.4985 83.275 30.9217 81.4824C13.8352 74.7317 3.53745 57.6833 5.82583 40.0628C7.96165 23.8916 20.0138 10.619 36.2613 6.65249C37.5199 6.34737 39.3506 6.00411 40.3422 5.8897C41.3338 5.77528 42.3255 5.62272 42.6306 5.58458C43.6603 5.47016 46.292 5.5083 46.1013 5.66086Z" />
</svg>
