<svg width="90" height="92" viewBox="0 0 90 92" fill="none" xmlns="http://www.w3.org/2000/svg">
<path d="M12.0127 0.0912319C6.55932 0.663266 1.7161 4.89632 0.34322 10.2734C-1.36384e-07 11.6082 0 12.6378 0 45.587C0 78.765 -1.36384e-07 79.6039 0.34322 80.9387C1.52542 85.5912 5.49153 89.5573 10.1822 90.7777C11.4788 91.0828 12.5085 91.1209 44.9619 91.1209C77.4153 91.1209 78.4449 91.1209 79.7415 90.7777C83.5551 89.8243 86.911 86.9641 88.6652 83.3412C90 80.5192 89.9237 82.2353 89.9237 53.9768V28.6548H88.1314H86.339V54.015C86.339 81.7014 86.3771 80.2141 85.3093 82.4641C84.661 83.7989 82.6017 85.8582 81.3051 86.5065C79.0932 87.5743 81.3051 87.498 44.9619 87.498C16.2458 87.498 11.4407 87.4599 10.5636 87.2311C7.16949 86.3158 4.38559 83.4175 3.73729 80.0616C3.58475 79.2607 3.54661 69.7268 3.58475 44.9768L3.62288 10.9599L4.04237 9.89208C5.18644 7.03191 7.47458 4.85818 10.3729 3.98106C11.5551 3.63784 12.0127 3.59971 35.0847 3.56157L58.6144 3.52343V1.7692V0.0149608H35.8856C23.4153 -0.0231748 12.661 0.0149607 12.0127 0.0912319Z" />
<path d="M52.8559 19.9218C41.7965 30.8286 32.7584 39.7905 32.7203 39.8667C32.6821 39.943 36.4575 43.871 41.072 48.5616L49.4999 57.104L53.2372 53.4049C55.2965 51.3837 64.4109 42.3455 73.4872 33.3074L89.9999 16.9472L81.5719 8.51927C76.9575 3.90487 73.1059 0.0913086 73.0677 0.0913086C73.0296 0.129444 63.9152 9.01504 52.8559 19.9218ZM78.9406 10.8837C82.144 14.0871 84.7372 16.7566 84.7372 16.9091C84.7372 17.0998 49.8813 51.8413 49.5762 51.9176C49.4999 51.9176 46.7923 49.2481 43.5508 45.9303L37.6779 39.943L43.6652 34.032C65.4406 12.5616 72.9914 5.12521 73.0677 5.12521C73.1059 5.12521 75.7753 7.71843 78.9406 10.8837Z" />
<path d="M28.3347 53.2902C26.7711 59.2393 25.5508 64.1207 25.5508 64.1207C25.6271 64.1588 46.8686 58.8579 46.9449 58.7817C47.0211 58.7054 31.4237 42.4978 31.2711 42.4978C31.1948 42.4596 29.8601 47.341 28.3347 53.2902ZM36.6864 53.1376L40.1948 56.7986L35.4279 57.9808C32.7965 58.6291 30.6228 59.163 30.5847 59.1249C30.5465 59.1249 31.0042 57.2181 31.6143 54.9681C33.1016 49.2859 33.0254 49.4766 33.1016 49.4766C33.1398 49.4766 34.7415 51.1164 36.6864 53.1376Z" />
</svg>
