<svg width="90" height="91" viewBox="0 0 90 91" fill="none" xmlns="http://www.w3.org/2000/svg">
<path d="M41.8479 0.0912605C33.3792 1.27384 26.0167 5.96599 21.3245 13.1759C19.4172 16.1132 18.1202 19.2795 17.3191 23.0179C16.7468 25.612 16.7468 30.533 17.3191 33.1652C17.8913 35.7211 18.5016 37.5903 19.4553 39.6503C23.3464 47.8902 30.8614 53.803 39.8643 55.7486C42.5346 56.3208 47.4175 56.3208 50.0878 55.7486C54.017 54.9093 57.8699 53.2308 60.998 51.0183C63.1343 49.4924 66.3768 46.2498 67.9027 44.1136C70.1153 40.9855 71.7938 37.1325 72.633 33.2033C72.9764 31.6774 73.0526 30.8001 73.0526 28.0916C73.0526 25.3831 72.9764 24.5057 72.633 22.9798C70.6875 13.9388 64.7746 6.42376 56.5348 2.57085C52.9489 0.89236 49.7063 0.129408 45.6627 0.0149655C44.2131 -0.0231821 42.4583 0.0149654 41.8479 0.0912605ZM50.0115 6.08043C58.671 7.91151 65.1561 14.4347 67.0253 23.1705C67.3687 24.6964 67.445 25.5738 67.445 28.0916C67.445 30.6093 67.3687 31.5249 67.0253 33.0126C65.1561 41.7484 58.671 48.2335 49.8971 50.1027C47.2649 50.6749 42.6872 50.6749 40.0931 50.1027C31.3192 48.2335 24.8341 41.7484 22.9649 33.0126C22.3927 30.3423 22.3927 25.8027 22.9649 23.1705C24.9867 13.8625 31.8914 7.41559 41.4665 5.8134C43.5646 5.47007 47.6845 5.62266 50.0115 6.08043Z" />
<path d="M18.3108 51.2854C17.4334 51.5143 13.8094 54.6424 11.6732 57.0457C4.38697 65.2474 0.0762951 75.8906 0 85.809C0 88.5556 0.0381477 88.7845 1.18257 89.6237L1.64035 90.0052H30.8614H60.0824L60.5402 89.6237C61.4557 88.9371 61.7609 88.3649 61.7609 87.2586C61.7609 86.1523 61.4939 85.5801 60.5402 84.8934C60.0824 84.512 60.0061 84.512 32.8832 84.4738L5.76028 84.4357V83.749C5.76028 81.9179 6.75212 77.1876 7.70581 74.3266C8.46876 72.0759 10.605 67.7652 11.9783 65.7052C14.1909 62.4245 16.8231 59.5253 19.8749 57.0076C21.0575 56.0157 21.4771 55.5961 21.706 54.9476C22.4689 52.8113 20.5997 50.7132 18.3108 51.2854Z" />
<path d="M69.6574 51.5525C68.5893 52.0865 67.9789 53.2691 68.1697 54.4135C68.2841 55.3291 68.6656 55.7869 70.9163 57.6179C71.6411 58.2283 72.7092 59.2583 73.2814 59.9449C74.8836 61.776 76.0281 62.2338 77.5158 61.5471C78.6984 61.0131 79.3469 59.6398 79.0036 58.3809C78.6984 57.1983 75.0744 53.4217 72.5566 51.7051C71.6411 51.1328 70.6111 51.0566 69.6574 51.5525Z" />
<path d="M72.0226 70.5881C70.84 71.084 70.1915 72.4192 70.4204 73.7925C70.5349 74.3647 70.9926 74.9369 73.3959 77.3021L76.2188 80.1631L73.3959 83.0242C70.3441 86.1141 70.1534 86.4193 70.4204 87.8689C70.573 88.7463 71.6411 89.7763 72.4804 89.9289C73.93 90.1959 74.2352 90.0052 77.3251 86.9534L80.1862 84.1305L83.0473 86.9534C86.0991 90.0052 86.4042 90.1959 87.8538 89.9289C88.7312 89.7763 89.7612 88.7082 89.9138 87.8689C90.1809 86.4193 89.9901 86.1141 86.9383 83.0242L84.1154 80.1631L86.9383 77.3021C89.9901 74.2502 90.1809 73.9451 89.9138 72.4955C89.7612 71.6181 88.6931 70.5881 87.8538 70.4355C86.4042 70.1685 86.0991 70.3592 83.0091 73.411L80.148 76.2339L77.3633 73.4873C75.8374 71.9614 74.3878 70.6262 74.1207 70.5118C73.5104 70.2829 72.6711 70.2829 72.0226 70.5881Z" />
</svg>
