<svg width="5" height="15" viewBox="0 0 5 15" fill="none" xmlns="http://www.w3.org/2000/svg">
<path d="M0.559021 12.909C0.559021 13.9785 1.42902 14.85 2.50002 14.85C3.57102 14.85 4.44102 13.9785 4.44102 12.909C4.44102 11.838 3.56952 10.968 2.50002 10.968C1.42902 10.9665 0.559021 11.838 0.559021 12.909ZM3.91302 12.909C3.91302 13.6875 3.27852 14.322 2.50002 14.322C1.72152 14.322 1.08852 13.6875 1.08852 12.909C1.08852 12.1305 1.72152 11.4975 2.50002 11.4975C3.27852 11.496 3.91302 12.1305 3.91302 12.909Z" />
<path d="M0.559021 7.40549C0.559021 8.47649 1.43052 9.34799 2.50002 9.34799C3.57102 9.34799 4.44102 8.47649 4.44102 7.40549C4.44102 6.33449 3.56952 5.46449 2.50002 5.46449C1.42902 5.46299 0.559021 6.33449 0.559021 7.40549ZM3.91302 7.40549C3.91302 8.18399 3.27852 8.81699 2.50002 8.81699C1.72152 8.81699 1.08852 8.18249 1.08852 7.40549C1.08852 6.62699 1.72152 5.99399 2.50002 5.99399C3.27852 5.99249 3.91302 6.62549 3.91302 7.40549Z" />
<path d="M0.559021 2.09101C0.559021 3.16201 1.43052 4.03351 2.50002 4.03351C3.57102 4.03351 4.44102 3.16201 4.44102 2.09101C4.44102 1.02001 3.56952 0.150008 2.50002 0.150008C1.42902 0.150008 0.559021 1.02151 0.559021 2.09101ZM3.91302 2.09101C3.91302 2.86951 3.27852 3.50251 2.50002 3.50251C1.72152 3.50251 1.08852 2.86951 1.08852 2.09101C1.08852 1.31251 1.72152 0.679508 2.50002 0.679508C3.27852 0.679508 3.91302 1.31251 3.91302 2.09101Z" />
</svg>
