<svg width="90" height="83" viewBox="0 0 90 83" fill="none" xmlns="http://www.w3.org/2000/svg">
<path d="M5.9748 0.549445C3.42166 1.34968 0.868512 3.97904 0.296912 6.49408C0.0301652 7.52296 -0.0841546 8.8948 0.0682721 9.58072C0.677979 12.5149 3.26923 15.2967 6.12723 16.097C6.88936 16.3256 21.5604 16.478 45.0722 16.478C85.8464 16.4399 84.1316 16.5161 86.8371 14.4584C88.2852 13.3152 89.9238 10.3048 89.9238 8.58995C89.9238 6.37976 89.1235 4.58875 87.4087 2.87395C84.3602 -0.212689 86.799 -0.0221551 44.7674 0.0159515C13.0626 0.0159515 7.53718 0.130271 5.9748 0.549445ZM83.6743 4.47443C85.351 5.38899 86.3799 7.1419 86.1512 8.70427C85.9226 10.1142 84.5507 11.7909 83.0265 12.3625C82.3787 12.6674 70.9467 12.7817 44.5006 12.7055C7.19422 12.5911 6.88936 12.5912 5.86048 11.829C5.32699 11.4098 4.52675 10.4572 4.18379 9.73315C3.00248 7.40864 4.18379 5.19846 7.118 4.13147C8.2612 3.7123 14.968 3.67419 45.4914 3.7123C80.2828 3.82662 82.5311 3.86472 83.6743 4.47443Z" />
<path d="M6.43207 33.4357C3.26921 34.274 0.944708 36.6747 0.258788 39.7233C-0.541452 43.1529 1.28767 46.6968 4.71727 48.4497L6.66071 49.4024H44.9198H83.217L85.0842 48.5259C87.9422 47.1922 90 44.1818 90 41.3238C90 38.4276 87.7898 35.2648 84.8937 33.893C83.2551 33.1308 82.9502 33.1308 45.72 33.0546C16.2636 33.0165 7.7658 33.0546 6.43207 33.4357ZM83.6362 37.4369C86.9133 39.1898 86.9515 43.3434 83.7124 45.0963C82.5311 45.706 80.5876 45.7441 45.0341 45.7441C18.0165 45.7441 7.38473 45.6298 6.77503 45.325C4.25999 43.9912 3.193 41.7429 4.14567 39.7233C4.98401 38.0085 6.31775 37.1701 8.71847 36.9415C9.82356 36.8272 26.8572 36.751 46.5965 36.751C80.0923 36.751 82.5311 36.7891 83.6362 37.4369Z" />
<path d="M7.30852 66.3214C3.00247 67.0454 0.14447 70.2464 0.14447 74.2857C0.14447 77.6772 2.0498 80.3447 5.51751 81.7927C6.69882 82.2881 11.5765 82.3262 44.996 82.3262H83.1789L85.0461 81.4498C87.9041 80.116 89.9619 77.1056 89.9619 74.2476C89.9619 71.3896 87.8279 68.303 84.9318 66.9692L83.1789 66.1309L45.9487 66.0928C25.4854 66.0928 8.10876 66.169 7.30852 66.3214ZM84.1697 70.818C86.075 72.1136 86.6466 74.0571 85.6939 75.9624C85.2748 76.7626 84.4364 77.601 83.7124 78.0202C82.493 78.6299 80.7401 78.668 44.4625 78.5918L6.54639 78.5155L5.28887 77.2961C4.60295 76.6102 3.87892 75.5432 3.80271 74.9335C3.49786 73.4474 4.56484 71.4658 6.12722 70.5894C7.34663 69.9797 9.17575 69.9415 45.1103 69.9415H82.7978L84.1697 70.818Z" />
</svg>
