<svg width="90" height="96" viewBox="0 0 90 96" fill="none" xmlns="http://www.w3.org/2000/svg">
<path d="M57.9953 84.5246C57.7085 86.0284 57.2046 87.4081 56.476 88.6716C55.7241 89.9661 54.7397 91.1366 53.5305 92.1598C52.3135 93.183 50.9957 93.9581 49.5617 94.4774C48.1277 94.9968 46.6084 95.2526 45.0039 95.2526C43.3916 95.2526 41.8723 94.989 40.446 94.4774C39.0198 93.9581 37.6943 93.1907 36.485 92.1598C35.2681 91.1288 34.2914 89.9661 33.5395 88.6716C32.7876 87.3771 32.276 85.9509 31.997 84.3851C31.8574 83.6254 32.369 82.8968 33.1287 82.7573C33.1519 82.7573 33.3767 82.734 33.3767 82.734H56.6465C57.4217 82.734 58.0573 83.3619 58.0573 84.1448C58.0496 84.2766 58.0263 84.4006 57.9953 84.5246ZM15.6647 0.196645C17.0832 -0.369211 18.6877 0.328419 19.2536 1.74693C19.8194 3.16545 19.1218 4.77 17.7033 5.33585C14.6337 6.56058 12.0602 8.25815 10.0061 10.4596C7.95973 12.661 6.41719 15.3895 5.4095 18.6683C4.95992 20.1256 3.40963 20.9473 1.95236 20.4977C0.495089 20.0481 -0.326564 18.4978 0.12302 17.0405C1.38651 12.9323 3.33987 9.49063 5.95211 6.6846C8.56434 3.88633 11.8122 1.73143 15.6647 0.196645ZM72.2967 5.33585C70.8782 4.77 70.1806 3.16545 70.7464 1.74693C71.3123 0.328419 72.9168 -0.369211 74.3353 0.196645C78.1878 1.73143 81.4357 3.88633 84.0479 6.69235C86.6601 9.50613 88.6212 12.9478 89.877 17.0483C90.3266 18.5056 89.5049 20.0558 88.0476 20.5054C86.5904 20.955 85.0401 20.1334 84.5905 18.6761C83.5828 15.3895 82.0403 12.661 79.9939 10.4673C77.9398 8.25815 75.3663 6.56058 72.2967 5.33585ZM52.4143 8.17288C53.5537 8.46743 54.6622 8.83175 55.7396 9.25808C57.3209 9.88595 58.8402 10.6378 60.2975 11.5138C60.3517 11.5525 60.4137 11.5835 60.468 11.6223C61.8633 12.4827 63.1655 13.4284 64.3592 14.4515C65.615 15.529 66.7777 16.715 67.8629 18.0172L67.8706 18.025C68.9326 19.304 69.8783 20.676 70.7154 22.1255C71.5526 23.5827 72.2735 25.102 72.8703 26.6678C73.4827 28.2879 73.94 29.9389 74.2501 31.6365C74.5524 33.3418 74.7074 35.0859 74.7074 36.8765C74.7074 40.4111 74.7074 42.3257 74.7074 42.5583C74.7152 44.3721 74.7229 46.1472 74.7384 47.8758V47.8913C74.7462 49.4571 74.8469 51.0306 75.0407 52.6042C75.2345 54.1622 75.5136 55.666 75.8779 57.1155C76.2422 58.5418 76.7383 59.9215 77.3506 61.2393C77.9863 62.5958 78.7614 63.929 79.6683 65.2235H79.6761C80.5752 66.4947 81.6992 67.7582 83.048 68.9985C84.4432 70.2774 86.0555 71.5409 87.9004 72.7657C88.9546 73.471 89.2414 74.9051 88.5282 75.9592C88.0864 76.6181 87.3578 76.9824 86.6136 76.9824V76.9902H65.801H45.0039H24.1913H3.38638C2.10739 76.9902 1.07645 75.9592 1.07645 74.6803C1.07645 73.8431 1.52603 73.1067 2.19266 72.7036C4.06075 71.4402 5.6653 70.1844 7.0063 68.9442C8.33955 67.7117 9.45576 66.4482 10.3549 65.146C10.3782 65.1072 10.4092 65.0685 10.4402 65.0375C11.3084 63.7662 12.0525 62.4717 12.6649 61.154C13.2927 59.813 13.7966 58.4332 14.1686 57.0147C14.1764 56.9837 14.1841 56.9527 14.1919 56.9295C14.5485 55.5497 14.8198 54.0924 15.0058 52.5654C15.1918 51.0306 15.2926 49.4416 15.2926 47.806V36.8765C15.2926 35.1169 15.4476 33.3728 15.7654 31.6287C16.0832 29.8924 16.5406 28.2259 17.1529 26.6368C17.7576 25.0478 18.4862 23.5207 19.3311 22.0635C20.1683 20.6139 21.1294 19.2419 22.2069 17.9397L22.2224 17.9242C23.2921 16.6452 24.4703 15.4515 25.7493 14.3585C27.0128 13.2811 28.377 12.2966 29.8421 11.4207C31.3226 10.5371 32.8574 9.79293 34.4387 9.18832C35.5394 8.76974 36.6788 8.42093 37.8415 8.13412C38.2369 6.74661 38.919 5.62265 39.8879 4.76224C41.2212 3.57627 42.973 2.98716 45.1512 3.01042C47.3061 3.02592 49.0501 3.62278 50.3679 4.80875C51.3291 5.67692 52.0189 6.79312 52.4143 8.17288ZM54.0653 13.5446C52.7863 13.0408 51.4841 12.6455 50.1586 12.3587C49.1354 12.2269 48.2982 11.4207 48.1665 10.351C48.0424 9.34335 47.7556 8.63797 47.2983 8.23489C46.841 7.83182 46.1123 7.62253 45.1124 7.61478C44.1125 7.60702 43.3916 7.80081 42.9497 8.19613C42.5002 8.59921 42.2134 9.31234 42.0971 10.3355C41.9886 11.3122 41.2522 12.1494 40.229 12.3354C38.795 12.6067 37.4075 12.9943 36.0665 13.5059C34.7255 14.0097 33.4465 14.6376 32.2062 15.374C30.9738 16.1104 29.8188 16.9398 28.7491 17.8622C27.6794 18.7769 26.6795 19.7845 25.7648 20.8852C24.8656 21.9704 24.0595 23.1409 23.3386 24.3811C22.6332 25.6059 22.0131 26.9081 21.486 28.2879C20.9589 29.6599 20.5713 31.0551 20.3155 32.4504C20.0597 33.8534 19.9357 35.3339 19.9357 36.8842V47.8138C19.9357 49.6276 19.8272 51.3949 19.6179 53.1313C19.4086 54.7978 19.0986 56.4566 18.6722 58.0922C18.6645 58.1309 18.6567 58.1619 18.649 58.2007C18.2071 59.8673 17.6103 61.5028 16.8584 63.1151C16.1297 64.6731 15.2616 66.1847 14.2617 67.6497C14.2306 67.6962 14.1996 67.7427 14.1686 67.7892C13.1144 69.3085 11.7734 70.82 10.1534 72.3238L10.0914 72.3781H24.2145H45.0271H65.8088H79.9086C78.3273 70.9208 76.9941 69.417 75.9089 67.8822V67.8745C74.8469 66.3552 73.94 64.7972 73.1881 63.2004C72.4207 61.5726 71.8316 59.9215 71.4053 58.2627V58.255C70.9867 56.6039 70.6689 54.9063 70.4596 53.17C70.2581 51.5112 70.1496 49.7594 70.1418 47.9223V47.9145C70.1263 46.2015 70.1185 44.4186 70.1108 42.5583C70.0953 39.1166 70.0953 37.2408 70.0953 36.8765C70.0953 35.3572 69.9713 33.8767 69.7077 32.4426C69.4519 31.0164 69.0721 29.6366 68.5683 28.3034V28.2956C68.0489 26.9236 67.4366 25.6291 66.7389 24.4122C66.0413 23.1952 65.2351 22.0402 64.3282 20.9395C63.4291 19.8621 62.4446 18.8621 61.3749 17.9397C60.3362 17.0483 59.2355 16.2499 58.0806 15.529C58.0263 15.5057 57.9798 15.4747 57.9255 15.4437C56.6698 14.7073 55.3831 14.0717 54.0653 13.5446Z" />
</svg>
