<svg width="91" height="110" viewBox="0 0 91 110" fill="none" xmlns="http://www.w3.org/2000/svg">
<path d="M63.8783 73.2082C64.3053 73.395 64.6255 73.733 64.7857 74.1334C64.9458 74.5337 64.9547 74.9963 64.7768 75.4233C64.5899 75.8503 64.2519 76.1705 63.8516 76.3307C63.4513 76.4908 62.9887 76.4997 62.5617 76.3218C60.0797 75.2631 58.0159 73.6263 56.2812 71.5091C54.5731 69.4185 53.2032 66.8565 52.1179 63.9119C49.5647 62.3374 47.0828 61.1542 44.672 60.3625C42.2434 59.5618 39.886 59.1437 37.5997 59.1259C35.4291 59.0993 33.3119 59.4195 31.2391 60.0867C29.2554 60.7272 27.316 61.6791 25.4212 62.9423C26.5065 63.912 27.5029 64.9884 28.4013 66.1715C29.3621 67.4347 30.2072 68.8225 30.9456 70.3348C31.1502 70.7529 31.168 71.2155 31.0256 71.6247L31.0167 71.6425C30.8744 72.0428 30.5808 72.3898 30.1627 72.5944C29.7446 72.799 29.282 72.8168 28.8728 72.6744L28.855 72.6655C28.4547 72.5232 28.1078 72.2296 27.9032 71.8115C26.8357 69.6231 25.5013 67.7372 23.9089 66.1626C22.3165 64.5791 20.4662 63.2981 18.3668 62.3018C16.2139 61.2788 13.7943 60.5493 11.1255 60.0956C8.44781 59.6419 5.52105 59.464 2.34521 59.553C1.88262 59.5618 1.45562 59.3839 1.13536 59.0904C0.824006 58.7968 0.6194 58.3787 0.610504 57.9072C0.601608 57.4446 0.779526 57.0176 1.07309 56.6974C1.36666 56.386 1.78476 56.1814 2.25625 56.1725C5.69007 56.0746 8.87481 56.2704 11.8016 56.7774C14.7372 57.2845 17.406 58.1029 19.8079 59.2416C20.3239 59.4818 20.822 59.7398 21.3024 60.0155C21.7472 60.2646 22.1742 60.5226 22.5923 60.7895C24.9319 59.0993 27.3427 57.836 29.8247 56.9909C32.3511 56.128 34.9487 55.7188 37.6264 55.7455C39.797 55.7722 42.0121 56.0924 44.2628 56.7151C46.3711 57.2934 48.5061 58.1385 50.6856 59.2416C50.6234 58.9747 50.5522 58.7167 50.4899 58.4499C50.3921 58.0229 50.2942 57.587 50.1963 57.1333C49.2979 52.8988 48.7552 48.1484 48.4439 43.0599C48.1414 38.0782 48.0613 32.7584 48.1058 27.2697C43.9692 28.6752 39.8771 30.0719 35.7227 31.4241C34.2549 32.0824 32.9027 32.4115 31.6573 32.4204C30.4029 32.4382 29.2554 32.1357 28.2145 31.5575C27.2271 31.0148 26.3642 30.2231 25.608 29.2268C24.8608 28.2393 24.2114 27.0473 23.6598 25.6862C22.45 23.738 21.2046 21.7898 20.0303 19.8327C19.0784 18.2403 18.5358 16.7191 18.4023 15.2602C18.2778 13.7923 18.5714 12.3957 19.2919 11.0702C19.9591 9.83366 20.9911 8.70388 22.4055 7.66306C23.8022 6.64003 25.5547 5.70596 27.6808 4.86974C31.6573 3.50867 35.865 2.09422 39.8771 0.875475C41.3805 0.332824 42.8394 0.0392589 44.245 0.00367525C45.6594 -0.0319084 47.0205 0.190489 48.3282 0.688661C49.5825 1.16904 50.7746 1.88961 51.8955 2.86816C52.9986 3.83782 54.0305 5.05656 54.9912 6.53328C60.0975 9.78918 64.5099 13.8279 68.2995 18.5784C72.0892 23.3377 75.2472 28.7998 77.8449 34.8846C80.4336 40.9427 82.4707 47.6235 84.0186 54.8292C85.5665 62.026 86.634 69.7566 87.2923 77.9319C88.4488 81.259 89.3028 84.2658 89.7209 86.9435C90.1479 89.6478 90.1301 92.0053 89.5519 93.9979C88.9292 96.1774 87.7015 97.8944 85.7622 99.122C83.8407 100.332 81.2164 101.052 77.7648 101.248C69.2781 103.41 61.2718 105.162 53.7814 106.47C46.2821 107.787 39.3077 108.658 32.8849 109.059C26.3909 109.459 20.4662 109.37 15.1464 108.765C9.82667 108.151 5.11184 107.013 1.0464 105.314C0.6194 105.136 0.299147 104.798 0.130124 104.397C-0.0388983 103.997 -0.0477942 103.534 0.130124 103.107C0.308043 102.68 0.646087 102.36 1.0464 102.191C1.44672 102.022 1.90931 102.013 2.33631 102.191C6.14376 103.783 10.6006 104.851 15.6713 105.429C20.742 105.999 26.4265 106.079 32.6714 105.696C38.9786 105.305 45.8551 104.442 53.2743 103.134C60.6846 101.835 68.6287 100.092 77.062 97.9388C77.0798 97.9388 77.0887 97.9299 77.1065 97.9299C77.151 97.921 77.1866 97.9121 77.231 97.9033C79.6063 97.5474 81.341 97.7075 83.5827 96.4354C85.0061 95.6259 85.8779 94.4961 86.2871 93.0639C86.7497 91.4626 86.723 89.461 86.3227 87.0947C85.9135 84.7195 85.1217 81.9796 84.0542 78.9283C84.0186 78.8482 83.9919 78.7592 83.9653 78.6703C83.9475 78.5813 83.9297 78.4924 83.9208 78.3945C83.2803 70.3348 82.2394 62.7377 80.7271 55.6743C79.2148 48.611 77.2399 42.0903 74.7224 36.2012C72.2315 30.3654 69.2069 25.1435 65.5863 20.6066C61.9656 16.0786 57.7579 12.2445 52.8829 9.18426C52.7762 9.12199 52.6694 9.03303 52.5805 8.94407C52.4915 8.85511 52.4114 8.74836 52.3403 8.64161L52.3314 8.62382C51.5485 7.36949 50.7123 6.34646 49.8494 5.55473C48.9865 4.76299 48.0791 4.19365 47.1362 3.83782C46.2199 3.49087 45.2591 3.33964 44.2361 3.37523C43.2131 3.41081 42.1366 3.63321 41.0069 4.04242C36.9681 5.38571 32.9116 6.69341 28.8728 8.0189C27.1292 8.70388 25.7059 9.44224 24.6028 10.2162C23.5086 10.9901 22.7347 11.7997 22.2721 12.6448C21.8629 13.4009 21.7116 14.2282 21.8184 15.1178C21.9251 16.0252 22.2988 17.0127 22.9393 18.0713L26.6044 23.9871C26.6133 23.996 26.6222 24.0138 26.6222 24.0227L26.6844 24.1294C26.7111 24.1739 26.7289 24.2184 26.7378 24.2539L26.7467 24.2717C27.1648 25.3304 27.6274 26.2288 28.1523 26.9583C28.6682 27.6789 29.2287 28.2215 29.8514 28.5685C30.4207 28.8798 31.0612 29.0311 31.7996 28.9955C32.5557 28.9599 33.4009 28.7375 34.3616 28.3105C34.3972 28.2927 34.4417 28.2749 34.4862 28.2571C34.5306 28.2393 34.5751 28.2215 34.6196 28.2037L36.1586 27.7056C36.5589 26.0598 36.9414 24.7076 37.2528 23.6134L37.2617 23.5956C37.5197 22.6883 37.751 22.0478 37.9022 21.6297C38 21.3539 38.1246 21.3183 38.089 21.2649C38.0623 21.2293 37.9645 21.4073 37.6531 21.6208C37.0749 22.03 36.1052 22.7061 34.4328 23.3821L33.6499 23.6935C33.214 23.8714 32.7515 23.8447 32.36 23.6757C31.9597 23.5067 31.6306 23.1864 31.4526 22.7505C31.2836 22.3146 31.3014 21.8609 31.4704 21.4606C31.6395 21.0603 31.9597 20.7312 32.3956 20.5532C32.6536 20.4465 32.9205 20.3486 33.1785 20.2419C37.7421 18.4004 39.7081 17.6176 40.8912 19.379C41.6474 20.4999 41.2293 21.9588 40.5087 24.5119L40.4998 24.5475C40.3397 25.108 40.1618 25.7396 39.9749 26.4334L49.2801 23.2665L49.3157 23.2576C49.3957 23.2309 49.4758 23.2131 49.5558 23.2042C49.6448 23.1864 49.7427 23.1864 49.8405 23.1864C50.3031 23.1953 50.7301 23.3821 51.0326 23.6935C51.335 24.0049 51.5218 24.423 51.5129 24.8945C51.4329 30.7747 51.4774 36.4769 51.762 41.8056C52.0467 47.1254 52.5894 52.0626 53.5056 56.4127C54.3863 60.5849 55.614 64.1966 57.3131 67.0611C58.9944 69.9345 61.1472 72.0339 63.8783 73.2082Z" />
</svg>
