<svg width="72" height="90" viewBox="0 0 72 90" fill="none" xmlns="http://www.w3.org/2000/svg">
<path d="M69.0254 31.7288H60.7881V23.8347C60.8263 10.7161 49.6525 0 35.9237 0C22.1949 0 11.0212 10.7161 11.0212 23.8347V31.7288H2.82203C1.25848 31.7288 0 32.9492 0 34.4364V76.7288C0 84.0508 6.2161 90 13.8432 90H58.0042C65.6314 90 71.8475 84.0508 71.8475 76.7288V34.4364C71.8475 32.9492 70.589 31.7288 69.0254 31.7288ZM16.6653 23.8347C16.6653 13.6525 25.322 5.37712 35.9237 5.37712C46.5254 5.37712 55.1822 13.6525 55.1822 23.8347V31.7288H16.6653V23.8347ZM66.2034 76.7288C66.2034 81.0763 62.5042 84.6229 57.9661 84.6229H13.8432C9.30508 84.6229 5.60593 81.0763 5.60593 76.7288V37.1059H66.2034V76.7288ZM31.6525 62.428L29.8602 71.3136C29.7076 72.1144 29.8983 72.9153 30.4322 73.5636C30.9661 74.1737 31.7669 74.5551 32.6059 74.5551H39.2415C40.0805 74.5551 40.8814 74.2119 41.4153 73.5636C41.9492 72.9534 42.178 72.1144 41.9873 71.3136L40.1949 62.428C42.6356 61.0169 44.2754 58.5 44.2754 55.6017C44.2754 51.2161 40.5381 47.6314 35.9619 47.6314C31.3856 47.6314 27.6102 51.2161 27.6102 55.6017C27.572 58.5 29.25 61.0169 31.6525 62.428Z" />
</svg>
