<svg width="90" height="91" viewBox="0 0 90 91" fill="none" xmlns="http://www.w3.org/2000/svg">
<path d="M89.0559 42.7543L69.7954 23.4557C68.5368 22.1971 66.5154 22.1971 65.2568 23.4557C63.9982 24.7143 63.9982 26.7357 65.2568 27.9943L79.0633 41.8008H28.9479C27.1934 41.8008 25.7441 43.2501 25.7441 45.0046C25.7441 46.759 27.1934 48.2083 28.9479 48.2083H79.0633L65.2568 62.0148C63.9982 63.2734 63.9982 65.2948 65.2568 66.5535C65.867 67.1637 66.7061 67.5069 67.507 67.5069C68.308 67.5069 69.147 67.2018 69.7573 66.5535L89.0559 47.2548C90.3145 46.0343 90.3145 43.9748 89.0559 42.7543Z" />
<path d="M54.6541 64.3034C52.8997 64.3034 51.4504 65.7527 51.4504 67.5071V77.1565C51.4504 80.7035 48.5518 83.6021 45.0048 83.6021H12.8531C9.30607 83.6021 6.40746 80.7035 6.40746 77.1565V12.8531C6.40746 9.30607 9.30607 6.40746 12.8531 6.40746H45.0048C48.5518 6.40746 51.4504 9.30607 51.4504 12.8531V22.5024C51.4504 24.2568 52.8997 25.7061 54.6541 25.7061C56.4085 25.7061 57.8578 24.2568 57.8578 22.5024V12.8531C57.8578 5.75908 52.0987 0 45.0048 0H12.8531C5.75908 0 0 5.75908 0 12.8531V77.1565C0 84.2504 5.75908 90.0095 12.8531 90.0095H45.0048C52.0987 90.0095 57.8578 84.2504 57.8578 77.1565V67.5071C57.8578 65.7527 56.4085 64.3034 54.6541 64.3034Z" />
</svg>
