<svg width="90" height="91" viewBox="0 0 90 91" fill="none" xmlns="http://www.w3.org/2000/svg">
<path d="M43.8842 0.200177C43.1595 0.505326 42.4348 1.42077 42.2822 2.10736C42.2441 2.41251 42.2059 5.464 42.2441 8.85879C42.2822 14.8092 42.3204 15.0762 42.6637 15.5339C43.3502 16.4494 43.9224 16.7545 44.9904 16.7545C45.8296 16.7545 46.1347 16.6782 46.6306 16.2968C47.813 15.3814 47.813 15.3051 47.813 8.40107C47.813 1.49706 47.813 1.42077 46.6306 0.54347C45.944 0.0094582 44.6853 -0.18126 43.8842 0.200177Z" />
<path d="M30.6485 11.4141C29.2371 12.2915 29.0464 13.6646 30 16.0677C30.7629 17.9749 31.1062 18.5089 31.9072 18.8522C33.7762 19.7676 35.9504 18.4326 35.9504 16.411C35.9504 15.7244 34.9587 13.0162 34.3865 12.1007C33.6999 11.0709 31.7928 10.6894 30.6485 11.4141Z" />
<path d="M56.548 11.376C55.7851 11.8337 55.5181 12.2533 54.7171 14.3512C53.9542 16.2965 53.9542 16.8305 54.5645 17.8986C55.2511 19.0429 56.8531 19.5006 58.1882 18.8522C58.951 18.4707 59.2943 18.013 60.0572 16.1058C60.8582 14.2368 60.8964 13.1687 60.2861 12.2533C59.5232 11.109 57.7304 10.6894 56.548 11.376Z" />
<path d="M14.3229 12.4444C13.56 12.6733 12.6446 13.665 12.4539 14.4661C12.0724 15.8774 12.2632 16.1825 17.0311 20.9505C19.4342 23.3535 21.6084 25.4514 21.8754 25.604C23.0578 26.2143 24.6599 25.7566 25.4609 24.6123C25.9186 23.9257 25.9949 22.5525 25.6134 21.8278C25.4609 21.5608 23.4393 19.4247 21.0743 17.098C16.2301 12.2537 15.8487 12.0249 14.3229 12.4444Z" />
<path d="M73.9416 12.5586C73.255 12.8637 64.9397 21.0646 64.5201 21.8656C63.8717 23.0099 64.3294 24.6501 65.5118 25.4511C66.1984 25.9088 67.5716 25.9851 68.2963 25.6037C68.5633 25.4511 70.7375 23.3914 73.1406 20.9883C76.8405 17.2502 77.489 16.5255 77.6797 15.8771C78.0611 14.4657 77.1457 12.9018 75.7344 12.4823C74.8952 12.2153 74.6663 12.2534 73.9416 12.5586Z" />
<path d="M42.5873 19.8059C39.7265 20.1873 37.2853 20.8358 34.9967 21.7894C27.1773 25.1842 21.6846 32.1263 20.0826 40.5561C19.6248 42.9591 19.6248 47.1168 20.0826 49.5198C21.0361 54.7836 23.3629 59.1702 27.1391 62.9082C30.8772 66.6845 35.3019 69.0112 40.5276 69.9648C42.8543 70.4226 47.2408 70.4226 49.4913 69.9648C57.4252 68.4391 64.1385 63.4041 67.6096 56.3857C69.5549 52.4569 70.2415 49.5198 70.2415 45.0189C70.2415 40.5179 69.5549 37.5808 67.6096 33.652C65.2447 28.8841 61.1633 24.7646 56.3572 22.3997C52.7717 20.6069 49.7202 19.8822 45.677 19.7678C44.3419 19.7296 42.9306 19.7678 42.5873 19.8059ZM49.2625 25.7563C56.6242 27.3583 62.7653 33.5376 64.3292 40.8993C66.3127 50.2445 61.354 59.6279 52.5428 63.2515C49.7965 64.3959 48.347 64.6247 44.9522 64.6247C42.3203 64.6247 41.7482 64.5484 40.2606 64.167C33.1277 62.2598 27.8257 56.996 25.8804 49.825C25.4608 48.2992 25.4227 47.7652 25.4227 45.1333C25.4227 42.6158 25.4608 41.8911 25.8041 40.5942C27.8639 32.3933 34.2339 26.6718 42.6636 25.4512C43.7316 25.2604 48.0037 25.4893 49.2625 25.7563Z" />
<path d="M12.3394 29.7232C10.7374 30.7149 10.623 33.385 12.1487 34.3767C13.0642 34.9489 15.7724 35.9406 16.4589 35.9406C18.4806 35.9406 19.7774 33.8046 18.9001 31.8974C18.5187 31.1345 18.061 30.7912 16.1538 30.0284C14.2848 29.2655 13.2167 29.1892 12.3394 29.7232Z" />
<path d="M73.9415 30.0283C72.1106 30.7912 71.6147 31.1345 71.2333 31.8973C70.3178 33.7664 71.6529 35.9406 73.6745 35.9406C74.3611 35.9406 77.0693 34.9488 77.9847 34.3767C79.4723 33.4231 79.396 30.8293 77.8703 29.7994C76.9548 29.1891 75.7724 29.2273 73.9415 30.0283Z" />
<path d="M1.58296 42.5399C1.27781 42.6925 0.781945 43.1121 0.51494 43.4554C-0.171647 44.3708 -0.171647 45.8203 0.51494 46.6976C1.43039 47.88 1.50667 47.8801 8.41068 47.8801C15.3147 47.8801 15.391 47.88 16.3064 46.6976C16.6879 46.2017 16.7641 45.8966 16.7641 45.0956C16.7641 44.2945 16.6879 43.9894 16.3064 43.4935C15.391 42.3111 15.3528 42.3111 8.37254 42.3111C2.99428 42.2348 2.07883 42.2729 1.58296 42.5399Z" />
<path d="M74.8952 42.4631C73.2551 43.1497 72.7592 45.2858 73.8272 46.6971C74.6664 47.8414 74.7808 47.8414 81.6467 47.8414C88.5507 47.8414 88.627 47.8414 89.5424 46.6589C89.9238 46.1631 90.0001 45.8579 90.0001 45.0569C90.0001 44.2177 89.9238 43.9507 89.5043 43.4167C88.627 42.2724 88.5507 42.2724 81.6085 42.2724C76.8787 42.2343 75.3148 42.3106 74.8952 42.4631Z" />
<path d="M15.124 54.4404C11.9581 55.5847 11.0808 56.3476 11.0808 57.9878C11.0808 59.5898 12.187 60.7341 13.7509 60.7341C14.59 60.7341 17.1838 59.7805 18.1374 59.1321C19.1673 58.4073 19.5106 56.5383 18.7858 55.4703C17.9085 54.1734 16.7261 53.8301 15.124 54.4404Z" />
<path d="M72.7971 54.2498C71.1188 54.8601 70.4322 56.5384 71.1951 58.1405C71.5765 58.9033 72.0342 59.2466 73.9414 60.0095C75.8104 60.7724 76.8785 60.8487 77.7558 60.2384C79.3578 59.1703 79.3959 56.6147 77.8702 55.623C77.3362 55.2797 74.6661 54.2117 73.9795 54.0591C73.7125 54.0591 73.1785 54.1354 72.7971 54.2498Z" />
<path d="M21.7229 64.5868C21.4559 64.7775 19.2817 66.8373 16.9168 69.2022C13.255 72.864 12.6447 73.5887 12.454 74.2372C11.9199 76.2969 13.8271 78.166 15.8487 77.632C16.4972 77.4412 17.2219 76.8309 20.96 73.0929C23.3631 70.6898 25.461 68.5156 25.5754 68.2486C25.9568 67.562 25.8805 66.1889 25.461 65.5023C24.7744 64.2817 22.9053 63.824 21.7229 64.5868Z" />
<path d="M65.5116 64.5866C65.2065 64.7774 64.7869 65.1969 64.5962 65.5021C64.1766 66.1887 64.1384 67.5618 64.4817 68.2484C64.6343 68.5154 66.6941 70.6896 69.0971 73.0927C72.8352 76.7926 73.5599 77.4411 74.2084 77.6318C76.23 78.1658 78.099 76.2586 77.6031 74.237C77.4124 73.5885 76.8021 72.8638 73.064 69.1257C70.661 66.7227 68.4868 64.6248 68.2198 64.5104C67.5714 64.1289 66.1982 64.1671 65.5116 64.5866Z" />
<path d="M31.869 71.2237C31.1442 71.567 30.8009 72.0628 30.0381 73.97C29.2371 75.8391 29.1989 76.9071 29.8092 77.8225C30.8391 79.3864 33.4329 79.4246 34.4246 77.937C34.9967 77.0215 35.9885 74.3133 35.9885 73.6267C35.9503 71.6051 33.738 70.3082 31.869 71.2237Z" />
<path d="M55.4419 71.3381C54.6409 71.8721 54.145 72.7494 54.145 73.6267C54.145 74.3133 55.1368 77.0215 55.7089 77.9369C56.6625 79.4245 59.2563 79.3482 60.3243 77.7843C60.8965 76.907 60.8202 75.839 60.0573 73.97C59.714 73.1308 59.2944 72.2154 59.1037 71.9484C58.379 70.9185 56.5099 70.5752 55.4419 71.3381Z" />
<path d="M43.8461 73.5124C43.5409 73.7031 43.045 74.0845 42.778 74.4278L42.3203 75.0381V81.7133C42.3203 88.1596 42.3203 88.3884 42.7017 88.8461C43.3883 89.7616 43.9605 90.0667 45.0285 90.0667C45.8677 90.0667 46.1728 89.9905 46.6687 89.609C47.8511 88.6936 47.8511 88.6173 47.8511 81.7133C47.8511 74.8093 47.8511 74.733 46.6687 73.8557C45.944 73.2072 44.6852 73.0928 43.8461 73.5124Z" />
</svg>
