<svg width="107" height="123" viewBox="0 0 107 123" fill="none" xmlns="http://www.w3.org/2000/svg">
<path d="M11.3 89.0188C13.37 90.2688 14.04 92.9588 12.79 95.0288C11.54 97.0988 8.85 97.7688 6.78 96.5188C4.73 95.2788 3.01 93.5188 1.82 91.4188C0.66 89.3788 0 87.0288 0 84.5588V43.0188C0 39.1688 1.57 35.6788 4.1 33.1488C6.63 30.6188 10.12 29.0488 13.97 29.0488H46.37L73.96 1.28877C75.66 -0.421225 78.43 -0.431225 80.14 1.26877C81 2.11877 81.43 3.24877 81.43 4.36877H81.44V27.1188C81.44 29.5388 79.48 31.5088 77.05 31.5088C74.63 31.5088 72.66 29.5488 72.66 27.1188V14.9888L51.5 36.2888C50.7 37.2288 49.5 37.8288 48.17 37.8288H13.97C12.54 37.8288 11.24 38.4188 10.3 39.3588C9.36 40.2988 8.77 41.5988 8.77 43.0288V84.5688C8.77 85.5088 9.01 86.3688 9.43 87.1088C9.87 87.8888 10.52 88.5488 11.3 89.0188ZM14.21 118.769C12.5 120.479 9.72 120.479 8.01 118.769C6.3 117.059 6.3 114.279 8.01 112.569L98.6 21.9788C100.31 20.2688 103.09 20.2688 104.8 21.9788C106.51 23.6888 106.51 26.4688 104.8 28.1788L14.21 118.769ZM72.67 72.3088C72.67 69.8888 74.63 67.9188 77.06 67.9188C79.48 67.9188 81.45 69.8788 81.45 72.3088V118.489C81.45 120.909 79.49 122.879 77.06 122.879C75.88 122.879 74.82 122.419 74.03 121.669L51.17 103.049C49.3 101.529 49.01 98.7688 50.54 96.8988C52.06 95.0288 54.82 94.7388 56.69 96.2688L72.68 109.289V72.3088H72.67Z" />
</svg>
