<svg width="32" height="33" viewBox="0 0 32 33" fill="none" xmlns="http://www.w3.org/2000/svg">
<circle cx="16" cy="16.7939" r="16" fill="#FFF2F2"/>
<path d="M20.8334 9.99032C20.9122 9.98432 20.9661 9.97666 21.0197 9.97666C21.6007 9.97567 22.1814 9.97367 22.7624 9.977C23.2442 9.97966 23.4976 10.2101 23.4976 10.6543C23.4993 14.9941 23.4983 19.3339 23.5 23.6737C23.5 24.0733 23.2643 24.3701 22.742 24.3691C17.7699 24.3591 12.7975 24.3581 7.82544 24.37C7.23093 24.3714 7.03322 24.0214 7.03357 23.6214C7.03806 19.3203 7.03633 15.0194 7.03668 10.7183C7.03668 10.2051 7.28312 9.977 7.8365 9.97633C8.45071 9.97567 9.06526 9.976 9.70159 9.976C9.70643 10.0596 9.71334 10.1272 9.71334 10.1951C9.71438 10.8851 9.73304 11.5758 9.70919 12.2648C9.68776 12.8802 10.283 13.2925 10.7935 13.2908C11.0838 13.2898 11.3745 13.2974 11.6648 13.2891C12.2998 13.2711 12.7405 12.8565 12.7464 12.2654C12.7533 11.5754 12.7533 10.8855 12.7453 10.1955C12.7433 10.0319 12.7847 9.97167 12.9745 9.97267C14.5098 9.97966 16.0448 9.97933 17.5802 9.973C17.7599 9.97234 17.7983 10.0309 17.7966 10.1848C17.789 10.8618 17.7921 11.5388 17.7938 12.2162C17.7952 12.8545 18.2279 13.2735 18.9081 13.2908C19.1916 13.2978 19.4753 13.2984 19.7584 13.2891C20.3875 13.2681 20.8303 12.8412 20.8327 12.2561C20.8355 11.5725 20.8337 10.8891 20.8337 10.2054C20.8334 10.1365 20.8334 10.0672 20.8334 9.99032ZM15.2727 15.2229C12.9282 15.2229 10.584 15.2229 8.23952 15.2229C7.90183 15.2229 7.8842 15.2382 7.8842 15.5493C7.88385 18.1674 7.8842 20.7855 7.88454 23.4037C7.88454 23.7114 7.91289 23.7377 8.23745 23.7377C12.9261 23.738 17.6147 23.738 22.3037 23.738C22.6266 23.738 22.6622 23.705 22.6622 23.4063C22.6622 20.7882 22.6625 18.1701 22.6622 15.5519C22.6622 15.2469 22.6359 15.2226 22.3062 15.2226C19.9613 15.2229 17.6168 15.2229 15.2727 15.2229Z" fill="#E30613"/>
<path d="M20.2147 10.4483C20.2147 10.9118 20.2157 11.3757 20.2143 11.8393C20.2133 12.1759 20.0695 12.3261 19.7073 12.3428C19.4387 12.3551 19.1681 12.3561 18.8999 12.3411C18.5577 12.3221 18.4025 12.1603 18.4021 11.8443C18.4004 10.8975 18.4008 9.95076 18.4025 9.00401C18.4032 8.72894 18.5252 8.5621 18.8141 8.5348C19.1411 8.50383 19.4767 8.50349 19.8041 8.53313C20.0986 8.55977 20.213 8.71729 20.214 8.99935C20.2164 9.48221 20.2147 9.96541 20.2147 10.4483Z" fill="#E30613"/>
<path d="M10.3317 10.4286C10.332 9.95141 10.3303 9.47454 10.3324 8.99733C10.3338 8.70329 10.4506 8.55543 10.7627 8.52779C11.0638 8.50082 11.3714 8.49848 11.6728 8.52213C11.9956 8.54744 12.1318 8.71128 12.1321 9.01332C12.1339 9.96107 12.1339 10.9088 12.1318 11.8566C12.1311 12.1623 11.9901 12.3181 11.6669 12.3378C11.3779 12.3554 11.0859 12.3561 10.7969 12.3388C10.4668 12.3188 10.3331 12.1686 10.332 11.8599C10.3303 11.3827 10.3313 10.9055 10.3317 10.4286Z" fill="#E30613"/>
</svg>
