<svg width="32" height="33" viewBox="0 0 32 33" fill="none" xmlns="http://www.w3.org/2000/svg">
<circle cx="16" cy="16.4043" r="16" fill="#FFF2F2"/>
<path d="M12.3721 29.4014C12.2995 29.2915 12.1248 29.2915 12.1192 29.0962C12.1192 28.8575 12.1667 28.7461 12.4155 28.6724C12.8836 28.5277 13.2665 28.2124 13.6298 27.8826C13.7695 27.7553 13.7695 27.5412 13.7793 27.359C13.8118 26.6567 13.7287 25.9538 13.5334 25.2803C13.27 24.3883 13.1653 23.4541 13.2246 22.5233C13.2345 22.135 13.2738 21.7481 13.3419 21.3661C13.3519 21.2229 13.3294 21.0793 13.2763 20.9466C13.0419 20.0511 13.0579 19.1051 13.3224 18.2186C13.402 17.9553 13.3322 17.6805 13.3671 17.4114C13.4384 16.8234 13.6017 16.2513 13.8506 15.7176C14.0216 15.334 14.0988 14.9127 14.0756 14.4909C14.0714 14.1102 14.0406 13.7302 13.9833 13.354C13.928 12.9695 13.8119 12.5971 13.6396 12.2518C13.3472 11.6948 13.1999 11.0687 13.212 10.435C12.4742 10.827 11.6748 10.8356 10.8546 10.9268C11.1718 11.2841 11.2738 11.7368 11.4876 12.1303C11.672 12.4731 11.9823 12.7089 12.2492 12.9822C12.2823 13.0075 12.3226 13.0207 12.3638 13.0199C12.8808 13.0343 13.0401 13.4451 13.2204 13.8386C13.3168 14.0512 13.1225 14.1409 13.0485 14.2725C12.8514 14.6153 12.34 14.5936 12.0619 14.3289C11.4303 13.7214 11.0642 12.8564 10.2579 12.4181C10.0343 12.2952 9.86101 12.0681 9.67096 11.8829C9.40478 11.6101 9.19552 11.2837 9.0561 10.9239C8.93453 10.6346 9.02396 10.3626 9.19584 10.1225C9.44268 9.81731 9.75008 9.57064 10.0972 9.39928C10.3777 9.24358 10.667 9.10544 10.9636 8.98558C11.3646 8.82357 11.7559 8.67169 12.0815 8.339C12.3484 8.05983 12.7271 7.99039 13.1072 8.0092C13.707 8.03642 14.3027 7.8939 14.8302 7.59695C14.9058 7.56077 14.9698 7.50278 15.0144 7.42991C15.059 7.35705 15.0824 7.27241 15.0817 7.18614C15.1031 6.83154 15.0203 6.47853 14.8441 6.1736C14.7393 5.96964 14.6345 5.75411 14.5241 5.54582C14.4627 5.43155 14.4305 5.29991 14.587 5.2247C14.696 5.17407 14.6471 5.08005 14.6527 5.00483C14.696 4.35246 14.8875 3.79122 15.5191 3.50626C15.8152 3.37795 16.1473 3.37047 16.4486 3.48533C16.7498 3.60019 16.9979 3.82886 17.1429 4.12536C17.2637 4.3754 17.3354 4.64778 17.3539 4.92672C17.3637 5.05835 17.3092 5.21602 17.4936 5.284C17.5383 5.29991 17.5383 5.37803 17.5216 5.42865C17.4389 5.67154 17.3336 5.90553 17.2072 6.12731C17.0589 6.34011 16.9673 6.58954 16.9416 6.85056C16.9263 7.5738 16.855 7.42915 17.4601 7.73436C17.884 7.94122 18.3522 8.03187 18.8198 7.99763C19.0861 7.97186 19.3544 8.01418 19.6012 8.12086C19.8481 8.22755 20.0658 8.39534 20.2353 8.60949C20.3117 8.68847 20.4089 8.74231 20.5148 8.76427C21.0736 8.95174 21.6107 9.20254 22.1162 9.51211C22.2496 9.59471 22.3771 9.68704 22.4977 9.78839C23.0846 10.2831 23.1419 10.6751 22.7493 11.3419C22.4602 11.7953 22.0908 12.1879 21.6607 12.4991C21.1995 12.8651 20.723 13.2021 20.4645 13.7778C20.3248 14.0787 20.0048 14.2219 19.8119 14.4895C19.6987 14.6486 19.1286 14.5213 19 14.313C18.9008 14.1539 18.6772 14.0237 18.817 13.7677C18.9888 13.4538 19.1132 13.0893 19.5254 13.0372C19.6674 13.0188 19.7993 12.9516 19.9 12.8463C20.2661 12.489 20.5987 12.1143 20.7524 11.5994C20.8335 11.344 20.9724 11.1124 21.1576 10.9239C20.3401 10.8212 19.5338 10.8255 18.796 10.4248C18.81 11.2002 18.5626 11.88 18.237 12.5396C18.0498 12.9128 18.026 13.3352 17.9785 13.7445C17.924 14.2161 17.9198 14.6925 17.9659 15.165C17.981 15.2659 18.0117 15.3636 18.0568 15.4543C18.4117 16.2687 18.6884 17.099 18.666 18.0146C18.6591 18.3401 18.8212 18.6482 18.8617 18.9765C18.9424 19.6842 18.8873 20.4014 18.6996 21.087C18.6703 21.2006 18.6646 21.3194 18.6828 21.4356C18.8956 22.7929 18.8062 24.1826 18.4215 25.4988C18.2123 26.1798 18.1597 26.902 18.2678 27.6078C18.2778 27.6868 18.304 27.7627 18.3444 27.8305C18.3849 27.8983 18.4388 27.9565 18.5025 28.0012C18.8896 28.2789 19.2488 28.5972 19.7295 28.7143C19.9363 28.7649 19.967 29.141 19.791 29.277C19.726 29.3229 19.6584 29.3645 19.5883 29.4014H19.246C18.9935 29.2923 18.7484 29.1657 18.5123 29.0224C18.3849 28.9187 18.2352 28.8481 18.076 28.8166C17.9167 28.7852 17.7524 28.7937 17.597 28.8416C17.2323 28.9487 17.0087 28.7244 17.0311 28.3382C17.0372 28.2457 17.0503 28.1538 17.0702 28.0634C17.2798 27.0509 17.305 26.06 16.9794 25.0605C16.6727 24.1805 16.5989 23.2316 16.7656 22.3121C16.7949 22.1108 16.7949 21.906 16.7656 21.7046C16.6859 20.8613 16.1172 20.1916 16.0026 19.3555C15.8866 19.924 15.6491 20.4317 15.4269 20.9466C15.2309 21.3795 15.168 21.8642 15.2466 22.3353C15.385 23.1895 15.328 24.0654 15.0803 24.8927C14.9266 25.4554 14.7603 26.0094 14.7701 26.6039C14.7825 27.1117 14.8428 27.617 14.9503 28.1126C15.0747 28.7129 14.8288 28.9631 14.267 28.8141C14.1904 28.7829 14.1082 28.7696 14.026 28.7751C13.9439 28.7806 13.8639 28.8048 13.7919 28.846C13.454 29.0748 13.0915 29.2622 12.7117 29.4043L12.3721 29.4014Z" fill="#E30613"/>
</svg>
