<svg width="32" height="32" viewBox="0 0 32 32" fill="none" xmlns="http://www.w3.org/2000/svg">
<circle cx="16" cy="16" r="16" fill="#FFF2F2"/>
<g clip-path="url(#clip0_944_227)">
<path fill-rule="evenodd" clip-rule="evenodd" d="M20.3992 15.967H22.9623V15.4804C22.8157 14.9481 22.5823 14.5872 22.2801 14.3677C21.9778 14.1486 21.586 14.0549 21.126 14.058L10.6143 14.0604C10.3555 14.0604 10.146 13.8546 10.146 13.6011C10.146 13.3473 10.3555 13.1418 10.6143 13.1418L21.1137 13.143C21.7743 13.1367 22.3573 13.2844 22.836 13.6323C22.879 13.6636 22.9212 13.6964 22.9623 13.7308V13.4546C22.9623 13.0258 22.7819 12.6337 22.4915 12.349C22.2036 12.0643 21.8046 11.8882 21.365 11.8882H21.0269L20.9835 11.8862L20.8182 12.4939H19.6824L20.3562 10.0152C19.79 9.86675 19.4523 9.29265 19.604 8.7373L15.8562 7.75275C15.7045 8.30771 15.1195 8.63967 14.554 8.49087L13.4537 12.4939H12.2825L14.0646 6L22.0173 8.08979L21.2331 10.9692H21.365C22.0599 10.9692 22.6935 11.25 23.153 11.7003C23.6134 12.1499 23.8989 12.7724 23.8989 13.4546V15.9928C24.1693 16.0455 24.411 16.1767 24.5986 16.3607C24.8459 16.6032 25 16.9391 25 17.3089V20.3297C25 20.7152 24.8391 21.0659 24.5811 21.3186C24.3967 21.4994 24.1617 21.6318 23.8989 21.6923V23.5146C23.8989 24.1965 23.613 24.8186 23.1534 25.2693L23.1239 25.2959C22.666 25.7305 22.0443 26 21.365 26H9.53394C8.83823 26 8.20385 25.72 7.74429 25.2697C7.28553 24.8198 7 24.1984 7 23.5146V13.4546C7 12.7704 7.28513 12.1491 7.74389 11.6992C8.20265 11.2493 8.83664 10.9692 9.53394 10.9692H11.0122L11.0185 10.9696L12.1953 6.68345L13.3179 6.97831L11.7756 12.4939H10.6L10.7665 11.8882H9.53394C9.09549 11.8882 8.69606 12.0647 8.40615 12.3486C8.11664 12.6326 7.93664 13.0247 7.93664 13.4546V23.5146C7.93664 23.9446 8.11704 24.3359 8.40695 24.6198C8.69686 24.9045 9.09668 25.0814 9.53394 25.0814H21.365C21.7923 25.0814 22.1829 24.9135 22.4696 24.6421L22.4912 24.6194C22.7815 24.3351 22.9623 23.943 22.9623 23.5146V21.7294H20.3992C19.6076 21.7294 18.8876 21.4115 18.3675 20.9015L18.3185 20.8488C17.8263 20.3411 17.5228 19.6568 17.5228 18.9086V18.7875C17.5228 18.0146 17.8466 17.3101 18.3675 16.7981L18.3727 16.793C18.8943 16.2833 19.6119 15.967 20.3992 15.967ZM16.5878 12.3326C17.2723 12.5123 17.9772 12.1139 18.1604 11.4422C18.344 10.7709 17.937 10.0796 17.2524 9.89994C16.5675 9.72029 15.8626 10.1186 15.6794 10.7904C15.4962 11.4617 15.9032 12.1526 16.5878 12.3326ZM21.4279 18.0705L21.4303 18.0724C21.8655 18.5004 21.8643 19.1968 21.4295 19.6244L21.4275 19.6268C20.991 20.0536 20.281 20.0524 19.8445 19.626L19.8425 19.624C19.4073 19.196 19.4085 18.4997 19.8433 18.0716L19.8453 18.0697C20.2818 17.6428 20.9918 17.6436 21.4279 18.0705Z" fill="#E30613"/>
</g>
<defs>
<clipPath id="clip0_944_227">
<rect width="18" height="20" fill="white" transform="translate(7 6)"/>
</clipPath>
</defs>
</svg>
