<svg width="23" height="23" viewBox="0 0 23 23" fill="none" xmlns="http://www.w3.org/2000/svg">
<path d="M18.4457 19.3746C18.0146 18.2238 15.0693 16.1667 11.5 16.1667C7.93071 16.1667 4.98537 18.2238 4.55429 19.3746M18.4457 19.3746C20.6253 17.4507 22 14.6359 22 11.5C22 5.70101 17.299 1 11.5 1C5.70101 1 1 5.70101 1 11.5C1 14.6359 2.37468 17.4507 4.55429 19.3746M18.4457 19.3746C16.5947 21.0086 14.1631 22 11.5 22C8.83688 22 6.40532 21.0086 4.55429 19.3746M15 9.16667C15 11.0997 13.433 12.6667 11.5 12.6667C9.567 12.6667 8 11.0997 8 9.16667C8 7.23367 9.567 5.66667 11.5 5.66667C13.433 5.66667 15 7.23367 15 9.16667Z" />
</svg>
