<svg width="82" height="123" viewBox="0 0 82 123" fill="none" xmlns="http://www.w3.org/2000/svg">
<path d="M13.9735 29.0431H46.3631L73.9485 1.28984C75.6532 -0.427789 78.4169 -0.427789 80.1346 1.27693C80.9998 2.12929 81.426 3.25285 81.426 4.37641H81.4389V118.489C81.4389 120.917 79.4759 122.88 77.048 122.88C75.8211 122.88 74.7105 122.376 73.9098 121.563L46.5956 98.5232H13.9735C10.125 98.5232 6.63806 96.9476 4.10682 94.4164C1.57557 91.8852 0 88.3982 0 84.5497V43.0166C0 39.1681 1.57557 35.6812 4.0939 33.1499C6.62515 30.6187 10.125 29.0431 13.9735 29.0431ZM48.1711 37.8121H13.9735C12.5529 37.8121 11.2485 38.3932 10.3058 39.3489C9.36302 40.2917 8.76896 41.596 8.76896 43.0166V84.5497C8.76896 85.9703 9.35011 87.2747 10.3058 88.2174C11.2485 89.1602 12.5529 89.7543 13.9735 89.7543H48.1711V89.7801C49.1656 89.7801 50.16 90.1159 50.9865 90.8003L72.67 109.074V14.9921L51.5031 36.2753C50.7024 37.218 49.5013 37.8121 48.1711 37.8121Z" />
</svg>
