<svg width="25" height="19" viewBox="0 0 25 19" fill="none" xmlns="http://www.w3.org/2000/svg">
<path d="M22.395 17.5098C23.175 17.5098 23.8075 16.8748 23.8075 16.0973V2.9048C23.8075 2.1248 23.1725 1.4923 22.395 1.4923H2.605C1.825 1.4923 1.1925 2.1273 1.1925 2.9048V16.0973C1.1925 16.8773 1.8275 17.5098 2.605 17.5098H22.395ZM22.395 18.4523H2.605C1.305 18.4523 0.25 17.3973 0.25 16.0973V2.9048C0.25 1.6023 1.305 0.549805 2.605 0.549805H22.395C23.695 0.549805 24.75 1.6048 24.75 2.9048V16.0973C24.75 17.3973 23.695 18.4523 22.395 18.4523Z" fill="white"/>
<path d="M0.719971 4.78711H24.2775V8.08461H0.719971V4.78711Z" fill="white"/>
<path d="M2.60498 13.2696V12.3271H5.43248V13.2696H2.60498ZM6.84748 13.2696V12.3271H9.67498V13.2696H6.84748ZM11.0875 13.2696V12.3271H13.915V13.2696H11.0875ZM15.3275 13.2696V12.3271H18.155V13.2696H15.3275Z" fill="white"/>
<path d="M2.60498 14.6821H18.1525V15.6246H2.60498V14.6821Z" fill="white"/>
</svg>
