<svg width="25" height="21" viewBox="0 0 25 21" fill="none" xmlns="http://www.w3.org/2000/svg">
<path d="M17.545 20.7976L16.52 20.7726C16.52 20.7726 16.6075 17.1451 16.6325 16.7551C16.6625 16.3051 16.86 16.0126 17.035 15.7551L17.26 15.4026C18.59 13.2351 18.9875 12.8976 19.4425 12.9326C20.3375 13.0026 20.805 12.8526 21.045 12.7201L21.3975 12.5276C21.9 12.2526 23.35 11.4551 23.7475 11.1501C23.7475 10.4901 23.23 8.01008 22.9175 7.43508C22.7275 7.08758 22.26 6.37758 21.845 5.75508C21.3025 4.93508 20.99 4.46008 20.8975 4.24258C20.7975 4.07258 20.1325 3.64008 19.845 3.45258C19.695 3.35508 19.5625 3.26758 19.4675 3.19758C19.3325 3.10008 19.0175 2.85758 18.9225 2.88758C18.5575 2.94258 18.035 3.39008 18.065 3.89258C18.0725 4.03758 18.1875 4.20758 18.3775 4.35508C18.6825 4.59258 19.0275 4.67008 19.1475 4.65008C19.7175 4.53508 20.335 4.41008 20.735 5.06008C20.9975 5.48258 21.3575 6.06508 21.37 6.87508C21.3925 8.15508 21.44 8.89758 21.5075 9.08508C21.67 9.40008 21.6575 9.67008 21.4625 9.86758C21.17 10.1701 20.79 9.98008 20.605 9.89008C20.345 9.76258 19.8125 9.60008 19.495 9.70758C19.2275 9.80008 19.1375 9.88508 19.025 9.99008C18.9525 10.0576 18.8575 10.1451 18.73 10.2201C18.35 10.4426 17.975 10.1976 17.4125 9.82508C17.1525 9.65508 16.6125 9.29758 16.4325 9.29508C15.955 9.31758 15.725 9.34508 15.6425 9.39258C15.2875 9.58508 14.92 9.40758 14.23 8.71008C13.54 8.01258 13.35 7.60008 13.5525 7.23758C13.5825 7.18758 13.655 7.07758 13.76 6.93008C14.025 6.55508 14.965 4.59508 14.965 4.12508C14.965 3.04758 14.5275 1.24008 12.5 1.24008C10.4725 1.24008 10.035 3.04758 10.035 4.12508C10.035 4.59508 10.975 6.55508 11.24 6.93008C11.345 7.07758 11.42 7.18758 11.4475 7.23758C11.65 7.60008 11.46 8.01258 10.77 8.71008C10.08 9.41008 9.70997 9.58758 9.36247 9.39508C9.27747 9.34758 9.04497 9.32008 8.56747 9.29758C8.38747 9.30008 7.84997 9.65508 7.58997 9.82758C7.02497 10.2001 6.65247 10.4451 6.27247 10.2226C6.14497 10.1476 6.05247 10.0626 5.97747 9.99258C5.86497 9.88758 5.77497 9.80508 5.50747 9.71008C5.18997 9.60258 4.65747 9.76508 4.39747 9.89258C4.21747 9.98258 3.83497 10.1726 3.53997 9.87008C3.34497 9.67008 3.32997 9.40008 3.50247 9.07008C3.56247 8.90008 3.60747 8.15758 3.63247 6.88008C3.64747 6.06758 4.00747 5.48758 4.24497 5.10258C4.66997 4.41758 5.28747 4.54008 5.78247 4.63758C5.93997 4.66508 6.23747 4.58758 6.54747 4.33258C6.78497 4.14008 6.93247 3.92258 6.93997 3.74508C6.96997 3.25508 6.44497 2.94258 6.07997 2.88758C5.99747 2.87758 5.67247 3.10258 5.53747 3.19758C5.44247 3.26508 5.30747 3.35258 5.15997 3.45008C4.87747 3.63508 4.21247 4.07008 4.10247 4.25258C4.01497 4.45758 3.70247 4.93258 3.16247 5.75008C2.74747 6.37508 2.27747 7.08758 2.08747 7.43508C1.77247 8.01508 1.24997 10.5251 1.25747 11.1651C1.59247 11.4251 3.09497 12.2476 3.60747 12.5301L3.95997 12.7251C4.19997 12.8601 4.66997 13.0051 5.55997 12.9376C6.01497 12.9051 6.41497 13.2376 7.73997 15.4026L7.96997 15.7626C8.14247 16.0201 8.33997 16.3101 8.36997 16.7626C8.39497 17.1501 8.48247 20.7776 8.48247 20.7776L7.45747 20.8026C7.45747 20.8026 7.37247 17.2126 7.34497 16.8301C7.33497 16.6651 7.27247 16.5701 7.12247 16.3451L6.86747 15.9451C6.02247 14.5726 5.65747 14.1201 5.49997 13.9776C4.64497 14.0226 3.95997 13.9076 3.46247 13.6301L3.11247 13.4376C0.942473 12.2476 0.507474 11.9351 0.347474 11.6876C-0.0500264 11.0601 0.882474 7.49258 1.18497 6.93758C1.39497 6.55008 1.85747 5.85008 2.30497 5.17508C2.63997 4.66758 3.10247 3.97508 3.16497 3.82758C3.33747 3.43008 3.86747 3.06258 4.59747 2.58508C4.73497 2.49758 4.85497 2.41758 4.93747 2.35758C5.30997 2.09008 5.72997 1.79008 6.23247 1.86508C7.13247 2.00258 8.02497 2.76508 7.96247 3.80258C7.93497 4.29758 7.64247 4.78008 7.14247 5.17008C6.75497 5.47258 6.15747 5.75508 5.65747 5.66008C5.42247 5.61258 5.20247 5.56758 5.13997 5.58508C4.90747 5.98258 4.66747 6.36758 4.65747 6.89258C4.64247 7.73258 4.61997 8.32008 4.58247 8.73258C4.95997 8.63258 5.41747 8.58258 5.84247 8.73258C6.28247 8.88508 6.49997 9.07258 6.64497 9.20508C6.75497 9.13758 6.90497 9.04008 7.02247 8.96258C7.55747 8.60758 8.08997 8.23758 8.61247 8.26508C9.06497 8.28508 9.36247 8.31258 9.59997 8.38258C9.83497 8.20258 10.2325 7.80008 10.42 7.55258C10.415 7.54258 10.4075 7.53508 10.4 7.52508C9.74747 6.60008 9.00497 4.82758 9.00497 4.12258C9.00497 3.20508 9.38247 0.205078 12.4975 0.205078C15.6125 0.205078 15.99 3.20258 15.99 4.12258C15.99 4.82508 15.25 6.60008 14.595 7.52508C14.5875 7.53508 14.58 7.54258 14.575 7.55258C14.7625 7.80008 15.16 8.20258 15.395 8.38258C15.6325 8.31008 15.93 8.28508 16.3825 8.26508C16.89 8.24508 17.4375 8.61008 17.9725 8.96258C18.0925 9.04258 18.24 9.14008 18.35 9.20508C18.495 9.07258 18.7125 8.88758 19.155 8.73258C19.5825 8.58008 20.05 8.63508 20.4175 8.73008C20.3775 8.31258 20.355 7.72758 20.34 6.89508C20.33 6.36508 20.09 5.98008 19.8825 5.64008C19.7975 5.56758 19.5775 5.61258 19.4175 5.64508C18.8825 5.75008 18.24 5.55508 17.745 5.17008C17.3125 4.83508 17.06 4.40258 17.035 3.95258C16.9725 2.88758 17.895 2.00008 18.765 1.86758C19.2775 1.79508 19.69 2.09508 20.06 2.36008C20.145 2.42008 20.265 2.50008 20.4 2.58758C21.13 3.06508 21.66 3.43258 21.8325 3.83008C21.8975 3.98008 22.3575 4.67508 22.695 5.18258C23.14 5.85758 23.6025 6.55258 23.8125 6.94258C24.1125 7.49758 25.0475 11.0651 24.65 11.6851C24.49 11.9326 24.055 12.2451 21.8825 13.4351L21.5375 13.6251C21.035 13.9026 20.3475 14.0176 19.4975 13.9726C19.34 14.1151 18.9725 14.5676 18.1275 15.9476L17.875 16.3401C17.7225 16.5651 17.6625 16.6601 17.6525 16.8251C17.63 17.2076 17.545 20.7976 17.545 20.7976Z" fill="white"/>
</svg>
