<svg width="25" height="25" viewBox="0 0 25 25" fill="none" xmlns="http://www.w3.org/2000/svg">
<path d="M11.6488 0.632055C10.4963 0.825805 9.54254 1.33255 8.69829 2.1918C7.69479 3.21505 7.18329 4.45706 7.18329 5.88756C7.18329 7.45231 7.74954 8.7638 9.14529 10.4178C9.67679 11.0438 11.45 13.0258 12.0958 13.7063L12.508 14.1436L13.283 13.2346C14.5745 11.7196 15.9605 10.0506 16.318 9.57355C17.0383 8.6148 17.5698 7.5518 17.7338 6.7323C17.7785 6.5238 17.8133 6.1163 17.8133 5.8333C17.8133 4.4028 17.257 3.10631 16.2088 2.08781C15.409 1.31281 14.495 0.836055 13.4568 0.657305C13.0148 0.577555 12.041 0.567555 11.6488 0.632055ZM13.0495 3.43355C14.018 3.6423 14.8278 4.43706 15.0563 5.40556C15.265 6.29481 15.0065 7.17405 14.336 7.84455C13.5363 8.6443 12.3888 8.84305 11.3805 8.35605C9.74129 7.5713 9.37379 5.4353 10.6553 4.15355C11.306 3.5033 12.1603 3.2448 13.0495 3.43355Z" fill="white"/>
<path d="M17.396 9.32525C17.2718 9.519 17.1675 9.69275 17.1675 9.71275C17.1675 9.73275 18.5783 10.4628 20.297 11.337C22.0158 12.2113 23.4215 12.9415 23.4115 12.9613C23.4065 12.991 21.1365 14.7645 19.1993 16.2595L18.921 16.473L16.8198 14.6103L14.7185 12.7478L14.5795 12.882C14.5 12.9565 14.4355 13.046 14.4355 13.0708C14.4355 13.1005 15.3398 13.9303 16.4473 14.9138C17.724 16.0463 18.4343 16.712 18.3995 16.7318C18.2505 16.8113 12.2895 19.1708 12.2798 19.1558C12.2698 19.1458 10.6158 17.0845 8.60403 14.5758C6.58728 12.0673 4.95303 10.0008 4.96303 9.98575C4.97803 9.97075 5.61378 9.951 6.37878 9.936L7.76478 9.90625L7.49153 9.469L7.22328 9.027L6.07578 9.032C5.44003 9.032 4.72453 9.05175 4.47628 9.06675L4.02928 9.1015L2.18078 10.3633C0.25853 11.6748 0.19403 11.7343 0.26853 12.0175C0.31828 12.2213 8.56403 24.297 8.70328 24.3665C8.89203 24.4658 9.09578 24.3963 9.30428 24.153C9.40853 24.0388 10.2183 23.0453 11.1075 21.9575L12.722 19.9705L15.9755 18.674L19.2293 17.3775L21.7375 15.43C23.1185 14.362 24.3503 13.4033 24.4745 13.299C24.7328 13.0805 24.8025 12.9065 24.713 12.698C24.6485 12.539 24.4695 12.4448 20.138 10.249L17.6195 8.9725L17.396 9.32525ZM7.95803 14.526C9.95003 17.0048 11.6638 19.1358 11.763 19.2648L11.9518 19.4983L10.4565 21.3263C9.63703 22.3348 8.95153 23.1643 8.93153 23.1693C8.90678 23.1793 1.80328 12.7825 1.41103 12.1615L1.33153 12.0325L2.80178 11.0243C3.61153 10.4728 4.29203 10.0208 4.30703 10.0208C4.32678 10.0205 5.97103 12.0473 7.95803 14.526Z" fill="white"/>
</svg>
