<svg width="90" height="90" viewBox="0 0 90 90" fill="none" xmlns="http://www.w3.org/2000/svg">
<path d="M43.1129 0.183186C41.0163 0.716853 39.0722 2.08914 37.9668 3.8045C37.0138 5.29114 36.7089 6.47283 36.5183 9.2174C36.0608 16.2313 33.9643 21.3774 29.9237 25.3799C28.437 26.8284 26.6073 28.0863 24.1677 29.3443L22.4142 30.221L21.4993 29.6111C21.0038 29.268 20.1271 28.8106 19.5553 28.5819C18.6023 28.2007 18.2592 28.1626 13.1894 28.1245C8.76758 28.0863 7.66213 28.1245 6.59479 28.3532C3.6215 29.0393 1.10565 31.4408 0.305147 34.4141C0.0383136 35.4814 0.000194484 37.4255 0.000194484 58.9628C0.000194484 84.4263 -0.0379245 83.4352 0.953171 85.4555C1.56308 86.6372 3.31655 88.4288 4.49824 89.0006C6.17548 89.8773 7.16658 89.9917 12.5795 89.9917C17.8399 89.9917 18.7548 89.8773 20.3177 89.1531C21.4612 88.6194 23.0622 87.1709 23.8246 85.9892L24.3964 85.0743L25.7687 85.4174C26.5311 85.608 29.2756 86.256 31.9058 86.8659C43.8752 89.6867 47.2678 90.0298 62.058 89.9155C72.4264 89.8392 72.3121 89.8392 74.6754 88.6956C76.0477 88.0095 77.8012 86.4085 78.5636 85.1125C79.5928 83.4352 80.3552 81.0718 80.4695 79.4708C80.5077 78.7085 80.4695 77.7555 80.3933 77.3743C80.2408 76.6881 80.2408 76.6881 81.4987 75.4302C82.9473 73.9817 83.8621 72.3426 84.7389 69.6361C85.4631 67.4252 85.6537 64.49 85.1963 62.7366L84.9295 61.6311L85.8062 60.5638C86.8735 59.2296 87.5978 57.7811 88.1696 55.7989C88.9701 52.94 88.932 50.5003 88.0171 48.2132L87.5978 47.184L88.2839 46.1167C89.2369 44.6681 89.6562 43.4483 89.8849 41.5424C90.4567 36.8156 88.8938 33.1943 85.2725 30.869C82.4136 29.0012 80.2789 28.7344 66.6323 28.3913C62.058 28.2769 58.2842 28.1626 58.2461 28.1245C58.208 28.0863 58.2461 27.6289 58.3986 27.0571C59.0085 24.0076 59.0466 17.7561 58.513 14.8971C57.2931 8.4169 52.8332 2.39409 47.954 0.526257C46.4673 -0.00740969 44.4089 -0.159886 43.1129 0.183186ZM46.5436 6.0154C48.4495 6.89214 50.851 9.86543 51.9946 12.8006C53.0619 15.4308 53.1382 16.1932 53.1382 20.5006C53.1382 25.3799 52.7951 27.3621 51.0797 32.3938L50.6223 33.6898H59.0847C69.3388 33.6898 77.0007 33.9186 79.1735 34.2997C81.27 34.6809 82.7948 35.3671 83.4809 36.3582C84.2433 37.3874 84.4339 38.2641 84.3577 40.2082C84.2433 42.6478 83.6715 43.6389 81.8418 44.4775C81.0032 44.8587 80.6982 44.8968 77.0007 44.935C74.7898 44.935 72.8457 45.0493 72.5789 45.1637C71.5878 45.583 71.5497 47.1459 72.5408 47.6033C72.8076 47.7177 74.218 47.7939 76.3527 47.7939C79.974 47.7939 80.5839 47.9082 81.6512 48.7469C84.3577 50.8053 83.0997 56.9806 79.5928 58.5435C78.7161 58.9628 78.4111 58.9628 74.1418 59.039C70.8254 59.1153 69.5675 59.1915 69.3769 59.344C68.767 59.8395 68.8813 61.288 69.5675 61.6311C69.7581 61.7074 71.6259 61.8217 73.7225 61.8598C77.5344 61.9361 77.6106 61.9361 78.4111 62.4316C80.0121 63.3846 80.3171 65.2905 79.326 68.3401C78.4492 70.9703 77.6868 71.9233 75.819 72.6475C74.9041 72.9906 74.4086 73.0668 70.7873 73.1431C66.8229 73.2574 66.7467 73.2574 66.4417 73.6767C66.0224 74.2104 66.0224 74.9347 66.4417 75.4683C66.7848 75.8876 66.8991 75.8876 69.9106 75.9639C73.4937 76.0782 73.9512 76.1926 74.523 77.4505C75.0185 78.5179 74.9804 79.6233 74.3324 81.1481C73.6462 82.8253 72.6932 83.7021 71.1304 84.1214C70.1393 84.3882 68.9576 84.3882 59.1229 84.3501C45.8574 84.2738 44.4089 84.1214 34.8791 81.9105C24.2439 79.4708 23.4815 79.204 22.8335 78.1748C22.4904 77.6411 22.4904 77.1456 22.4904 57.5143C22.4904 37.8448 22.4904 37.3874 22.8335 36.7394C23.2147 36.0532 23.8627 35.4814 24.587 35.2527C25.6162 34.9478 28.3989 33.5374 29.8093 32.6225C37.0519 27.8957 41.245 20.4244 42.0074 10.8184C42.2742 7.46393 42.3124 7.31145 42.846 6.70155C43.7609 5.48174 45.0188 5.29114 46.5436 6.0154ZM18.3736 34.1473C18.6404 34.3379 19.0216 34.7191 19.2122 34.9859C19.5934 35.4433 19.5934 35.5196 19.5934 59.0009C19.5934 82.4822 19.5934 82.5585 19.2122 83.0159C19.0216 83.2827 18.6404 83.6639 18.3736 83.8545C17.9162 84.1976 17.6874 84.2357 12.6557 84.2357C7.62401 84.2357 7.39529 84.2357 6.93786 83.8545C6.67103 83.6639 6.28984 83.2827 6.09924 83.0159C5.71805 82.5585 5.71805 82.4441 5.67993 59.4583C5.67993 46.7647 5.67993 36.1295 5.71805 35.8245C5.83241 35.1384 6.59479 34.2235 7.31905 33.9186C7.73836 33.728 8.95817 33.6898 12.8844 33.728C17.6493 33.7661 17.9162 33.8042 18.3736 34.1473Z" />
<path d="M11.5886 73.2194C9.6064 73.8674 8.53906 75.316 8.53906 77.2982C8.53906 79.6997 10.2163 81.415 12.6559 81.415C15.0955 81.415 16.7728 79.6997 16.7728 77.2982C16.7728 75.6209 16.0104 74.3249 14.5238 73.5625C13.7614 73.1813 12.2747 72.9907 11.5886 73.2194ZM13.6089 76.3071C13.8757 76.5739 14.0663 76.9551 14.0663 77.26C14.0663 77.6031 13.9139 77.9462 13.6089 78.213C13.3421 78.4798 12.9609 78.6704 12.6559 78.6704C12.3128 78.6704 11.9698 78.518 11.7029 78.213C11.4361 77.9462 11.2455 77.565 11.2455 77.26C11.2455 76.917 11.398 76.5739 11.7029 76.3071C11.9698 76.0402 12.351 75.8496 12.6559 75.8496C12.999 75.8878 13.3421 76.0402 13.6089 76.3071Z" />
</svg>
