<svg width="123" height="118" viewBox="0 0 123 118" fill="none" xmlns="http://www.w3.org/2000/svg">
<path d="M87 8.53L86.92 8.47C82 10.13 80 5.18 78.14 3.13C80.36 3.22 84.25 1.49 87.79 6.42C87.8849 6.44328 87.9759 6.48034 88.06 6.53L88.9 7C87.9 4.59 88.54 1.94 88.66 0C89.9 1.68 95.06 6.25 92.56 9.32C93.25 9.79 93.93 10.32 94.56 10.79C93.74 7.9 94.84 4.67 95.17 3.4C96.25 4.9 100.56 10.54 97.51 13.21C98.51 14.09 99.51 15 100.42 15.96C99.94 13.09 101.5 10.49 102.16 8.89C102.82 10.22 106.8 16.89 103.16 19.01C103.827 19.77 104.447 20.55 105.02 21.35C104.93 18.44 106.86 16.11 107.88 14.26C108.29 16.37 111.1 22.95 107.29 24.62C107.6 25.1 107.9 25.62 108.2 26.09C108.5 26.56 108.69 26.92 108.92 27.34C109.18 24.49 111.3 22.41 112.49 20.7C112.68 22.86 114.81 29.75 110.77 30.96C111.29 32.09 111.77 33.25 112.22 34.43C112.99 31.72 115.37 30.01 116.8 28.52C116.64 30.69 117.67 37.8 113.57 38.52C113.85 39.52 114.1 40.52 114.33 41.47C115.39 38.78 118.02 37.33 119.65 35.98C119.24 38.17 119.44 45.59 115.09 45.64C115.23 46.58 115.34 47.52 115.42 48.47V49.02C116.96 46.45 119.9 45.43 121.8 44.35C121.01 46.47 119.92 53.94 115.58 53.35C115.58 54.35 115.58 55.35 115.48 56.35C117.42 53.88 120.63 53.35 122.75 52.59C121.6 54.59 119.28 61.76 115.08 60.4C114.91 61.64 114.7 62.86 114.44 64.07C116.78 62.07 119.99 62.07 122.2 61.68C120.75 63.39 117.26 69.95 113.42 68.1C113.12 69.1 112.78 70.1 112.42 71.1C115.01 69.28 118.26 69.75 120.53 69.64C119.37 71.22 114.53 77.35 110.9 74.82C110.41 75.89 109.9 76.95 109.34 77.99C112.26 76.44 115.59 77.25 117.88 77.46C116.16 78.94 110.99 84.62 107.35 81.39C106.74 82.39 106.11 83.27 105.45 84.18C108.45 83.05 111.45 84.18 113.63 84.64C111.73 85.88 106.25 91.34 102.93 87.38C102.04 88.38 101.11 89.44 100.14 90.38C104.05 89.22 107.07 90.96 108.65 91.68C106.57 92.76 100.05 97.58 97.45 92.92C96.55 93.71 95.62 94.47 94.67 95.2C98.19 94.76 101.12 96.58 103.35 97.62C100.99 98.37 93.68 102.36 91.26 97.62C90.48 98.13 89.68 98.62 88.87 99.1C92.12 99.33 94.33 101.81 96.35 103.03C94.48 103.7 87.01 106.24 84.88 101.19C83.95 101.63 83.02 102.04 82.06 102.43C85.19 103.07 87.06 105.72 88.94 107.13C87 107.6 79.23 109.31 77.71 103.98C73.38 105.32 68.81 105.98 64.29 108.04C66.6846 109.407 68.9329 111.015 71 112.84C75.46 116.32 71.76 119.84 67.89 114.66C66.0473 112.661 63.9132 110.952 61.56 109.59C59.3163 110.91 57.2724 112.543 55.49 114.44C51.49 119.61 47.83 116.05 52.36 112.58C54.3034 110.886 56.4027 109.379 58.63 108.08C54.13 106.08 49.49 105.36 45.06 103.95C43.59 109.38 35.76 107.65 33.81 107.18C35.7 105.74 37.64 103.01 40.88 102.44C39.88 102.03 38.88 101.59 37.88 101.13C35.81 106.32 28.24 103.75 26.36 103.13C28.43 101.88 30.71 99.3 34.11 99.13C33.23 98.62 32.36 98.13 31.52 97.53C29.17 102.53 21.74 98.44 19.36 97.68C21.66 96.61 24.71 94.68 28.36 95.31C27.36 94.51 26.31 93.68 25.36 92.81C22.82 97.75 16.18 92.81 14.07 91.74C15.7 90.99 18.87 89.17 22.97 90.56C22.44 90.03 21.92 89.49 21.41 88.93C20.9 88.37 20.41 87.81 19.92 87.24C16.62 91.5 11.02 85.92 9.09 84.66C11.38 84.13 14.54 82.97 17.64 84.35C16.91 83.35 16.2 82.35 15.54 81.26C11.89 84.82 6.54 78.98 4.84 77.48C7.22 77.26 10.75 76.39 13.76 78.22C13.14 77.07 12.56 75.89 12.02 74.69C8.33 77.59 3.37 71.26 2.19 69.69C4.57 69.8 8.02 69.28 10.67 71.43C10.26 70.3 9.88 69.15 9.54 67.98C5.63 70.2 2 63.41 0.55 61.66C2.87 62.07 6.3 61.99 8.65 64.37C8.35667 63.0367 8.11667 61.6767 7.93 60.29C3.57 62 1.17 54.58 0 52.57C2.23 53.38 5.67 53.91 7.56 56.74C7.48 55.57 7.44 54.42 7.43 53.26C2.87 54.26 1.76 46.49 0.95 44.32C2.95 45.46 6.09 46.52 7.55 49.39C7.64 48.12 7.78 46.85 7.95 45.6C3.35 45.84 3.57 38.18 3.15 35.95C4.87 37.37 7.68 38.9 8.63 41.86C8.87 40.74 9.15 39.62 9.47 38.52C5.09 38.08 6.16 30.73 6 28.52C7.5 30.09 10.05 31.89 10.68 34.83C11.16 33.54 11.68 32.27 12.26 31.02C7.91 30.02 10.12 22.9 10.26 20.7C11.51 22.49 13.78 24.7 13.86 27.75L13.93 27.64C14.4767 26.64 15.0567 25.66 15.67 24.7C11.56 23.18 14.47 16.41 14.88 14.26C16 16.19 18 18.63 17.76 21.72C18.42 20.82 19.1 19.95 19.76 19.1C15.87 17.1 19.96 10.24 20.63 8.89C21.31 10.55 22.96 13.28 22.31 16.27C23.31 15.27 24.31 14.27 25.4 13.27C22.12 10.65 26.53 4.88 27.62 3.36C27.96 4.66 29.11 8.03 28.16 10.99C28.88 10.43 29.61 9.9 30.36 9.38C27.71 6.35 33 1.7 34.22 0C34.34 2 35.02 4.71 33.91 7.18C34.45 6.86 35.01 6.55 35.56 6.24C39.05 1.63 42.84 3.29 45.02 3.24C43.18 5.32 41.14 10.33 36.18 8.55C35.3667 9.00333 34.5667 9.47333 33.78 9.96C37.35 10.35 39.17 13.44 40.78 15.23C38.71 14.93 31.95 15.41 31.23 11.67C30.45 12.23 29.69 12.8 28.95 13.39C32.52 13.39 34.64 16.29 36.43 17.89C34.35 17.82 27.73 18.98 26.57 15.41C25.3633 16.47 24.2033 17.61 23.09 18.83C26.71 18.3 29.23 20.92 31.24 22.29C29.16 22.48 22.73 24.52 21.13 21.1C20.4233 21.9667 19.7567 22.8567 19.13 23.77C22.61 22.93 25.37 25.22 27.49 26.35C25.49 26.77 19.43 29.44 17.39 26.35C16.91 27.1233 16.45 27.9033 16.01 28.69L15.5 29.69C18.73 28.08 21.93 29.69 24.26 30.37C23.04 31.44 16.88 35.37 14.2 32.37C13.57 33.75 13.01 35.17 12.51 36.61C15.51 34.75 18.85 35.97 21.22 36.32C19.43 37.4 14.52 42.06 11.54 39.74C11.22 40.91 10.94 42.09 10.7 43.29C13.45 41.13 16.92 42 19.33 42C17.68 43.29 13.33 48.45 10.12 46.66C9.95 47.97 9.83 49.3 9.77 50.66C12.29 47.85 16.04 48.19 18.55 47.9C17.04 49.48 13.35 55.51 9.72 53.9C9.72 55.0333 9.78 56.1633 9.9 57.29C12.02 54.23 15.75 54.05 18.19 53.43C16.91 55.19 14.07 61.63 10.29 60.62C10.51 62.06 10.78 63.48 11.12 64.88C12.74 61.33 16.55 60.64 18.93 59.67C17.93 61.62 15.93 68.53 11.93 67.84C12.28 69 12.68 70.14 13.11 71.25C14.19 67.67 17.71 66.37 19.84 65.04C19.15 67.12 18.4 74.22 14.4 74.29C14.93 75.45 15.52 76.59 16.14 77.7C16.82 73.93 20.26 72.29 22.29 70.7C22.04 72.87 22.36 80.21 17.83 80.47C18.48 81.47 19.16 82.47 19.88 83.41C20.01 79.52 23.23 77.41 25.05 75.59C25.05 77.79 26.4 85.08 21.87 85.88C22.28 86.36 22.7 86.88 23.13 87.3C23.7633 87.9667 24.4133 88.6333 25.08 89.3C24.59 85.48 27.4 82.88 28.88 80.8C29.29 82.96 31.8 89.94 27.45 91.48C28.45 92.32 29.45 93.13 30.45 93.9C29.26 90.09 32 87.22 33 84.81C33.9 86.47 37.32 93.03 33.08 95.81C34.29 96.6 35.54 97.33 36.82 98.02C34.88 94.02 37.36 90.6 38.17 87.91C39.26 89.54 43.44 95.91 39.42 99.32C40.6867 99.9133 41.9767 100.453 43.29 100.94C40.84 97.43 42.55 93.72 42.82 90.94C44.21 92.32 49.56 97.83 46.25 101.94C51.77 103.62 55.85 103.94 61.47 106.57C66.83 104.01 71.25 103.57 76.63 102C73.21 97.93 78.63 92.37 80 91C80.27 93.78 82 97.55 79.43 101.1C80.82 100.6 82.18 100.04 83.5 99.43C79.31 96.1 83.5 89.57 84.65 87.93C85.48 90.67 88.03 94.14 85.9 98.25C87.26 97.53 88.6 96.76 89.9 95.92C85.44 93.19 88.9 86.51 89.84 84.83C90.93 87.3 93.74 90.25 92.3 94.29C93.44 93.45 94.56 92.57 95.63 91.65C91 90.24 93.58 83.08 94 80.89C95.52 83.03 98.44 85.71 97.76 89.71C98.98 88.53 100.15 87.29 101.25 86C96.43 85.41 97.79 77.91 97.83 75.67C99.7 77.55 103.06 79.73 103 83.83C103.81 82.77 104.58 81.68 105.31 80.55C100.51 80.55 100.84 72.99 100.59 70.78C102.68 72.38 106.28 74.08 106.8 78.1C107.467 76.8733 108.133 75.6133 108.8 74.32C104.56 74.57 103.8 67.21 103.09 65.08C105.3 66.46 109 67.81 109.93 71.69C110.43 70.43 110.93 69.13 111.29 67.82C107.06 68.9 105 61.7 104 59.71C106.47 60.71 110.47 61.42 112 65.32C112.39 63.76 112.71 62.18 112.95 60.57C109 62 106 55.28 104.69 53.47C107.22 54.12 111.15 54.28 113.22 57.7C113.34 56.42 113.4 55.12 113.42 53.82C109.71 55.82 105.87 49.52 104.33 47.9C106.93 48.2 110.87 47.83 113.33 50.98C113.33 50.2 113.28 49.42 113.18 48.64C113.11 47.93 113.04 47.23 112.94 46.53C109.66 48.72 105.19 43.34 103.5 42.02C105.99 41.94 109.63 41.02 112.5 43.55C112.25 42.2 111.94 40.88 111.58 39.55C108.58 42.26 103.52 37.41 101.69 36.3C104.15 35.93 107.69 34.63 110.69 36.81C110.152 35.2232 109.535 33.6646 108.84 32.14C106.26 35.56 99.84 31.44 98.61 30.34C101.02 29.67 104.38 27.92 107.73 29.86C107.27 28.97 106.73 28.09 106.27 27.22C106.05 26.86 105.84 26.51 105.61 26.16C103.71 29.53 97.44 26.75 95.38 26.32C97.57 25.16 100.38 22.76 104.06 23.83C103.34 22.83 102.58 21.83 101.79 20.83C100.35 24.53 93.71 22.42 91.59 22.22C93.65 20.81 96.25 18.08 100.03 18.81C98.853 17.5213 97.6114 16.293 96.31 15.13C95.31 18.91 88.51 17.7 86.4 17.78C88.23 16.15 90.4 13.18 94.11 13.28C93.3 12.64 92.48 12.02 91.63 11.42C91.05 15.31 84.14 14.82 82.05 15.12C83.69 13.3 85.54 10.12 89.24 9.84L88.8 9.56C88.16 9.17 87.53 8.8 86.9 8.46L87 8.53Z" />
</svg>
